<svg xmlns="http://www.w3.org/2000/svg" viewBox="0 0 1539.9 2042.1"><defs><style>.cls-1{fill:#b4e1e5;}.cls-2{fill:#c4e6e9;}.cls-3{fill:#ffdf78;}.cls-4{fill:#fff18c;}.cls-5{fill:#92cdd0;}.cls-6{fill:#7fc8cb;}.cls-7{fill:#629b42;}.cls-8{fill:#70ac43;}.cls-9{fill:#f7e072;}.cls-10{fill:#eed463;}.cls-11{fill:#8fc857;}.cls-12{fill:#7bc043;}.cls-13{fill:#58595b;}.cls-14{fill:#6d6e70;}.cls-15{fill:#d8884a;}.cls-16{fill:#e8955d;}.cls-17{fill:#6ca743;}.cls-18{fill:#73aa4f;}.cls-19{fill:#5a8e3f;}.cls-20{fill:#75625e;}.cls-21{fill:#5f4c46;}.cls-22{fill:#82ae4a;}.cls-23{fill:#9bc05a;}.cls-24{fill:#789f3f;}.cls-25{fill:#90bd5c;}.cls-26{fill:#a4cd6e;}.cls-27{fill:#f1f1f2;}.cls-28{fill:#e6e7e8;}.cls-29{fill:#f9a83b;}.cls-30{fill:#fcc683;}.cls-31{fill:#dc4f7a;}.cls-32{fill:#cf2257;}</style></defs><title>Background</title><g id="BACKGROUND"><rect class="cls-1" x="2" width="1535.5" height="2042.11"/></g><g id="OBJECTS"><rect class="cls-1" y="210.6" width="1539.9" height="1539.95"/><polygon class="cls-2" points="1539.9 376.5 0 461.1 0 298.7 1539.9 298.7 1539.9 376.5"/><polygon class="cls-2" points="1539.9 537.9 53.4 569.3 1539.9 597.5 1539.9 537.9"/><polygon class="cls-2" points="0 508.5 0 526.7 1539.9 473.6 1539.9 406.7 0 508.5"/><circle class="cls-3" cx="766" cy="882.9" r="169.2" transform="translate(-396 794.4) rotate(-45)"/><circle class="cls-4" cx="770" cy="877" r="120"/><path class="cls-5" d="M807.6,1196.4a59.6,59.6,0,0,0-28.8,7.4,122.6,122.6,0,0,0-96.9-65.3,123.4,123.4,0,0,0,2.5-24.5,122,122,0,0,0-188.9-101.9,76.4,76.4,0,0,0-76-68.2,77.2,77.2,0,0,0-27.2,5,110.8,110.8,0,0,0-207.6-37.4,61.1,61.1,0,0,0-74.4,4.3,97.2,97.2,0,0,0-81.9-45,96.2,96.2,0,0,0-32.3,5.6v740.8H866.7V1255.5A59,59,0,0,0,807.6,1196.4Z" transform="translate(3.9 -5.9)"/><path class="cls-5" d="M1430.6,1042a79.1,79.1,0,0,0-127.7,39.2,162.2,162.2,0,0,0-194.6,99.8,82.3,82.3,0,0,0-130.9,66.5v369.7H1536V967.4A153.9,153.9,0,0,0,1430.6,1042Z" transform="translate(3.9 -5.9)"/><path class="cls-6" d="M1536,1112.7l-17.5,2c-26.6,3.2-57.4,9.8-92.3,16.3s-84.2-38.8-149.9-25.7-37,96.9-143.8,116.5-203.2,9.9-268.9,11.5-85-42-119.9-53.5-52.6,11.3-87.5,3.1-16.2-30.4-44.9-30.4-22.9-12.9-63.9-11.3-41.1-8.1-80.1-13-34.9,13-67.8,19.6-36.9,3.3-71.8-3.3-32.9-13.1-74-32.7-51.3-1.6-125.2,4.9c-71.3,6.3-70-4.1-132.4-12.2v348.4H1536Z" transform="translate(3.9 -5.9)"/><path class="cls-7" d="M1536,1204.5h-18.4C936,1204.5,404.1,1308.4-3.9,1414v203.2H1536Z" transform="translate(3.9 -5.9)"/><path class="cls-8" d="M1536,1416.9c-371.8-75.3-820.1-152.6-1302.6-152.6q-120.1,0-237.3,3.6v488.5H1536Z" transform="translate(3.9 -5.9)"/><path class="cls-9" d="M630.5,1486.8l-9.2-102.6s-72.5-66.9-195.7-115.9l-26-1C433.5,1285.4,563.1,1360.8,630.5,1486.8Z" transform="translate(3.9 -5.9)"/><path class="cls-10" d="M415.9,1267.9c18.7,8.2,57,26,93.5,50.6,43,28.9,94,71.8,114,88.9l-2.1-23.2s-72.5-66.9-195.7-115.9Z" transform="translate(3.9 -5.9)"/><path class="cls-11" d="M1536,1346.1q-154.1-12.1-314-12.3c-449.9,0-869.9,74.7-1225.9,204V2048H1536Z" transform="translate(3.9 -5.9)"/><path class="cls-12" d="M366.7,1428.7c202.6-25.2,451.1-47.6,581-27.1,242.3,38.1-51.3,72.8-34.9,159.6s278.6-22.3,386,83.3c118.1,116-95,260.6,105.7,346.9L1536,2048V1346.1q-154.1-12.1-314-12.3C920,1333.8,631.5,1367.5,366.7,1428.7Z" transform="translate(3.9 -5.9)"/><rect class="cls-13" x="1227.4" y="1281.6" width="8" height="79.16"/><rect class="cls-13" x="1008.5" y="1281.6" width="8" height="79.16"/><polygon class="cls-13" points="999.5 1369.2 999.5 1422.7 1002.4 1425.4 1005.1 1422.7 1005.1 1369.2 999.5 1369.2"/><rect class="cls-14" x="996.8" y="1371.9" width="5.6" height="53.52"/><polygon class="cls-13" points="1244.5 1369.2 1244.5 1422.7 1241.6 1425.4 1238.9 1422.7 1238.9 1369.2 1244.5 1369.2"/><rect class="cls-14" x="1237.6" y="1377.7" width="5.6" height="53.52" transform="translate(2484.8 2803.1) rotate(180)"/><polygon class="cls-13" points="1011 1365.1 1011 1410.6 1013.5 1412.8 1015.8 1410.6 1015.8 1365.1 1011 1365.1"/><rect class="cls-14" x="1008.7" y="1367.3" width="4.8" height="45.54"/><polygon class="cls-13" points="1233 1365.1 1233 1410.6 1230.5 1412.8 1228.2 1410.6 1228.2 1365.1 1233 1365.1"/><rect class="cls-14" x="1226.5" y="1373.2" width="4.8" height="45.54" transform="translate(2461.8 2786.1) rotate(180)"/><rect class="cls-15" x="996.1" y="1361.4" width="251.8" height="4.04"/><path class="cls-15" d="M999.1,1308.5H1237a3.6,3.6,0,0,1,3.6,3.6v10a3.6,3.6,0,0,1-3.6,3.6H999.1a3.6,3.6,0,0,1-3.6-3.6v-10A3.7,3.7,0,0,1,999.1,1308.5Z" transform="translate(2240 2628.3) rotate(180)"/><circle class="cls-13" cx="1231.4" cy="1311.2" r="2.3"/><circle class="cls-14" cx="1231.4" cy="1311.2" r="1.9"/><circle class="cls-13" cx="1012.5" cy="1311.2" r="2.3"/><circle class="cls-14" cx="1012.5" cy="1311.2" r="1.9"/><path class="cls-16" d="M1112.6,1308.5h-99.1c12.1,5.1,24.6,9.1,49.5,8C1081.9,1315.7,1098.1,1312.2,1112.6,1308.5Z" transform="translate(3.9 -5.9)"/><path class="cls-16" d="M1162.5,1313.7c-23.1.3-35.2,7.2-50.3,12h107.9C1202,1321.1,1186.2,1313.5,1162.5,1313.7Z" transform="translate(3.9 -5.9)"/><rect class="cls-15" x="999.4" y="1275.7" width="245.2" height="17.27" rx="3.6" ry="3.6"/><circle class="cls-13" cx="1012.5" cy="1284.3" r="2.3"/><circle class="cls-14" cx="1012.5" cy="1284.3" r="1.9"/><circle class="cls-13" cx="1231.4" cy="1284.3" r="2.3"/><circle class="cls-14" cx="1231.4" cy="1284.3" r="1.9"/><path class="cls-16" d="M1123.4,1298.9h99.2c-12.2-5.2-24.7-9.2-49.5-8.1A236.6,236.6,0,0,0,1123.4,1298.9Z" transform="translate(3.9 -5.9)"/><path class="cls-16" d="M1073.6,1293.6c23.1-.3,35.2-7.2,50.2-12H1016C1034,1286.2,1049.9,1293.8,1073.6,1293.6Z" transform="translate(3.9 -5.9)"/><path class="cls-15" d="M1003,1329.4h237.9a3.6,3.6,0,0,1,3.6,3.6v10a3.7,3.7,0,0,1-3.7,3.7H1003a3.6,3.6,0,0,1-3.6-3.6v-10A3.6,3.6,0,0,1,1003,1329.4Z"/><circle class="cls-13" cx="1012.5" cy="1338.1" r="2.3"/><circle class="cls-14" cx="1012.5" cy="1338.1" r="1.9"/><circle class="cls-13" cx="1231.4" cy="1338.1" r="2.3"/><circle class="cls-14" cx="1231.4" cy="1338.1" r="1.9"/><path class="cls-16" d="M1123.4,1352.6h99.2c-12.2-5.2-24.7-9.2-49.5-8.1A236.6,236.6,0,0,0,1123.4,1352.6Z" transform="translate(3.9 -5.9)"/><path class="cls-16" d="M1073.6,1347.3c23.1-.3,35.2-7.2,50.2-12H1016C1034,1339.9,1049.9,1347.5,1073.6,1347.3Z" transform="translate(3.9 -5.9)"/><rect class="cls-15" x="990.1" y="1368.6" width="265.6" height="6.67"/><polygon class="cls-16" points="994.3 1363.6 990.1 1368.6 1255.7 1368.6 1251.5 1363.6 994.3 1363.6"/><polygon class="cls-16" points="1247.9 1361.4 1244.6 1357.5 999.4 1357.5 996.1 1361.4 1247.9 1361.4"/><path class="cls-13" d="M1002.7,1365.4c0,.4-.7.8-1.7.8s-1.7-.4-1.7-.8.8-.7,1.7-.7S1002.7,1365,1002.7,1365.4Z" transform="translate(3.9 -5.9)"/><ellipse class="cls-14" cx="1005" cy="1359.5" rx="1.4" ry="0.6"/><path class="cls-13" d="M1235.4,1365.4c0,.4-.8.8-1.7.8s-1.7-.4-1.7-.8.8-.7,1.7-.7S1235.4,1365,1235.4,1365.4Z" transform="translate(3.9 -5.9)"/><path class="cls-14" d="M1235.1,1365.4c0,.4-.6.6-1.4.6s-1.4-.2-1.4-.6.6-.6,1.4-.6S1235.1,1365.1,1235.1,1365.4Z" transform="translate(3.9 -5.9)"/><path class="cls-13" d="M997.7,1371.8c0,.4-.8.8-1.8.8s-1.8-.4-1.8-.8.8-.7,1.8-.7S997.7,1371.4,997.7,1371.8Z" transform="translate(3.9 -5.9)"/><path class="cls-14" d="M997.4,1371.8c0,.4-.7.6-1.5.6s-1.5-.2-1.5-.6.7-.6,1.5-.6S997.4,1371.5,997.4,1371.8Z" transform="translate(3.9 -5.9)"/><path class="cls-13" d="M1242,1371.8c0,.4-.8.8-1.8.8s-1.8-.4-1.8-.8.8-.7,1.8-.7S1242,1371.4,1242,1371.8Z" transform="translate(3.9 -5.9)"/><path class="cls-14" d="M1241.6,1371.8c0,.4-.6.6-1.4.6s-1.5-.2-1.5-.6.6-.6,1.5-.6S1241.6,1371.5,1241.6,1371.8Z" transform="translate(3.9 -5.9)"/><path class="cls-9" d="M396.3,1420.7q-109.5,24.3-213.5,54.9c-50.5,155.1-80.9,443-83,572.4H786.2c-33.1-19-67-39.4-101.4-61.3C392.9,1800.3,386,1520.7,396.3,1420.7Z" transform="translate(3.9 -5.9)"/><path class="cls-17" d="M-3.9,1267.9v186.3c26.1-37.2,86.2-76.5,165.5-62.6,66.1,11.6,126-19,139.4-53.9s87.4-20.4,87.4-50c0-12.9-16.4-21.3-16.4-21.3-45.8-1.4-92.1-2.1-138.6-2.1Q113.3,1264.3-3.9,1267.9Z" transform="translate(3.9 -5.9)"/><path class="cls-7" d="M297.6,1242.6a47.4,47.4,0,0,0-84.9-17.7,33.4,33.4,0,0,0,5.8,66.3,27.4,27.4,0,0,0,5-.4,47.3,47.3,0,0,0,51.5,2.6,27.8,27.8,0,1,0,22.6-50.8Z" transform="translate(3.9 -5.9)"/><path class="cls-18" d="M219.3,1224.4c9.5-14.5,25.5-18.9,25.5-18.9a47.2,47.2,0,0,0-32.1,19.4,33.5,33.5,0,0,0-27.4,28.6,42.1,42.1,0,0,1,57.9-18.1A33.2,33.2,0,0,0,219.3,1224.4Z" transform="translate(3.9 -5.9)"/><path class="cls-19" d="M297.6,1242.6a47.4,47.4,0,0,0-42.1-37.3c33.1,9.4,36.7,40.7,36.7,40.7,9.4,3.7,16.1,12,15.1,21.8-1.7,14.5-13.3,21.4-22.4,20.9a25.4,25.4,0,0,1-11.3-2.7c-6.3,3.7-17.4,6.2-25.2,6.2a40.9,40.9,0,0,1-24.6-7.7l-1.6.2-3,.2h-1.6c-8.9-.3-25.1-3.6-32.3-23.2a33.4,33.4,0,0,0,33.2,29.5,27.4,27.4,0,0,0,5-.4,47.3,47.3,0,0,0,51.5,2.6,27.8,27.8,0,1,0,22.6-50.8Z" transform="translate(3.9 -5.9)"/><path class="cls-20" d="M249,1250.3c-.9-.7-3.4-.7-3.4-.7.4,3.2.6,11.4.7,16s.7,10.8-.3,13.4-3.7-1-4.6-2.8-6.1-12.7-6.1-12.7L233,1265s5.9,11.7,7.1,14.3,1.3,2.3,2.6,5.6,2.5,11,3.1,15.4a37.2,37.2,0,0,1-.2,8.8L243,1307v4.4l.7,1.1a10,10,0,0,1,1.7,5.6c.1,2.3.2,5.4.1,7s0,13.4,0,13.4h7.4s.6-31.5.6-37.6,8.2-22.9,8.2-22.9l-3.2-1.3s-4,12.5-5.8,13.5-2.5-13.8-2.5-18.5S249,1250.3,249,1250.3Z" transform="translate(3.9 -5.9)"/><path class="cls-21" d="M252.6,1290.2c-1.7,1-2.5-13.8-2.5-18.5s-1.1-21.4-1.1-21.4l-1.3-.5a33.6,33.6,0,0,1,.2,6.2c-.1,1.8.6,8.1.6,11.4s0,13.3.6,16.3a32.2,32.2,0,0,0,1.7,6.6C251.5,1291.7,252.6,1290.2,252.6,1290.2Z" transform="translate(3.9 -5.9)"/><path class="cls-21" d="M246,1279c-1.3,3.1-3.7-1-4.6-2.8s-6.1-12.7-6.1-12.7l-1,.6c1.1,2.1,4,8.9,4.7,10.6s3.2,6.1,4.4,6.7a2.4,2.4,0,0,0,3.1-1.6,18.9,18.9,0,0,0,.1-4.9A13.7,13.7,0,0,1,246,1279Z" transform="translate(3.9 -5.9)"/><path class="cls-21" d="M260.2,1277.4c-.4,1.4-1.5,3.8-2.6,6.4s-4.2,7.4-5,10.3-1.7,8.2-2,21.8c-.2,8.8.5,17,.5,22.6h1.7s.6-31.5.6-37.6,8.2-22.9,8.2-22.9Z" transform="translate(3.9 -5.9)"/><path class="cls-21" d="M243,1308c.9,1.2,2.6,2.9,2.6,1.1L243,1307Z" transform="translate(3.9 -5.9)"/><path class="cls-22" d="M179.8,1114.3a39.7,39.7,0,0,1-39.4-34.8A85.2,85.2,0,0,0,116,1076a88.5,88.5,0,1,0,72.2,37.3A38.6,38.6,0,0,1,179.8,1114.3Z" transform="translate(3.9 -5.9)"/><path class="cls-23" d="M128.8,1076.9a89.7,89.7,0,0,0-12.8-.9,88.4,88.4,0,0,0-88.4,88.5,68.5,68.5,0,0,0,.5,9.1C38.3,1102.4,88.2,1084,128.8,1076.9Z" transform="translate(3.9 -5.9)"/><path class="cls-24" d="M179.8,1114.3a28.6,28.6,0,0,1-4.2-.3A88.5,88.5,0,0,1,63.2,1235.4a88.4,88.4,0,0,0,125-122A46,46,0,0,1,179.8,1114.3Z" transform="translate(3.9 -5.9)"/><path class="cls-20" d="M110.8,1161.9s2,66,6.5,67.2,18-31.2,18-31.2l3.6,6.1s-16.4,33.2-19,48.4,0,78,0,78H105s4.2-65.8,3.6-83.5-5.5-42.3-5.2-53.2-.9-26.7-.9-26.7Z" transform="translate(3.9 -5.9)"/><path class="cls-21" d="M138.9,1204l-1.1-1.9c-1,1.5-2,3.3-2.9,5-1.9,4-9.1,19.3-12.7,27.4s-7.2,15.6-6.9,30.5c.2,12.2-.1,51.9-.3,65.4h4.9s-2.6-62.9,0-78S138.9,1204,138.9,1204Z" transform="translate(3.9 -5.9)"/><path class="cls-21" d="M116.6,1230.9a15.2,15.2,0,0,0,2.2-2.2c-.6.4-1.1.6-1.5.4-4.5-1.2-6.5-67.2-6.5-67.2l-4.4,2.7C107.1,1180.4,109.7,1236.3,116.6,1230.9Z" transform="translate(3.9 -5.9)"/><path class="cls-24" d="M129.4,1094.8a4,4,0,1,1-4-4A4,4,0,0,1,129.4,1094.8Z" transform="translate(3.9 -5.9)"/><circle class="cls-24" cx="153.8" cy="1111.6" r="7.9"/><path class="cls-24" d="M98.6,1118.3a12.1,12.1,0,1,1-12-12.1A12.1,12.1,0,0,1,98.6,1118.3Z" transform="translate(3.9 -5.9)"/><path class="cls-19" d="M914.4,1239.9c35.8,13.6,48,42.3,147.3,35.4,134-9.2,157.1-52.3,215.6-13.8s77,47.7,170.9,36.9c31.4-3.6,61.5-3,87.8-.7v-93.2h-18.4C1309,1204.5,1106.8,1217.9,914.4,1239.9Z" transform="translate(3.9 -5.9)"/><path class="cls-25" d="M1448.4,1045.4a171.2,171.2,0,0,0-306.7-63.8,120.7,120.7,0,0,0,20.8,239.7,123.2,123.2,0,0,0,18.3-1.6,170.7,170.7,0,0,0,186.1,9.3,100.6,100.6,0,1,0,81.5-183.6Z" transform="translate(3.9 -5.9)"/><path class="cls-26" d="M1165.4,979.8c34.5-52.4,92.5-68.3,92.5-68.3a170.8,170.8,0,0,0-116.1,70,120.8,120.8,0,0,0-98.9,103.3,151.5,151.5,0,0,1,208.9-65.5A120.3,120.3,0,0,0,1165.4,979.8Z" transform="translate(3.9 -5.9)"/><path class="cls-22" d="M1448.4,1045.4a171.3,171.3,0,0,0-152.2-134.9C1416,944.8,1429,1057.9,1429,1057.9c34,13.1,58.4,43.3,54.5,78.5-5.9,52.4-48.1,77.4-80.8,75.9-14.7-.7-28.5-3.6-40.8-9.8-22.8,13.2-62.8,22.4-91.1,22.4-33.7,0-63.7-9.5-89.1-27.9a55,55,0,0,1-5.6.7,98.1,98.1,0,0,1-10.9.7l-5.8-.2c-32.2-.9-90.7-12.9-116.8-83.7a120.7,120.7,0,0,0,119.9,106.8,123.2,123.2,0,0,0,18.3-1.6,170.7,170.7,0,0,0,186.1,9.3,100.6,100.6,0,1,0,81.5-183.6Z" transform="translate(3.9 -5.9)"/><path class="cls-22" d="M1299.5,938.9c-5.1,0-5.1,7.9,0,7.9S1304.6,938.9,1299.5,938.9Z" transform="translate(3.9 -5.9)"/><path class="cls-22" d="M1352.9,970.5c-10.1,0-10.2,15.8,0,15.8S1363.1,970.5,1352.9,970.5Z" transform="translate(3.9 -5.9)"/><path class="cls-22" d="M1395.1,1041.7c-10.1,0-10.2,15.8,0,15.8S1405.3,1041.7,1395.1,1041.7Z" transform="translate(3.9 -5.9)"/><path class="cls-22" d="M1442,1123.5c-10.2,0-10.2,15.8,0,15.8S1452.2,1123.5,1442,1123.5Z" transform="translate(3.9 -5.9)"/><path class="cls-22" d="M1112.9,1134.7c-12.7,0-12.7,19.8,0,19.8S1125.7,1134.7,1112.9,1134.7Z" transform="translate(3.9 -5.9)"/><path class="cls-22" d="M1331.2,1100.4c-12.7,0-12.8,19.8,0,19.8S1343.9,1100.4,1331.2,1100.4Z" transform="translate(3.9 -5.9)"/><path class="cls-20" d="M1273,1073.4c-3.5-2.7-12.4-2.7-12.4-2.7,1.3,11.7,2,41.3,2.7,57.9s2.5,39-1.4,48.6-13.2-3.6-16.5-10.4l-22.1-45.8-8.2,5.5s21.3,42.1,25.5,51.7,4.8,8.3,9.6,20,9,40,11.1,55.9-.6,31.7-.6,31.7l-9.4-7.4-.4,15.6,2.5,4a41,41,0,0,1,6.3,20.2c.3,8.4.6,19.6.2,25.5-.7,10.3,0,48.3,0,48.3h26.9s2-113.8,2-135.9,29.7-82.7,29.7-82.7l-11.7-4.8s-14.5,45.5-20.7,48.9-9.1-49.7-9.1-66.9S1273,1073.4,1273,1073.4Z" transform="translate(3.9 -5.9)"/><path class="cls-21" d="M1286.1,1217.5c-6.2,3.5-9.1-49.7-9.1-66.9s-4-77.2-4-77.2a12.9,12.9,0,0,0-4.9-1.9c1.3,6.9,1.3,17.5.9,22.3-.5,6.7,2.1,29.4,2.1,41.3s.1,48.2,2.2,58.8,3.5,18.8,6.1,24S1286.1,1217.5,1286.1,1217.5Z" transform="translate(3.9 -5.9)"/><path class="cls-21" d="M1261.9,1177.2c-4.4,11-13.2-3.6-16.5-10.4l-22.1-45.8-3.4,2.3c4,7.6,14.3,32.1,16.7,38s11.6,22.3,16,24.5,10.5-2.1,11.4-6,.8-11.3.3-17.6C1264,1168.3,1263.4,1173.6,1261.9,1177.2Z" transform="translate(3.9 -5.9)"/><path class="cls-21" d="M1313.2,1171.2c-1.3,5.2-5.3,13.7-9.2,23.2-4.9,11.9-15.1,26.7-17.9,37.1s-6.4,29.8-7.4,78.8c-.7,32,1.7,61.5,2,81.7h6.1s2-113.8,2-135.9,29.7-82.7,29.7-82.7Z" transform="translate(3.9 -5.9)"/><path class="cls-21" d="M1251.2,1281.9c3.4,4.3,9.3,10.5,9.5,3.9l-9.4-7.4Z" transform="translate(3.9 -5.9)"/><rect class="cls-13" x="191.7" y="1300.7" width="1.9" height="18.52"/><rect class="cls-13" x="140.5" y="1300.7" width="1.9" height="18.52"/><polygon class="cls-13" points="138.3 1321.2 138.3 1333.8 139 1334.4 139.7 1333.8 139.7 1321.2 138.3 1321.2"/><rect class="cls-14" x="137.7" y="1321.9" width="1.3" height="12.52"/><polygon class="cls-13" points="195.7 1321.2 195.7 1333.8 195 1334.4 194.4 1333.8 194.4 1321.2 195.7 1321.2"/><rect class="cls-14" x="191.1" y="1327.7" width="1.3" height="12.52" transform="translate(387.4 2662.1) rotate(180)"/><polygon class="cls-13" points="141 1320.3 141 1330.9 141.6 1331.4 142.2 1330.9 142.2 1320.3 141 1320.3"/><rect class="cls-14" x="140.5" y="1320.8" width="1.1" height="10.66"/><polygon class="cls-13" points="193 1320.3 193 1330.9 192.4 1331.4 191.9 1330.9 191.9 1320.3 193 1320.3"/><rect class="cls-14" x="188.5" y="1326.7" width="1.1" height="10.66" transform="translate(382 2658.1) rotate(180)"/><rect class="cls-15" x="137.6" y="1319.4" width="58.9" height="0.95"/><rect class="cls-15" x="134.4" y="1311.5" width="57.4" height="4.04" rx="0.9" ry="0.9" transform="translate(330.1 2621.2) rotate(180)"/><path class="cls-13" d="M188.1,1313.5a.6.6,0,0,1,.6-.5.5.5,0,0,1,.5.5.6.6,0,0,1-.5.6A.6.6,0,0,1,188.1,1313.5Z" transform="translate(3.9 -5.9)"/><path class="cls-14" d="M188.2,1313.5a.5.5,0,0,1,.5-.4.4.4,0,0,1,.4.4.5.5,0,0,1-.4.5A.5.5,0,0,1,188.2,1313.5Z" transform="translate(3.9 -5.9)"/><path class="cls-13" d="M136.9,1313.5c0-.3.2-.5.6-.5a.5.5,0,0,1,.5.5.6.6,0,0,1-.5.6A.6.6,0,0,1,136.9,1313.5Z" transform="translate(3.9 -5.9)"/><path class="cls-14" d="M137,1313.5a.5.5,0,0,1,.5-.4.4.4,0,0,1,.4.4.5.5,0,0,1-.4.5A.5.5,0,0,1,137,1313.5Z" transform="translate(3.9 -5.9)"/><path class="cls-16" d="M161.8,1311.5H138.6a23.1,23.1,0,0,0,11.6,1.9A54,54,0,0,0,161.8,1311.5Z" transform="translate(3.9 -5.9)"/><path class="cls-16" d="M173.5,1312.8c-5.4,0-8.3,1.7-11.8,2.8H187C182.7,1314.5,179,1312.7,173.5,1312.8Z" transform="translate(3.9 -5.9)"/><rect class="cls-15" x="138.3" y="1299.4" width="57.4" height="4.04" rx="0.9" ry="0.9"/><path class="cls-13" d="M138,1307.3a.5.5,0,0,1-.5.5c-.4,0-.6-.2-.6-.5a.6.6,0,0,1,.6-.6A.6.6,0,0,1,138,1307.3Z" transform="translate(3.9 -5.9)"/><path class="cls-14" d="M137.9,1307.3a.4.4,0,0,1-.4.4.5.5,0,0,1-.5-.4.5.5,0,0,1,.5-.5A.5.5,0,0,1,137.9,1307.3Z" transform="translate(3.9 -5.9)"/><path class="cls-13" d="M189.2,1307.3a.5.5,0,0,1-.5.5.6.6,0,0,1-.6-.5.6.6,0,0,1,.6-.6A.6.6,0,0,1,189.2,1307.3Z" transform="translate(3.9 -5.9)"/><path class="cls-14" d="M189.1,1307.3a.4.4,0,0,1-.4.4.5.5,0,0,1-.5-.4.5.5,0,0,1,.5-.5A.5.5,0,0,1,189.1,1307.3Z" transform="translate(3.9 -5.9)"/><path class="cls-16" d="M164.3,1309.3h23.2c-2.8-1.2-5.7-2.2-11.5-1.9A54,54,0,0,0,164.3,1309.3Z" transform="translate(3.9 -5.9)"/><path class="cls-16" d="M152.7,1308c5.4,0,8.2-1.6,11.7-2.8H139.2C143.4,1306.3,147.1,1308.1,152.7,1308Z" transform="translate(3.9 -5.9)"/><rect class="cls-15" x="138.3" y="1311.9" width="57.4" height="4.04" rx="0.9" ry="0.9"/><path class="cls-13" d="M138,1319.8a.6.6,0,0,1-.5.6.6.6,0,0,1-.6-.6c0-.3.2-.5.6-.5A.5.5,0,0,1,138,1319.8Z" transform="translate(3.9 -5.9)"/><path class="cls-14" d="M137.9,1319.8a.5.5,0,0,1-.4.5.5.5,0,0,1-.5-.5.5.5,0,0,1,.5-.4A.4.4,0,0,1,137.9,1319.8Z" transform="translate(3.9 -5.9)"/><path class="cls-13" d="M189.2,1319.8a.6.6,0,0,1-.5.6.6.6,0,0,1-.6-.6.6.6,0,0,1,.6-.5A.5.5,0,0,1,189.2,1319.8Z" transform="translate(3.9 -5.9)"/><path class="cls-14" d="M189.1,1319.8a.5.5,0,0,1-.4.5.5.5,0,0,1-.5-.5.5.5,0,0,1,.5-.4A.4.4,0,0,1,189.1,1319.8Z" transform="translate(3.9 -5.9)"/><path class="cls-16" d="M164.3,1321.9h23.2c-2.8-1.3-5.7-2.2-11.5-1.9A54,54,0,0,0,164.3,1321.9Z" transform="translate(3.9 -5.9)"/><path class="cls-16" d="M152.7,1320.6c5.4,0,8.2-1.7,11.7-2.8H139.2C143.4,1318.9,147.1,1320.7,152.7,1320.6Z" transform="translate(3.9 -5.9)"/><rect class="cls-15" x="136.2" y="1321.1" width="62.2" height="1.56"/><polygon class="cls-16" points="137.1 1319.9 136.2 1321.1 198.3 1321.1 197.3 1319.9 137.1 1319.9"/><polygon class="cls-16" points="196.5 1319.4 195.7 1318.5 138.3 1318.5 137.6 1319.4 196.5 1319.4"/><ellipse class="cls-13" cx="139.6" cy="1319" rx="0.4" ry="0.2"/><path class="cls-14" d="M136,1324.9h-.6c0-.1.1-.2.3-.2S136,1324.8,136,1324.9Z" transform="translate(3.9 -5.9)"/><ellipse class="cls-13" cx="194.1" cy="1319" rx="0.4" ry="0.2"/><path class="cls-14" d="M190.5,1324.9h-.7c0-.1.2-.2.3-.2S190.5,1324.8,190.5,1324.9Z" transform="translate(3.9 -5.9)"/><path class="cls-13" d="M134.9,1326.4h-.8c0-.1.2-.2.4-.2S134.9,1326.3,134.9,1326.4Z" transform="translate(3.9 -5.9)"/><path class="cls-14" d="M134.8,1326.4h-.7c0-.1.2-.2.4-.2S134.8,1326.3,134.8,1326.4Z" transform="translate(3.9 -5.9)"/><path class="cls-13" d="M192.1,1326.4h-.9c0-.1.2-.2.5-.2S192.1,1326.3,192.1,1326.4Z" transform="translate(3.9 -5.9)"/><path class="cls-14" d="M192,1326.4h-.7c0-.1.2-.2.4-.2S192,1326.3,192,1326.4Z" transform="translate(3.9 -5.9)"/><path class="cls-19" d="M1391.8,1419.2c-.4-26.5.9-39.8.9-40h-.8c0,.2-1.4,13.5-1,40.1Z" transform="translate(3.9 -5.9)"/><path class="cls-19" d="M1383.9,1393.7a60.2,60.2,0,0,1,3.8,12.5,115.3,115.3,0,0,1,1.6,13h3.5a.4.4,0,0,1-.1-.3,96.7,96.7,0,0,0-2.8-13.2,57.1,57.1,0,0,0-5-12.6c-2.2-3.9-5.1-7.5-9.1-9.6C1379.6,1385.9,1382.1,1389.7,1383.9,1393.7Z" transform="translate(3.9 -5.9)"/><path class="cls-27" d="M1395.7,1365.6c0,3.9-1.7,7.1-3.8,7.1s-3.8-3.2-3.8-7.1,1.7-7,3.8-7S1395.7,1361.7,1395.7,1365.6Z" transform="translate(3.9 -5.9)"/><path class="cls-28" d="M1391.9,1358.6v14.1c2.1,0,3.8-3.2,3.8-7.1S1394,1358.6,1391.9,1358.6Z" transform="translate(3.9 -5.9)"/><path class="cls-27" d="M1388.1,1379.3c0,3.9,1.7,7,3.8,7s3.8-3.1,3.8-7-1.7-7.1-3.8-7.1S1388.1,1375.4,1388.1,1379.3Z" transform="translate(3.9 -5.9)"/><path class="cls-28" d="M1391.9,1372.2v14.1c-2.1,0-3.8-3.1-3.8-7S1389.8,1372.2,1391.9,1372.2Z" transform="translate(3.9 -5.9)"/><path class="cls-27" d="M1398.8,1376.3c-3.9,0-7.1-1.7-7.1-3.9s3.2-3.8,7.1-3.8,7,1.7,7,3.8S1402.7,1376.3,1398.8,1376.3Z" transform="translate(3.9 -5.9)"/><path class="cls-28" d="M1405.8,1372.4h-14.1c0,2.2,3.2,3.9,7.1,3.9S1405.8,1374.6,1405.8,1372.4Z" transform="translate(3.9 -5.9)"/><path class="cls-27" d="M1385.1,1368.6c-3.9,0-7.1,1.7-7.1,3.8s3.2,3.9,7.1,3.9,7-1.7,7-3.9S1389,1368.6,1385.1,1368.6Z" transform="translate(3.9 -5.9)"/><path class="cls-28" d="M1392.1,1372.4H1378c0-2.1,3.2-3.8,7.1-3.8S1392.1,1370.3,1392.1,1372.4Z" transform="translate(3.9 -5.9)"/><path class="cls-27" d="M1399.5,1370.3c-2.8,2.8-6.2,3.8-7.7,2.3s-.5-4.9,2.3-7.7,6.2-3.8,7.6-2.3S1402.2,1367.6,1399.5,1370.3Z" transform="translate(3.9 -5.9)"/><path class="cls-28" d="M1401.7,1362.6l-9.9,10c1.5,1.5,4.9.5,7.7-2.3S1403.2,1364.1,1401.7,1362.6Z" transform="translate(3.9 -5.9)"/><path class="cls-27" d="M1384.4,1374.6c-2.8,2.7-3.8,6.2-2.3,7.7s4.9.4,7.7-2.3,3.8-6.2,2.3-7.7S1387.2,1371.8,1384.4,1374.6Z" transform="translate(3.9 -5.9)"/><path class="cls-28" d="M1392.1,1372.3l-10,10c-1.5-1.5-.5-5,2.3-7.7S1390.6,1370.8,1392.1,1372.3Z" transform="translate(3.9 -5.9)"/><ellipse class="cls-27" cx="1396.8" cy="1377.3" rx="3.8" ry="7" transform="translate(-560.8 1385.2) rotate(-45)"/><path class="cls-28" d="M1401.7,1382.3l-9.9-10c-1.5,1.5-.5,4.9,2.3,7.7S1400.3,1383.8,1401.7,1382.3Z" transform="translate(3.9 -5.9)"/><path class="cls-27" d="M1389.8,1364.9c-2.8-2.7-6.2-3.8-7.7-2.3s-.5,5,2.3,7.7,6.2,3.8,7.7,2.3S1392.5,1367.7,1389.8,1364.9Z" transform="translate(3.9 -5.9)"/><path class="cls-28" d="M1392.1,1372.6l-10-10c1.5-1.5,4.9-.4,7.7,2.3S1393.6,1371.1,1392.1,1372.6Z" transform="translate(3.9 -5.9)"/><path class="cls-29" d="M1396.5,1372.4a4.6,4.6,0,1,1-4.6-4.5A4.5,4.5,0,0,1,1396.5,1372.4Z" transform="translate(3.9 -5.9)"/><path class="cls-30" d="M1395.6,1372.4a3.6,3.6,0,0,1-3.7,3.7,3.7,3.7,0,0,1-3.7-3.7,3.8,3.8,0,0,1,3.7-3.7A3.7,3.7,0,0,1,1395.6,1372.4Z" transform="translate(3.9 -5.9)"/><path class="cls-7" d="M1393.9,1419.2c0-1.2.1-2.3.2-3.5a82.3,82.3,0,0,1,3.1-16.3,66.8,66.8,0,0,1,6.4-15.4l2.2-3.6,2.6-3.3,1.3-1.7,1.4-1.5,3-3-3.2,2.8-1.5,1.4-1.5,1.6c-.9,1.1-1.9,2.1-2.7,3.2l-2.5,3.5a62.1,62.1,0,0,0-7.7,15.2,87.2,87.2,0,0,0-4.3,16.7l-.6,3.9Z" transform="translate(3.9 -5.9)"/><path class="cls-19" d="M35,1502.4c-.4-25.7.9-38.7.9-38.8h-.8c0,.2-1.3,13.1-.9,38.9Z" transform="translate(3.9 -5.9)"/><path class="cls-19" d="M27.4,1477.6a57.1,57.1,0,0,1,3.6,12.2,88.6,88.6,0,0,1,1.6,12.6H36a.4.4,0,0,0-.1-.3,90.9,90.9,0,0,0-2.7-12.8,58.4,58.4,0,0,0-4.8-12.2,22.2,22.2,0,0,0-8.9-9.3C23.2,1470.1,25.6,1473.8,27.4,1477.6Z" transform="translate(3.9 -5.9)"/><path class="cls-31" d="M38.9,1450.4c0,3.8-1.7,6.8-3.7,6.8s-3.7-3-3.7-6.8,1.6-6.8,3.7-6.8S38.9,1446.6,38.9,1450.4Z" transform="translate(3.9 -5.9)"/><path class="cls-32" d="M35.2,1443.6v13.6c2,0,3.7-3,3.7-6.8S37.2,1443.6,35.2,1443.6Z" transform="translate(3.9 -5.9)"/><path class="cls-31" d="M31.5,1463.7c0,3.7,1.6,6.8,3.7,6.8s3.7-3.1,3.7-6.8-1.7-6.9-3.7-6.9S31.5,1459.9,31.5,1463.7Z" transform="translate(3.9 -5.9)"/><path class="cls-32" d="M35.2,1456.8v13.7c-2.1,0-3.7-3.1-3.7-6.8S33.1,1456.8,35.2,1456.8Z" transform="translate(3.9 -5.9)"/><ellipse class="cls-31" cx="45.8" cy="1451.2" rx="6.8" ry="3.7"/><path class="cls-32" d="M48.6,1457H35c0,2.1,3,3.7,6.8,3.7S48.6,1459.1,48.6,1457Z" transform="translate(3.9 -5.9)"/><ellipse class="cls-31" cx="32.5" cy="1451.2" rx="6.8" ry="3.7"/><path class="cls-32" d="M35.4,1457H21.7c0-2,3.1-3.7,6.9-3.7S35.4,1455,35.4,1457Z" transform="translate(3.9 -5.9)"/><ellipse class="cls-31" cx="39.9" cy="1452.4" rx="6.8" ry="3.7" transform="translate(-1011.3 447.7) rotate(-45)"/><path class="cls-32" d="M44.7,1447.5l-9.7,9.7c1.5,1.4,4.8.4,7.5-2.2S46.1,1449,44.7,1447.5Z" transform="translate(3.9 -5.9)"/><path class="cls-31" d="M27.9,1459.1c-2.7,2.7-3.7,6-2.2,7.5s4.7.4,7.4-2.3,3.7-6,2.2-7.4S30.5,1456.4,27.9,1459.1Z" transform="translate(3.9 -5.9)"/><path class="cls-32" d="M35.3,1456.9l-9.6,9.7c-1.5-1.5-.5-4.8,2.2-7.5S33.9,1455.5,35.3,1456.9Z" transform="translate(3.9 -5.9)"/><path class="cls-31" d="M37.2,1464.3c-2.6-2.6-3.6-6-2.2-7.4s4.8-.5,7.5,2.2,3.6,6,2.2,7.5S39.9,1467,37.2,1464.3Z" transform="translate(3.9 -5.9)"/><path class="cls-32" d="M44.7,1466.6l-9.7-9.7c-1.4,1.4-.4,4.8,2.2,7.4S43.3,1468,44.7,1466.6Z" transform="translate(3.9 -5.9)"/><path class="cls-31" d="M33.1,1449.7c-2.7-2.6-6-3.6-7.4-2.2s-.5,4.8,2.2,7.5,6,3.6,7.4,2.2S35.8,1452.4,33.1,1449.7Z" transform="translate(3.9 -5.9)"/><path class="cls-32" d="M35.3,1457.2l-9.6-9.7c1.4-1.4,4.7-.4,7.4,2.2S36.8,1455.7,35.3,1457.2Z" transform="translate(3.9 -5.9)"/><circle class="cls-29" cx="39.1" cy="1451.2" r="4.4"/><circle class="cls-30" cx="39.1" cy="1451.2" r="3.6"/><path class="cls-7" d="M37.1,1502.4c0-1.1.1-2.3.2-3.4a94.7,94.7,0,0,1,2.9-15.9,71.6,71.6,0,0,1,6.3-14.8l2.2-3.5a38.1,38.1,0,0,1,2.4-3.2l1.3-1.7,1.4-1.4,2.9-3-3.1,2.8-1.5,1.4-1.4,1.5a40,40,0,0,0-2.7,3.1l-2.4,3.4a67.9,67.9,0,0,0-7.5,14.7,92.8,92.8,0,0,0-4.1,16.1l-.6,3.9Z" transform="translate(3.9 -5.9)"/><path class="cls-19" d="M844.5,1498.8c-.5-29,1-43.5,1-43.7h-.9c0,.2-1.5,14.8-1,43.8Z" transform="translate(3.9 -5.9)"/><path class="cls-19" d="M835.9,1470.9a63.7,63.7,0,0,1,4.1,13.7,112.3,112.3,0,0,1,1.7,14.2h3.8v-.4a114.9,114.9,0,0,0-3-14.4,67.7,67.7,0,0,0-5.5-13.7c-2.4-4.2-5.6-8.2-10-10.5C831.2,1462.4,833.9,1466.6,835.9,1470.9Z" transform="translate(3.9 -5.9)"/><path class="cls-27" d="M848.8,1440.3c0,4.2-1.9,7.7-4.2,7.7s-4.1-3.5-4.1-7.7,1.8-7.7,4.1-7.7S848.8,1436,848.8,1440.3Z" transform="translate(3.9 -5.9)"/><path class="cls-28" d="M844.6,1432.6V1448c2.3,0,4.2-3.5,4.2-7.7S846.9,1432.6,844.6,1432.6Z" transform="translate(3.9 -5.9)"/><path class="cls-27" d="M840.5,1455.2c0,4.2,1.8,7.7,4.1,7.7s4.2-3.5,4.2-7.7-1.9-7.7-4.2-7.7S840.5,1450.9,840.5,1455.2Z" transform="translate(3.9 -5.9)"/><path class="cls-28" d="M844.6,1447.5v15.4c-2.3,0-4.1-3.5-4.1-7.7S842.3,1447.5,844.6,1447.5Z" transform="translate(3.9 -5.9)"/><path class="cls-27" d="M852.1,1451.9c-4.2,0-7.7-1.9-7.7-4.2s3.5-4.1,7.7-4.1,7.7,1.8,7.7,4.1S856.3,1451.9,852.1,1451.9Z" transform="translate(3.9 -5.9)"/><path class="cls-28" d="M859.8,1447.7H844.4c0,2.3,3.5,4.2,7.7,4.2S859.8,1450,859.8,1447.7Z" transform="translate(3.9 -5.9)"/><path class="cls-27" d="M837.2,1443.6c-4.3,0-7.7,1.8-7.7,4.1s3.4,4.2,7.7,4.2,7.7-1.9,7.7-4.2S841.4,1443.6,837.2,1443.6Z" transform="translate(3.9 -5.9)"/><path class="cls-28" d="M844.9,1447.7H829.5c0-2.3,3.4-4.1,7.7-4.1S844.9,1445.4,844.9,1447.7Z" transform="translate(3.9 -5.9)"/><path class="cls-27" d="M852.9,1445.4c-3,3-6.8,4.1-8.4,2.5s-.5-5.4,2.5-8.4,6.7-4.1,8.4-2.5S855.9,1442.4,852.9,1445.4Z" transform="translate(3.9 -5.9)"/><path class="cls-28" d="M855.4,1437l-10.9,10.9c1.6,1.6,5.4.5,8.4-2.5S857,1438.7,855.4,1437Z" transform="translate(3.9 -5.9)"/><path class="cls-27" d="M836.4,1450.1c-3,3-4.1,6.7-2.5,8.3s5.4.6,8.4-2.4,4.1-6.8,2.5-8.4S839.4,1447.1,836.4,1450.1Z" transform="translate(3.9 -5.9)"/><path class="cls-28" d="M844.8,1447.6l-10.9,10.8c-1.6-1.6-.5-5.3,2.5-8.3S843.2,1446,844.8,1447.6Z" transform="translate(3.9 -5.9)"/><path class="cls-27" d="M847,1456c-3-3-4.1-6.8-2.5-8.4s5.4-.5,8.4,2.5,4.1,6.7,2.5,8.3S850,1459,847,1456Z" transform="translate(3.9 -5.9)"/><path class="cls-28" d="M855.4,1458.4l-10.9-10.8c-1.6,1.6-.5,5.4,2.5,8.4S853.7,1460.1,855.4,1458.4Z" transform="translate(3.9 -5.9)"/><path class="cls-27" d="M842.3,1439.5c-3-3-6.7-4.1-8.4-2.5s-.5,5.4,2.5,8.4,6.8,4.1,8.4,2.5S845.3,1442.5,842.3,1439.5Z" transform="translate(3.9 -5.9)"/><path class="cls-28" d="M844.8,1447.9,833.9,1437c1.7-1.6,5.4-.5,8.4,2.5S846.4,1446.3,844.8,1447.9Z" transform="translate(3.9 -5.9)"/><path class="cls-29" d="M849.6,1447.7a5,5,0,1,1-5-4.9A5,5,0,0,1,849.6,1447.7Z" transform="translate(3.9 -5.9)"/><path class="cls-30" d="M848.7,1447.7a4.1,4.1,0,1,1-8.1,0,4.1,4.1,0,0,1,8.1,0Z" transform="translate(3.9 -5.9)"/><path class="cls-7" d="M846.8,1498.8c0-1.3.1-2.6.2-3.9a107.3,107.3,0,0,1,3.3-17.8,72.4,72.4,0,0,1,7.1-16.7l2.4-3.9c.9-1.3,1.9-2.5,2.8-3.7l1.4-1.8,1.6-1.6,3.2-3.3-3.4,3c-.6.6-1.2,1-1.7,1.6l-1.6,1.7c-1,1.2-2.1,2.3-3,3.5l-2.8,3.8a78.4,78.4,0,0,0-8.4,16.6,104.4,104.4,0,0,0-4.6,18.1l-.6,4.4Z" transform="translate(3.9 -5.9)"/><path class="cls-19" d="M622.6,1416.3c-.5-30.4,1-45.7,1-45.8h-1c0,.1-1.5,15.4-1,45.9Z" transform="translate(3.9 -5.9)"/><path class="cls-19" d="M613.5,1387a59.8,59.8,0,0,1,4.3,14.4,123.8,123.8,0,0,1,1.9,14.9h4a.6.6,0,0,1-.1-.4,126.5,126.5,0,0,0-3.2-15.1,66.5,66.5,0,0,0-5.7-14.4c-2.5-4.5-5.9-8.7-10.5-11C608.6,1378.1,611.4,1382.5,613.5,1387Z" transform="translate(3.9 -5.9)"/><path class="cls-31" d="M627.1,1354.9c0,4.4-2,8-4.4,8s-4.4-3.6-4.4-8,2-8.1,4.4-8.1S627.1,1350.4,627.1,1354.9Z" transform="translate(3.9 -5.9)"/><path class="cls-32" d="M622.7,1346.8v16.1c2.4,0,4.4-3.6,4.4-8S625.1,1346.8,622.7,1346.8Z" transform="translate(3.9 -5.9)"/><path class="cls-31" d="M618.3,1370.5c0,4.5,2,8.1,4.4,8.1s4.4-3.6,4.4-8.1-2-8-4.4-8S618.3,1366.1,618.3,1370.5Z" transform="translate(3.9 -5.9)"/><path class="cls-32" d="M622.7,1362.5v16.1c-2.4,0-4.4-3.6-4.4-8.1S620.3,1362.5,622.7,1362.5Z" transform="translate(3.9 -5.9)"/><path class="cls-31" d="M630.5,1367.1c-4.4,0-8-2-8-4.4s3.6-4.4,8-4.4,8.1,2,8.1,4.4S635,1367.1,630.5,1367.1Z" transform="translate(3.9 -5.9)"/><path class="cls-32" d="M638.6,1362.7H622.5c0,2.4,3.6,4.4,8,4.4S638.6,1365.1,638.6,1362.7Z" transform="translate(3.9 -5.9)"/><path class="cls-31" d="M614.9,1358.3c-4.5,0-8.1,2-8.1,4.4s3.6,4.4,8.1,4.4,8.1-2,8.1-4.4S619.3,1358.3,614.9,1358.3Z" transform="translate(3.9 -5.9)"/><path class="cls-32" d="M623,1362.7H606.8c0-2.4,3.6-4.4,8.1-4.4S623,1360.3,623,1362.7Z" transform="translate(3.9 -5.9)"/><path class="cls-31" d="M631.3,1360.2c-3.1,3.2-7,4.4-8.8,2.7s-.5-5.7,2.7-8.8,7.1-4.4,8.8-2.6S634.5,1357.1,631.3,1360.2Z" transform="translate(3.9 -5.9)"/><path class="cls-32" d="M634,1351.5l-11.5,11.4c1.8,1.7,5.7.5,8.8-2.7S635.7,1353.2,634,1351.5Z" transform="translate(3.9 -5.9)"/><path class="cls-31" d="M614.1,1365.1c-3.2,3.2-4.3,7.1-2.6,8.8s5.6.6,8.8-2.6,4.3-7.1,2.6-8.8S617.2,1362,614.1,1365.1Z" transform="translate(3.9 -5.9)"/><path class="cls-32" d="M622.9,1362.5l-11.4,11.4c-1.7-1.7-.6-5.6,2.6-8.8S621.2,1360.8,622.9,1362.5Z" transform="translate(3.9 -5.9)"/><path class="cls-31" d="M625.2,1371.3c-3.2-3.1-4.4-7.1-2.7-8.8s5.7-.5,8.8,2.6,4.4,7.1,2.7,8.8S628.3,1374.5,625.2,1371.3Z" transform="translate(3.9 -5.9)"/><path class="cls-32" d="M634,1373.9l-11.5-11.4c-1.7,1.7-.5,5.7,2.7,8.8S632.3,1375.6,634,1373.9Z" transform="translate(3.9 -5.9)"/><path class="cls-31" d="M620.3,1354.1c-3.2-3.2-7.1-4.4-8.8-2.6s-.6,5.6,2.6,8.7,7.1,4.4,8.8,2.7S623.4,1357.2,620.3,1354.1Z" transform="translate(3.9 -5.9)"/><path class="cls-32" d="M622.9,1362.9l-11.4-11.4c1.7-1.8,5.6-.6,8.8,2.6S624.6,1361.2,622.9,1362.9Z" transform="translate(3.9 -5.9)"/><circle class="cls-29" cx="626.7" cy="1356.8" r="5.2"/><path class="cls-30" d="M627,1362.7a4.3,4.3,0,1,1-4.3-4.2A4.2,4.2,0,0,1,627,1362.7Z" transform="translate(3.9 -5.9)"/><path class="cls-7" d="M624.9,1416.3l.3-4.1a108.1,108.1,0,0,1,3.5-18.7,82.1,82.1,0,0,1,7.4-17.6l2.6-4c.9-1.4,1.9-2.6,2.9-3.9l1.5-1.9,1.6-1.7,3.4-3.5-3.6,3.3-1.8,1.6-1.6,1.8c-1.1,1.2-2.2,2.4-3.2,3.7l-2.9,3.9a77.6,77.6,0,0,0-8.8,17.5,104,104,0,0,0-4.9,19c-.3,1.6-.5,3.1-.7,4.6Z" transform="translate(3.9 -5.9)"/><path class="cls-19" d="M1113.7,1525.6c-.5-30.4,1.1-45.7,1.1-45.9h-1c0,.2-1.5,15.5-1.1,46Z" transform="translate(3.9 -5.9)"/><path class="cls-19" d="M1104.6,1496.3a65.7,65.7,0,0,1,4.4,14.3,127.8,127.8,0,0,1,1.8,15h4v-.4a132.5,132.5,0,0,0-3.2-15.2,63.1,63.1,0,0,0-5.8-14.3c-2.5-4.5-5.9-8.7-10.4-11.1C1099.7,1487.4,1102.6,1491.8,1104.6,1496.3Z" transform="translate(3.9 -5.9)"/><ellipse class="cls-31" cx="1117.8" cy="1458.3" rx="4.4" ry="8.1"/><path class="cls-32" d="M1113.9,1456.1v16.1c2.4,0,4.3-3.6,4.3-8.1S1116.3,1456.1,1113.9,1456.1Z" transform="translate(3.9 -5.9)"/><ellipse class="cls-31" cx="1117.8" cy="1473.9" rx="4.4" ry="8.1"/><path class="cls-32" d="M1113.9,1471.7v16.2c-2.4,0-4.4-3.6-4.4-8.1S1111.5,1471.7,1113.9,1471.7Z" transform="translate(3.9 -5.9)"/><path class="cls-31" d="M1121.7,1476.3c-4.5,0-8.1-1.9-8.1-4.3s3.6-4.4,8.1-4.4,8.1,2,8.1,4.4S1126.2,1476.3,1121.7,1476.3Z" transform="translate(3.9 -5.9)"/><path class="cls-32" d="M1129.8,1472h-16.2c0,2.4,3.6,4.3,8.1,4.3S1129.8,1474.4,1129.8,1472Z" transform="translate(3.9 -5.9)"/><path class="cls-31" d="M1106,1467.6c-4.4,0-8,2-8,4.4s3.6,4.3,8,4.3,8.1-1.9,8.1-4.3S1110.5,1467.6,1106,1467.6Z" transform="translate(3.9 -5.9)"/><path class="cls-32" d="M1114.1,1472H1098c0-2.4,3.6-4.4,8-4.4S1114.1,1469.6,1114.1,1472Z" transform="translate(3.9 -5.9)"/><path class="cls-31" d="M1122.5,1469.5c-3.2,3.2-7.1,4.4-8.8,2.6s-.5-5.6,2.6-8.7,7.1-4.4,8.8-2.7S1125.6,1466.4,1122.5,1469.5Z" transform="translate(3.9 -5.9)"/><path class="cls-32" d="M1125.1,1460.7l-11.4,11.4c1.7,1.8,5.6.6,8.8-2.6S1126.8,1462.4,1125.1,1460.7Z" transform="translate(3.9 -5.9)"/><path class="cls-31" d="M1105.2,1474.4c-3.1,3.2-4.3,7.1-2.6,8.8s5.7.6,8.8-2.6,4.3-7.1,2.6-8.8S1108.4,1471.3,1105.2,1474.4Z" transform="translate(3.9 -5.9)"/><path class="cls-32" d="M1114,1471.8l-11.4,11.4c-1.7-1.7-.5-5.6,2.6-8.8S1112.3,1470.1,1114,1471.8Z" transform="translate(3.9 -5.9)"/><path class="cls-31" d="M1116.3,1480.6c-3.1-3.2-4.3-7.1-2.6-8.8s5.6-.5,8.8,2.6,4.3,7.1,2.6,8.8S1119.5,1483.8,1116.3,1480.6Z" transform="translate(3.9 -5.9)"/><path class="cls-32" d="M1125.1,1483.2l-11.4-11.4c-1.7,1.7-.5,5.6,2.6,8.8S1123.4,1484.9,1125.1,1483.2Z" transform="translate(3.9 -5.9)"/><path class="cls-31" d="M1111.4,1463.4c-3.1-3.2-7.1-4.4-8.8-2.7s-.5,5.7,2.6,8.8,7.1,4.4,8.8,2.6S1114.6,1466.5,1111.4,1463.4Z" transform="translate(3.9 -5.9)"/><path class="cls-32" d="M1114,1472.1l-11.4-11.4c1.7-1.7,5.7-.5,8.8,2.7S1115.7,1470.4,1114,1472.1Z" transform="translate(3.9 -5.9)"/><circle class="cls-29" cx="1117.8" cy="1466.1" r="5.2"/><path class="cls-30" d="M1118.1,1472a4.3,4.3,0,0,1-8.5,0,4.3,4.3,0,1,1,8.5,0Z" transform="translate(3.9 -5.9)"/><path class="cls-7" d="M1116.1,1525.6l.3-4.1a107.9,107.9,0,0,1,3.4-18.7,77.7,77.7,0,0,1,7.5-17.6l2.5-4.1c.9-1.3,2-2.5,2.9-3.8l1.5-1.9c.5-.6,1.1-1.1,1.7-1.7l3.4-3.5-3.7,3.2-1.8,1.7-1.6,1.8c-1,1.2-2.2,2.4-3.2,3.7l-2.8,3.9a82.4,82.4,0,0,0-8.9,17.5,110.4,110.4,0,0,0-4.9,19l-.6,4.6Z" transform="translate(3.9 -5.9)"/><path class="cls-19" d="M1445.7,1584.4c-.6-39,1.3-58.7,1.4-58.9h-1.3c0,.2-2,19.9-1.4,59Z" transform="translate(3.9 -5.9)"/><path class="cls-19" d="M1434.1,1546.8a83.9,83.9,0,0,1,5.5,18.5,153.4,153.4,0,0,1,2.4,19.1h5.1a1.1,1.1,0,0,0-.1-.5,131.4,131.4,0,0,0-4.1-19.4,86.9,86.9,0,0,0-7.3-18.5c-3.3-5.7-7.6-11.1-13.5-14.2C1427.7,1535.4,1431.4,1541,1434.1,1546.8Z" transform="translate(3.9 -5.9)"/><path class="cls-27" d="M1451.5,1505.5c0,5.7-2.5,10.4-5.6,10.4s-5.6-4.7-5.6-10.4,2.5-10.4,5.6-10.4S1451.5,1499.8,1451.5,1505.5Z" transform="translate(3.9 -5.9)"/><path class="cls-28" d="M1445.9,1495.1v20.8c3.1,0,5.6-4.7,5.6-10.4S1449,1495.1,1445.9,1495.1Z" transform="translate(3.9 -5.9)"/><path class="cls-27" d="M1440.3,1525.6c0,5.8,2.5,10.4,5.6,10.4s5.6-4.6,5.6-10.4-2.5-10.3-5.6-10.3S1440.3,1519.9,1440.3,1525.6Z" transform="translate(3.9 -5.9)"/><path class="cls-28" d="M1445.9,1515.3V1536c-3.1,0-5.6-4.6-5.6-10.4S1442.8,1515.3,1445.9,1515.3Z" transform="translate(3.9 -5.9)"/><path class="cls-27" d="M1456,1521.2c-5.8,0-10.4-2.5-10.4-5.6s4.6-5.7,10.4-5.7,10.3,2.6,10.3,5.7S1461.7,1521.2,1456,1521.2Z" transform="translate(3.9 -5.9)"/><path class="cls-28" d="M1466.3,1515.6h-20.7c0,3.1,4.6,5.6,10.4,5.6S1466.3,1518.7,1466.3,1515.6Z" transform="translate(3.9 -5.9)"/><path class="cls-27" d="M1435.8,1509.9c-5.7,0-10.3,2.6-10.3,5.7s4.6,5.6,10.3,5.6,10.4-2.5,10.4-5.6S1441.6,1509.9,1435.8,1509.9Z" transform="translate(3.9 -5.9)"/><path class="cls-28" d="M1446.2,1515.6h-20.7c0-3.1,4.6-5.7,10.3-5.7S1446.2,1512.5,1446.2,1515.6Z" transform="translate(3.9 -5.9)"/><path class="cls-27" d="M1457,1512.4c-4.1,4.1-9.1,5.6-11.3,3.4s-.7-7.3,3.3-11.3,9.2-5.6,11.4-3.4S1461,1508.4,1457,1512.4Z" transform="translate(3.9 -5.9)"/><path class="cls-28" d="M1460.4,1501.1l-14.7,14.7c2.2,2.2,7.2.7,11.3-3.4S1462.5,1503.3,1460.4,1501.1Z" transform="translate(3.9 -5.9)"/><path class="cls-27" d="M1434.8,1518.7c-4,4.1-5.5,9.1-3.4,11.3s7.3.7,11.4-3.3,5.5-9.2,3.3-11.4S1438.9,1514.7,1434.8,1518.7Z" transform="translate(3.9 -5.9)"/><path class="cls-28" d="M1446.1,1515.3l-14.7,14.7c-2.1-2.2-.6-7.2,3.4-11.3S1443.9,1513.1,1446.1,1515.3Z" transform="translate(3.9 -5.9)"/><path class="cls-27" d="M1449,1526.7c-4-4.1-5.5-9.2-3.3-11.4s7.2-.6,11.3,3.4,5.5,9.1,3.4,11.3S1453.1,1530.7,1449,1526.7Z" transform="translate(3.9 -5.9)"/><path class="cls-28" d="M1460.4,1530l-14.7-14.7c-2.2,2.2-.7,7.3,3.3,11.4S1458.2,1532.2,1460.4,1530Z" transform="translate(3.9 -5.9)"/><path class="cls-27" d="M1442.8,1504.5c-4.1-4.1-9.2-5.6-11.4-3.4s-.6,7.3,3.4,11.3,9.1,5.6,11.3,3.4S1446.8,1508.5,1442.8,1504.5Z" transform="translate(3.9 -5.9)"/><path class="cls-28" d="M1446.1,1515.8l-14.7-14.7c2.2-2.2,7.3-.7,11.4,3.4S1448.3,1513.6,1446.1,1515.8Z" transform="translate(3.9 -5.9)"/><circle class="cls-29" cx="1449.8" cy="1509.7" r="6.7"/><path class="cls-30" d="M1451.3,1515.6a5.4,5.4,0,0,1-10.8,0,5.4,5.4,0,1,1,10.8,0Z" transform="translate(3.9 -5.9)"/><path class="cls-7" d="M1448.8,1584.4l.3-5.2a140.9,140.9,0,0,1,4.5-24,102.1,102.1,0,0,1,9.5-22.6l3.3-5.3c1.1-1.7,2.5-3.2,3.7-4.9l1.9-2.4,2.2-2.3,4.3-4.4-4.6,4.1-2.3,2.1-2.1,2.4a46,46,0,0,0-4.1,4.7l-3.7,5.1a100.2,100.2,0,0,0-11.3,22.4,129.7,129.7,0,0,0-6.3,24.5c-.4,1.9-.6,3.9-.9,5.8Z" transform="translate(3.9 -5.9)"/><path class="cls-19" d="M1257.3,1708.9c-.6-39.1,1.4-58.7,1.4-58.9h-1.3c0,.2-1.9,19.8-1.3,59Z" transform="translate(3.9 -5.9)"/><path class="cls-19" d="M1245.7,1671.3a89,89,0,0,1,5.6,18.4,154.8,154.8,0,0,1,2.3,19.2h5.2a1.1,1.1,0,0,1-.1-.5,160.8,160.8,0,0,0-4.1-19.5,83.4,83.4,0,0,0-7.4-18.4c-3.2-5.7-7.6-11.2-13.4-14.2C1239.3,1659.8,1243,1665.4,1245.7,1671.3Z" transform="translate(3.9 -5.9)"/><path class="cls-27" d="M1263.2,1630c0,5.7-2.6,10.3-5.7,10.3s-5.6-4.6-5.6-10.3,2.5-10.4,5.6-10.4S1263.2,1624.2,1263.2,1630Z" transform="translate(3.9 -5.9)"/><path class="cls-28" d="M1257.5,1619.6v20.7c3.1,0,5.7-4.6,5.7-10.3S1260.6,1619.6,1257.5,1619.6Z" transform="translate(3.9 -5.9)"/><path class="cls-27" d="M1251.9,1650.1c0,5.7,2.5,10.3,5.6,10.3s5.7-4.6,5.7-10.3-2.6-10.4-5.7-10.4S1251.9,1644.3,1251.9,1650.1Z" transform="translate(3.9 -5.9)"/><path class="cls-28" d="M1257.5,1639.7v20.7c-3.1,0-5.6-4.6-5.6-10.3S1254.4,1639.7,1257.5,1639.7Z" transform="translate(3.9 -5.9)"/><path class="cls-27" d="M1267.6,1645.6c-5.7,0-10.4-2.5-10.4-5.6s4.7-5.6,10.4-5.6,10.4,2.5,10.4,5.6S1273.3,1645.6,1267.6,1645.6Z" transform="translate(3.9 -5.9)"/><path class="cls-28" d="M1278,1640h-20.8c0,3.1,4.7,5.6,10.4,5.6S1278,1643.1,1278,1640Z" transform="translate(3.9 -5.9)"/><path class="cls-27" d="M1247.5,1634.4c-5.8,0-10.4,2.5-10.4,5.6s4.6,5.6,10.4,5.6,10.3-2.5,10.3-5.6S1253.2,1634.4,1247.5,1634.4Z" transform="translate(3.9 -5.9)"/><path class="cls-28" d="M1257.8,1640h-20.7c0-3.1,4.6-5.6,10.4-5.6S1257.8,1636.9,1257.8,1640Z" transform="translate(3.9 -5.9)"/><path class="cls-27" d="M1268.6,1636.9c-4,4-9.1,5.5-11.3,3.3s-.7-7.2,3.4-11.3,9.1-5.5,11.3-3.3S1272.7,1632.8,1268.6,1636.9Z" transform="translate(3.9 -5.9)"/><path class="cls-28" d="M1272,1625.6l-14.7,14.6c2.2,2.2,7.3.7,11.3-3.3S1274.2,1627.8,1272,1625.6Z" transform="translate(3.9 -5.9)"/><path class="cls-27" d="M1246.4,1643.2c-4,4-5.5,9.1-3.3,11.3s7.2.7,11.3-3.4,5.5-9.1,3.4-11.3S1250.5,1639.1,1246.4,1643.2Z" transform="translate(3.9 -5.9)"/><path class="cls-28" d="M1257.8,1639.8l-14.7,14.7c-2.2-2.2-.7-7.3,3.3-11.3S1255.6,1637.6,1257.8,1639.8Z" transform="translate(3.9 -5.9)"/><path class="cls-27" d="M1260.7,1651.1c-4.1-4.1-5.6-9.1-3.4-11.3s7.3-.7,11.3,3.4,5.6,9.1,3.4,11.3S1264.7,1655.2,1260.7,1651.1Z" transform="translate(3.9 -5.9)"/><path class="cls-28" d="M1272,1654.5l-14.7-14.7c-2.2,2.2-.7,7.2,3.4,11.3S1269.8,1656.7,1272,1654.5Z" transform="translate(3.9 -5.9)"/><path class="cls-27" d="M1254.4,1628.9c-4.1-4-9.1-5.5-11.3-3.3s-.7,7.2,3.3,11.3,9.2,5.5,11.4,3.3S1258.4,1633,1254.4,1628.9Z" transform="translate(3.9 -5.9)"/><path class="cls-28" d="M1257.8,1640.2l-14.7-14.6c2.2-2.2,7.2-.7,11.3,3.3S1259.9,1638,1257.8,1640.2Z" transform="translate(3.9 -5.9)"/><path class="cls-29" d="M1264.3,1640a6.8,6.8,0,1,1-6.8-6.7A6.7,6.7,0,0,1,1264.3,1640Z" transform="translate(3.9 -5.9)"/><path class="cls-30" d="M1263,1640a5.5,5.5,0,0,1-5.5,5.5,5.5,5.5,0,0,1-5.4-5.5,5.4,5.4,0,0,1,5.4-5.4A5.5,5.5,0,0,1,1263,1640Z" transform="translate(3.9 -5.9)"/><path class="cls-7" d="M1260.4,1708.9c.1-1.7.2-3.5.4-5.2a132.6,132.6,0,0,1,4.4-24.1,99.7,99.7,0,0,1,9.6-22.6l3.2-5.2c1.2-1.7,2.5-3.3,3.8-4.9l1.9-2.5,2.1-2.2,4.4-4.5-4.7,4.2-2.3,2.1-2.1,2.3c-1.3,1.6-2.8,3.1-4.1,4.7l-3.7,5.1a103.1,103.1,0,0,0-11.3,22.5,128.7,128.7,0,0,0-6.3,24.4c-.3,2-.6,3.9-.8,5.9Z" transform="translate(3.9 -5.9)"/><path class="cls-19" d="M69.1,1650.9c-.6-39.1,1.4-58.7,1.4-58.9H69.2c0,.2-1.9,19.9-1.3,59Z" transform="translate(3.9 -5.9)"/><path class="cls-19" d="M57.5,1613.3a85,85,0,0,1,5.6,18.4,157.1,157.1,0,0,1,2.3,19.2h5.2a.9.9,0,0,1-.1-.5,160.8,160.8,0,0,0-4.1-19.5,83.4,83.4,0,0,0-7.4-18.4c-3.2-5.7-7.6-11.2-13.4-14.2C51.1,1601.9,54.8,1607.5,57.5,1613.3Z" transform="translate(3.9 -5.9)"/><path class="cls-27" d="M75,1572c0,5.7-2.6,10.3-5.7,10.3s-5.6-4.6-5.6-10.3,2.5-10.4,5.6-10.4S75,1566.2,75,1572Z" transform="translate(3.9 -5.9)"/><path class="cls-28" d="M69.3,1561.6v20.7c3.1,0,5.7-4.6,5.7-10.3S72.4,1561.6,69.3,1561.6Z" transform="translate(3.9 -5.9)"/><path class="cls-27" d="M63.7,1592.1c0,5.7,2.5,10.4,5.6,10.4s5.7-4.7,5.7-10.4-2.6-10.4-5.7-10.4S63.7,1586.4,63.7,1592.1Z" transform="translate(3.9 -5.9)"/><path class="cls-28" d="M69.3,1581.7v20.8c-3.1,0-5.6-4.7-5.6-10.4S66.2,1581.7,69.3,1581.7Z" transform="translate(3.9 -5.9)"/><path class="cls-27" d="M79.4,1587.6c-5.7,0-10.4-2.5-10.4-5.6s4.7-5.6,10.4-5.6,10.4,2.5,10.4,5.6S85.1,1587.6,79.4,1587.6Z" transform="translate(3.9 -5.9)"/><path class="cls-28" d="M89.8,1582H69c0,3.1,4.7,5.6,10.4,5.6S89.8,1585.1,89.8,1582Z" transform="translate(3.9 -5.9)"/><path class="cls-27" d="M59.3,1576.4c-5.8,0-10.4,2.5-10.4,5.6s4.6,5.6,10.4,5.6,10.3-2.5,10.3-5.6S65,1576.4,59.3,1576.4Z" transform="translate(3.9 -5.9)"/><path class="cls-28" d="M69.6,1582H48.9c0-3.1,4.6-5.6,10.4-5.6S69.6,1578.9,69.6,1582Z" transform="translate(3.9 -5.9)"/><path class="cls-27" d="M80.4,1578.9c-4,4-9.1,5.5-11.3,3.3s-.7-7.2,3.4-11.3,9.1-5.5,11.3-3.3S84.5,1574.8,80.4,1578.9Z" transform="translate(3.9 -5.9)"/><path class="cls-28" d="M83.8,1567.6l-14.7,14.6c2.2,2.2,7.3.7,11.3-3.3S86,1569.8,83.8,1567.6Z" transform="translate(3.9 -5.9)"/><path class="cls-27" d="M58.3,1585.2c-4.1,4-5.6,9.1-3.4,11.3s7.2.7,11.3-3.4,5.6-9.1,3.4-11.3S62.3,1581.1,58.3,1585.2Z" transform="translate(3.9 -5.9)"/><path class="cls-28" d="M69.6,1581.8l-14.7,14.7c-2.2-2.2-.7-7.3,3.4-11.3S67.4,1579.6,69.6,1581.8Z" transform="translate(3.9 -5.9)"/><path class="cls-27" d="M72.5,1593.1c-4.1-4-5.6-9.1-3.4-11.3s7.3-.7,11.3,3.4,5.6,9.1,3.4,11.3S76.5,1597.2,72.5,1593.1Z" transform="translate(3.9 -5.9)"/><path class="cls-28" d="M83.8,1596.5l-14.7-14.7c-2.2,2.2-.7,7.3,3.4,11.3S81.6,1598.7,83.8,1596.5Z" transform="translate(3.9 -5.9)"/><path class="cls-27" d="M66.2,1570.9c-4.1-4-9.1-5.5-11.3-3.3s-.7,7.2,3.4,11.3,9.1,5.5,11.3,3.3S70.2,1575,66.2,1570.9Z" transform="translate(3.9 -5.9)"/><path class="cls-28" d="M69.6,1582.2l-14.7-14.6c2.2-2.2,7.2-.7,11.3,3.3S71.8,1580.1,69.6,1582.2Z" transform="translate(3.9 -5.9)"/><path class="cls-29" d="M76.1,1582a6.8,6.8,0,1,1-13.5,0,6.8,6.8,0,0,1,13.5,0Z" transform="translate(3.9 -5.9)"/><path class="cls-30" d="M74.8,1582a5.5,5.5,0,0,1-5.5,5.5,5.5,5.5,0,0,1-5.4-5.5,5.4,5.4,0,0,1,5.4-5.4A5.5,5.5,0,0,1,74.8,1582Z" transform="translate(3.9 -5.9)"/><path class="cls-7" d="M72.2,1650.9c.1-1.7.2-3.5.4-5.2a132.6,132.6,0,0,1,4.4-24.1,97.1,97.1,0,0,1,9.6-22.5l3.2-5.3c1.2-1.7,2.5-3.3,3.8-4.9l1.9-2.5,2.1-2.2,4.4-4.4-4.7,4.1L95,1586l-2.1,2.3c-1.3,1.6-2.8,3.1-4.1,4.8l-3.7,5a103.1,103.1,0,0,0-11.3,22.5,127.7,127.7,0,0,0-6.3,24.5c-.3,1.9-.6,3.9-.8,5.8Z" transform="translate(3.9 -5.9)"/><path class="cls-19" d="M479.5,1484.3c-.3-21.2.7-31.8.7-31.9h-.7c0,.1-1,10.7-.7,31.9Z" transform="translate(3.9 -5.9)"/><path class="cls-19" d="M473.2,1463.9a44.3,44.3,0,0,1,3,10,72.1,72.1,0,0,1,1.3,10.4h2.8a.4.4,0,0,1-.1-.3,72.4,72.4,0,0,0-2.2-10.5,43.5,43.5,0,0,0-4-10,19.1,19.1,0,0,0-7.2-7.7A18.7,18.7,0,0,1,473.2,1463.9Z" transform="translate(3.9 -5.9)"/><ellipse class="cls-31" cx="483.5" cy="1435.7" rx="3" ry="5.6"/><path class="cls-32" d="M479.6,1436v11.2c1.7,0,3-2.5,3-5.6S481.3,1436,479.6,1436Z" transform="translate(3.9 -5.9)"/><path class="cls-31" d="M476.6,1452.5c0,3.1,1.3,5.6,3,5.6s3-2.5,3-5.6-1.3-5.6-3-5.6S476.6,1449.4,476.6,1452.5Z" transform="translate(3.9 -5.9)"/><path class="cls-32" d="M479.6,1446.9v11.2c-1.7,0-3-2.5-3-5.6S477.9,1446.9,479.6,1446.9Z" transform="translate(3.9 -5.9)"/><ellipse class="cls-31" cx="489" cy="1441.2" rx="5.6" ry="3"/><path class="cls-32" d="M490.6,1447H479.4c0,1.7,2.5,3.1,5.6,3.1S490.6,1448.7,490.6,1447Z" transform="translate(3.9 -5.9)"/><ellipse class="cls-31" cx="478.1" cy="1441.2" rx="5.6" ry="3"/><path class="cls-32" d="M479.8,1447H468.6c0-1.6,2.5-3,5.6-3S479.8,1445.4,479.8,1447Z" transform="translate(3.9 -5.9)"/><ellipse class="cls-31" cx="483.4" cy="1443.2" rx="5.6" ry="3" transform="translate(-875 758.7) rotate(-45)"/><path class="cls-32" d="M487.4,1439.2l-7.9,8c1.2,1.1,3.9.3,6.1-1.9S488.6,1440.4,487.4,1439.2Z" transform="translate(3.9 -5.9)"/><ellipse class="cls-31" cx="475.8" cy="1450.9" rx="5.6" ry="3" transform="translate(-882.6 755.5) rotate(-45)"/><path class="cls-32" d="M479.7,1446.9l-7.9,7.9c-1.2-1.1-.4-3.9,1.8-6.1S478.5,1445.7,479.7,1446.9Z" transform="translate(3.9 -5.9)"/><ellipse class="cls-31" cx="483.4" cy="1450.9" rx="3" ry="5.6" transform="translate(-880.4 760.9) rotate(-45)"/><path class="cls-32" d="M487.4,1454.8l-7.9-7.9c-1.2,1.2-.4,3.9,1.8,6.1S486.2,1456,487.4,1454.8Z" transform="translate(3.9 -5.9)"/><ellipse class="cls-31" cx="475.8" cy="1443.2" rx="3" ry="5.6" transform="translate(-877.2 753.2) rotate(-45)"/><path class="cls-32" d="M479.7,1447.2l-7.9-8c1.2-1.1,3.9-.3,6.1,1.9S480.9,1446,479.7,1447.2Z" transform="translate(3.9 -5.9)"/><circle class="cls-29" cx="483.5" cy="1441.2" r="3.6"/><circle class="cls-30" cx="483.5" cy="1441.2" r="2.9"/><path class="cls-7" d="M481.1,1484.3a28.3,28.3,0,0,0,.2-2.9,66.3,66.3,0,0,1,2.5-13,51.8,51.8,0,0,1,5.1-12.2l1.8-2.8,2-2.7,1-1.3,1.2-1.2,2.3-2.4-2.5,2.3-1.2,1.1-1.2,1.2-2.2,2.6-2,2.7a55.7,55.7,0,0,0-6.1,12.2,75.3,75.3,0,0,0-3.4,13.2,31.1,31.1,0,0,0-.4,3.2Z" transform="translate(3.9 -5.9)"/><path class="cls-19" d="M617.8,1620.9c-.6-39.1,1.3-58.7,1.3-58.9h-1.2c0,.2-2,19.9-1.4,59Z" transform="translate(3.9 -5.9)"/><path class="cls-19" d="M606.1,1583.3a78.3,78.3,0,0,1,5.6,18.4,176.7,176.7,0,0,1,2.4,19.2h5.1a.7.7,0,0,0-.1-.5,160.8,160.8,0,0,0-4.1-19.5,88.2,88.2,0,0,0-7.3-18.4c-3.3-5.7-7.6-11.2-13.5-14.2C599.8,1571.8,603.5,1577.4,606.1,1583.3Z" transform="translate(3.9 -5.9)"/><path class="cls-27" d="M623.6,1542c0,5.7-2.5,10.3-5.6,10.3s-5.6-4.6-5.6-10.3,2.5-10.4,5.6-10.4S623.6,1536.2,623.6,1542Z" transform="translate(3.9 -5.9)"/><path class="cls-28" d="M618,1531.6v20.7c3.1,0,5.6-4.6,5.6-10.3S621.1,1531.6,618,1531.6Z" transform="translate(3.9 -5.9)"/><path class="cls-27" d="M612.4,1562.1c0,5.7,2.5,10.4,5.6,10.4s5.6-4.7,5.6-10.4-2.5-10.4-5.6-10.4S612.4,1556.3,612.4,1562.1Z" transform="translate(3.9 -5.9)"/><path class="cls-28" d="M618,1551.7v20.8c-3.1,0-5.6-4.7-5.6-10.4S614.9,1551.7,618,1551.7Z" transform="translate(3.9 -5.9)"/><path class="cls-27" d="M628,1557.6c-5.7,0-10.3-2.5-10.3-5.6s4.6-5.6,10.3-5.6,10.4,2.5,10.4,5.6S633.8,1557.6,628,1557.6Z" transform="translate(3.9 -5.9)"/><path class="cls-28" d="M638.4,1552H617.7c0,3.1,4.6,5.6,10.3,5.6S638.4,1555.1,638.4,1552Z" transform="translate(3.9 -5.9)"/><path class="cls-27" d="M607.9,1546.4c-5.7,0-10.4,2.5-10.4,5.6s4.7,5.6,10.4,5.6,10.4-2.5,10.4-5.6S613.7,1546.4,607.9,1546.4Z" transform="translate(3.9 -5.9)"/><path class="cls-28" d="M618.3,1552H597.5c0-3.1,4.7-5.6,10.4-5.6S618.3,1548.9,618.3,1552Z" transform="translate(3.9 -5.9)"/><path class="cls-27" d="M629.1,1548.9c-4.1,4-9.1,5.5-11.3,3.3s-.7-7.2,3.3-11.3,9.1-5.5,11.3-3.3S633.1,1544.8,629.1,1548.9Z" transform="translate(3.9 -5.9)"/><path class="cls-28" d="M632.4,1537.6l-14.6,14.6c2.2,2.2,7.2.7,11.3-3.3S634.6,1539.8,632.4,1537.6Z" transform="translate(3.9 -5.9)"/><path class="cls-27" d="M606.9,1555.2c-4.1,4-5.6,9.1-3.4,11.3s7.3.7,11.3-3.4,5.6-9.1,3.4-11.3S611,1551.1,606.9,1555.2Z" transform="translate(3.9 -5.9)"/><path class="cls-28" d="M618.2,1551.8l-14.7,14.7c-2.2-2.2-.7-7.3,3.4-11.3S616,1549.6,618.2,1551.8Z" transform="translate(3.9 -5.9)"/><path class="cls-27" d="M621.1,1563.1c-4-4-5.5-9.1-3.3-11.3s7.2-.7,11.3,3.4,5.5,9.1,3.3,11.3S625.2,1567.2,621.1,1563.1Z" transform="translate(3.9 -5.9)"/><path class="cls-28" d="M632.4,1566.5l-14.6-14.7c-2.2,2.2-.7,7.3,3.3,11.3S630.2,1568.7,632.4,1566.5Z" transform="translate(3.9 -5.9)"/><path class="cls-27" d="M614.8,1540.9c-4-4-9.1-5.5-11.3-3.3s-.7,7.2,3.4,11.3,9.1,5.5,11.3,3.3S618.9,1545,614.8,1540.9Z" transform="translate(3.9 -5.9)"/><path class="cls-28" d="M618.2,1552.2l-14.7-14.6c2.2-2.2,7.3-.7,11.3,3.3S620.4,1550,618.2,1552.2Z" transform="translate(3.9 -5.9)"/><path class="cls-29" d="M624.7,1552a6.7,6.7,0,1,1-6.7-6.7A6.7,6.7,0,0,1,624.7,1552Z" transform="translate(3.9 -5.9)"/><path class="cls-30" d="M623.4,1552a5.5,5.5,0,0,1-5.4,5.5,5.5,5.5,0,0,1-5.5-5.5,5.5,5.5,0,0,1,5.5-5.4A5.4,5.4,0,0,1,623.4,1552Z" transform="translate(3.9 -5.9)"/><path class="cls-7" d="M620.8,1620.9c.1-1.7.3-3.5.4-5.2a132.9,132.9,0,0,1,4.5-24.1,99.4,99.4,0,0,1,9.5-22.6l3.3-5.2c1.1-1.7,2.5-3.3,3.7-4.9l1.9-2.5,2.2-2.2,4.3-4.5-4.6,4.2-2.3,2.1-2.1,2.3c-1.4,1.6-2.9,3.1-4.2,4.7l-3.6,5.1a103.5,103.5,0,0,0-11.4,22.5,145.7,145.7,0,0,0-6.3,24.4c-.3,2-.5,3.9-.8,5.9Z" transform="translate(3.9 -5.9)"/><path class="cls-19" d="M912,1686.2c-.6-39.1,1.3-58.7,1.4-58.9h-1.3c0,.2-2,19.9-1.4,59Z" transform="translate(3.9 -5.9)"/><path class="cls-19" d="M900.4,1648.6a83.1,83.1,0,0,1,5.5,18.4,138,138,0,0,1,2.4,19.2h5.1a.7.7,0,0,0-.1-.5,130,130,0,0,0-4.1-19.5,88.2,88.2,0,0,0-7.3-18.4c-3.3-5.7-7.6-11.2-13.5-14.2C894,1637.1,897.7,1642.7,900.4,1648.6Z" transform="translate(3.9 -5.9)"/><path class="cls-31" d="M917.8,1607.3c0,5.7-2.5,10.3-5.6,10.3s-5.6-4.6-5.6-10.3,2.5-10.4,5.6-10.4S917.8,1601.5,917.8,1607.3Z" transform="translate(3.9 -5.9)"/><path class="cls-32" d="M912.2,1596.9v20.7c3.1,0,5.6-4.6,5.6-10.3S915.3,1596.9,912.2,1596.9Z" transform="translate(3.9 -5.9)"/><path class="cls-31" d="M906.6,1627.4c0,5.7,2.5,10.4,5.6,10.4s5.6-4.7,5.6-10.4-2.5-10.4-5.6-10.4S906.6,1621.6,906.6,1627.4Z" transform="translate(3.9 -5.9)"/><path class="cls-32" d="M912.2,1617v20.8c-3.1,0-5.6-4.7-5.6-10.4S909.1,1617,912.2,1617Z" transform="translate(3.9 -5.9)"/><path class="cls-31" d="M922.3,1622.9c-5.8,0-10.4-2.5-10.4-5.6s4.6-5.6,10.4-5.6,10.3,2.5,10.3,5.6S928,1622.9,922.3,1622.9Z" transform="translate(3.9 -5.9)"/><path class="cls-32" d="M932.6,1617.3H911.9c0,3.1,4.6,5.6,10.4,5.6S932.6,1620.4,932.6,1617.3Z" transform="translate(3.9 -5.9)"/><path class="cls-31" d="M902.1,1611.7c-5.7,0-10.3,2.5-10.3,5.6s4.6,5.6,10.3,5.6,10.4-2.5,10.4-5.6S907.9,1611.7,902.1,1611.7Z" transform="translate(3.9 -5.9)"/><path class="cls-32" d="M912.5,1617.3H891.8c0-3.1,4.6-5.6,10.3-5.6S912.5,1614.2,912.5,1617.3Z" transform="translate(3.9 -5.9)"/><path class="cls-31" d="M923.3,1614.2c-4.1,4-9.1,5.5-11.3,3.3s-.7-7.2,3.3-11.3,9.2-5.5,11.4-3.3S927.3,1610.1,923.3,1614.2Z" transform="translate(3.9 -5.9)"/><path class="cls-32" d="M926.7,1602.9,912,1617.5c2.2,2.2,7.2.7,11.3-3.3S928.8,1605.1,926.7,1602.9Z" transform="translate(3.9 -5.9)"/><path class="cls-31" d="M901.1,1620.5c-4,4-5.5,9.1-3.3,11.3s7.2.7,11.3-3.4,5.5-9.1,3.3-11.3S905.2,1616.4,901.1,1620.5Z" transform="translate(3.9 -5.9)"/><path class="cls-32" d="M912.4,1617.1l-14.6,14.7c-2.2-2.2-.7-7.3,3.3-11.3S910.2,1614.9,912.4,1617.1Z" transform="translate(3.9 -5.9)"/><path class="cls-31" d="M915.3,1628.4c-4-4-5.5-9.1-3.3-11.3s7.2-.7,11.3,3.4,5.5,9.1,3.4,11.3S919.4,1632.5,915.3,1628.4Z" transform="translate(3.9 -5.9)"/><path class="cls-32" d="M926.7,1631.8,912,1617.1c-2.2,2.2-.7,7.3,3.3,11.3S924.5,1634,926.7,1631.8Z" transform="translate(3.9 -5.9)"/><path class="cls-31" d="M909.1,1606.2c-4.1-4-9.2-5.5-11.3-3.3s-.7,7.2,3.3,11.3,9.1,5.5,11.3,3.3S913.1,1610.3,909.1,1606.2Z" transform="translate(3.9 -5.9)"/><path class="cls-32" d="M912.4,1617.5l-14.6-14.6c2.1-2.2,7.2-.7,11.3,3.3S914.6,1615.3,912.4,1617.5Z" transform="translate(3.9 -5.9)"/><circle class="cls-29" cx="916.1" cy="1611.4" r="6.7"/><circle class="cls-30" cx="916.1" cy="1611.4" r="5.4"/><path class="cls-7" d="M915.1,1686.2l.3-5.2a142.1,142.1,0,0,1,4.5-24.1,104.1,104.1,0,0,1,9.5-22.6l3.3-5.2c1.1-1.7,2.5-3.3,3.7-4.9l1.9-2.5,2.2-2.2,4.3-4.5-4.6,4.2-2.3,2.1-2.1,2.3c-1.4,1.6-2.9,3.1-4.1,4.7l-3.7,5.1a98.8,98.8,0,0,0-11.3,22.5,128.7,128.7,0,0,0-6.3,24.4c-.4,2-.6,3.9-.9,5.9Z" transform="translate(3.9 -5.9)"/><path class="cls-22" d="M1034.1,1127a25.9,25.9,0,0,1-25.7-22.7,59.3,59.3,0,0,0-15.9-2.2,57.8,57.8,0,1,0,47,24.3A24.2,24.2,0,0,1,1034.1,1127Z" transform="translate(3.9 -5.9)"/><path class="cls-23" d="M1000.8,1102.7a56.9,56.9,0,0,0-8.3-.6,57.7,57.7,0,0,0-57.3,63.6C941.8,1119.3,974.4,1107.3,1000.8,1102.7Z" transform="translate(3.9 -5.9)"/><path class="cls-24" d="M1034.1,1127h-2.8a56.4,56.4,0,0,1,6,25.6,57.6,57.6,0,0,1-79.2,53.5,57.6,57.6,0,0,0,81.4-79.6A24.2,24.2,0,0,1,1034.1,1127Z" transform="translate(3.9 -5.9)"/><path class="cls-20" d="M989.1,1158.1s1.3,43,4.2,43.8,11.8-20.4,11.8-20.4l2.3,4s-10.7,21.7-12.4,31.5,0,50.9,0,50.9h-9.6s2.7-42.9,2.3-54.4-3.6-27.6-3.4-34.7-.6-17.4-.6-17.4Z" transform="translate(3.9 -5.9)"/><path class="cls-21" d="M1007.4,1185.5l-.7-1.2-1.9,3.2c-1.2,2.7-5.9,12.6-8.3,17.9s-4.7,10.2-4.5,19.8c.2,8-.1,33.9-.1,42.7H995s-1.7-41,0-50.9S1007.4,1185.5,1007.4,1185.5Z" transform="translate(3.9 -5.9)"/><path class="cls-21" d="M992.9,1203.1l1.4-1.5a1.1,1.1,0,0,1-1,.3c-2.9-.8-4.2-43.8-4.2-43.8l-2.9,1.7C986.7,1170.1,988.4,1206.6,992.9,1203.1Z" transform="translate(3.9 -5.9)"/><path class="cls-24" d="M1001.2,1114.3a2.5,2.5,0,0,1-2.6,2.6,2.6,2.6,0,0,1-2.6-2.6,2.6,2.6,0,0,1,2.6-2.6A2.6,2.6,0,0,1,1001.2,1114.3Z" transform="translate(3.9 -5.9)"/><path class="cls-24" d="M1019.7,1129.1a5.2,5.2,0,1,1-5.2-5.1A5.1,5.1,0,0,1,1019.7,1129.1Z" transform="translate(3.9 -5.9)"/><path class="cls-24" d="M981.2,1129.6a7.9,7.9,0,1,1-7.9-7.8A7.9,7.9,0,0,1,981.2,1129.6Z" transform="translate(3.9 -5.9)"/><path class="cls-7" d="M801.6,1217.7a27.4,27.4,0,0,0-49-10.2,19.3,19.3,0,0,0,3.3,38.3,15.3,15.3,0,0,0,3-.3,27.2,27.2,0,0,0,29.7,1.5,15.9,15.9,0,0,0,7.2,1.7,16,16,0,0,0,5.8-31Z" transform="translate(3.9 -5.9)"/><path class="cls-18" d="M756.4,1207.2c5.5-8.3,14.8-10.9,14.8-10.9a27.2,27.2,0,0,0-18.6,11.2,19.3,19.3,0,0,0-15.8,16.5,24.2,24.2,0,0,1,33.4-10.5A19.3,19.3,0,0,0,756.4,1207.2Z" transform="translate(3.9 -5.9)"/><path class="cls-19" d="M801.6,1217.7a27.3,27.3,0,0,0-24.3-21.5c19.1,5.4,21.2,23.5,21.2,23.5,5.4,2.1,9.3,6.9,8.7,12.5-1,8.4-7.7,12.4-12.9,12.1a15.2,15.2,0,0,1-6.5-1.5c-3.7,2.1-10.1,3.5-14.6,3.5a23.9,23.9,0,0,1-14.2-4.4h-3.6c-5.1-.2-14.4-2.1-18.6-13.4a19.3,19.3,0,0,0,19.1,17.1,15.3,15.3,0,0,0,3-.3,27.2,27.2,0,0,0,29.7,1.5,15.9,15.9,0,0,0,7.2,1.7,16,16,0,0,0,5.8-31Z" transform="translate(3.9 -5.9)"/><path class="cls-20" d="M773.6,1222.2a4,4,0,0,0-2-.5c.2,1.9.3,6.6.4,9.3s.4,6.2-.2,7.7-2.1-.5-2.6-1.6l-3.5-7.3-1.4.8,4.1,8.3a24.4,24.4,0,0,1,1.5,3.2c.8,1.9,1.5,6.4,1.8,8.9a21.6,21.6,0,0,1-.1,5.1l-1.5-1.2v2.5l.4.6a7.5,7.5,0,0,1,1,3.2c0,1.4.1,3.2,0,4.1s0,7.7,0,7.7h4.3s.3-18.1.3-21.7,4.7-13.2,4.7-13.2l-1.8-.7s-2.3,7.2-3.3,7.8-1.5-8-1.5-10.7S773.6,1222.2,773.6,1222.2Z" transform="translate(3.9 -5.9)"/><path class="cls-21" d="M775.7,1245.2c-1,.5-1.5-8-1.5-10.7s-.6-12.3-.6-12.3a1.1,1.1,0,0,0-.8-.3,14.1,14.1,0,0,1,.1,3.5c0,1.1.4,4.7.4,6.6s0,7.7.3,9.4a21.9,21.9,0,0,0,1,3.8C775,1246,775.7,1245.2,775.7,1245.2Z" transform="translate(3.9 -5.9)"/><path class="cls-21" d="M771.8,1238.7c-.7,1.8-2.1-.5-2.6-1.6l-3.5-7.3-.6.3c.6,1.2,2.3,5.1,2.7,6.1a10.5,10.5,0,0,0,2.5,3.9,1.4,1.4,0,0,0,1.8-1,11.6,11.6,0,0,0,.1-2.8A7,7,0,0,1,771.8,1238.7Z" transform="translate(3.9 -5.9)"/><path class="cls-21" d="M780,1237.8a25.9,25.9,0,0,1-1.5,3.7c-.8,1.9-2.4,4.2-2.8,5.9s-1,4.8-1.2,12.6c-.1,5.1.3,9.8.3,13h1s.3-18.1.3-21.7,4.7-13.2,4.7-13.2Z" transform="translate(3.9 -5.9)"/><path class="cls-21" d="M770.1,1255.4c.5.7,1.5,1.7,1.5.7l-1.5-1.2Z" transform="translate(3.9 -5.9)"/><path class="cls-10" d="M396.3,1420.7c-22.3,4.9-44.4,10.1-66.3,15.4-13,112.4-15.2,437,244.9,611.9H786.2c-33.1-19-67-39.4-101.4-61.3C392.9,1800.3,386,1520.7,396.3,1420.7Z" transform="translate(3.9 -5.9)"/><path class="cls-10" d="M196.3,1472.2l-13.5,3.9c-50.5,155-80.9,442.6-83,571.9h17.6C114.1,1872.5,170.9,1573.4,196.3,1472.2Z" transform="translate(3.9 -5.9)"/><polygon class="cls-2" points="1539.9 77.7 0 162.3 0 0 1539.9 0 1539.9 77.7"/><polygon class="cls-2" points="1539.9 239.1 53.4 270.5 1539.9 298.7 1539.9 239.1"/><polygon class="cls-2" points="0 209.7 0 228 1539.9 174.9 1539.9 108 0 209.7"/></g></svg>