<svg xmlns="http://www.w3.org/2000/svg" viewBox="0 0 1535 2048"><defs><style>.cls-1{fill:#b4e1e5;}.cls-2{fill:#c4e6e9;}.cls-3{fill:#ffdf78;}.cls-4{fill:#fff18c;}.cls-5{fill:#92cdd0;}.cls-6{fill:#7fc8cb;}.cls-7{fill:#629b42;}.cls-8{fill:#70ac43;}.cls-9{fill:#f7e072;}.cls-10{fill:#eed463;}.cls-11{fill:#8fc857;}.cls-12{fill:#7bc043;}.cls-13{fill:#58595b;}.cls-14{fill:#6d6e70;}.cls-15{fill:#d8884a;}.cls-16{fill:#e8955d;}.cls-17{fill:#6ca743;}.cls-18{fill:#73aa4f;}.cls-19{fill:#5a8e3f;}.cls-20{fill:#75625e;}.cls-21{fill:#5f4c46;}.cls-22{fill:#82ae4a;}.cls-23{fill:#9bc05a;}.cls-24{fill:#789f3f;}.cls-25{fill:#90bd5c;}.cls-26{fill:#a4cd6e;}.cls-27{fill:#f1f1f2;}.cls-28{fill:#e6e7e8;}.cls-29{fill:#f9a83b;}.cls-30{fill:#fcc683;}.cls-31{fill:#dc4f7a;}.cls-32{fill:#cf2257;}</style></defs><title>Background</title><g id="BACKGROUND"><rect class="cls-1" width="1535" height="2048"/></g><g id="OBJECTS"><rect class="cls-1" x="3.6" y="211.2" width="1531.4" height="1544.39"/><polygon class="cls-2" points="1535 377.6 3.6 462.4 3.6 299.6 1535 299.6 1535 377.6"/><polygon class="cls-2" points="1535 539.4 56.7 570.9 1535 599.2 1535 539.4"/><polygon class="cls-2" points="3.6 510 3.6 528.3 1535 475 1535 407.9 3.6 510"/><ellipse class="cls-3" cx="769.3" cy="879.5" rx="168.2" ry="169.7"/><ellipse class="cls-4" cx="769.3" cy="879.5" rx="119.3" ry="120.4"/><path class="cls-5" d="M811.7,1193.9a58.2,58.2,0,0,0-28.7,7.5,122,122,0,0,0-96.3-65.6,123.4,123.4,0,0,0,2.4-24.5c0-67.5-54.3-122.2-121.2-122.2a120.6,120.6,0,0,0-66.6,20c-4.1-38.4-36.3-68.3-75.6-68.3a73.6,73.6,0,0,0-27,5c-7.2-54.4-53.3-96.4-109.2-96.4a110.2,110.2,0,0,0-97.3,58.8,60.4,60.4,0,0,0-74,4.4A96.2,96.2,0,0,0,4.6,873v743H870.5V1253.2C870.5,1220.5,844.1,1193.9,811.7,1193.9Z" transform="translate(-1)"/><path class="cls-5" d="M1431.1,1039.1a77.4,77.4,0,0,0-51-19c-36.3,0-66.7,24.7-75.9,58.3a160.1,160.1,0,0,0-42.4-5.7c-69.2,0-128.2,44-151.1,105.8a80.8,80.8,0,0,0-48.3-15.9c-45.2,0-81.9,37-81.9,82.6V1616H1536V964.2A153.6,153.6,0,0,0,1431.1,1039.1Z" transform="translate(-1)"/><path class="cls-6" d="M1536,1110l-17.4,2c-26.5,3.3-57.1,9.8-91.8,16.4s-83.8-39-149.1-25.9-36.7,97.3-142.9,117-202.2,9.8-267.5,11.4-84.5-42.1-119.2-53.6-52.3,11.3-87,3.1-16.1-30.5-44.7-30.5-22.7-12.9-63.5-11.3-40.9-8.2-79.7-13.1-34.7,13.1-67.4,19.7-36.7,3.3-71.4-3.3-32.7-13.1-73.5-32.8-51.1-1.6-124.6,4.9c-70.9,6.3-69.6-4.1-131.7-12.2v349.4H1536Z" transform="translate(-1)"/><path class="cls-7" d="M1536,1202.1h-18.3c-578.4,0-1107.3,104.2-1513.1,210.1V1616H1536Z" transform="translate(-1)"/><path class="cls-8" d="M1536,1415c-369.7-75.4-815.5-153-1295.4-153-79.6,0-158.4,1.2-236,3.6v489.9H1536Z" transform="translate(-1)"/><path class="cls-9" d="M635.6,1485.2l-9.2-102.9s-72.1-67.2-194.6-116.2l-25.9-1C439.6,1283.2,568.5,1358.8,635.6,1485.2Z" transform="translate(-1)"/><path class="cls-10" d="M422.1,1265.7c18.7,8.1,56.7,26,93,50.7,42.8,29,93.5,72,113.3,89.2l-2-23.3s-72.1-67.2-194.6-116.2Z" transform="translate(-1)"/><path class="cls-11" d="M1536,1344.1c-102.1-8.1-206.4-12.4-312.3-12.4-447.3,0-865,74.9-1219.1,204.6V2048H1536Z" transform="translate(-1)"/><path class="cls-12" d="M373.2,1426.9c201.5-25.2,448.6-47.7,577.8-27.2,241,38.3-51,73.1-34.7,160.1s277-22.4,383.9,83.5c117.4,116.3-94.5,261.4,105,348L1536,2048V1344.1c-102.1-8.1-206.4-12.4-312.3-12.4C923.4,1331.7,636.5,1365.5,373.2,1426.9Z" transform="translate(-1)"/><rect class="cls-13" x="1224.2" y="1285.3" width="7.9" height="79.38"/><rect class="cls-13" x="1006.6" y="1285.3" width="7.9" height="79.38"/><polygon class="cls-13" points="997.5 1373.1 997.5 1426.8 1000.4 1429.5 1003.1 1426.8 1003.1 1373.1 997.5 1373.1"/><rect class="cls-14" x="994.8" y="1375.8" width="5.6" height="53.67"/><polygon class="cls-13" points="1241.2 1373.1 1241.2 1426.8 1238.3 1429.5 1235.6 1426.8 1235.6 1373.1 1241.2 1373.1"/><rect class="cls-14" x="1239.3" y="1375.8" width="5.6" height="53.67" transform="translate(2483.2 2805.3) rotate(180)"/><polygon class="cls-13" points="1009 1369 1009 1414.7 1011.5 1416.9 1013.7 1414.7 1013.7 1369 1009 1369"/><rect class="cls-14" x="1006.7" y="1371.3" width="4.7" height="45.67"/><polygon class="cls-13" points="1229.7 1369 1229.7 1414.7 1227.3 1416.9 1225 1414.7 1225 1369 1229.7 1369"/><rect class="cls-14" x="1228.3" y="1371.3" width="4.7" height="45.67" transform="translate(2460.3 2788.2) rotate(180)"/><rect class="cls-15" x="994.2" y="1365.4" width="250.4" height="4.05"/><rect class="cls-15" x="998.4" y="1306.3" width="243.9" height="17.32" rx="3.6" ry="3.6" transform="translate(2239.7 2630) rotate(180)"/><ellipse class="cls-13" cx="1228.2" cy="1315" rx="2.3" ry="2.3"/><ellipse class="cls-14" cx="1228.2" cy="1315" rx="1.9" ry="1.9"/><ellipse class="cls-13" cx="1010.5" cy="1315" rx="2.3" ry="2.3"/><ellipse class="cls-14" cx="1010.5" cy="1315" rx="1.9" ry="1.9"/><path class="cls-16" d="M1115,1306.3h-98.6c12.1,5.2,24.5,9.2,49.2,8.1A233.6,233.6,0,0,0,1115,1306.3Z" transform="translate(-1)"/><path class="cls-16" d="M1164.5,1311.6c-22.9.3-34.9,7.3-49.9,12h107.2C1203.9,1319,1188.1,1311.4,1164.5,1311.6Z" transform="translate(-1)"/><rect class="cls-15" x="997.4" y="1279.4" width="243.9" height="17.32" rx="3.6" ry="3.6"/><ellipse class="cls-13" cx="1010.5" cy="1288" rx="2.3" ry="2.3"/><ellipse class="cls-14" cx="1010.5" cy="1288" rx="1.9" ry="1.9"/><ellipse class="cls-13" cx="1228.2" cy="1288" rx="2.3" ry="2.3"/><ellipse class="cls-14" cx="1228.2" cy="1288" rx="1.9" ry="1.9"/><path class="cls-16" d="M1125.7,1296.7h98.6c-12.1-5.1-24.5-9.2-49.2-8.1A233.6,233.6,0,0,0,1125.7,1296.7Z" transform="translate(-1)"/><path class="cls-16" d="M1076.2,1291.4c22.9-.3,34.9-7.2,49.9-12H1018.9C1036.8,1284,1052.6,1291.7,1076.2,1291.4Z" transform="translate(-1)"/><rect class="cls-15" x="997.4" y="1333.3" width="243.9" height="17.32" rx="3.6" ry="3.6"/><ellipse class="cls-13" cx="1010.5" cy="1341.9" rx="2.3" ry="2.3"/><ellipse class="cls-14" cx="1010.5" cy="1341.9" rx="1.9" ry="1.9"/><ellipse class="cls-13" cx="1228.2" cy="1341.9" rx="2.3" ry="2.3"/><ellipse class="cls-14" cx="1228.2" cy="1341.9" rx="1.9" ry="1.9"/><path class="cls-16" d="M1125.7,1350.6h98.6c-12.1-5.2-24.5-9.2-49.2-8.1C1156.3,1343.3,1140.1,1346.8,1125.7,1350.6Z" transform="translate(-1)"/><path class="cls-16" d="M1076.2,1345.3c22.9-.3,34.9-7.3,49.9-12H1018.9C1036.8,1337.9,1052.6,1345.5,1076.2,1345.3Z" transform="translate(-1)"/><rect class="cls-15" x="988.2" y="1372.5" width="264.1" height="6.69"/><polygon class="cls-16" points="992.4 1367.6 988.2 1372.5 1252.3 1372.5 1248.2 1367.6 992.4 1367.6"/><polygon class="cls-16" points="1244.5 1365.4 1241.3 1361.5 997.4 1361.5 994.2 1365.4 1244.5 1365.4"/><path class="cls-13" d="M1005.7,1363.5c0,.4-.8.7-1.7.7s-1.7-.3-1.7-.7.8-.8,1.7-.8S1005.7,1363.1,1005.7,1363.5Z" transform="translate(-1)"/><ellipse class="cls-14" cx="1003" cy="1363.5" rx="1.4" ry="0.6"/><path class="cls-13" d="M1237.1,1363.5c0,.4-.8.7-1.7.7s-1.7-.3-1.7-.7.8-.8,1.7-.8S1237.1,1363.1,1237.1,1363.5Z" transform="translate(-1)"/><path class="cls-14" d="M1236.8,1363.5c0,.3-.6.6-1.4.6s-1.4-.3-1.4-.6.6-.6,1.4-.6S1236.8,1363.1,1236.8,1363.5Z" transform="translate(-1)"/><path class="cls-13" d="M1000.7,1369.9c0,.4-.8.7-1.8.7s-1.8-.3-1.8-.7.8-.8,1.8-.8S1000.7,1369.5,1000.7,1369.9Z" transform="translate(-1)"/><path class="cls-14" d="M1000.4,1369.9c0,.3-.7.6-1.5.6s-1.5-.3-1.5-.6.7-.7,1.5-.7S1000.4,1369.5,1000.4,1369.9Z" transform="translate(-1)"/><path class="cls-13" d="M1243.6,1369.9c0,.4-.8.7-1.8.7s-1.8-.3-1.8-.7.8-.8,1.8-.8S1243.6,1369.5,1243.6,1369.9Z" transform="translate(-1)"/><path class="cls-14" d="M1243.3,1369.9c0,.3-.7.6-1.5.6s-1.5-.3-1.5-.6.7-.7,1.5-.7S1243.3,1369.5,1243.3,1369.9Z" transform="translate(-1)"/><path class="cls-9" d="M402.6,1418.9q-108.9,24.4-212.3,55c-50.2,155.6-80.4,444.3-82.5,574.1H790.4c-32.9-19-66.6-39.5-100.8-61.5C399.3,1799.6,392.4,1519.2,402.6,1418.9Z" transform="translate(-1)"/><path class="cls-17" d="M4.6,1265.6v186.9c26.1-37.3,85.8-76.7,164.7-62.8,65.7,11.6,125.3-19,138.5-54s86.9-20.5,86.9-50.2c0-12.9-16.2-21.4-16.2-21.4-45.6-1.3-91.6-2.1-137.9-2.1C161,1262,82.2,1263.2,4.6,1265.6Z" transform="translate(-1)"/><path class="cls-7" d="M304.5,1240.3c-4.6-21.5-23.5-37.7-46.1-37.7a46.8,46.8,0,0,0-38.3,20,33.5,33.5,0,0,0,5.7,66.5,27.3,27.3,0,0,0,5-.5,46.8,46.8,0,0,0,51.2,2.6,27.9,27.9,0,1,0,22.5-50.9Z" transform="translate(-1)"/><path class="cls-18" d="M226.6,1222c9.5-14.5,25.4-18.9,25.4-18.9a47,47,0,0,0-31.9,19.4,33.3,33.3,0,0,0-27.2,28.7,41.5,41.5,0,0,1,57.5-18.2A33.8,33.8,0,0,0,226.6,1222Z" transform="translate(-1)"/><path class="cls-19" d="M304.5,1240.3a47.5,47.5,0,0,0-41.9-37.5c32.9,9.5,36.5,40.9,36.5,40.9,9.4,3.7,16.1,12,15,21.8-1.6,14.5-13.2,21.5-22.2,21.1a25.8,25.8,0,0,1-11.2-2.8c-6.3,3.7-17.3,6.3-25.1,6.3a40.7,40.7,0,0,1-24.5-7.8l-1.6.2-3,.2h-1.6c-8.8-.3-24.9-3.6-32.1-23.3a33.3,33.3,0,0,0,33,29.7,27.3,27.3,0,0,0,5-.5,46.8,46.8,0,0,0,51.2,2.6,27.9,27.9,0,1,0,22.5-50.9Z" transform="translate(-1)"/><path class="cls-20" d="M256.2,1248a7.9,7.9,0,0,0-3.4-.7c.3,3.2.5,11.4.7,16s.7,10.9-.4,13.5-3.6-1-4.5-2.8l-6.1-12.8-2.3,1.6s5.9,11.6,7.1,14.3,1.3,2.3,2.6,5.6,2.5,11.1,3.1,15.5a37.2,37.2,0,0,1-.2,8.8l-2.6-2.1v4.4l.7,1a11.5,11.5,0,0,1,1.7,5.7c.1,2.3.2,5.4.1,7s0,13.4,0,13.4H260s.5-31.5.5-37.7,8.2-22.9,8.2-22.9l-3.2-1.4s-4,12.7-5.7,13.6-2.5-13.8-2.5-18.6S256.2,1248,256.2,1248Z" transform="translate(-1)"/><path class="cls-21" d="M259.8,1288c-1.7,1-2.5-13.8-2.5-18.6s-1.1-21.4-1.1-21.4l-1.3-.5a33.6,33.6,0,0,1,.2,6.2c-.1,1.8.6,8.2.6,11.5s0,13.3.6,16.3a27.5,27.5,0,0,0,1.6,6.6C258.7,1289.5,259.8,1288,259.8,1288Z" transform="translate(-1)"/><path class="cls-21" d="M253.1,1276.8c-1.2,3.1-3.6-1-4.5-2.8l-6.1-12.8-.9.7c1.1,2.1,3.9,8.9,4.6,10.5s3.2,6.2,4.4,6.8,2.9-.6,3.1-1.7a23.7,23.7,0,0,0,.1-4.8A13.8,13.8,0,0,1,253.1,1276.8Z" transform="translate(-1)"/><path class="cls-21" d="M267.3,1275.2c-.4,1.4-1.5,3.8-2.6,6.4s-4.1,7.4-4.9,10.3-1.8,8.3-2.1,21.8c-.1,9,.5,17.1.6,22.7H260s.5-31.5.5-37.7,8.2-22.9,8.2-22.9Z" transform="translate(-1)"/><path class="cls-21" d="M250.2,1305.9c.9,1.2,2.5,2.9,2.6,1.1l-2.6-2.1Z" transform="translate(-1)"/><path class="cls-22" d="M187.3,1111.6a39.6,39.6,0,0,1-39.1-34.9,84.5,84.5,0,0,0-24.3-3.5c-48.5,0-87.9,39.7-87.9,88.7s39.4,88.7,87.9,88.7,88-39.7,88-88.7a88.3,88.3,0,0,0-16.2-51.2A46,46,0,0,1,187.3,1111.6Z" transform="translate(-1)"/><path class="cls-23" d="M136.6,1074.1a88.3,88.3,0,0,0-12.7-.9c-48.5,0-87.9,39.7-87.9,88.7a70,70,0,0,0,.5,9.2C46.6,1099.7,96.3,1081.2,136.6,1074.1Z" transform="translate(-1)"/><path class="cls-24" d="M187.3,1111.6a29.7,29.7,0,0,1-4.2-.3,88.6,88.6,0,0,1,9.2,39.5c0,49-39.3,88.7-87.9,88.7a86.3,86.3,0,0,1-33-6.5,86.4,86.4,0,0,0,52.5,17.6c48.6,0,88-39.7,88-88.7a88.3,88.3,0,0,0-16.2-51.2A46,46,0,0,1,187.3,1111.6Z" transform="translate(-1)"/><path class="cls-20" d="M118.8,1159.3s1.9,66.2,6.4,67.5,17.9-31.4,17.9-31.4l3.6,6.2s-16.4,33.3-18.9,48.5,0,78.2,0,78.2H113s4.2-66,3.5-83.7-5.4-42.4-5.1-53.4-1-26.7-1-26.7Z" transform="translate(-1)"/><path class="cls-21" d="M146.7,1201.6l-1.1-1.9c-1,1.5-2,3.3-2.9,5-1.9,4-9,19.3-12.7,27.5s-7.1,15.6-6.8,30.5c.3,12.3-.1,52.1-.3,65.6h4.9s-2.6-63,0-78.2S146.7,1201.6,146.7,1201.6Z" transform="translate(-1)"/><path class="cls-21" d="M124.5,1228.6a11.5,11.5,0,0,0,2.1-2.3,1.7,1.7,0,0,1-1.4.5c-4.5-1.3-6.4-67.5-6.4-67.5l-4.4,2.8C115.1,1177.9,117.7,1233.9,124.5,1228.6Z" transform="translate(-1)"/><path class="cls-24" d="M137.3,1092a4,4,0,1,1-4-4A4,4,0,0,1,137.3,1092Z" transform="translate(-1)"/><ellipse class="cls-24" cx="156.5" cy="1114.8" rx="7.8" ry="7.9"/><path class="cls-24" d="M106.6,1115.6a12,12,0,1,1-12-12.1A12,12,0,0,1,106.6,1115.6Z" transform="translate(-1)"/><path class="cls-19" d="M917.9,1237.6c35.6,13.6,47.7,42.4,146.4,35.5,133.3-9.3,156.2-52.5,214.4-13.9s76.6,47.9,170,37.1a434.3,434.3,0,0,1,87.3-.8v-93.4h-18.3C1310.3,1202.1,1109.2,1215.5,917.9,1237.6Z" transform="translate(-1)"/><path class="cls-25" d="M1448.9,1042.5c-16.3-77.7-84.6-135.9-166.5-135.9-57.1,0-107.6,28.4-138.5,71.9-56.5,9.9-99.4,59.5-99.4,119.2,0,66.9,53.8,121.2,120.1,121.2a121.9,121.9,0,0,0,18.2-1.5,169,169,0,0,0,185.1,9.3,98.6,98.6,0,0,0,45,10.8c55.3,0,100.1-45.2,100.1-100.9A100.9,100.9,0,0,0,1448.9,1042.5Z" transform="translate(-1)"/><path class="cls-26" d="M1167.5,976.7c34.3-52.6,91.9-68.5,91.9-68.5A169.6,169.6,0,0,0,1144,978.5c-51.5,9-91.6,50.9-98.4,103.5,24.7-50,75.9-84.5,135.1-84.5a149.3,149.3,0,0,1,72.7,18.9A119.4,119.4,0,0,0,1167.5,976.7Z" transform="translate(-1)"/><path class="cls-22" d="M1448.9,1042.5c-15.3-72.8-76.3-128.6-151.3-135.3,119,34.4,132,147.8,132,147.8,33.8,13.2,58.1,43.4,54.2,78.8-5.9,52.5-47.9,77.6-80.3,76-14.6-.7-28.4-3.5-40.6-9.8-22.7,13.3-62.5,22.5-90.6,22.5-33.6,0-63.3-9.5-88.6-27.9l-5.6.6a94.8,94.8,0,0,1-10.8.7h-5.8c-32.1-.9-90.2-13-116.2-84,7,60.3,57.7,107.1,119.3,107.1a121.9,121.9,0,0,0,18.2-1.5,169,169,0,0,0,185.1,9.3,98.6,98.6,0,0,0,45,10.8c55.3,0,100.1-45.2,100.1-100.9A100.9,100.9,0,0,0,1448.9,1042.5Z" transform="translate(-1)"/><path class="cls-22" d="M1300.9,935.7c-5.1,0-5.1,7.9,0,7.9S1305.9,935.7,1300.9,935.7Z" transform="translate(-1)"/><path class="cls-22" d="M1354,967.4c-10.2,0-10.2,15.9,0,15.9S1364.1,967.4,1354,967.4Z" transform="translate(-1)"/><path class="cls-22" d="M1395.9,1038.8c-10.1,0-10.1,15.9,0,15.9S1406.1,1038.8,1395.9,1038.8Z" transform="translate(-1)"/><path class="cls-22" d="M1442.5,1120.8c-10.1,0-10.2,15.9,0,15.9S1452.6,1120.8,1442.5,1120.8Z" transform="translate(-1)"/><path class="cls-22" d="M1115.3,1132.1c-12.7,0-12.7,19.8,0,19.8S1128,1132.1,1115.3,1132.1Z" transform="translate(-1)"/><path class="cls-22" d="M1332.3,1097.7c-12.6,0-12.6,19.8,0,19.8S1345,1097.7,1332.3,1097.7Z" transform="translate(-1)"/><path class="cls-20" d="M1274.4,1070.6c-3.4-2.8-12.3-2.8-12.3-2.8,1.4,11.8,2.1,41.5,2.7,58.1s2.5,39.2-1.3,48.8-13.2-3.7-16.5-10.4c-4.1-8.5-21.9-46-21.9-46l-8.3,5.6s21.3,42.1,25.4,51.8,4.8,8.3,9.6,20.1,8.9,40.1,11,56a129.4,129.4,0,0,1-.5,31.8l-9.5-7.5-.3,15.8,2.5,3.9a41.6,41.6,0,0,1,6.2,20.3c.3,8.5.6,19.6.2,25.6-.7,10.3,0,48.4,0,48.4h26.7s2.1-114.1,2.1-136.3,29.5-82.9,29.5-82.9L1308,1166s-14.4,45.7-20.5,49.1-9-49.8-9-67.1S1274.4,1070.6,1274.4,1070.6Z" transform="translate(-1)"/><path class="cls-21" d="M1287.5,1215.1c-6.2,3.5-9-49.8-9-67.1s-4.1-77.4-4.1-77.4a11.8,11.8,0,0,0-4.8-1.9c1.3,6.9,1.3,17.6.9,22.3-.5,6.8,2.1,29.6,2.1,41.5s.1,48.3,2.2,58.9,3.4,18.9,6,24.1S1287.5,1215.1,1287.5,1215.1Z" transform="translate(-1)"/><path class="cls-21" d="M1263.5,1174.7c-4.5,11-13.2-3.7-16.5-10.4-4.1-8.5-21.9-46-21.9-46l-3.5,2.3c4,7.6,14.3,32.2,16.7,38.2s11.5,22.3,15.9,24.5,10.5-2.1,11.3-6,.8-11.3.3-17.7C1265.6,1165.8,1264.9,1171.1,1263.5,1174.7Z" transform="translate(-1)"/><path class="cls-21" d="M1314.5,1168.7c-1.4,5.2-5.3,13.8-9.2,23.3-4.9,11.9-15,26.8-17.8,37.1s-6.4,29.9-7.4,79c-.7,32.2,1.8,61.8,2,82h6.1s2-114.1,2-136.3,29.5-82.9,29.5-82.9Z" transform="translate(-1)"/><path class="cls-21" d="M1252.8,1279.7c3.4,4.3,9.2,10.5,9.5,3.9l-9.5-7.5Z" transform="translate(-1)"/><rect class="cls-13" x="194.3" y="1304.5" width="1.9" height="18.58"/><rect class="cls-13" x="143.3" y="1304.5" width="1.9" height="18.58"/><polygon class="cls-13" points="141.2 1325 141.2 1337.6 141.9 1338.2 142.5 1337.6 142.5 1325 141.2 1325"/><rect class="cls-14" x="140.6" y="1325.7" width="1.3" height="12.56"/><polygon class="cls-13" points="198.2 1325 198.2 1337.6 197.5 1338.2 196.9 1337.6 196.9 1325 198.2 1325"/><rect class="cls-14" x="198.5" y="1325.7" width="1.3" height="12.56" transform="translate(397.4 2663.9) rotate(180)"/><polygon class="cls-13" points="143.9 1324.1 143.9 1334.8 144.5 1335.3 145 1334.8 145 1324.1 143.9 1324.1"/><rect class="cls-14" x="143.4" y="1324.6" width="1.1" height="10.69"/><polygon class="cls-13" points="195.5 1324.1 195.5 1334.8 195 1335.3 194.4 1334.8 194.4 1324.1 195.5 1324.1"/><rect class="cls-14" x="196" y="1324.6" width="1.1" height="10.69" transform="translate(392 2659.9) rotate(180)"/><rect class="cls-15" x="140.4" y="1323.2" width="58.6" height="0.95"/><rect class="cls-15" x="142.2" y="1309.4" width="57.1" height="4.05" rx="0.9" ry="0.9" transform="translate(340.4 2622.9) rotate(180)"/><path class="cls-13" d="M195.7,1311.4a.5.5,0,0,1,1,0,.5.5,0,1,1-1,0Z" transform="translate(-1)"/><path class="cls-14" d="M195.7,1311.4a.5.5,0,0,1,.5-.4.4.4,0,0,1,.4.4.5.5,0,0,1-.4.5A.5.5,0,0,1,195.7,1311.4Z" transform="translate(-1)"/><path class="cls-13" d="M144.7,1311.4a.5.5,0,0,1,.5-.5.6.6,0,0,1,.6.5.6.6,0,0,1-.6.6A.6.6,0,0,1,144.7,1311.4Z" transform="translate(-1)"/><path class="cls-14" d="M144.8,1311.4a.4.4,0,0,1,.4-.4.5.5,0,0,1,.5.4.5.5,0,0,1-.5.5A.5.5,0,0,1,144.8,1311.4Z" transform="translate(-1)"/><path class="cls-16" d="M169.5,1309.4H146.4c2.8,1.2,5.7,2.2,11.5,1.9A54,54,0,0,0,169.5,1309.4Z" transform="translate(-1)"/><path class="cls-16" d="M181.1,1310.6c-5.4.1-8.2,1.7-11.7,2.9h25.1C190.3,1312.4,186.6,1310.6,181.1,1310.6Z" transform="translate(-1)"/><rect class="cls-15" x="141.2" y="1303.1" width="57.1" height="4.05" rx="0.9" ry="0.9"/><path class="cls-13" d="M145.8,1305.1a.6.6,0,0,1-.6.6.6.6,0,0,1-.5-.6.5.5,0,0,1,.5-.5A.6.6,0,0,1,145.8,1305.1Z" transform="translate(-1)"/><path class="cls-14" d="M145.7,1305.1a.5.5,0,0,1-.5.5.5.5,0,0,1-.4-.5.4.4,0,0,1,.4-.4A.5.5,0,0,1,145.7,1305.1Z" transform="translate(-1)"/><path class="cls-13" d="M196.7,1305.1a.5.5,0,1,1-1,0,.5.5,0,0,1,1,0Z" transform="translate(-1)"/><path class="cls-14" d="M196.6,1305.1a.5.5,0,0,1-.4.5.5.5,0,0,1-.5-.5.5.5,0,0,1,.5-.4A.4.4,0,0,1,196.6,1305.1Z" transform="translate(-1)"/><path class="cls-16" d="M172,1307.2h23c-2.8-1.3-5.7-2.2-11.5-1.9A52,52,0,0,0,172,1307.2Z" transform="translate(-1)"/><path class="cls-16" d="M160.4,1305.9c5.3,0,8.2-1.7,11.7-2.8H147C151.2,1304.2,154.9,1306,160.4,1305.9Z" transform="translate(-1)"/><rect class="cls-15" x="141.2" y="1315.7" width="57.1" height="4.05" rx="0.9" ry="0.9"/><path class="cls-13" d="M145.8,1317.7a.6.6,0,0,1-.6.6.6.6,0,0,1-.5-.6.5.5,0,0,1,.5-.5A.6.6,0,0,1,145.8,1317.7Z" transform="translate(-1)"/><path class="cls-14" d="M145.7,1317.7a.5.5,0,0,1-.5.5.5.5,0,0,1-.4-.5.4.4,0,0,1,.4-.4A.5.5,0,0,1,145.7,1317.7Z" transform="translate(-1)"/><path class="cls-13" d="M196.7,1317.7a.5.5,0,1,1-1,0,.5.5,0,0,1,1,0Z" transform="translate(-1)"/><path class="cls-14" d="M196.6,1317.7a.5.5,0,0,1-.4.5.5.5,0,0,1-.5-.5.5.5,0,0,1,.5-.4A.4.4,0,0,1,196.6,1317.7Z" transform="translate(-1)"/><path class="cls-16" d="M172,1319.8h23c-2.8-1.2-5.7-2.2-11.5-1.9A52,52,0,0,0,172,1319.8Z" transform="translate(-1)"/><path class="cls-16" d="M160.4,1318.5c5.3,0,8.2-1.7,11.7-2.8H147C151.2,1316.8,154.9,1318.6,160.4,1318.5Z" transform="translate(-1)"/><rect class="cls-15" x="139" y="1324.9" width="61.8" height="1.57"/><polygon class="cls-16" points="140 1323.7 139 1324.9 200.8 1324.9 199.9 1323.7 140 1323.7"/><polygon class="cls-16" points="199 1323.2 198.2 1322.3 141.2 1322.3 140.4 1323.2 199 1323.2"/><ellipse class="cls-13" cx="142.5" cy="1322.8" rx="0.4" ry="0.2"/><path class="cls-14" d="M143.8,1322.8c0,.1-.1.1-.3.1s-.3,0-.3-.1.1-.2.3-.2S143.8,1322.7,143.8,1322.8Z" transform="translate(-1)"/><ellipse class="cls-13" cx="196.6" cy="1322.8" rx="0.4" ry="0.2"/><path class="cls-14" d="M198,1322.8c0,.1-.2.1-.4.1s-.3,0-.3-.1l.3-.2C197.8,1322.6,198,1322.7,198,1322.8Z" transform="translate(-1)"/><path class="cls-13" d="M142.7,1324.3c0,.1-.2.2-.4.2s-.4-.1-.4-.2.2-.2.4-.2Z" transform="translate(-1)"/><path class="cls-14" d="M142.6,1324.3c0,.1-.1.1-.3.1s-.4,0-.4-.1.2-.2.4-.2S142.6,1324.2,142.6,1324.3Z" transform="translate(-1)"/><path class="cls-13" d="M199.6,1324.3c0,.1-.2.2-.5.2s-.4-.1-.4-.2l.4-.2C199.4,1324.1,199.6,1324.2,199.6,1324.3Z" transform="translate(-1)"/><path class="cls-14" d="M199.5,1324.3c0,.1-.2.1-.4.1s-.3,0-.3-.1.1-.2.3-.2S199.5,1324.2,199.5,1324.3Z" transform="translate(-1)"/><path class="cls-19" d="M1392.6,1417.4c-.4-26.6.9-40,.9-40.1h-.8c0,.1-1.4,13.6-1,40.2Z" transform="translate(-1)"/><path class="cls-19" d="M1384.7,1391.8a54,54,0,0,1,3.8,12.6,112.6,112.6,0,0,1,1.6,13h3.5a.4.4,0,0,1-.1-.3,101.4,101.4,0,0,0-2.8-13.3,56,56,0,0,0-4.9-12.5,23.7,23.7,0,0,0-9.1-9.7C1380.4,1384,1382.9,1387.8,1384.7,1391.8Z" transform="translate(-1)"/><path class="cls-27" d="M1396.5,1363.6c0,3.9-1.7,7.1-3.8,7.1s-3.8-3.2-3.8-7.1,1.7-7,3.8-7S1396.5,1359.7,1396.5,1363.6Z" transform="translate(-1)"/><path class="cls-28" d="M1392.7,1356.6v14.1c2.1,0,3.8-3.2,3.8-7.1S1394.8,1356.6,1392.7,1356.6Z" transform="translate(-1)"/><path class="cls-27" d="M1388.9,1377.4c0,3.9,1.7,7,3.8,7s3.8-3.1,3.8-7-1.7-7.1-3.8-7.1S1388.9,1373.4,1388.9,1377.4Z" transform="translate(-1)"/><path class="cls-28" d="M1392.7,1370.3v14.1c-2.1,0-3.8-3.1-3.8-7S1390.6,1370.3,1392.7,1370.3Z" transform="translate(-1)"/><path class="cls-27" d="M1399.5,1374.3c-3.8,0-7-1.7-7-3.8s3.2-3.8,7-3.8,7,1.7,7,3.8S1403.4,1374.3,1399.5,1374.3Z" transform="translate(-1)"/><path class="cls-28" d="M1406.5,1370.5h-14c0,2.1,3.2,3.8,7,3.8S1406.5,1372.6,1406.5,1370.5Z" transform="translate(-1)"/><path class="cls-27" d="M1385.9,1366.7c-3.8,0-7,1.7-7,3.8s3.2,3.8,7,3.8,7-1.7,7-3.8S1389.8,1366.7,1385.9,1366.7Z" transform="translate(-1)"/><path class="cls-28" d="M1392.9,1370.5h-14c0-2.1,3.2-3.8,7-3.8S1392.9,1368.4,1392.9,1370.5Z" transform="translate(-1)"/><path class="cls-27" d="M1400.2,1368.4c-2.7,2.7-6.1,3.7-7.6,2.2s-.5-4.9,2.3-7.7,6.1-3.7,7.6-2.2S1403,1365.6,1400.2,1368.4Z" transform="translate(-1)"/><path class="cls-28" d="M1402.5,1360.7l-9.9,9.9c1.5,1.5,4.9.5,7.6-2.2S1404,1362.1,1402.5,1360.7Z" transform="translate(-1)"/><path class="cls-27" d="M1385.2,1372.6c-2.7,2.8-3.7,6.2-2.2,7.7s4.9.5,7.6-2.2,3.8-6.3,2.3-7.8S1388,1369.9,1385.2,1372.6Z" transform="translate(-1)"/><path class="cls-28" d="M1392.9,1370.3l-9.9,10c-1.5-1.5-.5-4.9,2.2-7.7S1391.4,1368.9,1392.9,1370.3Z" transform="translate(-1)"/><ellipse class="cls-27" cx="1397.5" cy="1375.3" rx="3.8" ry="7" transform="translate(-564.2 1375.9) rotate(-44.6)"/><path class="cls-28" d="M1402.5,1380.3l-9.9-10c-1.5,1.5-.5,5,2.3,7.8S1401,1381.8,1402.5,1380.3Z" transform="translate(-1)"/><path class="cls-27" d="M1390.6,1362.9c-2.7-2.7-6.1-3.7-7.6-2.2s-.5,4.9,2.2,7.7,6.2,3.7,7.7,2.2S1393.3,1365.7,1390.6,1362.9Z" transform="translate(-1)"/><path class="cls-28" d="M1392.9,1370.6l-9.9-9.9c1.5-1.5,4.9-.5,7.6,2.2S1394.4,1369.2,1392.9,1370.6Z" transform="translate(-1)"/><path class="cls-29" d="M1397.3,1370.5a4.7,4.7,0,0,1-4.6,4.6,4.6,4.6,0,0,1,0-9.2A4.7,4.7,0,0,1,1397.3,1370.5Z" transform="translate(-1)"/><path class="cls-30" d="M1396.4,1370.5a3.7,3.7,0,1,1-7.3,0,3.7,3.7,0,1,1,7.3,0Z" transform="translate(-1)"/><path class="cls-7" d="M1394.7,1417.4c0-1.2.1-2.4.2-3.5a89.5,89.5,0,0,1,3-16.4,71.9,71.9,0,0,1,6.5-15.4l2.2-3.6,2.5-3.3,1.3-1.7,1.4-1.5,3-3-3.2,2.8-1.5,1.4-1.4,1.6a40,40,0,0,0-2.8,3.2l-2.5,3.5a68.6,68.6,0,0,0-7.7,15.3,96.1,96.1,0,0,0-4.2,16.6l-.6,4Z" transform="translate(-1)"/><path class="cls-19" d="M43.4,1500.8c-.4-25.8.9-38.7.9-38.9h-.8c0,.2-1.3,13.2-.9,39Z" transform="translate(-1)"/><path class="cls-19" d="M35.8,1476a57.1,57.1,0,0,1,3.6,12.2,105.8,105.8,0,0,1,1.6,12.6h3.3v-.3a118.4,118.4,0,0,0-2.7-12.9,57.6,57.6,0,0,0-4.8-12.1c-2.1-3.8-5-7.4-8.8-9.4C31.6,1468.4,34,1472.1,35.8,1476Z" transform="translate(-1)"/><path class="cls-31" d="M47.2,1448.7c0,3.8-1.6,6.8-3.7,6.8s-3.6-3-3.6-6.8,1.6-6.9,3.6-6.9S47.2,1444.9,47.2,1448.7Z" transform="translate(-1)"/><path class="cls-32" d="M43.5,1441.8v13.7c2.1,0,3.7-3,3.7-6.8S45.6,1441.8,43.5,1441.8Z" transform="translate(-1)"/><path class="cls-31" d="M39.9,1462c0,3.8,1.6,6.8,3.6,6.8s3.7-3,3.7-6.8-1.6-6.9-3.7-6.9S39.9,1458.2,39.9,1462Z" transform="translate(-1)"/><path class="cls-32" d="M43.5,1455.1v13.7c-2,0-3.6-3-3.6-6.8S41.5,1455.1,43.5,1455.1Z" transform="translate(-1)"/><ellipse class="cls-31" cx="49.1" cy="1455.3" rx="6.8" ry="3.7"/><path class="cls-32" d="M56.9,1455.3H43.3c0,2.1,3.1,3.7,6.8,3.7S56.9,1457.4,56.9,1455.3Z" transform="translate(-1)"/><ellipse class="cls-31" cx="35.9" cy="1455.3" rx="6.8" ry="3.7"/><path class="cls-32" d="M43.7,1455.3H30.2c0-2,3-3.7,6.7-3.7S43.7,1453.3,43.7,1455.3Z" transform="translate(-1)"/><ellipse class="cls-31" cx="48.2" cy="1450.6" rx="6.8" ry="3.7" transform="translate(-1020.3 467.2) rotate(-45.4)"/><path class="cls-32" d="M53,1445.8l-9.6,9.7c1.4,1.4,4.7.4,7.4-2.2S54.4,1447.2,53,1445.8Z" transform="translate(-1)"/><path class="cls-31" d="M36.3,1457.4c-2.7,2.7-3.7,6-2.2,7.5s4.7.4,7.4-2.2,3.6-6.1,2.2-7.5S38.9,1454.7,36.3,1457.4Z" transform="translate(-1)"/><path class="cls-32" d="M43.7,1455.2l-9.6,9.7c-1.5-1.5-.5-4.8,2.2-7.5S42.2,1453.7,43.7,1455.2Z" transform="translate(-1)"/><path class="cls-31" d="M45.6,1462.7c-2.7-2.7-3.6-6.1-2.2-7.5s4.7-.5,7.4,2.2,3.6,6,2.2,7.5S48.2,1465.3,45.6,1462.7Z" transform="translate(-1)"/><path class="cls-32" d="M53,1464.9l-9.6-9.7c-1.4,1.4-.5,4.8,2.2,7.5S51.6,1466.3,53,1464.9Z" transform="translate(-1)"/><path class="cls-31" d="M41.5,1448c-2.7-2.7-6-3.7-7.4-2.2s-.5,4.8,2.2,7.5,5.9,3.6,7.4,2.2S44.1,1450.7,41.5,1448Z" transform="translate(-1)"/><path class="cls-32" d="M43.7,1455.5l-9.6-9.7c1.4-1.5,4.7-.5,7.4,2.2S45.1,1454,43.7,1455.5Z" transform="translate(-1)"/><ellipse class="cls-29" cx="42.5" cy="1455.3" rx="4.4" ry="4.4"/><ellipse class="cls-30" cx="42.5" cy="1455.3" rx="3.6" ry="3.6"/><path class="cls-7" d="M45.4,1500.8c.1-1.1.1-2.3.2-3.4a85.8,85.8,0,0,1,3-15.9,67,67,0,0,1,6.2-14.9l2.2-3.5c.7-1.1,1.6-2.1,2.4-3.2l1.2-1.6,1.5-1.5,2.8-3-3,2.8-1.6,1.4-1.3,1.5a40,40,0,0,0-2.7,3.1l-2.4,3.4a66.1,66.1,0,0,0-7.4,14.8,89.7,89.7,0,0,0-4.2,16.2c-.2,1.3-.4,2.5-.5,3.8Z" transform="translate(-1)"/><path class="cls-19" d="M848.3,1497.2c-.4-29,1-43.6,1.1-43.8h-1c0,.2-1.4,14.8-1,43.9Z" transform="translate(-1)"/><path class="cls-19" d="M839.8,1469.2a65.5,65.5,0,0,1,4.1,13.7,113.9,113.9,0,0,1,1.7,14.3h3.8a.6.6,0,0,0-.1-.4,99.5,99.5,0,0,0-3-14.4,60.1,60.1,0,0,0-5.4-13.7c-2.4-4.3-5.6-8.3-9.9-10.6C835.1,1460.7,837.8,1464.9,839.8,1469.2Z" transform="translate(-1)"/><path class="cls-27" d="M852.6,1438.5c0,4.3-1.8,7.7-4.1,7.7s-4.1-3.4-4.1-7.7,1.8-7.7,4.1-7.7S852.6,1434.3,852.6,1438.5Z" transform="translate(-1)"/><path class="cls-28" d="M848.5,1430.8v15.4c2.3,0,4.1-3.4,4.1-7.7S850.8,1430.8,848.5,1430.8Z" transform="translate(-1)"/><path class="cls-27" d="M844.4,1453.5c0,4.2,1.8,7.7,4.1,7.7s4.1-3.5,4.1-7.7-1.8-7.7-4.1-7.7S844.4,1449.2,844.4,1453.5Z" transform="translate(-1)"/><path class="cls-28" d="M848.5,1445.8v15.4c-2.3,0-4.1-3.5-4.1-7.7S846.2,1445.8,848.5,1445.8Z" transform="translate(-1)"/><path class="cls-27" d="M855.9,1450.2c-4.2,0-7.6-1.9-7.6-4.2s3.4-4.2,7.6-4.2,7.7,1.9,7.7,4.2S860.1,1450.2,855.9,1450.2Z" transform="translate(-1)"/><path class="cls-28" d="M863.6,1446H848.3c0,2.3,3.4,4.2,7.6,4.2S863.6,1448.3,863.6,1446Z" transform="translate(-1)"/><path class="cls-27" d="M841.1,1441.8c-4.2,0-7.7,1.9-7.7,4.2s3.5,4.2,7.7,4.2,7.6-1.9,7.6-4.2S845.3,1441.8,841.1,1441.8Z" transform="translate(-1)"/><path class="cls-28" d="M848.7,1446H833.4c0-2.3,3.5-4.2,7.7-4.2S848.7,1443.7,848.7,1446Z" transform="translate(-1)"/><path class="cls-27" d="M856.7,1443.7c-3,3-6.8,4.1-8.4,2.5s-.5-5.4,2.5-8.4,6.7-4.2,8.3-2.5S859.6,1440.7,856.7,1443.7Z" transform="translate(-1)"/><path class="cls-28" d="M859.1,1435.3l-10.8,10.9c1.6,1.6,5.4.5,8.4-2.5S860.8,1436.9,859.1,1435.3Z" transform="translate(-1)"/><path class="cls-27" d="M840.3,1448.3c-3,3.1-4.1,6.8-2.5,8.4s5.4.6,8.4-2.5,4.1-6.7,2.5-8.4S843.3,1445.3,840.3,1448.3Z" transform="translate(-1)"/><path class="cls-28" d="M848.7,1445.8l-10.9,10.9c-1.6-1.6-.5-5.3,2.5-8.4S847,1444.2,848.7,1445.8Z" transform="translate(-1)"/><path class="cls-27" d="M850.8,1454.2c-3-3-4.1-6.7-2.5-8.4s5.4-.5,8.4,2.5,4.1,6.8,2.4,8.4S853.8,1457.3,850.8,1454.2Z" transform="translate(-1)"/><path class="cls-28" d="M859.1,1456.7l-10.8-10.9c-1.6,1.7-.5,5.4,2.5,8.4S857.5,1458.4,859.1,1456.7Z" transform="translate(-1)"/><path class="cls-27" d="M846.2,1437.8c-3-3-6.7-4.2-8.4-2.5s-.5,5.4,2.5,8.4,6.7,4.1,8.4,2.5S849.2,1440.8,846.2,1437.8Z" transform="translate(-1)"/><path class="cls-28" d="M848.7,1446.2l-10.9-10.9c1.7-1.7,5.4-.5,8.4,2.5S850.3,1444.5,848.7,1446.2Z" transform="translate(-1)"/><path class="cls-29" d="M853.5,1446a5,5,0,1,1-5-5A5,5,0,0,1,853.5,1446Z" transform="translate(-1)"/><path class="cls-30" d="M852.5,1446a4,4,0,1,1-8,0,4,4,0,0,1,8,0Z" transform="translate(-1)"/><path class="cls-7" d="M850.6,1497.2l.3-3.9a92.4,92.4,0,0,1,3.3-17.9,73.9,73.9,0,0,1,7-16.7l2.4-3.9c.8-1.3,1.8-2.5,2.7-3.7l1.4-1.8,1.6-1.7,3.2-3.3-3.4,3.1-1.7,1.6-1.5,1.7-3.1,3.5-2.7,3.8a72.3,72.3,0,0,0-8.3,16.7,100.3,100.3,0,0,0-4.7,18.1l-.6,4.4Z" transform="translate(-1)"/><path class="cls-19" d="M627.6,1414.5c-.4-30.5,1.1-45.8,1.1-46h-1c0,.2-1.5,15.5-1,46.1Z" transform="translate(-1)"/><path class="cls-19" d="M618.6,1385.1a61.2,61.2,0,0,1,4.3,14.4,122.9,122.9,0,0,1,1.9,15h3.9v-.4a128.1,128.1,0,0,0-3.2-15.2,66.5,66.5,0,0,0-5.7-14.4c-2.5-4.5-5.9-8.7-10.4-11.1C613.7,1376.2,616.6,1380.6,618.6,1385.1Z" transform="translate(-1)"/><path class="cls-31" d="M632.1,1352.9c0,4.4-1.9,8.1-4.3,8.1s-4.3-3.7-4.3-8.1,1.9-8.1,4.3-8.1S632.1,1348.4,632.1,1352.9Z" transform="translate(-1)"/><path class="cls-32" d="M627.8,1344.8V1361c2.4,0,4.3-3.7,4.3-8.1S630.2,1344.8,627.8,1344.8Z" transform="translate(-1)"/><path class="cls-31" d="M623.5,1368.6c0,4.4,1.9,8.1,4.3,8.1s4.3-3.7,4.3-8.1-1.9-8.1-4.3-8.1S623.5,1364.1,623.5,1368.6Z" transform="translate(-1)"/><path class="cls-32" d="M627.8,1360.5v16.2c-2.4,0-4.3-3.7-4.3-8.1S625.4,1360.5,627.8,1360.5Z" transform="translate(-1)"/><path class="cls-31" d="M635.6,1365.1c-4.4,0-8-2-8-4.4s3.6-4.4,8-4.4,8,2,8,4.4S640,1365.1,635.6,1365.1Z" transform="translate(-1)"/><path class="cls-32" d="M643.6,1360.7h-16c0,2.4,3.6,4.4,8,4.4S643.6,1363.1,643.6,1360.7Z" transform="translate(-1)"/><path class="cls-31" d="M620,1356.3c-4.4,0-8,2-8,4.4s3.6,4.4,8,4.4,8-2,8-4.4S624.4,1356.3,620,1356.3Z" transform="translate(-1)"/><path class="cls-32" d="M628,1360.7H612c0-2.4,3.6-4.4,8-4.4S628,1358.3,628,1360.7Z" transform="translate(-1)"/><path class="cls-31" d="M636.4,1358.3c-3.2,3.1-7.1,4.3-8.8,2.6s-.5-5.7,2.6-8.8,7.1-4.4,8.8-2.7S639.5,1355.1,636.4,1358.3Z" transform="translate(-1)"/><path class="cls-32" d="M639,1349.4l-11.4,11.5c1.7,1.7,5.6.5,8.8-2.6S640.7,1351.2,639,1349.4Z" transform="translate(-1)"/><path class="cls-31" d="M619.2,1363.2c-3.1,3.1-4.3,7.1-2.6,8.8s5.6.5,8.8-2.6,4.3-7.1,2.6-8.9S622.4,1360,619.2,1363.2Z" transform="translate(-1)"/><path class="cls-32" d="M628,1360.5,616.6,1372c-1.7-1.7-.5-5.7,2.6-8.8S626.3,1358.8,628,1360.5Z" transform="translate(-1)"/><path class="cls-31" d="M630.2,1369.4c-3.1-3.2-4.3-7.1-2.6-8.9s5.6-.5,8.8,2.7,4.3,7.1,2.6,8.8S633.4,1372.5,630.2,1369.4Z" transform="translate(-1)"/><path class="cls-32" d="M639,1372l-11.4-11.5c-1.7,1.8-.5,5.7,2.6,8.9S637.3,1373.7,639,1372Z" transform="translate(-1)"/><path class="cls-31" d="M625.4,1352.1c-3.2-3.2-7.1-4.4-8.8-2.7s-.5,5.7,2.6,8.9,7.1,4.3,8.8,2.6S628.5,1355.2,625.4,1352.1Z" transform="translate(-1)"/><path class="cls-32" d="M628,1360.9l-11.4-11.5c1.7-1.7,5.6-.5,8.8,2.7S629.7,1359.2,628,1360.9Z" transform="translate(-1)"/><ellipse class="cls-29" cx="626.8" cy="1360.7" rx="5.2" ry="5.2"/><path class="cls-30" d="M632,1360.7a4.2,4.2,0,1,1-4.2-4.2A4.2,4.2,0,0,1,632,1360.7Z" transform="translate(-1)"/><path class="cls-7" d="M630,1414.5l.3-4.1a102,102,0,0,1,3.5-18.8,77,77,0,0,1,7.3-17.6l2.6-4.1c.8-1.3,1.9-2.5,2.8-3.8l1.5-1.9,1.7-1.8,3.3-3.5-3.5,3.3-1.8,1.6-1.7,1.8c-1,1.3-2.1,2.4-3.1,3.7l-2.9,4a84.4,84.4,0,0,0-8.8,17.5,104.8,104.8,0,0,0-4.8,19.1c-.3,1.5-.5,3-.7,4.6Z" transform="translate(-1)"/><path class="cls-19" d="M1116.1,1524.1c-.5-30.5,1-45.8,1-46h-1c0,.2-1.5,15.5-1,46.1Z" transform="translate(-1)"/><path class="cls-19" d="M1107,1494.7a66.5,66.5,0,0,1,4.4,14.4,122.9,122.9,0,0,1,1.8,15h4a.8.8,0,0,1-.1-.4,128.1,128.1,0,0,0-3.2-15.2,66.5,66.5,0,0,0-5.7-14.4c-2.5-4.5-5.8-8.7-10.4-11.1C1102.1,1485.8,1105,1490.2,1107,1494.7Z" transform="translate(-1)"/><ellipse class="cls-31" cx="1115.2" cy="1462.5" rx="4.3" ry="8.1"/><path class="cls-32" d="M1116.2,1454.4v16.2c2.4,0,4.4-3.7,4.4-8.1S1118.6,1454.4,1116.2,1454.4Z" transform="translate(-1)"/><ellipse class="cls-31" cx="1115.2" cy="1478.2" rx="4.3" ry="8.1"/><path class="cls-32" d="M1116.2,1470.1v16.2c-2.4,0-4.3-3.7-4.3-8.1S1113.8,1470.1,1116.2,1470.1Z" transform="translate(-1)"/><path class="cls-31" d="M1124,1474.7c-4.4,0-8-2-8-4.4s3.6-4.4,8-4.4,8,2,8,4.4S1128.4,1474.7,1124,1474.7Z" transform="translate(-1)"/><path class="cls-32" d="M1132,1470.3h-16c0,2.4,3.6,4.4,8,4.4S1132,1472.7,1132,1470.3Z" transform="translate(-1)"/><path class="cls-31" d="M1108.4,1465.9c-4.4,0-8,2-8,4.4s3.6,4.4,8,4.4,8.1-2,8.1-4.4S1112.9,1465.9,1108.4,1465.9Z" transform="translate(-1)"/><path class="cls-32" d="M1116.5,1470.3h-16.1c0-2.4,3.6-4.4,8-4.4S1116.5,1467.9,1116.5,1470.3Z" transform="translate(-1)"/><path class="cls-31" d="M1124.8,1467.9c-3.1,3.1-7.1,4.3-8.8,2.6s-.5-5.7,2.6-8.8,7.1-4.4,8.8-2.7S1127.9,1464.7,1124.8,1467.9Z" transform="translate(-1)"/><path class="cls-32" d="M1127.4,1459l-11.4,11.5c1.7,1.7,5.7.5,8.8-2.6S1129.1,1460.8,1127.4,1459Z" transform="translate(-1)"/><path class="cls-31" d="M1107.6,1472.8c-3.1,3.1-4.3,7.1-2.6,8.8s5.6.5,8.8-2.6,4.3-7.1,2.6-8.9S1110.8,1469.6,1107.6,1472.8Z" transform="translate(-1)"/><path class="cls-32" d="M1116.4,1470.1l-11.4,11.5c-1.7-1.7-.5-5.7,2.6-8.8S1114.7,1468.4,1116.4,1470.1Z" transform="translate(-1)"/><path class="cls-31" d="M1118.6,1479c-3.1-3.2-4.3-7.1-2.6-8.9s5.7-.5,8.8,2.7,4.3,7.1,2.6,8.8S1121.8,1482.1,1118.6,1479Z" transform="translate(-1)"/><path class="cls-32" d="M1127.4,1481.6l-11.4-11.5c-1.7,1.8-.5,5.7,2.6,8.9S1125.7,1483.3,1127.4,1481.6Z" transform="translate(-1)"/><path class="cls-31" d="M1113.8,1461.7c-3.2-3.2-7.1-4.4-8.8-2.7s-.5,5.7,2.6,8.9,7.1,4.3,8.8,2.6S1116.9,1464.8,1113.8,1461.7Z" transform="translate(-1)"/><path class="cls-32" d="M1116.4,1470.5,1105,1459c1.7-1.7,5.6-.5,8.8,2.7S1118.1,1468.8,1116.4,1470.5Z" transform="translate(-1)"/><ellipse class="cls-29" cx="1115.2" cy="1470.3" rx="5.2" ry="5.2"/><path class="cls-30" d="M1120.4,1470.3a4.2,4.2,0,1,1-4.2-4.2A4.2,4.2,0,0,1,1120.4,1470.3Z" transform="translate(-1)"/><path class="cls-7" d="M1118.4,1524.1l.3-4.1a102,102,0,0,1,3.5-18.8,77,77,0,0,1,7.3-17.6l2.6-4.1c.9-1.3,1.9-2.5,2.9-3.8l1.4-1.9,1.7-1.8,3.4-3.5-3.6,3.3-1.8,1.6-1.6,1.8c-1.1,1.3-2.2,2.4-3.2,3.7l-2.9,4a79.4,79.4,0,0,0-8.7,17.5,105,105,0,0,0-4.9,19.1c-.2,1.5-.5,3-.6,4.6Z" transform="translate(-1)"/><path class="cls-19" d="M1446.2,1583.1c-.6-39.2,1.3-58.9,1.4-59.1h-1.3c0,.2-2,20-1.4,59.2Z" transform="translate(-1)"/><path class="cls-19" d="M1434.6,1545.4a79.1,79.1,0,0,1,5.6,18.5,154.8,154.8,0,0,1,2.3,19.2h5.1a.9.9,0,0,0-.1-.5,143.5,143.5,0,0,0-4-19.5,82.2,82.2,0,0,0-7.4-18.5c-3.2-5.8-7.5-11.2-13.3-14.3C1428.3,1533.9,1432,1539.5,1434.6,1545.4Z" transform="translate(-1)"/><path class="cls-27" d="M1452,1503.9c0,5.8-2.5,10.4-5.6,10.4s-5.6-4.6-5.6-10.4,2.5-10.4,5.6-10.4S1452,1498.2,1452,1503.9Z" transform="translate(-1)"/><path class="cls-28" d="M1446.4,1493.5v20.8c3.1,0,5.6-4.6,5.6-10.4S1449.5,1493.5,1446.4,1493.5Z" transform="translate(-1)"/><path class="cls-27" d="M1440.8,1524.1c0,5.8,2.5,10.4,5.6,10.4s5.6-4.6,5.6-10.4-2.5-10.4-5.6-10.4S1440.8,1518.4,1440.8,1524.1Z" transform="translate(-1)"/><path class="cls-28" d="M1446.4,1513.7v20.8c-3.1,0-5.6-4.6-5.6-10.4S1443.3,1513.7,1446.4,1513.7Z" transform="translate(-1)"/><path class="cls-27" d="M1456.4,1519.7c-5.7,0-10.3-2.6-10.3-5.7s4.6-5.6,10.3-5.6,10.3,2.5,10.3,5.6S1462.1,1519.7,1456.4,1519.7Z" transform="translate(-1)"/><path class="cls-28" d="M1466.7,1514h-20.6c0,3.1,4.6,5.7,10.3,5.7S1466.7,1517.1,1466.7,1514Z" transform="translate(-1)"/><path class="cls-27" d="M1436.4,1508.4c-5.7,0-10.3,2.5-10.3,5.6s4.6,5.7,10.3,5.7,10.3-2.6,10.3-5.7S1442.1,1508.4,1436.4,1508.4Z" transform="translate(-1)"/><path class="cls-28" d="M1446.7,1514h-20.6c0-3.1,4.6-5.6,10.3-5.6S1446.7,1510.9,1446.7,1514Z" transform="translate(-1)"/><path class="cls-27" d="M1457.4,1510.9c-4,4-9,5.5-11.2,3.3s-.7-7.2,3.3-11.3,9.1-5.6,11.3-3.4S1461.5,1506.8,1457.4,1510.9Z" transform="translate(-1)"/><path class="cls-28" d="M1460.8,1499.5l-14.6,14.7c2.2,2.2,7.2.7,11.2-3.3S1463,1501.7,1460.8,1499.5Z" transform="translate(-1)"/><path class="cls-27" d="M1435.4,1517.2c-4.1,4-5.5,9.1-3.4,11.3s7.2.7,11.3-3.4,5.5-9.1,3.3-11.3S1439.4,1513.1,1435.4,1517.2Z" transform="translate(-1)"/><path class="cls-28" d="M1446.6,1513.8l-14.6,14.7c-2.1-2.2-.7-7.3,3.4-11.3S1444.4,1511.6,1446.6,1513.8Z" transform="translate(-1)"/><path class="cls-27" d="M1449.5,1525.1c-4-4-5.5-9.1-3.3-11.3s7.2-.7,11.2,3.4,5.6,9.1,3.4,11.3S1453.6,1529.2,1449.5,1525.1Z" transform="translate(-1)"/><path class="cls-28" d="M1460.8,1528.5l-14.6-14.7c-2.2,2.2-.7,7.3,3.3,11.3S1458.6,1530.7,1460.8,1528.5Z" transform="translate(-1)"/><path class="cls-27" d="M1443.3,1502.9c-4.1-4.1-9.1-5.6-11.3-3.4s-.7,7.3,3.4,11.4,9,5.5,11.2,3.3S1447.3,1507,1443.3,1502.9Z" transform="translate(-1)"/><path class="cls-28" d="M1446.6,1514.3l-14.6-14.8c2.2-2.2,7.2-.7,11.3,3.4S1448.8,1512.1,1446.6,1514.3Z" transform="translate(-1)"/><ellipse class="cls-29" cx="1445.4" cy="1514" rx="6.7" ry="6.7"/><path class="cls-30" d="M1451.8,1514a5.4,5.4,0,1,1-10.8,0,5.4,5.4,0,1,1,10.8,0Z" transform="translate(-1)"/><path class="cls-7" d="M1449.2,1583.1c.1-1.7.3-3.5.4-5.2a140.1,140.1,0,0,1,4.4-24.1,102.9,102.9,0,0,1,9.5-22.7l3.3-5.3c1.1-1.7,2.5-3.2,3.7-4.9l1.9-2.4,2.1-2.3,4.3-4.4-4.6,4.1-2.3,2.1-2,2.4a46,46,0,0,0-4.1,4.7l-3.7,5.1a103.1,103.1,0,0,0-11.3,22.5,137.4,137.4,0,0,0-6.2,24.5c-.3,2-.6,3.9-.8,5.9Z" transform="translate(-1)"/><path class="cls-19" d="M1258.9,1707.9c-.6-39.2,1.3-58.9,1.3-59.1H1259c0,.2-2,20-1.4,59.2Z" transform="translate(-1)"/><path class="cls-19" d="M1247.3,1670.2a83.9,83.9,0,0,1,5.5,18.5,138,138,0,0,1,2.4,19.2h5.1a.9.9,0,0,0-.1-.5,160.8,160.8,0,0,0-4.1-19.5,86.9,86.9,0,0,0-7.3-18.5c-3.2-5.8-7.5-11.2-13.3-14.2C1241,1658.7,1244.7,1664.3,1247.3,1670.2Z" transform="translate(-1)"/><path class="cls-27" d="M1264.7,1628.7c0,5.8-2.5,10.4-5.6,10.4s-5.6-4.6-5.6-10.4,2.5-10.4,5.6-10.4S1264.7,1623,1264.7,1628.7Z" transform="translate(-1)"/><path class="cls-28" d="M1259.1,1618.3v20.8c3.1,0,5.6-4.6,5.6-10.4S1262.2,1618.3,1259.1,1618.3Z" transform="translate(-1)"/><path class="cls-27" d="M1253.5,1648.9c0,5.8,2.5,10.4,5.6,10.4s5.6-4.6,5.6-10.4-2.5-10.4-5.6-10.4S1253.5,1643.2,1253.5,1648.9Z" transform="translate(-1)"/><path class="cls-28" d="M1259.1,1638.5v20.8c-3.1,0-5.6-4.6-5.6-10.4S1256,1638.5,1259.1,1638.5Z" transform="translate(-1)"/><path class="cls-27" d="M1269.1,1644.5c-5.7,0-10.3-2.6-10.3-5.7s4.6-5.6,10.3-5.6,10.3,2.5,10.3,5.6S1274.8,1644.5,1269.1,1644.5Z" transform="translate(-1)"/><path class="cls-28" d="M1279.4,1638.8h-20.6c0,3.1,4.6,5.7,10.3,5.7S1279.4,1641.9,1279.4,1638.8Z" transform="translate(-1)"/><path class="cls-27" d="M1249.1,1633.2c-5.7,0-10.3,2.5-10.3,5.6s4.6,5.7,10.3,5.7,10.3-2.6,10.3-5.7S1254.8,1633.2,1249.1,1633.2Z" transform="translate(-1)"/><path class="cls-28" d="M1259.4,1638.8h-20.6c0-3.1,4.6-5.6,10.3-5.6S1259.4,1635.7,1259.4,1638.8Z" transform="translate(-1)"/><path class="cls-27" d="M1270.1,1635.7c-4,4-9.1,5.6-11.2,3.4s-.7-7.3,3.3-11.4,9.1-5.6,11.3-3.4S1274.1,1631.6,1270.1,1635.7Z" transform="translate(-1)"/><path class="cls-28" d="M1273.5,1624.3l-14.6,14.8c2.1,2.2,7.2.6,11.2-3.4S1275.6,1626.5,1273.5,1624.3Z" transform="translate(-1)"/><path class="cls-27" d="M1248.1,1642c-4.1,4.1-5.6,9.1-3.4,11.3s7.2.7,11.3-3.3,5.5-9.2,3.3-11.4S1252.1,1637.9,1248.1,1642Z" transform="translate(-1)"/><path class="cls-28" d="M1259.3,1638.6l-14.6,14.7c-2.2-2.2-.7-7.2,3.4-11.3S1257.1,1636.4,1259.3,1638.6Z" transform="translate(-1)"/><path class="cls-27" d="M1262.2,1650c-4-4.1-5.5-9.2-3.3-11.4s7.2-.7,11.2,3.4,5.5,9.1,3.4,11.3S1266.2,1654,1262.2,1650Z" transform="translate(-1)"/><path class="cls-28" d="M1273.5,1653.3l-14.6-14.7c-2.2,2.2-.7,7.3,3.3,11.4S1271.3,1655.5,1273.5,1653.3Z" transform="translate(-1)"/><path class="cls-27" d="M1256,1627.7c-4.1-4-9.1-5.6-11.3-3.4s-.7,7.3,3.4,11.4,9,5.6,11.2,3.4S1260,1631.8,1256,1627.7Z" transform="translate(-1)"/><path class="cls-28" d="M1259.3,1639.1l-14.6-14.8c2.2-2.2,7.2-.6,11.3,3.4S1261.5,1636.9,1259.3,1639.1Z" transform="translate(-1)"/><path class="cls-29" d="M1265.8,1638.8a6.7,6.7,0,1,1-6.7-6.7A6.7,6.7,0,0,1,1265.8,1638.8Z" transform="translate(-1)"/><path class="cls-30" d="M1264.5,1638.8a5.4,5.4,0,1,1-5.4-5.4A5.4,5.4,0,0,1,1264.5,1638.8Z" transform="translate(-1)"/><path class="cls-7" d="M1261.9,1707.9c.1-1.7.2-3.5.4-5.2a131.1,131.1,0,0,1,4.4-24.1,102.9,102.9,0,0,1,9.5-22.7l3.3-5.2a58.6,58.6,0,0,1,3.7-5l1.9-2.4,2.1-2.3,4.3-4.4-4.6,4.1-2.3,2.1-2.1,2.4c-1.3,1.5-2.8,3-4.1,4.7l-3.6,5.1a103.1,103.1,0,0,0-11.3,22.5,149.4,149.4,0,0,0-6.3,24.5c-.3,2-.5,4-.8,5.9Z" transform="translate(-1)"/><path class="cls-19" d="M77.3,1649.8c-.6-39.2,1.3-58.9,1.4-59.1H77.4c0,.2-2,19.9-1.4,59.2Z" transform="translate(-1)"/><path class="cls-19" d="M65.7,1612a80.6,80.6,0,0,1,5.6,18.5,156.3,156.3,0,0,1,2.3,19.3h5.1a1.3,1.3,0,0,0-.1-.6,146.6,146.6,0,0,0-4-19.5,86.1,86.1,0,0,0-7.4-18.5c-3.2-5.7-7.5-11.1-13.3-14.2C59.4,1600.6,63.1,1606.2,65.7,1612Z" transform="translate(-1)"/><path class="cls-27" d="M83.1,1570.6c0,5.7-2.5,10.4-5.6,10.4s-5.6-4.7-5.6-10.4,2.5-10.4,5.6-10.4S83.1,1564.8,83.1,1570.6Z" transform="translate(-1)"/><path class="cls-28" d="M77.5,1560.2V1581c3.1,0,5.6-4.7,5.6-10.4S80.6,1560.2,77.5,1560.2Z" transform="translate(-1)"/><path class="cls-27" d="M71.9,1590.8c0,5.7,2.5,10.4,5.6,10.4s5.6-4.7,5.6-10.4-2.5-10.4-5.6-10.4S71.9,1585,71.9,1590.8Z" transform="translate(-1)"/><path class="cls-28" d="M77.5,1580.4v20.8c-3.1,0-5.6-4.7-5.6-10.4S74.4,1580.4,77.5,1580.4Z" transform="translate(-1)"/><path class="cls-27" d="M87.5,1586.3c-5.7,0-10.3-2.5-10.3-5.6s4.6-5.6,10.3-5.6,10.3,2.5,10.3,5.6S93.2,1586.3,87.5,1586.3Z" transform="translate(-1)"/><path class="cls-28" d="M97.8,1580.7H77.2c0,3.1,4.6,5.6,10.3,5.6S97.8,1583.8,97.8,1580.7Z" transform="translate(-1)"/><path class="cls-27" d="M67.5,1575.1c-5.7,0-10.3,2.5-10.3,5.6s4.6,5.6,10.3,5.6,10.3-2.5,10.3-5.6S73.2,1575.1,67.5,1575.1Z" transform="translate(-1)"/><path class="cls-28" d="M77.8,1580.7H57.2c0-3.1,4.6-5.6,10.3-5.6S77.8,1577.6,77.8,1580.7Z" transform="translate(-1)"/><path class="cls-27" d="M88.5,1577.5c-4,4.1-9,5.6-11.2,3.4s-.7-7.3,3.3-11.3,9.1-5.6,11.3-3.4S92.6,1573.5,88.5,1577.5Z" transform="translate(-1)"/><path class="cls-28" d="M91.9,1566.2l-14.6,14.7c2.2,2.2,7.2.7,11.2-3.4S94.1,1568.4,91.9,1566.2Z" transform="translate(-1)"/><path class="cls-27" d="M66.5,1583.8c-4.1,4.1-5.5,9.2-3.4,11.4s7.2.7,11.3-3.4,5.5-9.1,3.3-11.3S70.5,1579.8,66.5,1583.8Z" transform="translate(-1)"/><path class="cls-28" d="M77.7,1580.5l-14.6,14.7c-2.1-2.2-.6-7.3,3.4-11.4S75.5,1578.3,77.7,1580.5Z" transform="translate(-1)"/><path class="cls-27" d="M80.6,1591.8c-4-4.1-5.5-9.1-3.3-11.3s7.2-.7,11.2,3.3,5.6,9.2,3.4,11.4S84.7,1595.9,80.6,1591.8Z" transform="translate(-1)"/><path class="cls-28" d="M91.9,1595.2l-14.6-14.7c-2.2,2.2-.7,7.2,3.3,11.3S89.7,1597.4,91.9,1595.2Z" transform="translate(-1)"/><path class="cls-27" d="M74.4,1569.6c-4.1-4.1-9.1-5.6-11.3-3.4s-.7,7.3,3.4,11.3,9,5.6,11.2,3.4S78.4,1573.6,74.4,1569.6Z" transform="translate(-1)"/><path class="cls-28" d="M77.7,1580.9l-14.6-14.7c2.2-2.2,7.2-.7,11.3,3.4S79.9,1578.7,77.7,1580.9Z" transform="translate(-1)"/><path class="cls-29" d="M84.2,1580.7a6.7,6.7,0,1,1-13.4,0,6.7,6.7,0,1,1,13.4,0Z" transform="translate(-1)"/><path class="cls-30" d="M82.9,1580.7a5.4,5.4,0,0,1-10.8,0,5.4,5.4,0,1,1,10.8,0Z" transform="translate(-1)"/><path class="cls-7" d="M80.3,1649.8c.1-1.8.3-3.5.4-5.3a141.8,141.8,0,0,1,4.4-24.1,102.1,102.1,0,0,1,9.5-22.6l3.3-5.3c1.1-1.7,2.5-3.3,3.7-4.9l1.9-2.5,2.1-2.2,4.4-4.5-4.7,4.2-2.3,2.1-2,2.3c-1.4,1.6-2.9,3.1-4.1,4.7l-3.7,5.1a106.1,106.1,0,0,0-11.3,22.6,135.3,135.3,0,0,0-6.2,24.5c-.3,1.9-.6,3.9-.8,5.9Z" transform="translate(-1)"/><path class="cls-19" d="M485.4,1482.6c-.4-21.1.7-31.8.7-31.9h-.7c0,.2-1,10.8-.7,32Z" transform="translate(-1)"/><path class="cls-19" d="M479.1,1462.2a44.3,44.3,0,0,1,3,10,92.3,92.3,0,0,1,1.3,10.4h2.7v-.3a78.5,78.5,0,0,0-2.2-10.5,47.5,47.5,0,0,0-4-10,18.4,18.4,0,0,0-7.2-7.7A18.7,18.7,0,0,1,479.1,1462.2Z" transform="translate(-1)"/><ellipse class="cls-31" cx="484.5" cy="1439.9" rx="3" ry="5.6"/><path class="cls-32" d="M485.5,1434.2v11.3c1.6,0,3-2.5,3-5.6S487.1,1434.2,485.5,1434.2Z" transform="translate(-1)"/><path class="cls-31" d="M482.5,1450.8c0,3.1,1.3,5.6,3,5.6s3-2.5,3-5.6-1.4-5.7-3-5.7S482.5,1447.7,482.5,1450.8Z" transform="translate(-1)"/><path class="cls-32" d="M485.5,1445.1v11.3c-1.7,0-3-2.5-3-5.6S483.8,1445.1,485.5,1445.1Z" transform="translate(-1)"/><ellipse class="cls-31" cx="489.9" cy="1445.3" rx="5.6" ry="3"/><path class="cls-32" d="M496.5,1445.3H485.3c0,1.7,2.5,3.1,5.6,3.1S496.5,1447,496.5,1445.3Z" transform="translate(-1)"/><ellipse class="cls-31" cx="479.1" cy="1445.3" rx="5.6" ry="3"/><path class="cls-32" d="M485.6,1445.3H474.5c0-1.7,2.5-3,5.6-3S485.6,1443.6,485.6,1445.3Z" transform="translate(-1)"/><ellipse class="cls-31" cx="489.3" cy="1441.5" rx="5.6" ry="3" transform="translate(-882.1 778.8) rotate(-45.4)"/><path class="cls-32" d="M493.2,1437.5l-7.8,7.9c1.1,1.2,3.9.4,6-1.8S494.4,1438.7,493.2,1437.5Z" transform="translate(-1)"/><ellipse class="cls-31" cx="481.7" cy="1449.2" rx="5.6" ry="3" transform="translate(-889.9 775.6) rotate(-45.4)"/><path class="cls-32" d="M485.6,1445.2l-7.9,7.9c-1.2-1.1-.4-3.9,1.8-6.1S484.4,1444,485.6,1445.2Z" transform="translate(-1)"/><ellipse class="cls-31" cx="489.3" cy="1449.2" rx="3" ry="5.6" transform="translate(-877.1 759.9) rotate(-44.6)"/><path class="cls-32" d="M493.2,1453.1l-7.8-7.9c-1.2,1.2-.4,3.9,1.8,6.1S492.1,1454.3,493.2,1453.1Z" transform="translate(-1)"/><ellipse class="cls-31" cx="481.7" cy="1441.5" rx="3" ry="5.6" transform="translate(-873.9 752.3) rotate(-44.6)"/><path class="cls-32" d="M485.6,1445.4l-7.9-7.9c1.2-1.2,3.9-.4,6.1,1.8S486.8,1444.2,485.6,1445.4Z" transform="translate(-1)"/><ellipse class="cls-29" cx="484.5" cy="1445.3" rx="3.6" ry="3.6"/><ellipse class="cls-30" cx="484.5" cy="1445.3" rx="2.9" ry="3"/><path class="cls-7" d="M487,1482.6c.1-.9.1-1.9.2-2.8a70.9,70.9,0,0,1,2.4-13,60.2,60.2,0,0,1,5.1-12.3l1.8-2.8,2-2.7,1-1.3,1.2-1.2,2.3-2.4-2.5,2.2-1.2,1.2-1.2,1.2-2.2,2.6L494,1454a55.7,55.7,0,0,0-6.1,12.2,66.6,66.6,0,0,0-3.4,13.3c-.2,1-.3,2.1-.5,3.1Z" transform="translate(-1)"/><path class="cls-19" d="M622.9,1619.7c-.6-39.2,1.3-58.9,1.4-59.1H623c0,.2-2,19.9-1.4,59.2Z" transform="translate(-1)"/><path class="cls-19" d="M611.3,1581.9a80.6,80.6,0,0,1,5.6,18.5,156.3,156.3,0,0,1,2.3,19.3h5.1a1.3,1.3,0,0,0-.1-.6,146.6,146.6,0,0,0-4-19.5,83.4,83.4,0,0,0-7.4-18.4c-3.2-5.8-7.5-11.2-13.3-14.3C605,1570.5,608.7,1576.1,611.3,1581.9Z" transform="translate(-1)"/><path class="cls-27" d="M628.7,1540.5c0,5.7-2.5,10.4-5.6,10.4s-5.6-4.7-5.6-10.4,2.5-10.4,5.6-10.4S628.7,1534.7,628.7,1540.5Z" transform="translate(-1)"/><path class="cls-28" d="M623.1,1530.1v20.8c3.1,0,5.6-4.7,5.6-10.4S626.2,1530.1,623.1,1530.1Z" transform="translate(-1)"/><path class="cls-27" d="M617.5,1560.7c0,5.7,2.5,10.4,5.6,10.4s5.6-4.7,5.6-10.4-2.5-10.4-5.6-10.4S617.5,1554.9,617.5,1560.7Z" transform="translate(-1)"/><path class="cls-28" d="M623.1,1550.3v20.8c-3.1,0-5.6-4.7-5.6-10.4S620,1550.3,623.1,1550.3Z" transform="translate(-1)"/><path class="cls-27" d="M633.1,1556.2c-5.7,0-10.3-2.5-10.3-5.6s4.6-5.6,10.3-5.6,10.3,2.5,10.3,5.6S638.8,1556.2,633.1,1556.2Z" transform="translate(-1)"/><path class="cls-28" d="M643.4,1550.6H622.8c0,3.1,4.6,5.6,10.3,5.6S643.4,1553.7,643.4,1550.6Z" transform="translate(-1)"/><path class="cls-27" d="M613.1,1545c-5.7,0-10.3,2.5-10.3,5.6s4.6,5.6,10.3,5.6,10.3-2.5,10.3-5.6S618.8,1545,613.1,1545Z" transform="translate(-1)"/><path class="cls-28" d="M623.4,1550.6H602.8c0-3.1,4.6-5.6,10.3-5.6S623.4,1547.5,623.4,1550.6Z" transform="translate(-1)"/><path class="cls-27" d="M634.1,1547.4c-4,4.1-9,5.6-11.2,3.4s-.7-7.3,3.3-11.3,9.1-5.6,11.3-3.4S638.2,1543.4,634.1,1547.4Z" transform="translate(-1)"/><path class="cls-28" d="M637.5,1536.1l-14.6,14.7c2.2,2.2,7.2.7,11.2-3.4S639.6,1538.3,637.5,1536.1Z" transform="translate(-1)"/><path class="cls-27" d="M612.1,1553.7c-4.1,4.1-5.6,9.2-3.4,11.4s7.2.7,11.3-3.4,5.5-9.1,3.3-11.3S616.1,1549.7,612.1,1553.7Z" transform="translate(-1)"/><path class="cls-28" d="M623.3,1550.4l-14.6,14.7c-2.2-2.2-.7-7.3,3.4-11.4S621.1,1548.2,623.3,1550.4Z" transform="translate(-1)"/><path class="cls-27" d="M626.2,1561.7c-4-4.1-5.5-9.1-3.3-11.3s7.2-.7,11.2,3.3,5.5,9.2,3.4,11.4S630.3,1565.8,626.2,1561.7Z" transform="translate(-1)"/><path class="cls-28" d="M637.5,1565.1l-14.6-14.7c-2.2,2.2-.7,7.2,3.3,11.3S635.3,1567.3,637.5,1565.1Z" transform="translate(-1)"/><path class="cls-27" d="M620,1539.5c-4.1-4.1-9.1-5.6-11.3-3.4s-.7,7.3,3.4,11.3,9,5.6,11.2,3.4S624,1543.5,620,1539.5Z" transform="translate(-1)"/><path class="cls-28" d="M623.3,1550.8l-14.6-14.7c2.2-2.2,7.2-.7,11.3,3.4S625.5,1548.6,623.3,1550.8Z" transform="translate(-1)"/><path class="cls-29" d="M629.8,1550.6a6.7,6.7,0,1,1-13.4,0,6.7,6.7,0,1,1,13.4,0Z" transform="translate(-1)"/><path class="cls-30" d="M628.5,1550.6a5.4,5.4,0,1,1-10.8,0,5.4,5.4,0,1,1,10.8,0Z" transform="translate(-1)"/><path class="cls-7" d="M625.9,1619.7c.1-1.8.2-3.5.4-5.3a141.8,141.8,0,0,1,4.4-24.1,102.1,102.1,0,0,1,9.5-22.6l3.3-5.3c1.1-1.7,2.5-3.3,3.7-4.9l1.9-2.5,2.1-2.2,4.3-4.5-4.6,4.2-2.3,2.1-2.1,2.3c-1.3,1.6-2.8,3.1-4,4.7l-3.7,5.2a103.1,103.1,0,0,0-11.3,22.5,135.3,135.3,0,0,0-6.2,24.5l-.9,5.9Z" transform="translate(-1)"/><path class="cls-19" d="M915.5,1685.2c-.6-39.2,1.3-58.9,1.3-59.1l-1.2-.2c0,.2-2,20-1.4,59.3Z" transform="translate(-1)"/><path class="cls-19" d="M903.9,1647.4a85.6,85.6,0,0,1,5.5,18.5,139.4,139.4,0,0,1,2.4,19.3h5.1c0-.2-.1-.4-.1-.6a164.9,164.9,0,0,0-4.1-19.5,89,89,0,0,0-7.3-18.5c-3.2-5.7-7.5-11.1-13.4-14.2C897.6,1636,901.3,1641.6,903.9,1647.4Z" transform="translate(-1)"/><path class="cls-31" d="M921.3,1606c0,5.7-2.5,10.4-5.6,10.4s-5.6-4.7-5.6-10.4,2.5-10.4,5.6-10.4S921.3,1600.2,921.3,1606Z" transform="translate(-1)"/><path class="cls-32" d="M915.7,1595.6v20.8c3.1,0,5.6-4.7,5.6-10.4S918.8,1595.6,915.7,1595.6Z" transform="translate(-1)"/><path class="cls-31" d="M910.1,1626.2c0,5.7,2.5,10.4,5.6,10.4s5.6-4.7,5.6-10.4-2.5-10.4-5.6-10.4S910.1,1620.4,910.1,1626.2Z" transform="translate(-1)"/><path class="cls-32" d="M915.7,1615.8v20.8c-3.1,0-5.6-4.7-5.6-10.4S912.6,1615.8,915.7,1615.8Z" transform="translate(-1)"/><path class="cls-31" d="M925.7,1621.7c-5.7,0-10.3-2.5-10.3-5.6s4.6-5.7,10.3-5.7,10.3,2.6,10.3,5.7S931.4,1621.7,925.7,1621.7Z" transform="translate(-1)"/><path class="cls-32" d="M936,1616.1H915.4c0,3.1,4.6,5.6,10.3,5.6S936,1619.2,936,1616.1Z" transform="translate(-1)"/><path class="cls-31" d="M905.7,1610.4c-5.7,0-10.3,2.6-10.3,5.7s4.6,5.6,10.3,5.6,10.3-2.5,10.3-5.6S911.4,1610.4,905.7,1610.4Z" transform="translate(-1)"/><path class="cls-32" d="M916,1616.1H895.4c0-3.1,4.6-5.7,10.3-5.7S916,1613,916,1616.1Z" transform="translate(-1)"/><path class="cls-31" d="M926.7,1612.9c-4,4.1-9.1,5.6-11.2,3.4s-.7-7.3,3.3-11.3,9.1-5.6,11.2-3.4S930.7,1608.9,926.7,1612.9Z" transform="translate(-1)"/><path class="cls-32" d="M930,1601.6l-14.5,14.7c2.1,2.2,7.2.7,11.2-3.4S932.2,1603.8,930,1601.6Z" transform="translate(-1)"/><path class="cls-31" d="M904.7,1619.2c-4.1,4.1-5.6,9.2-3.4,11.4s7.2.7,11.2-3.4,5.6-9.1,3.4-11.3S908.7,1615.2,904.7,1619.2Z" transform="translate(-1)"/><path class="cls-32" d="M915.9,1615.9l-14.6,14.7c-2.2-2.2-.7-7.3,3.4-11.4S913.7,1613.7,915.9,1615.9Z" transform="translate(-1)"/><path class="cls-31" d="M918.8,1627.2c-4-4.1-5.5-9.1-3.3-11.3s7.2-.7,11.2,3.3,5.5,9.2,3.3,11.4S922.8,1631.3,918.8,1627.2Z" transform="translate(-1)"/><path class="cls-32" d="M930,1630.6l-14.5-14.7c-2.2,2.2-.7,7.2,3.3,11.3S927.9,1632.8,930,1630.6Z" transform="translate(-1)"/><path class="cls-31" d="M912.5,1605c-4-4.1-9-5.6-11.2-3.4s-.7,7.3,3.4,11.3,9,5.6,11.2,3.4S916.6,1609,912.5,1605Z" transform="translate(-1)"/><path class="cls-32" d="M915.9,1616.3l-14.6-14.7c2.2-2.2,7.2-.7,11.2,3.4S918.1,1614.1,915.9,1616.3Z" transform="translate(-1)"/><ellipse class="cls-29" cx="914.7" cy="1616.1" rx="6.7" ry="6.7"/><ellipse class="cls-30" cx="914.7" cy="1616.1" rx="5.4" ry="5.5"/><path class="cls-7" d="M918.5,1685.2c.1-1.8.2-3.5.4-5.3a132.6,132.6,0,0,1,4.4-24.1,102.1,102.1,0,0,1,9.5-22.6l3.3-5.3a57.2,57.2,0,0,1,3.7-4.9l1.9-2.5a21.8,21.8,0,0,1,2.1-2.2l4.3-4.5-4.6,4.2a22.9,22.9,0,0,0-2.3,2.1l-2.1,2.3c-1.3,1.6-2.8,3.1-4.1,4.7l-3.6,5.1a105.4,105.4,0,0,0-11.3,22.5,148,148,0,0,0-6.3,24.6c-.3,1.9-.5,3.9-.8,5.9Z" transform="translate(-1)"/><path class="cls-22" d="M1036.9,1124.4a25.7,25.7,0,0,1-25.5-22.8,59.8,59.8,0,0,0-15.9-2.2c-31.6,0-57.3,25.9-57.3,57.8s25.7,57.8,57.3,57.8,57.4-25.9,57.4-57.8a58,58,0,0,0-10.6-33.4A24.2,24.2,0,0,1,1036.9,1124.4Z" transform="translate(-1)"/><path class="cls-23" d="M1003.8,1100a56.9,56.9,0,0,0-8.3-.6c-31.6,0-57.3,25.9-57.3,57.8q0,3,.3,6C945.1,1116.6,977.5,1104.6,1003.8,1100Z" transform="translate(-1)"/><path class="cls-24" d="M1036.9,1124.4l-2.8-.2a57.3,57.3,0,0,1,6,25.8c0,31.9-25.6,57.8-57.3,57.8a55,55,0,0,1-21.5-4.3,56.6,56.6,0,0,0,34.2,11.5c31.7,0,57.4-25.9,57.4-57.8a58,58,0,0,0-10.6-33.4A24.8,24.8,0,0,1,1036.9,1124.4Z" transform="translate(-1)"/><path class="cls-20" d="M992.2,1155.5s1.2,43.1,4.2,44,11.7-20.5,11.7-20.5l2.3,4s-10.7,21.7-12.4,31.6,0,51,0,51h-9.6s2.7-43,2.3-54.5-3.5-27.7-3.3-34.8-.6-17.4-.6-17.4Z" transform="translate(-1)"/><path class="cls-21" d="M1010.4,1183l-.7-1.2a20.7,20.7,0,0,0-1.9,3.2c-1.3,2.7-5.9,12.7-8.3,18s-4.7,10.2-4.4,19.9c.1,8-.1,33.9-.2,42.7H998s-1.6-41.1,0-51S1010.4,1183,1010.4,1183Z" transform="translate(-1)"/><path class="cls-21" d="M995.9,1200.6a9.3,9.3,0,0,0,1.4-1.4,1.9,1.9,0,0,1-.9.3c-3-.9-4.2-44-4.2-44l-2.9,1.8C989.8,1167.6,991.5,1204.1,995.9,1200.6Z" transform="translate(-1)"/><path class="cls-24" d="M1004.2,1111.6a2.5,2.5,0,0,1-2.6,2.6,2.6,2.6,0,0,1-2.6-2.6,2.6,2.6,0,0,1,2.6-2.6A2.6,2.6,0,0,1,1004.2,1111.6Z" transform="translate(-1)"/><path class="cls-24" d="M1022.5,1126.5a5.1,5.1,0,0,1-5.1,5.1,5.2,5.2,0,1,1,5.1-5.1Z" transform="translate(-1)"/><path class="cls-24" d="M984.3,1127a7.9,7.9,0,1,1-7.9-7.9A7.9,7.9,0,0,1,984.3,1127Z" transform="translate(-1)"/><path class="cls-7" d="M805.7,1215.3a27.2,27.2,0,0,0-26.6-21.7,26.9,26.9,0,0,0-22.1,11.5,19.4,19.4,0,0,0,3.3,38.4,14.3,14.3,0,0,0,2.9-.3,26.8,26.8,0,0,0,15.9,5.2,27.1,27.1,0,0,0,13.6-3.7,15.9,15.9,0,0,0,7.2,1.7,16.1,16.1,0,0,0,5.8-31.1Z" transform="translate(-1)"/><path class="cls-18" d="M760.7,1204.8a28.2,28.2,0,0,1,14.7-10.9,26.7,26.7,0,0,0-18.4,11.2,19.2,19.2,0,0,0-15.7,16.5,24,24,0,0,1,33.2-10.5A18.9,18.9,0,0,0,760.7,1204.8Z" transform="translate(-1)"/><path class="cls-19" d="M805.7,1215.3a27.4,27.4,0,0,0-24.2-21.6c19,5.5,21.1,23.6,21.1,23.6,5.4,2.1,9.3,6.9,8.6,12.6-.9,8.4-7.6,12.4-12.8,12.1a16,16,0,0,1-6.5-1.6c-3.6,2.2-9.9,3.6-14.4,3.6a23.9,23.9,0,0,1-14.2-4.4h-3.5c-5.1-.2-14.4-2.1-18.5-13.4a19.2,19.2,0,0,0,19,17.1,14.3,14.3,0,0,0,2.9-.3,26.8,26.8,0,0,0,15.9,5.2,27.1,27.1,0,0,0,13.6-3.7,15.9,15.9,0,0,0,7.2,1.7,16.1,16.1,0,0,0,5.8-31.1Z" transform="translate(-1)"/><path class="cls-20" d="M777.8,1219.8a3.5,3.5,0,0,0-1.9-.5c.2,1.9.3,6.7.4,9.3s.4,6.3-.2,7.8-2.1-.6-2.7-1.7l-3.5-7.3-1.3.9s3.4,6.7,4.1,8.3.7,1.3,1.5,3.2,1.4,6.4,1.8,8.9a21.6,21.6,0,0,1-.1,5.1l-1.5-1.2v2.5l.4.6a6.4,6.4,0,0,1,1,3.3,28,28,0,0,1,0,4.1c-.1,1.6,0,7.7,0,7.7H780s.3-18.2.3-21.8,4.7-13.2,4.7-13.2l-1.8-.8s-2.3,7.3-3.3,7.9-1.4-8-1.4-10.8S777.8,1219.8,777.8,1219.8Z" transform="translate(-1)"/><path class="cls-21" d="M779.9,1242.9c-1,.5-1.4-8-1.4-10.8s-.7-12.3-.7-12.3a.9.9,0,0,0-.7-.3,14.1,14.1,0,0,1,.1,3.5c-.1,1.1.3,4.8.3,6.7s0,7.7.4,9.4a16.3,16.3,0,0,0,.9,3.8C779.2,1243.7,779.9,1242.9,779.9,1242.9Z" transform="translate(-1)"/><path class="cls-21" d="M776.1,1236.4c-.7,1.8-2.1-.6-2.7-1.7l-3.5-7.3-.5.4c.6,1.2,2.3,5.1,2.6,6.1s1.9,3.5,2.6,3.9a1.5,1.5,0,0,0,1.8-1,12.8,12.8,0,0,0,0-2.8A7.8,7.8,0,0,1,776.1,1236.4Z" transform="translate(-1)"/><path class="cls-21" d="M784.2,1235.4a26.2,26.2,0,0,1-1.5,3.8c-.7,1.9-2.3,4.2-2.8,5.9s-1,4.8-1.2,12.6c-.1,5.1.3,9.9.3,13.1h1s.3-18.2.3-21.8,4.7-13.2,4.7-13.2Z" transform="translate(-1)"/><path class="cls-21" d="M774.4,1253.2c.5.6,1.4,1.6,1.5.6l-1.5-1.2Z" transform="translate(-1)"/><path class="cls-10" d="M402.6,1418.9q-33.2,7.3-65.9,15.5C323.8,1547,321.6,1872.6,580.3,2048H790.4c-32.9-19-66.6-39.5-100.8-61.5C399.3,1799.6,392.4,1519.2,402.6,1418.9Z" transform="translate(-1)"/><path class="cls-10" d="M203.8,1470.5l-13.5,4c-50.2,155.4-80.4,443.8-82.5,573.5h17.5C122,1872,178.5,1572.1,203.8,1470.5Z" transform="translate(-1)"/><polygon class="cls-2" points="1535 78 4.6 162.8 4.6 0 1535 0 1535 78"/><polygon class="cls-2" points="1535 239.8 57.7 271.3 1535 299.6 1535 239.8"/><polygon class="cls-2" points="4.6 210.3 4.6 228.7 1535 175.4 1535 108.3 4.6 210.3"/></g></svg>