<svg xmlns="http://www.w3.org/2000/svg" viewBox="0 0 698.4 928.8"><defs><style>.cls-1{fill:#b4e1e5;}.cls-2{fill:#c4e6e9;}.cls-3{fill:#ffdf78;}.cls-4{fill:#fff18c;}.cls-5{fill:#92cdd0;}.cls-6{fill:#7fc8cb;}.cls-7{fill:#629b42;}.cls-8{fill:#70ac43;}.cls-9{fill:#f7e072;}.cls-10{fill:#eed463;}.cls-11{fill:#8fc857;}.cls-12{fill:#7bc043;}.cls-13{fill:#58595b;}.cls-14{fill:#6d6e70;}.cls-15{fill:#d8884a;}.cls-16{fill:#e8955d;}.cls-17{fill:#6ca743;}.cls-18{fill:#73aa4f;}.cls-19{fill:#5a8e3f;}.cls-20{fill:#75625e;}.cls-21{fill:#5f4c46;}.cls-22{fill:#82ae4a;}.cls-23{fill:#9bc05a;}.cls-24{fill:#789f3f;}.cls-25{fill:#90bd5c;}.cls-26{fill:#a4cd6e;}.cls-27{fill:#f1f1f2;}.cls-28{fill:#e6e7e8;}.cls-29{fill:#f9a83b;}.cls-30{fill:#fcc683;}.cls-31{fill:#dc4f7a;}.cls-32{fill:#cf2257;}</style></defs><title>Background</title><g id="BACKGROUND"><rect class="cls-1" width="698.4" height="928.8"/></g><g id="OBJECTS"><rect class="cls-1" y="97.15" width="698.4" height="698.4"/><polygon class="cls-2" points="698.4 172.4 0 210.76 0 137.15 698.4 137.15 698.4 172.4"/><polygon class="cls-2" points="698.4 245.6 24.21 259.82 698.4 272.63 698.4 245.6"/><polygon class="cls-2" points="0 232.27 0 240.55 698.4 216.47 698.4 186.12 0 232.27"/><circle class="cls-3" cx="349.2" cy="399.4" r="76.73" transform="translate(-100 681.67) rotate(-80.98)"/><circle class="cls-4" cx="349.2" cy="399.4" r="54.43"/><path class="cls-5" d="M368.05,541.56A26.71,26.71,0,0,0,355,545a55.69,55.69,0,0,0-44-29.64,55.32,55.32,0,0,0-54.16-66.39A55,55,0,0,0,226.53,458a34.69,34.69,0,0,0-46.8-28.66,50.28,50.28,0,0,0-94.17-17,27.76,27.76,0,0,0-33.77,2A44,44,0,0,0,0,396.45v336H394.88v-164A26.83,26.83,0,0,0,368.05,541.56Z"/><path class="cls-5" d="M650.58,471.55a35.85,35.85,0,0,0-57.87,17.78,73.57,73.57,0,0,0-88.27,45.25,37.36,37.36,0,0,0-59.38,30.18V732.43H698.4V437.7A69.86,69.86,0,0,0,650.58,471.55Z"/><path class="cls-6" d="M698.4,503.63c-3.09.32-5.82.62-7.92.88-12.1,1.48-26.07,4.45-41.9,7.42s-38.18-17.62-68-11.69-16.76,44-65.18,52.87-92.19,4.46-122,5.2-38.53-19.06-54.36-24.26-23.86,5.1-39.69,1.39-7.33-13.77-20.37-13.77-10.36-5.84-29-5.1-18.63-3.71-36.32-5.94-15.83,5.94-30.73,8.91-16.76,1.48-32.59-1.49-14.9-5.93-33.52-14.84-23.28-.74-56.81,2.23C27.74,508.3,28.3,503.57,0,499.9v158H698.4Z"/><path class="cls-7" d="M698.4,545.27h-8.34c-263.79,0-505,47.13-690.06,95v92.16H698.4Z"/><path class="cls-8" d="M698.4,641.56c-168.6-34.13-371.91-69.2-590.77-69.2Q53.12,572.36,0,574V795.55H698.4Z"/><path class="cls-9" d="M287.74,673.3l-4.19-46.56s-32.86-30.35-88.73-52.55q-5.9-.24-11.8-.45C198.39,582,257.15,616.14,287.74,673.3Z"/><path class="cls-10" d="M190.4,574a276.87,276.87,0,0,1,42.4,22.92c19.53,13.14,42.63,32.57,51.7,40.35l-.95-10.55s-32.86-30.35-88.73-52.55Z"/><path class="cls-11" d="M698.4,609.48Q628.53,604,556,603.9c-204,0-394.51,33.86-556,92.5V927.8H698.4Z"/><path class="cls-12" d="M168.1,647c91.89-11.43,204.6-21.6,263.51-12.32,109.88,17.31-23.28,33-15.83,72.39s126.33-10.11,175.07,37.77c53.54,52.61-43.11,118.22,47.9,157.36L698.4,927.8V609.48Q628.53,604,556,603.9C419,603.9,288.18,619.18,168.1,647Z"/><rect class="cls-13" x="556.67" y="582.91" width="3.61" height="35.9"/><rect class="cls-13" x="457.4" y="582.91" width="3.61" height="35.9"/><polygon class="cls-13" points="453.28 622.62 453.28 646.89 454.6 648.09 455.82 646.89 455.82 622.62 453.28 622.62"/><rect class="cls-14" x="452.06" y="623.82" width="2.54" height="24.27"/><polygon class="cls-13" points="564.4 622.62 564.4 646.89 563.08 648.09 561.86 646.89 561.86 622.62 564.4 622.62"/><rect class="cls-14" x="563.08" y="623.82" width="2.54" height="24.27" transform="translate(1128.71 1271.92) rotate(180)"/><polygon class="cls-13" points="458.51 620.74 458.51 641.39 459.63 642.41 460.67 641.39 460.67 620.74 458.51 620.74"/><rect class="cls-14" x="457.47" y="621.76" width="2.16" height="20.65"/><polygon class="cls-13" points="559.17 620.74 559.17 641.39 558.05 642.41 557.01 641.39 557.01 620.74 559.17 620.74"/><rect class="cls-14" x="558.05" y="621.76" width="2.16" height="20.65" transform="translate(1118.26 1264.18) rotate(180)"/><rect class="cls-15" x="451.74" y="619.1" width="114.19" height="1.83"/><rect class="cls-15" x="453.23" y="592.4" width="111.22" height="7.83" rx="1.66" ry="1.66" transform="translate(1017.68 1192.63) rotate(180)"/><circle class="cls-13" cx="558.49" cy="596.31" r="1.05"/><circle class="cls-14" cx="558.49" cy="596.31" r="0.87"/><circle class="cls-13" cx="459.19" cy="596.31" r="1.05"/><circle class="cls-14" cx="459.19" cy="596.31" r="0.87"/><path class="cls-16" d="M506.39,592.4h-45c5.52,2.33,11.2,4.16,22.47,3.65A106.21,106.21,0,0,0,506.39,592.4Z"/><path class="cls-16" d="M529,594.8c-10.46.11-16,3.27-22.77,5.43h48.9C546.93,598.13,539.74,594.68,529,594.8Z"/><rect class="cls-15" x="453.23" y="580.22" width="111.22" height="7.83" rx="1.66" ry="1.66"/><circle class="cls-13" cx="459.19" cy="584.14" r="1.05"/><circle class="cls-14" cx="459.19" cy="584.14" r="0.87"/><circle class="cls-13" cx="558.49" cy="584.14" r="1.05"/><circle class="cls-14" cx="558.49" cy="584.14" r="0.87"/><path class="cls-16" d="M511.29,588.05h45c-5.52-2.33-11.2-4.16-22.47-3.65A106.21,106.21,0,0,0,511.29,588.05Z"/><path class="cls-16" d="M488.69,585.65c10.46-.11,15.95-3.27,22.77-5.43h-48.9C470.75,582.32,477.94,585.77,488.69,585.65Z"/><rect class="cls-15" x="453.23" y="604.58" width="111.22" height="7.83" rx="1.66" ry="1.66"/><circle class="cls-13" cx="459.19" cy="608.49" r="1.05"/><circle class="cls-14" cx="459.19" cy="608.49" r="0.87"/><circle class="cls-13" cx="558.49" cy="608.49" r="1.05"/><circle class="cls-14" cx="558.49" cy="608.49" r="0.87"/><path class="cls-16" d="M511.29,612.41h45c-5.52-2.33-11.2-4.16-22.47-3.65A105.58,105.58,0,0,0,511.29,612.41Z"/><path class="cls-16" d="M488.69,610c10.46-.12,15.95-3.27,22.77-5.43h-48.9C470.75,606.68,477.94,610.13,488.69,610Z"/><rect class="cls-15" x="449.04" y="622.33" width="120.45" height="3.02"/><polygon class="cls-16" points="450.92 620.09 449.04 622.33 569.49 622.33 567.61 620.09 450.92 620.09"/><polygon class="cls-16" points="565.94 619.1 564.45 617.33 453.23 617.33 451.74 619.1 565.94 619.1"/><path class="cls-13" d="M456.55,618.24c0,.18-.34.33-.77.33s-.78-.15-.78-.33.35-.32.78-.32S456.55,618.06,456.55,618.24Z"/><ellipse class="cls-14" cx="455.78" cy="618.24" rx="0.64" ry="0.27"/><path class="cls-13" d="M562.08,618.24c0,.18-.35.33-.78.33s-.77-.15-.77-.33.34-.32.77-.32S562.08,618.06,562.08,618.24Z"/><path class="cls-14" d="M561.94,618.24c0,.15-.28.27-.64.27s-.64-.12-.64-.27.29-.27.64-.27S561.94,618.09,561.94,618.24Z"/><path class="cls-13" d="M454.26,621.14c0,.19-.36.34-.81.34s-.82-.15-.82-.34.37-.34.82-.34S454.26,621,454.26,621.14Z"/><path class="cls-14" d="M454.12,621.14c0,.15-.3.28-.67.28s-.67-.13-.67-.28.3-.29.67-.29S454.12,621,454.12,621.14Z"/><path class="cls-13" d="M565.05,621.14c0,.19-.37.34-.82.34s-.81-.15-.81-.34.36-.34.81-.34S565.05,621,565.05,621.14Z"/><path class="cls-14" d="M564.9,621.14c0,.15-.3.28-.67.28s-.67-.13-.67-.28.3-.29.67-.29S564.9,621,564.9,621.14Z"/><path class="cls-9" d="M181.5,643.29q-49.65,11.06-96.82,24.89C61.77,738.53,48,869.11,47.06,927.8H358.35q-22.53-12.9-46-27.81C180,815.46,176.85,688.68,181.5,643.29Z"/><path class="cls-17" d="M0,574v84.52c11.87-16.87,39.11-34.68,75.08-28.4,30,5.24,57.15-8.61,63.2-24.44s39.64-9.26,39.64-22.7c0-5.82-7.4-9.65-7.4-9.65q-31.22-.93-62.89-1Q53.12,572.36,0,574Z"/><path class="cls-7" d="M136.74,562.52a21.48,21.48,0,0,0-38.49-8,15.15,15.15,0,0,0,2.61,30.07,15.74,15.74,0,0,0,2.3-.19,21.46,21.46,0,0,0,23.35,1.17,12.63,12.63,0,1,0,10.23-23.05Z"/><path class="cls-18" d="M101.23,554.29a22.41,22.41,0,0,1,11.6-8.57,21.44,21.44,0,0,0-14.57,8.79,15.15,15.15,0,0,0-12.41,13,19,19,0,0,1,26.22-8.22A15.11,15.11,0,0,0,101.23,554.29Z"/><path class="cls-19" d="M136.74,562.52a21.48,21.48,0,0,0-19.1-16.92,23,23,0,0,1,16.66,18.49c4.27,1.64,7.33,5.43,6.84,9.86-.74,6.57-6,9.71-10.13,9.51a12.65,12.65,0,0,1-5.13-1.23,26.14,26.14,0,0,1-11.42,2.82,18.73,18.73,0,0,1-11.19-3.5s-.25,0-.7.08a12.26,12.26,0,0,1-1.36.09l-.74,0c-4-.11-11.37-1.62-14.65-10.51a15.15,15.15,0,0,0,15,13.4,15.74,15.74,0,0,0,2.3-.19,21.46,21.46,0,0,0,23.35,1.17,12.63,12.63,0,1,0,10.23-23.05Z"/><path class="cls-20" d="M114.72,566a3.28,3.28,0,0,0-1.55-.35c.17,1.48.26,5.2.34,7.27s.32,4.9-.17,6.1c-.56,1.39-1.66-.45-2.08-1.3-.51-1-2.76-5.75-2.76-5.75l-1,.69s2.68,5.28,3.2,6.49.6,1,1.21,2.51a38.34,38.34,0,0,1,1.38,7,15.74,15.74,0,0,1-.06,4l-1.19-.93,0,2,.31.5a5.16,5.16,0,0,1,.79,2.54c0,1,.07,2.45,0,3.19-.09,1.3,0,6.06,0,6.06h3.37s.26-14.27.26-17,3.72-10.39,3.72-10.39L119,578s-1.81,5.71-2.59,6.14-1.14-6.24-1.14-8.4S114.72,566,114.72,566Z"/><path class="cls-21" d="M116.37,584.12c-.78.43-1.14-6.24-1.14-8.4s-.51-9.68-.51-9.68a1.43,1.43,0,0,0-.6-.24,14.48,14.48,0,0,1,.11,2.79c-.07.85.26,3.7.26,5.19a68.31,68.31,0,0,0,.28,7.38,14.1,14.1,0,0,0,.75,3C115.85,584.81,116.37,584.12,116.37,584.12Z"/><path class="cls-21" d="M113.34,579.06c-.56,1.39-1.66-.45-2.08-1.3-.51-1-2.76-5.75-2.76-5.75l-.44.29c.5,1,1.8,4,2.1,4.77a8.93,8.93,0,0,0,2,3.07,1.14,1.14,0,0,0,1.43-.75,10.34,10.34,0,0,0,0-2.22A6.1,6.1,0,0,1,113.34,579.06Z"/><path class="cls-21" d="M119.78,578.31c-.18.65-.67,1.72-1.16,2.91-.62,1.5-1.89,3.36-2.25,4.65s-.8,3.75-.93,9.89c-.09,4,.22,7.72.25,10.25h.77s.25-14.27.25-17,3.72-10.39,3.72-10.39Z"/><path class="cls-21" d="M112,592.2c.43.54,1.16,1.32,1.2.49l-1.19-.93Z"/><path class="cls-22" d="M83.32,504.33a18,18,0,0,1-17.83-15.79,40.16,40.16,0,1,0,21.64,15.37A17.72,17.72,0,0,1,83.32,504.33Z"/><path class="cls-23" d="M60.19,487.4a40.85,40.85,0,0,0-5.78-.42A40.11,40.11,0,0,0,14.3,527.09a40.65,40.65,0,0,0,.21,4.16C19.14,499,41.8,490.6,60.19,487.4Z"/><path class="cls-24" d="M83.32,504.33a17.33,17.33,0,0,1-1.91-.11,40.11,40.11,0,0,1-51,55,40.1,40.1,0,0,0,56.68-55.34A18.21,18.21,0,0,1,83.32,504.33Z"/><path class="cls-20" d="M52.06,525.92s.88,29.93,2.93,30.51,8.18-14.18,8.18-14.18L64.78,545S57.32,560.09,56.15,567s0,35.38,0,35.38H49.43s1.9-29.83,1.61-37.87-2.49-19.15-2.34-24.12-.44-12.09-.44-12.09Z"/><path class="cls-21" d="M64.78,545l-.49-.86a20.51,20.51,0,0,0-1.3,2.26c-.88,1.82-4.14,8.74-5.8,12.45s-3.27,7.07-3.12,13.79c.12,5.55-.06,23.56-.12,29.67h2.2S55,573.83,56.15,567,64.78,545,64.78,545Z"/><path class="cls-21" d="M54.66,557.25a5.68,5.68,0,0,0,1-1,.79.79,0,0,1-.66.21c-2.05-.58-2.93-30.51-2.93-30.51l-2,1.24C50.36,534.32,51.56,559.67,54.66,557.25Z"/><path class="cls-24" d="M60.49,495.49a1.82,1.82,0,1,1-1.82-1.82A1.82,1.82,0,0,1,60.49,495.49Z"/><circle class="cls-24" cx="69.73" cy="505.78" r="3.58"/><path class="cls-24" d="M46.53,506.15A5.49,5.49,0,1,1,41,500.67,5.48,5.48,0,0,1,46.53,506.15Z"/><path class="cls-19" d="M416.5,561.31c16.24,6.17,21.76,19.18,66.79,16.07,60.76-4.19,71.24-23.74,97.78-6.28s34.92,21.65,77.52,16.76a199.51,199.51,0,0,1,39.81-.35V545.27h-8.34A2407,2407,0,0,0,416.5,561.31Z"/><path class="cls-25" d="M658.68,473.09a77.61,77.61,0,0,0-139.1-28.93A54.76,54.76,0,0,0,529,552.86a53.88,53.88,0,0,0,8.28-.7,77.54,77.54,0,0,0,84.42,4.22,45.62,45.62,0,1,0,37-83.29Z"/><path class="cls-26" d="M530.33,443.33c15.65-23.77,41.93-31,41.93-31a77.6,77.6,0,0,0-52.66,31.78A54.79,54.79,0,0,0,474.75,491a68.75,68.75,0,0,1,94.77-29.7A54.6,54.6,0,0,0,530.33,443.33Z"/><path class="cls-22" d="M658.68,473.09a77.66,77.66,0,0,0-69-61.16c54.31,15.53,60.22,66.82,60.22,66.82,15.4,5.95,26.48,19.64,24.69,35.63-2.65,23.75-21.8,35.1-36.61,34.39a45.54,45.54,0,0,1-18.52-4.43c-10.33,6-28.49,10.16-41.3,10.16-15.31,0-28.89-4.31-40.41-12.64,0,0-.93.15-2.54.3a42.25,42.25,0,0,1-4.94.32c-.88,0-1.77,0-2.66-.08-14.61-.4-41.11-5.85-53-38A54.77,54.77,0,0,0,529,552.86a53.88,53.88,0,0,0,8.28-.7,77.54,77.54,0,0,0,84.42,4.22,45.62,45.62,0,1,0,37-83.29Z"/><path class="cls-22" d="M591.16,424.78a1.8,1.8,0,0,0,0,3.59A1.8,1.8,0,0,0,591.16,424.78Z"/><path class="cls-22" d="M615.38,439.13c-4.62,0-4.62,7.18,0,7.18S620,439.13,615.38,439.13Z"/><path class="cls-22" d="M634.52,471.43c-4.62,0-4.63,7.18,0,7.18S639.15,471.43,634.52,471.43Z"/><path class="cls-22" d="M655.75,508.51c-4.62,0-4.62,7.18,0,7.18S660.38,508.51,655.75,508.51Z"/><path class="cls-22" d="M506.53,513.59c-5.77,0-5.78,9,0,9S512.32,513.59,506.53,513.59Z"/><path class="cls-22" d="M605.51,498c-5.77,0-5.78,9,0,9S611.3,498,605.51,498Z"/><path class="cls-20" d="M579.11,485.81c-1.56-1.25-5.63-1.25-5.63-1.25.63,5.31.94,18.76,1.25,26.26s1.14,17.7-.62,22.05c-2,5-6-1.65-7.51-4.69-1.86-3.83-10-20.8-10-20.8l-3.75,2.5s9.69,19.08,11.57,23.46,2.18,3.75,4.37,9.06,4.07,18.14,5,25.33a56.74,56.74,0,0,1-.24,14.38l-4.3-3.36-.15,7.12,1.12,1.77a18.48,18.48,0,0,1,2.85,9.18c.14,3.83.27,8.87.09,11.56-.31,4.69,0,21.89,0,21.89h12.2s.93-51.6.93-61.6,13.45-37.52,13.45-37.52L594.43,529s-6.56,20.63-9.38,22.2-4.1-22.55-4.1-30.37S579.11,485.81,579.11,485.81Z"/><path class="cls-21" d="M585.05,551.16c-2.81,1.56-4.1-22.55-4.1-30.37s-1.84-35-1.84-35a5.38,5.38,0,0,0-2.2-.88,48.53,48.53,0,0,1,.4,10.1c-.23,3.05.94,13.37.94,18.76s.08,21.85,1,26.66,1.56,8.52,2.73,10.86S585.05,551.16,585.05,551.16Z"/><path class="cls-21" d="M574.11,532.87c-2,5-6-1.65-7.51-4.69-1.86-3.83-10-20.8-10-20.8l-1.56,1c1.79,3.45,6.48,14.55,7.58,17.25,1.33,3.29,5.23,10.09,7.27,11.1s4.77-.93,5.16-2.73a38.54,38.54,0,0,0,.11-8A21.89,21.89,0,0,1,574.11,532.87Z"/><path class="cls-21" d="M597.37,530.17c-.62,2.34-2.41,6.21-4.19,10.51-2.23,5.4-6.84,12.12-8.13,16.81s-2.89,13.52-3.36,35.72c-.31,14.56.81,27.92.91,37.06h2.77s.93-51.6.93-61.6,13.45-37.52,13.45-37.52Z"/><path class="cls-21" d="M569.23,580.36c1.55,1.94,4.21,4.77,4.33,1.75l-4.3-3.36Z"/><rect class="cls-13" x="86.94" y="591.57" width="0.84" height="8.4"/><rect class="cls-13" x="63.71" y="591.57" width="0.84" height="8.4"/><polygon class="cls-13" points="62.74 600.87 62.74 606.54 63.05 606.83 63.34 606.54 63.34 600.87 62.74 600.87"/><rect class="cls-14" x="62.46" y="601.15" width="0.59" height="5.68"/><polygon class="cls-13" points="88.75 600.87 88.75 606.54 88.44 606.83 88.15 606.54 88.15 600.87 88.75 600.87"/><rect class="cls-14" x="88.44" y="601.15" width="0.59" height="5.68" transform="translate(177.47 1207.97) rotate(180)"/><polygon class="cls-13" points="63.97 600.42 63.97 605.26 64.23 605.5 64.47 605.26 64.47 600.42 63.97 600.42"/><rect class="cls-14" x="63.72" y="600.67" width="0.51" height="4.83"/><polygon class="cls-13" points="87.52 600.42 87.52 605.26 87.26 605.5 87.02 605.26 87.02 600.42 87.52 600.42"/><rect class="cls-14" x="87.26" y="600.67" width="0.51" height="4.83" transform="translate(175.03 1206.16) rotate(180)"/><rect class="cls-15" x="62.38" y="600.04" width="26.72" height="0.43"/><rect class="cls-15" x="62.73" y="593.79" width="26.03" height="1.83" rx="0.39" ry="0.39" transform="translate(151.49 1189.42) rotate(180)"/><path class="cls-13" d="M87.12,594.71a.25.25,0,1,1,.24.25A.25.25,0,0,1,87.12,594.71Z"/><path class="cls-14" d="M87.16,594.71a.2.2,0,0,1,.2-.2.2.2,0,1,1,0,.4A.2.2,0,0,1,87.16,594.71Z"/><path class="cls-13" d="M63.88,594.71a.25.25,0,1,1,.25.25A.25.25,0,0,1,63.88,594.71Z"/><path class="cls-14" d="M63.92,594.71a.2.2,0,0,1,.21-.2.2.2,0,1,1,0,.4A.2.2,0,0,1,63.92,594.71Z"/><path class="cls-16" d="M75.17,593.79H64.65a10.61,10.61,0,0,0,5.25.86A24.89,24.89,0,0,0,75.17,593.79Z"/><path class="cls-16" d="M80.46,594.35a15,15,0,0,0-5.33,1.28H86.58C84.66,595.13,83,594.33,80.46,594.35Z"/><rect class="cls-15" x="62.73" y="590.94" width="26.03" height="1.83" rx="0.39" ry="0.39"/><path class="cls-13" d="M64.37,591.86a.25.25,0,1,1-.24-.25A.25.25,0,0,1,64.37,591.86Z"/><path class="cls-14" d="M64.33,591.86a.2.2,0,0,1-.2.2.2.2,0,1,1,0-.4A.2.2,0,0,1,64.33,591.86Z"/><path class="cls-13" d="M87.61,591.86a.25.25,0,1,1-.25-.25A.25.25,0,0,1,87.61,591.86Z"/><path class="cls-14" d="M87.57,591.86a.2.2,0,0,1-.21.2.2.2,0,0,1,0-.4A.2.2,0,0,1,87.57,591.86Z"/><path class="cls-16" d="M76.32,592.78H86.84a10.61,10.61,0,0,0-5.25-.86A24.27,24.27,0,0,0,76.32,592.78Z"/><path class="cls-16" d="M71,592.21a14.84,14.84,0,0,0,5.33-1.27H64.91C66.83,591.44,68.51,592.24,71,592.21Z"/><rect class="cls-15" x="62.73" y="596.64" width="26.03" height="1.83" rx="0.39" ry="0.39"/><path class="cls-13" d="M64.37,597.56a.25.25,0,1,1-.24-.25A.25.25,0,0,1,64.37,597.56Z"/><path class="cls-14" d="M64.33,597.56a.2.2,0,0,1-.2.2.2.2,0,1,1,0-.4A.2.2,0,0,1,64.33,597.56Z"/><path class="cls-13" d="M87.61,597.56a.25.25,0,1,1-.25-.25A.25.25,0,0,1,87.61,597.56Z"/><path class="cls-14" d="M87.57,597.56a.2.2,0,0,1-.21.2.2.2,0,0,1,0-.4A.2.2,0,0,1,87.57,597.56Z"/><path class="cls-16" d="M76.32,598.48H86.84a10.61,10.61,0,0,0-5.25-.86A24.27,24.27,0,0,0,76.32,598.48Z"/><path class="cls-16" d="M71,597.91a14.84,14.84,0,0,0,5.33-1.27H64.91C66.83,597.14,68.51,597.94,71,597.91Z"/><rect class="cls-15" x="61.75" y="600.8" width="28.19" height="0.71"/><polygon class="cls-16" points="62.19 600.27 61.75 600.8 89.94 600.8 89.5 600.27 62.19 600.27"/><polygon class="cls-16" points="89.11 600.04 88.76 599.63 62.73 599.63 62.38 600.04 89.11 600.04"/><ellipse class="cls-13" cx="63.33" cy="599.84" rx="0.18" ry="0.08"/><path class="cls-14" d="M63.48,599.84s-.07.06-.15.06-.15,0-.15-.06.06-.06.15-.06S63.48,599.81,63.48,599.84Z"/><ellipse class="cls-13" cx="88.02" cy="599.84" rx="0.18" ry="0.08"/><path class="cls-14" d="M88.17,599.84s-.06.06-.15.06-.15,0-.15-.06.07-.06.15-.06S88.17,599.81,88.17,599.84Z"/><path class="cls-13" d="M63,600.52s-.08.08-.19.08-.19,0-.19-.08.09-.08.19-.08S63,600.47,63,600.52Z"/><path class="cls-14" d="M62.94,600.52s-.07.06-.16.06-.16,0-.16-.06.08-.07.16-.07S62.94,600.48,62.94,600.52Z"/><path class="cls-13" d="M88.9,600.52s-.09.08-.19.08-.19,0-.19-.08.08-.08.19-.08S88.9,600.47,88.9,600.52Z"/><path class="cls-14" d="M88.87,600.52s-.08.06-.16.06-.16,0-.16-.06.07-.07.16-.07S88.87,600.48,88.87,600.52Z"/><path class="cls-19" d="M633,642.64a174.1,174.1,0,0,1,.42-18.15l-.39,0a178.72,178.72,0,0,0-.42,18.19Z"/><path class="cls-19" d="M629.41,631.05a25,25,0,0,1,1.72,5.68,47,47,0,0,1,.72,5.91h1.59l0-.16a46.86,46.86,0,0,0-1.26-6,26.32,26.32,0,0,0-2.27-5.68,10.6,10.6,0,0,0-4.14-4.38A10.39,10.39,0,0,1,629.41,631.05Z"/><path class="cls-27" d="M634.79,618.32c0,1.77-.77,3.2-1.73,3.2s-1.73-1.43-1.73-3.2.78-3.19,1.73-3.19S634.79,616.56,634.79,618.32Z"/><path class="cls-28" d="M633.06,615.13v6.39c1,0,1.73-1.43,1.73-3.2S634,615.13,633.06,615.13Z"/><path class="cls-27" d="M631.33,624.52c0,1.77.78,3.2,1.73,3.2s1.73-1.43,1.73-3.2-.77-3.2-1.73-3.2S631.33,622.76,631.33,624.52Z"/><path class="cls-28" d="M633.06,621.32v6.4c-.95,0-1.73-1.43-1.73-3.2S632.11,621.32,633.06,621.32Z"/><path class="cls-27" d="M636.16,623.15c-1.76,0-3.19-.77-3.19-1.73s1.43-1.73,3.19-1.73,3.2.78,3.2,1.73S637.93,623.15,636.16,623.15Z"/><path class="cls-28" d="M639.36,621.42H633c0,1,1.43,1.73,3.19,1.73S639.36,622.38,639.36,621.42Z"/><path class="cls-27" d="M630,619.69c-1.76,0-3.19.78-3.19,1.73s1.43,1.73,3.19,1.73,3.2-.77,3.2-1.73S631.73,619.69,630,619.69Z"/><path class="cls-28" d="M633.16,621.42h-6.39c0-.95,1.43-1.73,3.19-1.73S633.16,620.47,633.16,621.42Z"/><path class="cls-27" d="M636.48,620.45c-1.25,1.25-2.81,1.71-3.49,1s-.21-2.24,1-3.48,2.81-1.72,3.48-1S637.72,619.2,636.48,620.45Z"/><path class="cls-28" d="M637.51,617,633,621.49c.68.67,2.24.21,3.49-1S638.19,617.64,637.51,617Z"/><path class="cls-27" d="M629.65,622.39c-1.25,1.25-1.72,2.81-1,3.48s2.23.21,3.48-1,1.71-2.81,1-3.49S630.89,621.14,629.65,622.39Z"/><path class="cls-28" d="M633.13,621.35l-4.52,4.52c-.68-.67-.21-2.23,1-3.48S632.45,620.68,633.13,621.35Z"/><ellipse class="cls-27" cx="635.25" cy="623.61" rx="1.73" ry="3.2" transform="translate(-254.9 631.84) rotate(-45)"/><path class="cls-28" d="M637.51,625.87,633,621.35c-.67.68-.21,2.24,1,3.49S636.84,626.55,637.51,625.87Z"/><path class="cls-27" d="M632.09,618c-1.25-1.25-2.8-1.72-3.48-1s-.21,2.23,1,3.48,2.8,1.71,3.48,1S633.34,619.25,632.09,618Z"/><path class="cls-28" d="M633.13,621.49,628.61,617c.68-.68,2.23-.21,3.48,1S633.8,620.81,633.13,621.49Z"/><path class="cls-29" d="M635.13,621.42a2.07,2.07,0,1,1-2.07-2.07A2.06,2.06,0,0,1,635.13,621.42Z"/><path class="cls-30" d="M634.74,621.42a1.68,1.68,0,1,1-1.68-1.68A1.68,1.68,0,0,1,634.74,621.42Z"/><path class="cls-7" d="M633.94,642.64c0-.54.07-1.07.11-1.61a41.41,41.41,0,0,1,1.38-7.4,30.88,30.88,0,0,1,2.94-7l1-1.62c.36-.52.77-1,1.16-1.52l.58-.75c.21-.24.44-.46.66-.69l1.34-1.37L641.68,622c-.24.22-.48.42-.71.65l-.64.71c-.42.49-.88.95-1.27,1.46l-1.13,1.57a31.61,31.61,0,0,0-3.5,6.91,43.24,43.24,0,0,0-1.94,7.54c-.09.6-.17,1.2-.25,1.8Z"/><path class="cls-19" d="M17.68,680.36a169.73,169.73,0,0,1,.41-17.6l-.37,0a167.92,167.92,0,0,0-.42,17.63Z"/><path class="cls-19" d="M14.21,669.12a24.5,24.5,0,0,1,1.66,5.51,44.16,44.16,0,0,1,.7,5.73h1.54a.88.88,0,0,1,0-.16,47.84,47.84,0,0,0-1.23-5.8,25.26,25.26,0,0,0-2.2-5.51,10.31,10.31,0,0,0-4-4.24A10.06,10.06,0,0,1,14.21,669.12Z"/><path class="cls-31" d="M19.42,656.78c0,1.71-.75,3.1-1.68,3.1s-1.67-1.39-1.67-3.1.75-3.1,1.67-3.1S19.42,655.07,19.42,656.78Z"/><path class="cls-32" d="M17.74,653.68v6.2c.93,0,1.68-1.39,1.68-3.1S18.67,653.68,17.74,653.68Z"/><path class="cls-31" d="M16.07,662.79c0,1.71.75,3.1,1.67,3.1s1.68-1.39,1.68-3.1-.75-3.1-1.68-3.1S16.07,661.08,16.07,662.79Z"/><path class="cls-32" d="M17.74,659.69v6.2c-.92,0-1.67-1.39-1.67-3.1S16.82,659.69,17.74,659.69Z"/><ellipse class="cls-31" cx="20.75" cy="659.79" rx="3.1" ry="1.68"/><path class="cls-32" d="M23.85,659.79h-6.2c0,.92,1.39,1.67,3.1,1.67S23.85,660.71,23.85,659.79Z"/><ellipse class="cls-31" cx="14.74" cy="659.79" rx="3.1" ry="1.68"/><path class="cls-32" d="M17.84,659.79h-6.2c0-.93,1.39-1.68,3.1-1.68S17.84,658.86,17.84,659.79Z"/><ellipse class="cls-31" cx="19.87" cy="657.66" rx="3.1" ry="1.68" transform="translate(-459.22 206.67) rotate(-45)"/><path class="cls-32" d="M22.06,655.47l-4.38,4.38c.65.66,2.17.21,3.38-1S22.71,656.13,22.06,655.47Z"/><path class="cls-31" d="M14.43,660.73c-1.21,1.21-1.66,2.72-1,3.37s2.16.21,3.38-1,1.65-2.72,1-3.38S15.64,659.52,14.43,660.73Z"/><path class="cls-32" d="M17.81,659.72l-4.38,4.38c-.66-.65-.21-2.16,1-3.37S17.15,659.07,17.81,659.72Z"/><path class="cls-31" d="M18.68,663.1c-1.21-1.21-1.66-2.72-1-3.38s2.17-.2,3.38,1,1.65,2.72,1,3.37S19.89,664.31,18.68,663.1Z"/><path class="cls-32" d="M22.06,664.1l-4.38-4.38c-.66.66-.21,2.17,1,3.38S21.4,664.76,22.06,664.1Z"/><path class="cls-31" d="M16.81,656.48c-1.22-1.21-2.73-1.66-3.38-1s-.21,2.17,1,3.38,2.72,1.66,3.38,1S18,657.69,16.81,656.48Z"/><path class="cls-32" d="M17.81,659.85l-4.38-4.38c.65-.65,2.16-.2,3.38,1S18.46,659.2,17.81,659.85Z"/><circle class="cls-29" cx="17.74" cy="659.79" r="2.01"/><circle class="cls-30" cx="17.74" cy="659.79" r="1.63"/><path class="cls-7" d="M18.6,680.36c0-.52.06-1,.11-1.56A39.13,39.13,0,0,1,20,671.62a30.33,30.33,0,0,1,2.85-6.75l1-1.56c.35-.51.75-1,1.12-1.47l.57-.74c.2-.22.43-.44.64-.66l1.3-1.33-1.39,1.24c-.23.21-.47.41-.69.62l-.62.7c-.41.47-.85.92-1.23,1.41l-1.1,1.52a31,31,0,0,0-3.39,6.7,41.73,41.73,0,0,0-1.88,7.31c-.09.58-.17,1.17-.24,1.75Z"/><path class="cls-19" d="M384.79,678.71a188.87,188.87,0,0,1,.46-19.79l-.43,0a197.4,197.4,0,0,0-.46,19.84Z"/><path class="cls-19" d="M380.87,666.07a27.25,27.25,0,0,1,1.88,6.2,49.87,49.87,0,0,1,.78,6.44h1.73a1,1,0,0,0,0-.17,51.91,51.91,0,0,0-1.38-6.53,28.18,28.18,0,0,0-2.48-6.2,11.53,11.53,0,0,0-4.51-4.77A11.21,11.21,0,0,1,380.87,666.07Z"/><path class="cls-27" d="M386.74,652.19c0,1.92-.84,3.48-1.88,3.48s-1.89-1.56-1.89-3.48.84-3.49,1.89-3.49S386.74,650.26,386.74,652.19Z"/><path class="cls-28" d="M384.86,648.7v7c1,0,1.88-1.56,1.88-3.48S385.9,648.7,384.86,648.7Z"/><path class="cls-27" d="M383,659c0,1.92.84,3.49,1.89,3.49s1.88-1.57,1.88-3.49-.84-3.49-1.88-3.49S383,657,383,659Z"/><path class="cls-28" d="M384.86,655.46v7c-1.05,0-1.89-1.57-1.89-3.49S383.81,655.46,384.86,655.46Z"/><path class="cls-27" d="M388.24,657.46c-1.93,0-3.49-.85-3.49-1.89s1.56-1.89,3.49-1.89,3.48.85,3.48,1.89S390.16,657.46,388.24,657.46Z"/><path class="cls-28" d="M391.72,655.57h-7c0,1,1.56,1.89,3.49,1.89S391.72,656.61,391.72,655.57Z"/><path class="cls-27" d="M381.47,653.68c-1.92,0-3.48.85-3.48,1.89s1.56,1.89,3.48,1.89,3.49-.85,3.49-1.89S383.4,653.68,381.47,653.68Z"/><path class="cls-28" d="M385,655.57h-7c0-1,1.56-1.89,3.48-1.89S385,654.53,385,655.57Z"/><path class="cls-27" d="M388.58,654.51c-1.36,1.36-3.06,1.87-3.8,1.13s-.23-2.44,1.13-3.8,3.06-1.86,3.8-1.13S389.94,653.15,388.58,654.51Z"/><path class="cls-28" d="M389.71,650.71l-4.93,4.93c.74.74,2.44.23,3.8-1.13S390.45,651.45,389.71,650.71Z"/><path class="cls-27" d="M381.13,656.62c-1.36,1.37-1.87,3.07-1.13,3.8s2.44.24,3.8-1.13,1.87-3.06,1.13-3.8S382.49,655.26,381.13,656.62Z"/><path class="cls-28" d="M384.93,655.49,380,660.42c-.74-.73-.23-2.43,1.13-3.8S384.19,654.76,384.93,655.49Z"/><path class="cls-27" d="M385.91,659.29c-1.36-1.36-1.87-3.06-1.13-3.8s2.44-.23,3.8,1.13,1.87,3.07,1.13,3.8S387.27,660.66,385.91,659.29Z"/><path class="cls-28" d="M389.71,660.42l-4.93-4.93c-.74.74-.23,2.44,1.13,3.8S389,661.16,389.71,660.42Z"/><path class="cls-27" d="M383.8,651.84c-1.36-1.36-3.06-1.86-3.8-1.13s-.23,2.44,1.13,3.8,3.06,1.87,3.8,1.13S385.16,653.2,383.8,651.84Z"/><path class="cls-28" d="M384.93,655.64,380,650.71c.74-.73,2.44-.23,3.8,1.13S385.67,654.91,384.93,655.64Z"/><path class="cls-29" d="M387.12,655.57a2.27,2.27,0,1,1-2.26-2.26A2.26,2.26,0,0,1,387.12,655.57Z"/><path class="cls-30" d="M386.69,655.57a1.84,1.84,0,1,1-1.83-1.83A1.83,1.83,0,0,1,386.69,655.57Z"/><path class="cls-7" d="M385.81,678.71c0-.58.08-1.17.13-1.75a44.57,44.57,0,0,1,1.5-8.08,33.53,33.53,0,0,1,3.21-7.59l1.09-1.76c.39-.58.84-1.1,1.26-1.66l.64-.82c.23-.26.48-.5.72-.75l1.46-1.49-1.56,1.39c-.26.24-.53.46-.78.71l-.7.78c-.46.53-.95,1-1.38,1.58L390.16,661a34.52,34.52,0,0,0-3.81,7.55,45.29,45.29,0,0,0-2.11,8.22c-.11.65-.2,1.31-.28,2Z"/><path class="cls-19" d="M284.13,641.3a200.52,200.52,0,0,1,.49-20.78l-.45,0a204,204,0,0,0-.48,20.83Z"/><path class="cls-19" d="M280,628a29.45,29.45,0,0,1,2,6.51,55,55,0,0,1,.83,6.76h1.82l0-.18a55.39,55.39,0,0,0-1.45-6.86,30,30,0,0,0-2.6-6.51,12.25,12.25,0,0,0-4.74-5A11.94,11.94,0,0,1,280,628Z"/><path class="cls-31" d="M286.19,613.45c0,2-.89,3.66-2,3.66s-2-1.64-2-3.66.89-3.66,2-3.66S286.19,611.43,286.19,613.45Z"/><path class="cls-32" d="M284.21,609.79v7.32c1.09,0,2-1.64,2-3.66S285.3,609.79,284.21,609.79Z"/><path class="cls-31" d="M282.22,620.55c0,2,.89,3.66,2,3.66s2-1.64,2-3.66-.89-3.66-2-3.66S282.22,618.53,282.22,620.55Z"/><path class="cls-32" d="M284.21,616.89v7.32c-1.1,0-2-1.64-2-3.66S283.11,616.89,284.21,616.89Z"/><path class="cls-31" d="M287.76,619c-2,0-3.66-.89-3.66-2s1.63-2,3.66-2,3.66.88,3.66,2S289.78,619,287.76,619Z"/><path class="cls-32" d="M291.42,617H284.1c0,1.09,1.63,2,3.66,2S291.42,618.09,291.42,617Z"/><path class="cls-31" d="M280.65,615c-2,0-3.66.88-3.66,2s1.64,2,3.66,2,3.67-.89,3.67-2S282.68,615,280.65,615Z"/><path class="cls-32" d="M284.32,617H277c0-1.1,1.64-2,3.66-2S284.32,615.9,284.32,617Z"/><path class="cls-31" d="M288.12,615.89c-1.43,1.43-3.22,2-4,1.19s-.24-2.56,1.18-4,3.22-2,4-1.19S289.55,614.46,288.12,615.89Z"/><path class="cls-32" d="M289.3,611.9l-5.17,5.18c.77.77,2.56.24,4-1.19S290.08,612.67,289.3,611.9Z"/><path class="cls-31" d="M280.29,618.11c-1.43,1.43-2,3.21-1.18,4s2.56.24,4-1.19,2-3.21,1.18-4S281.72,616.68,280.29,618.11Z"/><path class="cls-32" d="M284.28,616.92l-5.17,5.18c-.78-.78-.25-2.56,1.18-4S283.51,616.15,284.28,616.92Z"/><path class="cls-31" d="M285.31,620.91c-1.42-1.43-2-3.21-1.18-4s2.56-.24,4,1.19,2,3.21,1.18,4S286.74,622.34,285.31,620.91Z"/><path class="cls-32" d="M289.3,622.1l-5.17-5.18c-.78.78-.24,2.56,1.18,4S288.53,622.87,289.3,622.1Z"/><path class="cls-31" d="M283.1,613.09c-1.43-1.43-3.22-2-4-1.19s-.25,2.56,1.18,4,3.22,2,4,1.19S284.53,614.52,283.1,613.09Z"/><path class="cls-32" d="M284.28,617.08l-5.17-5.18c.77-.77,2.56-.24,4,1.19S285.06,616.3,284.28,617.08Z"/><circle class="cls-29" cx="284.21" cy="617" r="2.37"/><path class="cls-30" d="M286.13,617a1.93,1.93,0,1,1-1.92-1.92A1.92,1.92,0,0,1,286.13,617Z"/><path class="cls-7" d="M285.21,641.3c0-.61.08-1.22.13-1.83a47.21,47.21,0,0,1,1.58-8.49,35.14,35.14,0,0,1,3.37-8l1.15-1.85c.4-.6.88-1.16,1.32-1.74l.67-.86c.24-.27.5-.53.76-.79l1.53-1.57-1.64,1.46-.82.74-.73.82c-.48.56-1,1.09-1.46,1.67l-1.29,1.8a36.13,36.13,0,0,0-4,7.92,48.2,48.2,0,0,0-2.23,8.63c-.1.69-.2,1.38-.28,2.06Z"/><path class="cls-19" d="M506.88,690.87a207,207,0,0,1,.48-20.79l-.44-.05a201.67,201.67,0,0,0-.49,20.84Z"/><path class="cls-19" d="M502.77,677.59a29,29,0,0,1,2,6.51,53,53,0,0,1,.82,6.77h1.82c0-.07,0-.13,0-.19a55.39,55.39,0,0,0-1.45-6.86,30.52,30.52,0,0,0-2.6-6.51,12.25,12.25,0,0,0-4.74-5A11.91,11.91,0,0,1,502.77,677.59Z"/><ellipse class="cls-31" cx="506.95" cy="663.01" rx="1.98" ry="3.66"/><path class="cls-32" d="M507,659.35v7.32c1.1,0,2-1.64,2-3.66S508.05,659.35,507,659.35Z"/><ellipse class="cls-31" cx="506.95" cy="670.11" rx="1.98" ry="3.66"/><path class="cls-32" d="M507,666.45v7.32c-1.09,0-2-1.64-2-3.66S505.86,666.45,507,666.45Z"/><path class="cls-31" d="M510.5,668.54c-2,0-3.66-.89-3.66-2s1.64-2,3.66-2,3.66.89,3.66,2S512.53,668.54,510.5,668.54Z"/><path class="cls-32" d="M514.16,666.56h-7.32c0,1.09,1.64,2,3.66,2S514.16,667.65,514.16,666.56Z"/><path class="cls-31" d="M503.4,664.58c-2,0-3.66.89-3.66,2s1.64,2,3.66,2,3.66-.89,3.66-2S505.42,664.58,503.4,664.58Z"/><path class="cls-32" d="M507.06,666.56h-7.32c0-1.09,1.64-2,3.66-2S507.06,665.47,507.06,666.56Z"/><path class="cls-31" d="M510.86,665.45c-1.43,1.43-3.21,2-4,1.19s-.24-2.56,1.19-4,3.22-2,4-1.19S512.29,664,510.86,665.45Z"/><path class="cls-32" d="M512.05,661.46l-5.18,5.18c.78.77,2.56.24,4-1.19S512.83,662.23,512.05,661.46Z"/><path class="cls-31" d="M503,667.67c-1.43,1.43-2,3.22-1.19,4s2.56.24,4-1.19,2-3.21,1.19-4S504.47,666.24,503,667.67Z"/><path class="cls-32" d="M507,666.48l-5.18,5.18c-.77-.77-.24-2.56,1.19-4S506.26,665.71,507,666.48Z"/><path class="cls-31" d="M508.06,670.47c-1.43-1.43-2-3.21-1.19-4s2.56-.24,4,1.19,2,3.22,1.19,4S509.49,671.9,508.06,670.47Z"/><path class="cls-32" d="M512.05,671.66l-5.18-5.18c-.77.78-.24,2.56,1.19,4S511.28,672.43,512.05,671.66Z"/><path class="cls-31" d="M505.84,662.65c-1.43-1.43-3.21-2-4-1.19s-.24,2.56,1.19,4,3.22,2,4,1.19S507.27,664.08,505.84,662.65Z"/><path class="cls-32" d="M507,666.64l-5.18-5.18c.78-.77,2.56-.24,4,1.19S507.8,665.86,507,666.64Z"/><circle class="cls-29" cx="506.95" cy="666.56" r="2.37"/><path class="cls-30" d="M508.88,666.56a1.93,1.93,0,1,1-1.93-1.92A1.93,1.93,0,0,1,508.88,666.56Z"/><path class="cls-7" d="M508,690.87c0-.62.07-1.23.13-1.84a47.21,47.21,0,0,1,1.58-8.49,35.11,35.11,0,0,1,3.36-8l1.15-1.85c.41-.6.88-1.16,1.32-1.74l.67-.86c.25-.27.51-.53.76-.79l1.54-1.57-1.64,1.46c-.28.25-.56.49-.82.74l-.74.83c-.48.55-1,1.08-1.45,1.66l-1.3,1.8a36.13,36.13,0,0,0-4,7.92,49,49,0,0,0-2.22,8.63c-.11.69-.2,1.38-.29,2.07Z"/><path class="cls-19" d="M657.44,717.57c-.27-17.72.62-26.63.63-26.72l-.57-.06c0,.09-.9,9-.63,26.78Z"/><path class="cls-19" d="M652.16,700.5a36.93,36.93,0,0,1,2.53,8.37,66.88,66.88,0,0,1,1.06,8.7h2.34l0-.24a72,72,0,0,0-1.86-8.82,38.25,38.25,0,0,0-3.35-8.36,15.63,15.63,0,0,0-6.09-6.44A15.23,15.23,0,0,1,652.16,700.5Z"/><path class="cls-27" d="M660.08,681.76c0,2.6-1.14,4.71-2.54,4.71s-2.55-2.11-2.55-4.71,1.14-4.7,2.55-4.7S660.08,679.17,660.08,681.76Z"/><path class="cls-28" d="M657.54,677.06v9.41c1.4,0,2.54-2.11,2.54-4.71S658.94,677.06,657.54,677.06Z"/><path class="cls-27" d="M655,690.89c0,2.6,1.14,4.71,2.55,4.71s2.54-2.11,2.54-4.71-1.14-4.7-2.54-4.7S655,688.29,655,690.89Z"/><path class="cls-28" d="M657.54,686.19v9.41c-1.41,0-2.55-2.11-2.55-4.71S656.13,686.19,657.54,686.19Z"/><path class="cls-27" d="M662.1,688.88c-2.6,0-4.7-1.15-4.7-2.55s2.1-2.55,4.7-2.55,4.71,1.14,4.71,2.55S664.7,688.88,662.1,688.88Z"/><path class="cls-28" d="M666.81,686.33H657.4c0,1.4,2.1,2.55,4.7,2.55S666.81,687.73,666.81,686.33Z"/><path class="cls-27" d="M653,683.78c-2.59,0-4.7,1.14-4.7,2.55s2.11,2.55,4.7,2.55,4.71-1.15,4.71-2.55S655.57,683.78,653,683.78Z"/><path class="cls-28" d="M657.68,686.33h-9.41c0-1.41,2.11-2.55,4.7-2.55S657.68,684.92,657.68,686.33Z"/><path class="cls-27" d="M662.57,684.9c-1.84,1.84-4.14,2.52-5.13,1.53s-.31-3.29,1.52-5.13,4.14-2.52,5.13-1.53S664.4,683.07,662.57,684.9Z"/><path class="cls-28" d="M664.09,679.77l-6.65,6.66c1,1,3.29.31,5.13-1.53S665.09,680.77,664.09,679.77Z"/><path class="cls-27" d="M652.51,687.75c-1.84,1.84-2.52,4.14-1.53,5.13s3.29.31,5.13-1.52,2.52-4.14,1.53-5.13S654.35,685.92,652.51,687.75Z"/><path class="cls-28" d="M657.64,686.23,651,692.88c-1-1-.31-3.29,1.53-5.13S656.64,685.23,657.64,686.23Z"/><path class="cls-27" d="M659,691.36c-1.83-1.84-2.52-4.14-1.52-5.13s3.29-.31,5.13,1.52,2.52,4.14,1.52,5.13S660.8,693.19,659,691.36Z"/><path class="cls-28" d="M664.09,692.88l-6.65-6.65c-1,1-.31,3.29,1.52,5.13S663.1,693.88,664.09,692.88Z"/><path class="cls-27" d="M656.11,681.3c-1.84-1.84-4.13-2.52-5.13-1.53s-.31,3.3,1.53,5.13,4.13,2.52,5.13,1.53S658,683.14,656.11,681.3Z"/><path class="cls-28" d="M657.64,686.43,651,679.77c1-1,3.29-.31,5.13,1.53S658.63,685.43,657.64,686.43Z"/><circle class="cls-29" cx="657.54" cy="686.33" r="3.05"/><path class="cls-30" d="M660,686.33a2.47,2.47,0,1,1-2.47-2.47A2.48,2.48,0,0,1,660,686.33Z"/><path class="cls-7" d="M658.83,717.57c0-.79.1-1.58.17-2.37a60.47,60.47,0,0,1,2-10.9,46.18,46.18,0,0,1,4.33-10.25l1.48-2.38c.52-.77,1.13-1.48,1.7-2.23l.86-1.11c.31-.35.65-.67,1-1l2-2-2.11,1.88c-.35.32-.71.62-1.05,1l-.95,1.06c-.62.71-1.28,1.39-1.87,2.14l-1.66,2.31a46.77,46.77,0,0,0-5.14,10.18,62.93,62.93,0,0,0-2.86,11.09c-.14.89-.26,1.77-.37,2.66Z"/><path class="cls-19" d="M572,774c-.28-17.72.61-26.63.62-26.72l-.57-.06c0,.09-.9,9-.63,26.78Z"/><path class="cls-19" d="M566.74,756.94a37.58,37.58,0,0,1,2.52,8.37,66.88,66.88,0,0,1,1.06,8.7h2.34l0-.24a72,72,0,0,0-1.86-8.82,38.25,38.25,0,0,0-3.35-8.36,15.63,15.63,0,0,0-6.09-6.44A15.32,15.32,0,0,1,566.74,756.94Z"/><path class="cls-27" d="M574.66,738.2c0,2.6-1.14,4.71-2.55,4.71s-2.55-2.11-2.55-4.71,1.14-4.7,2.55-4.7S574.66,735.61,574.66,738.2Z"/><path class="cls-28" d="M572.11,733.5v9.41c1.41,0,2.55-2.11,2.55-4.71S573.52,733.5,572.11,733.5Z"/><path class="cls-27" d="M569.56,747.33c0,2.6,1.14,4.71,2.55,4.71s2.55-2.11,2.55-4.71-1.14-4.7-2.55-4.7S569.56,744.73,569.56,747.33Z"/><path class="cls-28" d="M572.11,742.63V752c-1.41,0-2.55-2.11-2.55-4.71S570.7,742.63,572.11,742.63Z"/><path class="cls-27" d="M576.67,745.32c-2.6,0-4.7-1.14-4.7-2.55s2.1-2.55,4.7-2.55,4.71,1.14,4.71,2.55S579.27,745.32,576.67,745.32Z"/><path class="cls-28" d="M581.38,742.77H572c0,1.41,2.1,2.55,4.7,2.55S581.38,744.18,581.38,742.77Z"/><path class="cls-27" d="M567.55,740.22c-2.6,0-4.71,1.14-4.71,2.55s2.11,2.55,4.71,2.55,4.7-1.14,4.7-2.55S570.14,740.22,567.55,740.22Z"/><path class="cls-28" d="M572.25,742.77h-9.41c0-1.41,2.11-2.55,4.71-2.55S572.25,741.36,572.25,742.77Z"/><path class="cls-27" d="M577.14,741.34c-1.84,1.84-4.14,2.52-5.13,1.53s-.31-3.29,1.53-5.13,4.13-2.52,5.12-1.53S579,739.51,577.14,741.34Z"/><path class="cls-28" d="M578.66,736.21,572,742.87c1,1,3.29.31,5.13-1.53S579.66,737.21,578.66,736.21Z"/><path class="cls-27" d="M567.08,744.19c-1.84,1.84-2.52,4.14-1.52,5.13s3.29.31,5.12-1.52,2.52-4.14,1.53-5.13S568.92,742.36,567.08,744.19Z"/><path class="cls-28" d="M572.21,742.67l-6.65,6.65c-1-1-.32-3.29,1.52-5.13S571.21,741.67,572.21,742.67Z"/><path class="cls-27" d="M573.54,747.8c-1.84-1.84-2.53-4.14-1.53-5.13s3.29-.31,5.13,1.52,2.52,4.14,1.52,5.13S575.37,749.63,573.54,747.8Z"/><path class="cls-28" d="M578.66,749.32,572,742.67c-1,1-.31,3.29,1.53,5.13S577.67,750.32,578.66,749.32Z"/><path class="cls-27" d="M570.68,737.74c-1.83-1.84-4.13-2.52-5.12-1.53s-.32,3.3,1.52,5.13,4.13,2.52,5.13,1.53S572.52,739.58,570.68,737.74Z"/><path class="cls-28" d="M572.21,742.87l-6.65-6.66c1-1,3.29-.31,5.12,1.53S573.2,741.87,572.21,742.87Z"/><path class="cls-29" d="M575.16,742.77a3.05,3.05,0,1,1-3-3A3.06,3.06,0,0,1,575.16,742.77Z"/><path class="cls-30" d="M574.58,742.77a2.47,2.47,0,1,1-2.47-2.47A2.48,2.48,0,0,1,574.58,742.77Z"/><path class="cls-7" d="M573.4,774c.05-.79.1-1.58.17-2.37a59.63,59.63,0,0,1,2-10.9,45.68,45.68,0,0,1,4.32-10.25l1.48-2.38c.53-.77,1.13-1.48,1.7-2.23l.86-1.11c.31-.35.65-.67,1-1l2-2-2.11,1.88c-.35.32-.71.62-1,1l-.94,1.06c-.62.71-1.29,1.39-1.87,2.14l-1.67,2.31a46.77,46.77,0,0,0-5.14,10.18,62.93,62.93,0,0,0-2.86,11.09c-.14.89-.26,1.77-.37,2.66Z"/><path class="cls-19" d="M33.14,747.71c-.27-17.72.61-26.63.62-26.72l-.57-.06c0,.1-.9,9-.62,26.78Z"/><path class="cls-19" d="M27.86,730.64A37.08,37.08,0,0,1,30.39,739a68.65,68.65,0,0,1,1.06,8.7h2.34l0-.24a69.7,69.7,0,0,0-1.87-8.81,38.8,38.8,0,0,0-3.34-8.37,15.63,15.63,0,0,0-6.09-6.44A15.3,15.3,0,0,1,27.86,730.64Z"/><path class="cls-27" d="M35.78,711.91c0,2.6-1.14,4.7-2.54,4.7s-2.55-2.1-2.55-4.7,1.14-4.71,2.55-4.71S35.78,709.31,35.78,711.91Z"/><path class="cls-28" d="M33.24,707.2v9.41c1.4,0,2.54-2.1,2.54-4.7S34.64,707.2,33.24,707.2Z"/><path class="cls-27" d="M30.69,721c0,2.6,1.14,4.71,2.55,4.71s2.54-2.11,2.54-4.71-1.14-4.7-2.54-4.7S30.69,718.44,30.69,721Z"/><path class="cls-28" d="M33.24,716.33v9.41c-1.41,0-2.55-2.11-2.55-4.71S31.83,716.33,33.24,716.33Z"/><path class="cls-27" d="M37.8,719c-2.6,0-4.71-1.14-4.71-2.55s2.11-2.55,4.71-2.55,4.7,1.14,4.7,2.55S40.4,719,37.8,719Z"/><path class="cls-28" d="M42.5,716.47H33.09c0,1.41,2.11,2.55,4.71,2.55S42.5,717.88,42.5,716.47Z"/><path class="cls-27" d="M28.67,713.92c-2.6,0-4.7,1.14-4.7,2.55s2.1,2.55,4.7,2.55,4.71-1.14,4.71-2.55S31.27,713.92,28.67,713.92Z"/><path class="cls-28" d="M33.38,716.47H24c0-1.41,2.1-2.55,4.7-2.55S33.38,715.06,33.38,716.47Z"/><path class="cls-27" d="M38.26,715c-1.83,1.84-4.13,2.53-5.12,1.53s-.32-3.29,1.52-5.13,4.13-2.52,5.13-1.52S40.1,713.21,38.26,715Z"/><path class="cls-28" d="M39.79,709.92l-6.65,6.65c1,1,3.29.31,5.12-1.53S40.78,710.91,39.79,709.92Z"/><path class="cls-27" d="M28.21,717.9c-1.84,1.83-2.52,4.13-1.53,5.12s3.29.32,5.13-1.52,2.52-4.13,1.53-5.13S30.05,716.06,28.21,717.9Z"/><path class="cls-28" d="M33.34,716.37,26.68,723c-1-1-.31-3.29,1.53-5.12S32.34,715.38,33.34,716.37Z"/><path class="cls-27" d="M34.66,721.5c-1.84-1.84-2.52-4.13-1.52-5.13s3.29-.31,5.12,1.53S40.78,722,39.79,723,36.5,723.34,34.66,721.5Z"/><path class="cls-28" d="M39.79,723l-6.65-6.65c-1,1-.32,3.29,1.52,5.13S38.79,724,39.79,723Z"/><path class="cls-27" d="M31.81,711.44c-1.84-1.83-4.13-2.52-5.13-1.52s-.31,3.29,1.53,5.12,4.13,2.53,5.13,1.53S33.65,713.28,31.81,711.44Z"/><path class="cls-28" d="M33.34,716.57l-6.66-6.65c1-1,3.29-.31,5.13,1.52S34.33,715.58,33.34,716.57Z"/><path class="cls-29" d="M36.29,716.47a3.06,3.06,0,1,1-3-3.05A3,3,0,0,1,36.29,716.47Z"/><path class="cls-30" d="M35.71,716.47A2.48,2.48,0,1,1,33.24,714,2.47,2.47,0,0,1,35.71,716.47Z"/><path class="cls-7" d="M34.53,747.71c0-.79.1-1.58.17-2.36a60.42,60.42,0,0,1,2-10.91,45.26,45.26,0,0,1,4.33-10.25l1.48-2.38c.52-.77,1.13-1.48,1.69-2.23l.87-1.11c.31-.35.65-.67,1-1l2-2-2.1,1.88c-.35.32-.72.63-1,.95l-1,1.06c-.62.71-1.29,1.39-1.87,2.14l-1.66,2.31A46.81,46.81,0,0,0,35.25,734a62,62,0,0,0-2.85,11.09c-.14.89-.26,1.77-.37,2.66Z"/><path class="cls-19" d="M219.25,672.13a143.17,143.17,0,0,1,.33-14.44l-.3,0a137.57,137.57,0,0,0-.34,14.47Z"/><path class="cls-19" d="M216.39,662.91a20.34,20.34,0,0,1,1.37,4.52,37,37,0,0,1,.57,4.7h1.27a.59.59,0,0,1,0-.13,36.61,36.61,0,0,0-1-4.76,21,21,0,0,0-1.8-4.52,8.5,8.5,0,0,0-3.29-3.48A8.19,8.19,0,0,1,216.39,662.91Z"/><ellipse class="cls-31" cx="219.3" cy="652.79" rx="1.38" ry="2.54"/><path class="cls-32" d="M219.3,650.24v5.09c.76,0,1.37-1.14,1.37-2.54S220.06,650.24,219.3,650.24Z"/><path class="cls-31" d="M217.92,657.72c0,1.4.62,2.54,1.38,2.54s1.37-1.14,1.37-2.54-.61-2.54-1.37-2.54S217.92,656.31,217.92,657.72Z"/><path class="cls-32" d="M219.3,655.18v5.08c-.76,0-1.38-1.14-1.38-2.54S218.54,655.18,219.3,655.18Z"/><ellipse class="cls-31" cx="221.76" cy="655.25" rx="2.54" ry="1.38"/><path class="cls-32" d="M224.3,655.25h-5.08c0,.76,1.14,1.38,2.54,1.38S224.3,656,224.3,655.25Z"/><ellipse class="cls-31" cx="216.83" cy="655.25" rx="2.54" ry="1.38"/><path class="cls-32" d="M219.37,655.25h-5.08c0-.76,1.14-1.37,2.54-1.37S219.37,654.49,219.37,655.25Z"/><ellipse class="cls-31" cx="221.04" cy="653.51" rx="2.54" ry="1.38" transform="translate(-397.36 347.71) rotate(-45)"/><path class="cls-32" d="M222.84,651.71l-3.6,3.6c.54.53,1.78.16,2.77-.83S223.38,652.25,222.84,651.71Z"/><ellipse class="cls-31" cx="217.55" cy="657" rx="2.54" ry="1.38" transform="translate(-400.84 346.26) rotate(-45)"/><path class="cls-32" d="M219.35,655.2l-3.59,3.59c-.54-.53-.17-1.78.82-2.77S218.81,654.66,219.35,655.2Z"/><ellipse class="cls-31" cx="221.04" cy="657" rx="1.38" ry="2.54" transform="translate(-399.82 348.73) rotate(-45)"/><path class="cls-32" d="M222.84,658.79l-3.6-3.59c-.53.54-.16,1.78.83,2.77S222.3,659.33,222.84,658.79Z"/><ellipse class="cls-31" cx="217.55" cy="653.51" rx="1.38" ry="2.54" transform="translate(-398.38 345.24) rotate(-45)"/><path class="cls-32" d="M219.35,655.31l-3.59-3.6c.53-.54,1.77-.17,2.77.83S219.89,654.77,219.35,655.31Z"/><circle class="cls-29" cx="219.3" cy="655.25" r="1.65"/><circle class="cls-30" cx="219.3" cy="655.25" r="1.33"/><path class="cls-7" d="M220,672.13c0-.43.05-.86.09-1.28a32,32,0,0,1,1.09-5.89,24.51,24.51,0,0,1,2.34-5.54l.8-1.28c.28-.42.61-.8.91-1.21l.47-.6c.17-.19.35-.36.53-.54l1.06-1.09-1.14,1c-.19.17-.38.34-.56.52l-.51.57c-.34.38-.7.75-1,1.15l-.9,1.25a24.92,24.92,0,0,0-2.78,5.5,33.34,33.34,0,0,0-1.54,6c-.08.48-.15,1-.2,1.44Z"/><path class="cls-19" d="M282,734.1c-.28-17.72.61-26.63.62-26.72l-.57-.06c0,.09-.9,9-.63,26.78Z"/><path class="cls-19" d="M276.69,717a37.58,37.58,0,0,1,2.52,8.37,68.67,68.67,0,0,1,1.07,8.7h2.33l0-.24a72,72,0,0,0-1.86-8.82,38.93,38.93,0,0,0-3.34-8.36,15.72,15.72,0,0,0-6.1-6.44A15.25,15.25,0,0,1,276.69,717Z"/><path class="cls-27" d="M284.61,698.3c0,2.59-1.14,4.7-2.55,4.7s-2.55-2.11-2.55-4.7,1.14-4.71,2.55-4.71S284.61,695.7,284.61,698.3Z"/><path class="cls-28" d="M282.06,693.59V703c1.41,0,2.55-2.11,2.55-4.7S283.47,693.59,282.06,693.59Z"/><path class="cls-27" d="M279.51,707.42c0,2.6,1.14,4.71,2.55,4.71s2.55-2.11,2.55-4.71-1.14-4.7-2.55-4.7S279.51,704.82,279.51,707.42Z"/><path class="cls-28" d="M282.06,702.72v9.41c-1.41,0-2.55-2.11-2.55-4.71S280.65,702.72,282.06,702.72Z"/><path class="cls-27" d="M286.62,705.41c-2.59,0-4.7-1.14-4.7-2.55s2.11-2.55,4.7-2.55,4.71,1.14,4.71,2.55S289.22,705.41,286.62,705.41Z"/><path class="cls-28" d="M291.33,702.86h-9.41c0,1.41,2.11,2.55,4.7,2.55S291.33,704.27,291.33,702.86Z"/><path class="cls-27" d="M277.5,700.31c-2.6,0-4.71,1.14-4.71,2.55s2.11,2.55,4.71,2.55,4.7-1.14,4.7-2.55S280.09,700.31,277.5,700.31Z"/><path class="cls-28" d="M282.2,702.86h-9.41c0-1.41,2.11-2.55,4.71-2.55S282.2,701.45,282.2,702.86Z"/><path class="cls-27" d="M287.09,701.43C285.25,703.27,283,704,282,703s-.31-3.29,1.53-5.13,4.13-2.52,5.12-1.52S288.93,699.6,287.09,701.43Z"/><path class="cls-28" d="M288.61,696.31,282,703c1,1,3.29.31,5.13-1.53S289.61,697.3,288.61,696.31Z"/><path class="cls-27" d="M277,704.29c-1.84,1.83-2.52,4.13-1.52,5.12s3.29.32,5.12-1.52,2.52-4.14,1.53-5.13S278.87,702.45,277,704.29Z"/><path class="cls-28" d="M282.16,702.76l-6.65,6.65c-1-1-.32-3.29,1.52-5.12S281.17,701.77,282.16,702.76Z"/><path class="cls-27" d="M283.49,707.89c-1.84-1.84-2.52-4.14-1.53-5.13s3.29-.31,5.13,1.53,2.52,4.13,1.52,5.12S285.32,709.73,283.49,707.89Z"/><path class="cls-28" d="M288.61,709.41,282,702.76c-1,1-.31,3.29,1.53,5.13S287.62,710.41,288.61,709.41Z"/><path class="cls-27" d="M280.63,697.83c-1.83-1.84-4.13-2.52-5.12-1.52s-.32,3.29,1.52,5.12,4.14,2.52,5.13,1.53S282.47,699.67,280.63,697.83Z"/><path class="cls-28" d="M282.16,703l-6.65-6.65c1-1,3.29-.32,5.12,1.52S283.15,702,282.16,703Z"/><path class="cls-29" d="M285.11,702.86a3.05,3.05,0,1,1-3.05-3.05A3,3,0,0,1,285.11,702.86Z"/><path class="cls-30" d="M284.53,702.86a2.47,2.47,0,1,1-2.47-2.47A2.48,2.48,0,0,1,284.53,702.86Z"/><path class="cls-7" d="M283.35,734.1c0-.79.1-1.58.17-2.36a60.44,60.44,0,0,1,2-10.91,45.68,45.68,0,0,1,4.32-10.25l1.48-2.38c.53-.77,1.14-1.48,1.7-2.23l.86-1.11c.31-.35.65-.67,1-1l2-2-2.11,1.88c-.35.32-.71.62-1.05.95l-.94,1.06c-.62.71-1.29,1.39-1.87,2.14l-1.67,2.31a46.77,46.77,0,0,0-5.14,10.18,62.93,62.93,0,0,0-2.86,11.09c-.14.89-.26,1.77-.37,2.66Z"/><path class="cls-19" d="M415.4,763.71c-.27-17.71.61-26.62.62-26.71l-.57-.06c0,.09-.9,9-.62,26.77Z"/><path class="cls-19" d="M410.12,746.65a37.44,37.44,0,0,1,2.53,8.37,70.6,70.6,0,0,1,1.06,8.69h2.34c0-.08,0-.15,0-.23a69.82,69.82,0,0,0-1.86-8.82,38.72,38.72,0,0,0-3.34-8.36,15.64,15.64,0,0,0-6.09-6.44A15.3,15.3,0,0,1,410.12,746.65Z"/><path class="cls-31" d="M418,727.91c0,2.6-1.14,4.71-2.55,4.71s-2.54-2.11-2.54-4.71,1.14-4.7,2.54-4.7S418,725.31,418,727.91Z"/><path class="cls-32" d="M415.49,723.21v9.41c1.41,0,2.55-2.11,2.55-4.71S416.9,723.21,415.49,723.21Z"/><path class="cls-31" d="M413,737c0,2.6,1.14,4.7,2.54,4.7s2.55-2.1,2.55-4.7-1.14-4.71-2.55-4.71S413,734.44,413,737Z"/><path class="cls-32" d="M415.49,732.33v9.41c-1.4,0-2.54-2.1-2.54-4.7S414.09,732.33,415.49,732.33Z"/><path class="cls-31" d="M420.06,735c-2.6,0-4.71-1.14-4.71-2.54s2.11-2.55,4.71-2.55,4.7,1.14,4.7,2.55S422.66,735,420.06,735Z"/><path class="cls-32" d="M424.76,732.48h-9.41c0,1.4,2.11,2.54,4.71,2.54S424.76,733.88,424.76,732.48Z"/><path class="cls-31" d="M410.93,729.93c-2.6,0-4.7,1.14-4.7,2.55s2.1,2.54,4.7,2.54,4.71-1.14,4.71-2.54S413.53,729.93,410.93,729.93Z"/><path class="cls-32" d="M415.64,732.48h-9.41c0-1.41,2.1-2.55,4.7-2.55S415.64,731.07,415.64,732.48Z"/><path class="cls-31" d="M420.52,731.05c-1.84,1.84-4.13,2.52-5.13,1.53s-.31-3.3,1.53-5.13,4.13-2.52,5.13-1.53S422.36,729.21,420.52,731.05Z"/><path class="cls-32" d="M422.05,725.92l-6.66,6.66c1,1,3.29.31,5.13-1.53S423,726.92,422.05,725.92Z"/><path class="cls-31" d="M410.47,733.9c-1.84,1.84-2.52,4.13-1.53,5.13s3.29.31,5.13-1.53,2.52-4.13,1.52-5.12S412.3,732.06,410.47,733.9Z"/><path class="cls-32" d="M415.59,732.38,408.94,739c-1-1-.31-3.29,1.53-5.13S414.6,731.38,415.59,732.38Z"/><path class="cls-31" d="M416.92,737.5c-1.84-1.83-2.52-4.13-1.53-5.12s3.29-.32,5.13,1.52S423,738,422.05,739,418.76,739.34,416.92,737.5Z"/><path class="cls-32" d="M422.05,739l-6.66-6.65c-1,1-.31,3.29,1.53,5.12S421.05,740,422.05,739Z"/><path class="cls-31" d="M414.07,727.45c-1.84-1.84-4.14-2.52-5.13-1.53s-.31,3.29,1.53,5.13,4.13,2.52,5.12,1.53S415.91,729.28,414.07,727.45Z"/><path class="cls-32" d="M415.59,732.58l-6.65-6.66c1-1,3.29-.31,5.13,1.53S416.59,731.58,415.59,732.58Z"/><circle class="cls-29" cx="415.49" cy="732.48" r="3.05"/><circle class="cls-30" cx="415.49" cy="732.48" r="2.47"/><path class="cls-7" d="M416.79,763.71c0-.79.09-1.58.17-2.36a60.58,60.58,0,0,1,2-10.91,45.19,45.19,0,0,1,4.33-10.24l1.48-2.38c.52-.77,1.13-1.48,1.69-2.23l.87-1.11c.31-.35.65-.68,1-1l2-2-2.11,1.88c-.35.32-.71.62-1.05.95l-.94,1.06c-.62.71-1.29,1.39-1.87,2.14l-1.67,2.31A46.7,46.7,0,0,0,417.51,750a62.37,62.37,0,0,0-2.85,11.1c-.14.88-.26,1.77-.37,2.65Z"/><path class="cls-22" d="M470.76,510.12a11.71,11.71,0,0,1-11.62-10.29,26.16,26.16,0,1,0,14.11,10A12.1,12.1,0,0,1,470.76,510.12Z"/><path class="cls-23" d="M455.69,499.09A26.1,26.1,0,0,0,425.78,525a24.4,24.4,0,0,0,.14,2.72C428.93,506.61,443.7,501.17,455.69,499.09Z"/><path class="cls-24" d="M470.76,510.12c-.42,0-.84,0-1.25-.07a26.14,26.14,0,0,1-33.21,35.87,26.13,26.13,0,0,0,36.94-36.07A11.93,11.93,0,0,1,470.76,510.12Z"/><path class="cls-20" d="M450.39,524.19s.57,19.51,1.9,19.89,5.34-9.25,5.34-9.25l1.05,1.81s-4.86,9.82-5.62,14.3,0,23.06,0,23.06h-4.39s1.24-19.44,1.05-24.68-1.62-12.49-1.52-15.73-.29-7.87-.29-7.87Z"/><path class="cls-21" d="M458.68,536.64l-.33-.55a13.76,13.76,0,0,0-.84,1.47c-.57,1.19-2.7,5.7-3.78,8.11a17.87,17.87,0,0,0-2,9c.08,3.62,0,15.36-.08,19.34h1.44s-.77-18.58,0-23.06S458.68,536.64,458.68,536.64Z"/><path class="cls-21" d="M452.08,544.61a3.38,3.38,0,0,0,.64-.67.53.53,0,0,1-.43.14c-1.33-.38-1.9-19.89-1.9-19.89l-1.32.81C449.28,529.66,450.06,546.19,452.08,544.61Z"/><path class="cls-24" d="M455.88,504.36a1.19,1.19,0,1,1-1.18-1.19A1.18,1.18,0,0,1,455.88,504.36Z"/><path class="cls-24" d="M464.23,511.06a2.33,2.33,0,1,1-2.33-2.33A2.33,2.33,0,0,1,464.23,511.06Z"/><path class="cls-24" d="M446.78,511.31a3.58,3.58,0,1,1-3.57-3.58A3.57,3.57,0,0,1,446.78,511.31Z"/><path class="cls-7" d="M365.33,551.24a12.39,12.39,0,0,0-22.21-4.62A8.74,8.74,0,0,0,344.63,564a9.53,9.53,0,0,0,1.32-.11,12.37,12.37,0,0,0,13.48.67,7.18,7.18,0,0,0,3.27.79,7.28,7.28,0,0,0,2.63-14.08Z"/><path class="cls-18" d="M344.84,546.49a12.94,12.94,0,0,1,6.69-5,12.38,12.38,0,0,0-8.4,5.07,8.73,8.73,0,0,0-7.16,7.48,11,11,0,0,1,15.12-4.74A8.66,8.66,0,0,0,344.84,546.49Z"/><path class="cls-19" d="M365.33,551.24a12.41,12.41,0,0,0-11-9.77,13.29,13.29,0,0,1,9.61,10.67c2.46,1,4.23,3.13,3.94,5.69a5.86,5.86,0,0,1-5.84,5.49,7.28,7.28,0,0,1-3-.71,15.16,15.16,0,0,1-6.59,1.62,10.78,10.78,0,0,1-6.45-2,3.8,3.8,0,0,1-.41,0,6.81,6.81,0,0,1-.78,0h-.43a8.82,8.82,0,0,1-8.45-6.06,8.74,8.74,0,0,0,8.68,7.73,9.53,9.53,0,0,0,1.32-.11,12.37,12.37,0,0,0,13.48.67,7.18,7.18,0,0,0,3.27.79,7.28,7.28,0,0,0,2.63-14.08Z"/><path class="cls-20" d="M352.62,553.27a1.9,1.9,0,0,0-.89-.2c.1.84.15,3,.2,4.19a12,12,0,0,1-.1,3.52c-.33.8-1-.26-1.2-.75s-1.6-3.32-1.6-3.32l-.6.4s1.55,3,1.85,3.74.35.6.7,1.45a22.39,22.39,0,0,1,.8,4,9,9,0,0,1,0,2.3l-.69-.54,0,1.14.18.28a3.05,3.05,0,0,1,.45,1.47c0,.61,0,1.41,0,1.84-.05.75,0,3.5,0,3.5h1.94s.15-8.24.15-9.84,2.15-6,2.15-6l-.85-.35s-1.05,3.3-1.5,3.55-.65-3.6-.65-4.85S352.62,553.27,352.62,553.27Z"/><path class="cls-21" d="M353.57,563.7c-.45.25-.65-3.6-.65-4.85s-.3-5.58-.3-5.58a.8.8,0,0,0-.35-.14,8.38,8.38,0,0,1,.07,1.61c0,.49.15,2.13.15,3a39.54,39.54,0,0,0,.16,4.26,7.56,7.56,0,0,0,.44,1.73C353.27,564.1,353.57,563.7,353.57,563.7Z"/><path class="cls-21" d="M351.83,560.78c-.33.8-1-.26-1.2-.75s-1.6-3.32-1.6-3.32l-.25.17c.29.55,1,2.32,1.21,2.75a5.18,5.18,0,0,0,1.16,1.77A.67.67,0,0,0,352,561a6.54,6.54,0,0,0,0-1.28A3.49,3.49,0,0,1,351.83,560.78Z"/><path class="cls-21" d="M355.54,560.35c-.1.37-.39,1-.67,1.68-.36.86-1.09,1.93-1.3,2.68a24.57,24.57,0,0,0-.53,5.7c-.05,2.32.12,4.46.14,5.92h.44s.15-8.24.15-9.84,2.15-6,2.15-6Z"/><path class="cls-21" d="M351.05,568.36c.25.31.67.76.69.28l-.69-.54Z"/><path class="cls-10" d="M181.5,643.29q-15.15,3.38-30.06,7c-5.89,51-6.87,198.2,111.09,277.5h95.82q-22.53-12.9-46-27.81C180,815.46,176.85,688.68,181.5,643.29Z"/><path class="cls-10" d="M90.83,666.65l-6.15,1.8C61.77,738.73,48,869.17,47.06,927.8h8C53.54,848.22,79.3,712.57,90.83,666.65Z"/><polygon class="cls-2" points="698.4 36.91 0 75.27 0 1.66 698.4 1.66 698.4 36.91"/><polygon class="cls-2" points="698.4 110.11 24.21 124.33 698.4 137.15 698.4 110.11"/><polygon class="cls-2" points="0 96.78 0 105.06 698.4 80.98 698.4 50.63 0 96.78"/></g></svg>