<?xml version="1.0" encoding="utf-8"?>
<!-- Generator: Adobe Illustrator 22.1.0, SVG Export Plug-In . SVG Version: 6.00 Build 0)  -->
<svg version="1.1" id="clowds" xmlns="http://www.w3.org/2000/svg" xmlns:xlink="http://www.w3.org/1999/xlink" x="0px" y="0px"
	 viewBox="0 0 698.4 928.8" style="enable-background:new 0 0 698.4 928.8;" xml:space="preserve">
<g>
	<path style="fill:#92CDD0;" d="M475.9,220.5c-0.9,0-1.8,0.1-2.6,0.4c-2.2-3.8-6.4-6.4-11.2-6.4c-0.2,0-0.5,0-0.7,0
		c-3.6-6.6-10.5-11-18.5-11c-7.7,0-14.4,4.1-18.1,10.3c-0.2,0-0.4,0-0.6,0c-4.9,0-9.2,2.4-11.8,6c-0.7-0.2-1.4-0.3-2.2-0.3
		c-4.9,0-8.9,4-8.9,8.9c0,4.9,4,8.9,8.9,8.9c0.7,0,1.4-0.1,2-0.2c2.7,3.8,7.1,6.2,12,6.2c2.4,0,4.6-0.6,6.6-1.6
		c3.4,2.4,7.6,3.8,12.1,3.8c5.7,0,10.9-2.3,14.7-6c1.4,0.5,2.9,0.8,4.5,0.8c3.5,0,6.7-1.4,9.1-3.7c1.4,0.9,3,1.4,4.7,1.4
		c4.8,0,8.8-3.9,8.8-8.7C484.7,224.4,480.8,220.5,475.9,220.5z"/>
	<path style="fill:#FFFFFF;" d="M163.9,173c-2.1,0-4,0.3-5.9,0.9c-5.1-8.7-14.5-14.5-25.3-14.5c-0.5,0-1,0.1-1.6,0.1
		c-8-14.8-23.8-24.9-41.8-24.9c-17.4,0-32.7,9.4-40.9,23.4c-0.4,0-0.9,0-1.3,0c-18.4,0-33.3,14.9-33.3,33.3
		c0,18.4,14.9,33.3,33.3,33.3c5.4,0,10.4-1.3,14.9-3.5c7.7,5.4,17.1,8.6,27.3,8.6c12.9,0,24.7-5.2,33.2-13.6
		c3.2,1.2,6.6,1.9,10.2,1.9c8,0,15.2-3.2,20.5-8.4c3.1,2,6.7,3.1,10.6,3.1c10.9,0,19.8-8.9,19.8-19.8S174.8,173,163.9,173z"/>
	<path style="fill:#FFFFFF;" d="M662.5,212.5c-1.4,0-2.8,0.2-4,0.6c-3.5-5.9-9.8-9.9-17.2-9.9c-0.4,0-0.7,0-1.1,0.1
		c-5.5-10.1-16.2-17-28.5-17c-11.9,0-22.2,6.4-27.9,15.9c-0.3,0-0.6,0-0.9,0c-7.5,0-14.1,3.6-18.2,9.2c-1.1-0.3-2.2-0.4-3.4-0.4
		c-7.5,0-13.6,6.1-13.6,13.6s6.1,13.6,13.6,13.6c1.1,0,2.1-0.1,3.1-0.4c4.1,5.8,10.9,9.6,18.5,9.6c3.6,0,7.1-0.9,10.1-2.4
		c5.3,3.7,11.7,5.9,18.6,5.9c8.8,0,16.8-3.5,22.6-9.2c2.2,0.8,4.5,1.3,6.9,1.3c5.4,0,10.4-2.2,14-5.7c2.1,1.3,4.6,2.1,7.2,2.1
		c7.4,0,13.5-6,13.5-13.5C675.9,218.6,669.9,212.5,662.5,212.5z"/>
	<path style="fill:#FFFFFF;" d="M473.5,274.2c-0.7,0-1.4,0.1-2,0.2c-1.9-7.9-9-13.7-17.4-13.7c-6.4,0-12.1,3.4-15.3,8.5
		c-1.2-0.4-2.4-0.6-3.7-0.6c-6.9,0-12.6,5.6-12.6,12.6c0,6.9,5.6,12.6,12.6,12.6c2.5,0,4.8-0.7,6.7-2c3.2,3,7.5,4.9,12.3,4.9
		c5,0,9.5-2,12.8-5.3c1.8,1.6,4.1,2.6,6.7,2.6c5.5,0,9.9-4.4,9.9-9.9C483.4,278.6,479,274.2,473.5,274.2z"/>
	<path style="fill:#FFFFFF;" d="M301.9,233.5c-0.6,0-1.2,0.1-1.7,0.2c-1.6-6.6-7.6-11.6-14.8-11.6c-5.5,0-10.2,2.9-12.9,7.2
		c-1-0.3-2.1-0.5-3.2-0.5c-5.9,0-10.6,4.8-10.6,10.6c0,5.9,4.8,10.6,10.6,10.6c2.1,0,4-0.6,5.7-1.7c2.7,2.5,6.4,4.1,10.4,4.1
		c4.2,0,8.1-1.7,10.8-4.5c1.5,1.4,3.5,2.2,5.7,2.2c4.6,0,8.4-3.7,8.4-8.4C310.3,237.3,306.5,233.5,301.9,233.5z"/>
	<path style="fill:#92CDD0;" d="M118.2,256.9c-1.3,0-2.6,0.2-3.8,0.6c-3.3-5.6-9.4-9.4-16.4-9.4c-0.3,0-0.7,0-1,0.1
		c-5.2-9.6-15.4-16.2-27.2-16.2c-11.3,0-21.2,6.1-26.6,15.2c-0.3,0-0.6,0-0.8,0c-11.9,0-21.6,9.7-21.6,21.6
		c0,11.9,9.7,21.6,21.6,21.6c3.5,0,6.8-0.8,9.7-2.3c5,3.5,11.1,5.6,17.7,5.6c8.4,0,16-3.4,21.6-8.8c2.1,0.8,4.3,1.2,6.6,1.2
		c5.2,0,9.9-2.1,13.3-5.5c2,1.3,4.4,2,6.9,2c7.1,0,12.9-5.8,12.9-12.9C131.1,262.6,125.3,256.9,118.2,256.9z"/>
	<path style="fill:#92CDD0;" d="M406.2,356.7c-0.4,0-0.9,0.1-1.2,0.2c-1.1-1.8-3-3.1-5.3-3.1c-0.1,0-0.2,0-0.3,0
		c-1.7-3.1-5-5.2-8.8-5.2c-3.7,0-6.9,2-8.6,4.9c-0.1,0-0.2,0-0.3,0c-2.3,0-4.4,1.1-5.6,2.9c-0.3-0.1-0.7-0.1-1-0.1
		c-2.3,0-4.2,1.9-4.2,4.2s1.9,4.2,4.2,4.2c0.3,0,0.6,0,0.9-0.1c1.3,1.8,3.4,3,5.7,3c1.1,0,2.2-0.3,3.1-0.7c1.6,1.1,3.6,1.8,5.7,1.8
		c2.7,0,5.2-1.1,7-2.9c0.7,0.2,1.4,0.4,2.1,0.4c1.7,0,3.2-0.7,4.3-1.8c0.6,0.4,1.4,0.7,2.2,0.7c2.3,0,4.2-1.9,4.2-4.2
		S408.5,356.7,406.2,356.7z"/>
	<path style="fill:#92CDD0;" d="M675.4,285.9c-0.4,0-0.8,0-1.1,0.1c-1.1-4.3-4.9-7.5-9.6-7.5c-3.5,0-6.6,1.9-8.4,4.7
		c-0.6-0.2-1.3-0.3-2.1-0.3c-3.8,0-6.9,3.1-6.9,6.9c0,3.8,3.1,6.9,6.9,6.9c1.4,0,2.6-0.4,3.7-1.1c1.8,1.7,4.1,2.7,6.7,2.7
		c2.7,0,5.2-1.1,7-2.9c1,0.9,2.3,1.4,3.7,1.4c3,0,5.4-2.4,5.4-5.4S678.4,285.9,675.4,285.9z"/>
	<path style="fill:#FFFFFF;" d="M589.9,33.8c-1.4,0-2.8,0.2-4,0.6c-3.5-5.9-9.8-9.9-17.2-9.9c-0.4,0-0.7,0-1.1,0.1
		c-5.5-10.1-16.2-17-28.5-17c-11.9,0-22.2,6.4-27.9,15.9c-0.3,0-0.6,0-0.9,0c-7.5,0-14.1,3.6-18.2,9.2c-1.1-0.3-2.2-0.4-3.4-0.4
		c-7.5,0-13.6,6.1-13.6,13.6s6.1,13.6,13.6,13.6c1.1,0,2.1-0.1,3.1-0.4c4.1,5.8,10.9,9.6,18.5,9.6c3.6,0,7.1-0.9,10.1-2.4
		c5.3,3.7,11.7,5.9,18.6,5.9c8.8,0,16.8-3.5,22.6-9.2c2.2,0.8,4.5,1.3,6.9,1.3c5.4,0,10.4-2.2,14-5.7c2.1,1.3,4.6,2.1,7.2,2.1
		c7.4,0,13.5-6,13.5-13.5S597.3,33.8,589.9,33.8z"/>
	<path style="fill:#FFFFFF;" d="M526.3,160c-0.6,0-1.2,0.1-1.7,0.2c-1.6-6.6-7.6-11.6-14.8-11.6c-5.5,0-10.2,2.9-12.9,7.2
		c-1-0.3-2.1-0.5-3.2-0.5c-5.9,0-10.6,4.8-10.6,10.6c0,5.9,4.8,10.6,10.6,10.6c2.1,0,4-0.6,5.7-1.7c2.7,2.5,6.4,4.1,10.4,4.1
		c4.2,0,8.1-1.7,10.8-4.5c1.5,1.4,3.5,2.2,5.7,2.2c4.6,0,8.4-3.7,8.4-8.4C534.7,163.8,531,160,526.3,160z"/>
	<path style="fill:#FFFFFF;" d="M371,117.8c-0.6,0-1.2,0.1-1.7,0.2c-1.6-6.6-7.6-11.6-14.8-11.6c-5.5,0-10.2,2.9-12.9,7.2
		c-1-0.3-2.1-0.5-3.2-0.5c-5.9,0-10.6,4.8-10.6,10.6c0,5.9,4.8,10.6,10.6,10.6c2.1,0,4-0.6,5.7-1.7c2.7,2.5,6.4,4.1,10.4,4.1
		c4.2,0,8.1-1.7,10.8-4.5c1.5,1.4,3.5,2.2,5.7,2.2c4.6,0,8.4-3.7,8.4-8.4C379.4,121.5,375.6,117.8,371,117.8z"/>
	<path style="fill:#92CDD0;" d="M245,74.1c-1.3,0-2.6,0.2-3.8,0.6c-3.3-5.6-9.4-9.4-16.4-9.4c-0.3,0-0.7,0-1,0.1
		c-5.2-9.6-15.4-16.2-27.2-16.2c-11.3,0-21.2,6.1-26.6,15.2c-0.3,0-0.6,0-0.8,0c-11.9,0-21.6,9.7-21.6,21.6
		c0,11.9,9.7,21.6,21.6,21.6c3.5,0,6.8-0.8,9.7-2.3c5,3.5,11.1,5.6,17.7,5.6c8.4,0,16-3.4,21.6-8.8c2.1,0.8,4.3,1.2,6.6,1.2
		c5.2,0,9.9-2.1,13.3-5.5c2,1.3,4.4,2,6.9,2c7.1,0,12.9-5.8,12.9-12.9C257.9,79.9,252.1,74.1,245,74.1z"/>
	<path style="fill:#92CDD0;" d="M265.4,180.2c-0.4,0-0.9,0.1-1.2,0.2c-1.1-1.8-3-3.1-5.3-3.1c-0.1,0-0.2,0-0.3,0
		c-1.7-3.1-5-5.2-8.8-5.2c-3.7,0-6.9,2-8.6,4.9c-0.1,0-0.2,0-0.3,0c-2.3,0-4.4,1.1-5.6,2.9c-0.3-0.1-0.7-0.1-1-0.1
		c-2.3,0-4.2,1.9-4.2,4.2s1.9,4.2,4.2,4.2c0.3,0,0.6,0,0.9-0.1c1.3,1.8,3.4,3,5.7,3c1.1,0,2.2-0.3,3.1-0.7c1.6,1.1,3.6,1.8,5.7,1.8
		c2.7,0,5.2-1.1,7-2.9c0.7,0.2,1.4,0.4,2.1,0.4c1.7,0,3.2-0.7,4.3-1.8c0.6,0.4,1.4,0.7,2.2,0.7c2.3,0,4.2-1.9,4.2-4.2
		S267.7,180.2,265.4,180.2z"/>
	<path style="fill:#92CDD0;" d="M648.8,108.4c-0.4,0-0.8,0-1.1,0.1c-1.1-4.3-4.9-7.5-9.6-7.5c-3.5,0-6.6,1.9-8.4,4.7
		c-0.6-0.2-1.3-0.3-2.1-0.3c-3.8,0-6.9,3.1-6.9,6.9c0,3.8,3.1,6.9,6.9,6.9c1.4,0,2.6-0.4,3.7-1.1c1.8,1.7,4.1,2.7,6.7,2.7
		c2.7,0,5.2-1.1,7-2.9c1,0.9,2.3,1.4,3.7,1.4c3,0,5.4-2.4,5.4-5.4S651.8,108.4,648.8,108.4z"/>
</g>
</svg>
