<?xml version="1.0" encoding="utf-8"?>
<!-- Generator: Adobe Illustrator 22.1.0, SVG Export Plug-In . SVG Version: 6.00 Build 0)  -->
<svg version="1.1" xmlns="http://www.w3.org/2000/svg" xmlns:xlink="http://www.w3.org/1999/xlink" x="0px" y="0px"
	 viewBox="0 0 698.4 928.8" style="enable-background:new 0 0 698.4 928.8;" xml:space="preserve">
<g id="BACKGROUND">
	<rect style="fill:#B4E1E5;" width="698.4" height="928.8"/>
</g>
<g id="OBJECTS">
	<g>
		<rect y="98.1" style="fill:#B4E1E5;" width="698.4" height="698.4"/>
		<g>
			<polygon style="fill:#C4E6E9;" points="698.4,173.4 0,211.8 0,138.1 698.4,138.1 			"/>
			<g>
				<polygon style="fill:#C4E6E9;" points="698.4,246.6 24.2,260.8 698.4,273.6 				"/>
				<polygon style="fill:#C4E6E9;" points="0,233.3 0,241.5 698.4,217.5 698.4,187.1 				"/>
			</g>
		</g>
		<g>
			
				<ellipse transform="matrix(0.1568 -0.9876 0.9876 0.1568 -100.9906 682.5164)" style="fill:#FFDF78;" cx="349.2" cy="400.4" rx="76.7" ry="76.7"/>
			<circle style="fill:#FFF18C;" cx="349.2" cy="400.4" r="54.4"/>
		</g>
		<g>
			<path style="fill:#92CDD0;" d="M368.1,542.6c-4.7,0-9.2,1.2-13,3.4c-8.5-16.3-24.8-27.8-44-29.6c0.7-3.6,1.1-7.3,1.1-11.1
				c0-30.5-24.8-55.3-55.3-55.3c-11.2,0-21.6,3.3-30.4,9.1c-1.9-17.4-16.6-30.9-34.5-30.9c-4.3,0-8.5,0.8-12.3,2.3
				c-3.3-24.6-24.3-43.6-49.8-43.6c-19.2,0-35.9,10.8-44.3,26.6c-4.5-3-9.8-4.8-15.6-4.8c-6.9,0-13.3,2.6-18.2,6.8
				c-7.8-12.3-21.5-20.4-37.1-20.4c-5.1,0-10.1,0.9-14.7,2.5v336h394.9v-164C394.9,554.6,382.9,542.6,368.1,542.6z"/>
			<path style="fill:#92CDD0;" d="M650.6,472.6c-6.3-5.4-14.4-8.6-23.3-8.6c-16.5,0-30.4,11.2-34.6,26.4c-6.2-1.7-12.6-2.6-19.3-2.6
				c-31.6,0-58.5,19.9-68.9,47.8c-6.2-4.5-13.8-7.2-22-7.2c-20.6,0-37.4,16.7-37.4,37.4v167.7h253.3V438.7
				C677.9,442.5,660.6,455.1,650.6,472.6z"/>
		</g>
		<path style="fill:#7FC8CB;" d="M698.4,504.6c-3.1,0.3-5.8,0.6-7.9,0.9c-12.1,1.5-26.1,4.5-41.9,7.4c-15.8,3-38.2-17.6-68-11.7
			c-29.8,5.9-16.8,44-65.2,52.9c-48.4,8.9-92.2,4.5-122,5.2c-29.8,0.7-38.5-19.1-54.4-24.3c-15.8-5.2-23.9,5.1-39.7,1.4
			c-15.8-3.7-7.3-13.8-20.4-13.8c-13,0-10.4-5.8-29-5.1c-18.6,0.7-18.6-3.7-36.3-5.9c-17.7-2.2-15.8,5.9-30.7,8.9
			c-14.9,3-16.8,1.5-32.6-1.5c-15.8-3-14.9-5.9-33.5-14.8c-18.6-8.9-23.3-0.7-56.8,2.2c-32.3,2.9-31.8-1.9-60.1-5.5v158h698.4V504.6
			z"/>
		<path style="fill:#629B42;" d="M698.4,546.3c-2.8,0-5.6,0-8.3,0c-263.8,0-505,47.1-690.1,95v92.2h698.4V546.3z"/>
		<path style="fill:#70AC43;" d="M698.4,642.6c-168.6-34.1-371.9-69.2-590.8-69.2c-36.3,0-72.2,0.5-107.6,1.6v221.6h698.4V642.6z"/>
		<path style="fill:#F7E072;" d="M287.7,674.3l-4.2-46.6c0,0-32.9-30.3-88.7-52.5c-3.9-0.2-7.9-0.3-11.8-0.5
			C198.4,583,257.2,617.1,287.7,674.3z"/>
		<path style="fill:#EED463;" d="M190.4,575c8.5,3.7,25.8,11.8,42.4,22.9c19.5,13.1,42.6,32.6,51.7,40.4l-1-10.6
			c0,0-32.9-30.3-88.7-52.5C193.3,575.1,191.9,575.1,190.4,575z"/>
		<g>
			<path style="fill:#8FC857;" d="M698.4,610.5c-46.6-3.7-94.1-5.6-142.4-5.6c-204,0-394.5,33.9-556,92.5v231.4h698.4V610.5z"/>
			<path style="fill:#7BC043;" d="M168.1,647.9c91.9-11.4,204.6-21.6,263.5-12.3c109.9,17.3-23.3,33-15.8,72.4
				c7.4,39.3,126.3-10.1,175.1,37.8c53.5,52.6-43.1,118.2,47.9,157.4l59.7,25.7V610.5c-46.6-3.7-94.1-5.6-142.4-5.6
				C419,604.9,288.2,620.2,168.1,647.9z"/>
		</g>
		<g>
			<g>
				<rect x="556.7" y="583.9" style="fill:#58595B;" width="3.6" height="35.9"/>
				<rect x="457.4" y="583.9" style="fill:#58595B;" width="3.6" height="35.9"/>
			</g>
			<g>
				<g>
					<polygon style="fill:#58595B;" points="453.3,623.6 453.3,647.9 454.6,649.1 455.8,647.9 455.8,623.6 					"/>
					<rect x="452.1" y="624.8" style="fill:#6D6E70;" width="2.5" height="24.3"/>
				</g>
				<g>
					<polygon style="fill:#58595B;" points="564.4,623.6 564.4,647.9 563.1,649.1 561.9,647.9 561.9,623.6 					"/>
					
						<rect x="563.1" y="624.8" transform="matrix(-1 -1.224647e-16 1.224647e-16 -1 1128.7078 1273.9166)" style="fill:#6D6E70;" width="2.5" height="24.3"/>
				</g>
			</g>
			<g>
				<g>
					<polygon style="fill:#58595B;" points="458.5,621.7 458.5,642.4 459.6,643.4 460.7,642.4 460.7,621.7 					"/>
					<rect x="457.5" y="622.8" style="fill:#6D6E70;" width="2.2" height="20.7"/>
				</g>
				<g>
					<polygon style="fill:#58595B;" points="559.2,621.7 559.2,642.4 558,643.4 557,642.4 557,621.7 					"/>
					
						<rect x="558" y="622.8" transform="matrix(-1 -1.224647e-16 1.224647e-16 -1 1118.2609 1266.1791)" style="fill:#6D6E70;" width="2.2" height="20.7"/>
				</g>
			</g>
			<g>
				<rect x="451.7" y="620.1" style="fill:#D8884A;" width="114.2" height="1.8"/>
				<g>
					<g>
						<path style="fill:#D8884A;" d="M454.9,593.4h107.9c0.9,0,1.7,0.7,1.7,1.7v4.5c0,0.9-0.7,1.7-1.7,1.7H454.9
							c-0.9,0-1.7-0.7-1.7-1.7v-4.5C453.2,594.1,454,593.4,454.9,593.4z"/>
						<g>
							<g>
								<circle style="fill:#58595B;" cx="558.5" cy="597.3" r="1.1"/>
								<circle style="fill:#6D6E70;" cx="558.5" cy="597.3" r="0.9"/>
							</g>
							<g>
								<circle style="fill:#58595B;" cx="459.2" cy="597.3" r="1.1"/>
								<circle style="fill:#6D6E70;" cx="459.2" cy="597.3" r="0.9"/>
							</g>
						</g>
						<g>
							<path style="fill:#E8955D;" d="M506.4,593.4h-45c5.5,2.3,11.2,4.2,22.5,3.7C492.4,596.7,499.8,595.1,506.4,593.4z"/>
							<path style="fill:#E8955D;" d="M529,595.8c-10.5,0.1-15.9,3.3-22.8,5.4h48.9C546.9,599.1,539.7,595.7,529,595.8z"/>
						</g>
					</g>
					<g>
						<path style="fill:#D8884A;" d="M562.8,589.1H454.9c-0.9,0-1.7-0.7-1.7-1.7v-4.5c0-0.9,0.7-1.7,1.7-1.7h107.9
							c0.9,0,1.7,0.7,1.7,1.7v4.5C564.4,588.3,563.7,589.1,562.8,589.1z"/>
						<g>
							<g>
								<circle style="fill:#58595B;" cx="459.2" cy="585.1" r="1.1"/>
								<circle style="fill:#6D6E70;" cx="459.2" cy="585.1" r="0.9"/>
							</g>
							<g>
								<circle style="fill:#58595B;" cx="558.5" cy="585.1" r="1.1"/>
								<circle style="fill:#6D6E70;" cx="558.5" cy="585.1" r="0.9"/>
							</g>
						</g>
						<g>
							<path style="fill:#E8955D;" d="M511.3,589.1h45c-5.5-2.3-11.2-4.2-22.5-3.7C525.2,585.8,517.9,587.3,511.3,589.1z"/>
							<path style="fill:#E8955D;" d="M488.7,586.7c10.5-0.1,15.9-3.3,22.8-5.4h-48.9C470.7,583.3,477.9,586.8,488.7,586.7z"/>
						</g>
					</g>
					<g>
						<path style="fill:#D8884A;" d="M562.8,613.4H454.9c-0.9,0-1.7-0.7-1.7-1.7v-4.5c0-0.9,0.7-1.7,1.7-1.7h107.9
							c0.9,0,1.7,0.7,1.7,1.7v4.5C564.4,612.7,563.7,613.4,562.8,613.4z"/>
						<g>
							<g>
								<circle style="fill:#58595B;" cx="459.2" cy="609.5" r="1.1"/>
								<circle style="fill:#6D6E70;" cx="459.2" cy="609.5" r="0.9"/>
							</g>
							<g>
								<circle style="fill:#58595B;" cx="558.5" cy="609.5" r="1.1"/>
								<circle style="fill:#6D6E70;" cx="558.5" cy="609.5" r="0.9"/>
							</g>
						</g>
						<g>
							<path style="fill:#E8955D;" d="M511.3,613.4h45c-5.5-2.3-11.2-4.2-22.5-3.7C525.2,610.1,517.9,611.7,511.3,613.4z"/>
							<path style="fill:#E8955D;" d="M488.7,611c10.5-0.1,15.9-3.3,22.8-5.4h-48.9C470.7,607.7,477.9,611.1,488.7,611z"/>
						</g>
					</g>
				</g>
				<g>
					<rect x="449" y="623.3" style="fill:#D8884A;" width="120.5" height="3"/>
					<polygon style="fill:#E8955D;" points="450.9,621.1 449,623.3 569.5,623.3 567.6,621.1 					"/>
				</g>
				<polygon style="fill:#E8955D;" points="565.9,620.1 564.4,618.3 453.2,618.3 451.7,620.1 				"/>
				<g>
					<g>
						<path style="fill:#58595B;" d="M456.6,619.2c0,0.2-0.3,0.3-0.8,0.3c-0.4,0-0.8-0.1-0.8-0.3s0.3-0.3,0.8-0.3
							C456.2,618.9,456.6,619.1,456.6,619.2z"/>
						<ellipse style="fill:#6D6E70;" cx="455.8" cy="619.2" rx="0.6" ry="0.3"/>
					</g>
					<g>
						<path style="fill:#58595B;" d="M562.1,619.2c0,0.2-0.3,0.3-0.8,0.3c-0.4,0-0.8-0.1-0.8-0.3s0.3-0.3,0.8-0.3
							C561.7,618.9,562.1,619.1,562.1,619.2z"/>
						<path style="fill:#6D6E70;" d="M561.9,619.2c0,0.1-0.3,0.3-0.6,0.3c-0.4,0-0.6-0.1-0.6-0.3c0-0.1,0.3-0.3,0.6-0.3
							C561.7,619,561.9,619.1,561.9,619.2z"/>
					</g>
				</g>
				<g>
					<g>
						<path style="fill:#58595B;" d="M454.3,622.1c0,0.2-0.4,0.3-0.8,0.3c-0.4,0-0.8-0.2-0.8-0.3c0-0.2,0.4-0.3,0.8-0.3
							C453.9,621.8,454.3,621.9,454.3,622.1z"/>
						<path style="fill:#6D6E70;" d="M454.1,622.1c0,0.2-0.3,0.3-0.7,0.3c-0.4,0-0.7-0.1-0.7-0.3c0-0.2,0.3-0.3,0.7-0.3
							C453.8,621.9,454.1,622,454.1,622.1z"/>
					</g>
					<g>
						<path style="fill:#58595B;" d="M565,622.1c0,0.2-0.4,0.3-0.8,0.3c-0.4,0-0.8-0.2-0.8-0.3c0-0.2,0.4-0.3,0.8-0.3
							C564.7,621.8,565,621.9,565,622.1z"/>
						<path style="fill:#6D6E70;" d="M564.9,622.1c0,0.2-0.3,0.3-0.7,0.3c-0.4,0-0.7-0.1-0.7-0.3c0-0.2,0.3-0.3,0.7-0.3
							C564.6,621.9,564.9,622,564.9,622.1z"/>
					</g>
				</g>
			</g>
		</g>
		<path style="fill:#F7E072;" d="M181.5,644.3c-33.1,7.4-65.4,15.7-96.8,24.9C61.8,739.5,48,870.1,47.1,928.8h311.3
			c-15-8.6-30.4-17.8-46-27.8C180,816.5,176.8,689.7,181.5,644.3z"/>
		<path style="fill:#6CA743;" d="M0,575v84.5c11.9-16.9,39.1-34.7,75.1-28.4c30,5.2,57.2-8.6,63.2-24.4c6.1-15.8,39.6-9.3,39.6-22.7
			c0-5.8-7.4-9.7-7.4-9.7c-20.8-0.6-41.8-1-62.9-1C71.3,573.4,35.4,573.9,0,575z"/>
		<g>
			<g>
				<path style="fill:#629B42;" d="M136.7,563.5c-2.1-9.7-10.7-17-21-17c-7.2,0-13.6,3.6-17.5,9c-7.1,1.2-12.5,7.4-12.5,14.9
					c0,8.4,6.8,15.2,15.2,15.2c0.8,0,1.5-0.1,2.3-0.2c3.5,2.6,7.9,4.1,12.6,4.1c3.9,0,7.6-1.1,10.8-2.9c1.7,0.9,3.6,1.4,5.7,1.4
					c7,0,12.6-5.7,12.6-12.6C144.8,569.9,141.5,565.3,136.7,563.5z"/>
				<path style="fill:#73AA4F;" d="M101.2,555.3c4.3-6.6,11.6-8.6,11.6-8.6c-6,0.8-11.2,4.1-14.6,8.8c-6.5,1.1-11.6,6.4-12.4,13
					c3.1-6.3,9.6-10.6,17-10.6c3.3,0,6.5,0.9,9.2,2.4C109.4,557.3,105.5,555.4,101.2,555.3z"/>
				<path style="fill:#5A8E3F;" d="M136.7,563.5c-1.9-9.1-9.6-16.1-19.1-16.9c15,4.3,16.7,18.5,16.7,18.5c4.3,1.6,7.3,5.4,6.8,9.9
					c-0.7,6.6-6,9.7-10.1,9.5c-1.8-0.1-3.6-0.4-5.1-1.2c-2.9,1.7-7.9,2.8-11.4,2.8c-4.2,0-8-1.2-11.2-3.5c0,0-0.3,0-0.7,0.1
					c-0.4,0-0.9,0.1-1.4,0.1c-0.2,0-0.5,0-0.7,0c-4-0.1-11.4-1.6-14.7-10.5c0.9,7.5,7.3,13.4,15,13.4c0.8,0,1.5-0.1,2.3-0.2
					c3.5,2.6,7.9,4.1,12.6,4.1c3.9,0,7.6-1.1,10.8-2.9c1.7,0.9,3.6,1.4,5.7,1.4c7,0,12.6-5.7,12.6-12.6
					C144.8,569.9,141.5,565.3,136.7,563.5z"/>
			</g>
			<g>
				<path style="fill:#75625E;" d="M114.7,567c-0.4-0.3-1.6-0.3-1.6-0.3c0.2,1.5,0.3,5.2,0.3,7.3c0.1,2.1,0.3,4.9-0.2,6.1
					c-0.6,1.4-1.7-0.5-2.1-1.3c-0.5-1.1-2.8-5.8-2.8-5.8l-1,0.7c0,0,2.7,5.3,3.2,6.5c0.5,1.2,0.6,1,1.2,2.5c0.6,1.5,1.1,5,1.4,7
					c0.3,2-0.1,4-0.1,4l-1.2-0.9l0,2l0.3,0.5c0.5,0.8,0.8,1.6,0.8,2.5c0,1.1,0.1,2.5,0,3.2c-0.1,1.3,0,6.1,0,6.1h3.4
					c0,0,0.3-14.3,0.3-17s3.7-10.4,3.7-10.4L119,579c0,0-1.8,5.7-2.6,6.1c-0.8,0.4-1.1-6.2-1.1-8.4C115.2,574.6,114.7,567,114.7,567
					z"/>
				<g>
					<path style="fill:#5F4C46;" d="M116.4,585.1c-0.8,0.4-1.1-6.2-1.1-8.4s-0.5-9.7-0.5-9.7c-0.1-0.1-0.4-0.2-0.6-0.2
						c0.2,0.9,0.2,2.2,0.1,2.8c-0.1,0.8,0.3,3.7,0.3,5.2c0,1.5,0,6,0.3,7.4c0.3,1.3,0.4,2.4,0.8,3
						C115.8,585.8,116.4,585.1,116.4,585.1z"/>
					<path style="fill:#5F4C46;" d="M113.3,580.1c-0.6,1.4-1.7-0.5-2.1-1.3c-0.5-1.1-2.8-5.8-2.8-5.8l-0.4,0.3c0.5,1,1.8,4,2.1,4.8
						c0.4,0.9,1.4,2.8,2,3.1c0.6,0.3,1.3-0.3,1.4-0.8c0.1-0.4,0.1-1.4,0-2.2C113.6,578.9,113.5,579.6,113.3,580.1z"/>
					<path style="fill:#5F4C46;" d="M119.8,579.3c-0.2,0.6-0.7,1.7-1.2,2.9c-0.6,1.5-1.9,3.4-2.2,4.7c-0.4,1.3-0.8,3.7-0.9,9.9
						c-0.1,4,0.2,7.7,0.3,10.3h0.8c0,0,0.3-14.3,0.3-17c0-2.8,3.7-10.4,3.7-10.4L119.8,579.3z"/>
					<path style="fill:#5F4C46;" d="M112,593.2c0.4,0.5,1.2,1.3,1.2,0.5l-1.2-0.9L112,593.2z"/>
				</g>
			</g>
		</g>
		<g>
			<g>
				<g>
					<g>
						<path style="fill:#82AE4A;" d="M83.3,505.3c-9.2,0-16.7-6.9-17.8-15.8c-3.5-1-7.2-1.6-11.1-1.6c-22.2,0-40.1,18-40.1,40.1
							c0,22.2,18,40.1,40.1,40.1s40.1-18,40.1-40.1c0-8.6-2.7-16.6-7.4-23.2C85.9,505.2,84.6,505.3,83.3,505.3z"/>
						<path style="fill:#9BC05A;" d="M60.2,488.4c-1.9-0.3-3.8-0.4-5.8-0.4c-22.2,0-40.1,18-40.1,40.1c0,1.4,0.1,2.8,0.2,4.2
							C19.1,499.9,41.8,491.6,60.2,488.4z"/>
					</g>
					<path style="fill:#789F3F;" d="M83.3,505.3c-0.6,0-1.3,0-1.9-0.1c2.7,5.4,4.2,11.4,4.2,17.9c0,22.2-18,40.1-40.1,40.1
						c-5.3,0-10.4-1-15.1-2.9c6.7,5,15,7.9,24,7.9c22.2,0,40.1-18,40.1-40.1c0-8.6-2.7-16.6-7.4-23.2
						C85.9,505.2,84.6,505.3,83.3,505.3z"/>
				</g>
				<g>
					<path style="fill:#75625E;" d="M52.1,526.9c0,0,0.9,29.9,2.9,30.5c2,0.6,8.2-14.2,8.2-14.2l1.6,2.8c0,0-7.5,15.1-8.6,21.9
						c-1.2,6.9,0,35.4,0,35.4h-6.7c0,0,1.9-29.8,1.6-37.9c-0.3-8-2.5-19.2-2.3-24.1c0.1-5-0.4-12.1-0.4-12.1L52.1,526.9z"/>
					<g>
						<path style="fill:#5F4C46;" d="M64.8,546l-0.5-0.9c-0.4,0.7-0.9,1.5-1.3,2.3c-0.9,1.8-4.1,8.7-5.8,12.5
							c-1.7,3.7-3.3,7.1-3.1,13.8c0.1,5.6-0.1,23.6-0.1,29.7h2.2c0,0-1.2-28.5,0-35.4C57.3,561.1,64.8,546,64.8,546z"/>
						<path style="fill:#5F4C46;" d="M54.7,558.2c0.4-0.3,0.7-0.6,1-1c-0.2,0.2-0.5,0.3-0.7,0.2c-2-0.6-2.9-30.5-2.9-30.5l-2,1.2
							C50.4,535.3,51.6,560.7,54.7,558.2z"/>
					</g>
				</g>
			</g>
			<path style="fill:#789F3F;" d="M60.5,496.5c0,1-0.8,1.8-1.8,1.8s-1.8-0.8-1.8-1.8c0-1,0.8-1.8,1.8-1.8S60.5,495.5,60.5,496.5z"/>
			<circle style="fill:#789F3F;" cx="69.7" cy="506.8" r="3.6"/>
			<path style="fill:#789F3F;" d="M46.5,507.2c0,3-2.5,5.5-5.5,5.5c-3,0-5.5-2.5-5.5-5.5c0-3,2.5-5.5,5.5-5.5
				C44.1,501.7,46.5,504.1,46.5,507.2z"/>
		</g>
		<path style="fill:#5A8E3F;" d="M416.5,562.3c16.2,6.2,21.8,19.2,66.8,16.1c60.8-4.2,71.2-23.7,97.8-6.3
			c26.5,17.5,34.9,21.7,77.5,16.8c14.2-1.6,27.9-1.4,39.8-0.4v-42.2c-2.8,0-5.6,0-8.3,0C595.5,546.3,503.8,552.3,416.5,562.3z"/>
		<g>
			<g>
				<path style="fill:#90BD5C;" d="M658.7,474.1c-7.4-35.1-38.6-61.5-75.9-61.5c-26.1,0-49.1,12.8-63.2,32.5
					c-25.7,4.5-45.3,26.9-45.3,53.9c0,30.3,24.5,54.8,54.8,54.8c2.8,0,5.6-0.3,8.3-0.7c12.8,9.2,28.5,14.7,45.4,14.7
					c14.2,0,27.5-3.8,39-10.5c6.2,3.1,13.1,4.9,20.5,4.9c25.2,0,45.6-20.4,45.6-45.6C687.9,497.2,675.8,480.7,658.7,474.1z"/>
				<path style="fill:#A4CD6E;" d="M530.3,444.3c15.6-23.8,41.9-31,41.9-31c-21.7,2.9-40.5,14.8-52.7,31.8
					c-23.5,4.1-41.8,23.1-44.9,46.8c11.2-22.6,34.6-38.2,61.6-38.2c12,0,23.3,3.1,33.2,8.5C559.8,451.6,545.9,444.7,530.3,444.3z"/>
				<path style="fill:#82AE4A;" d="M658.7,474.1c-7-32.9-34.8-58.1-69-61.2c54.3,15.5,60.2,66.8,60.2,66.8
					c15.4,6,26.5,19.6,24.7,35.6c-2.7,23.8-21.8,35.1-36.6,34.4c-6.7-0.3-12.9-1.6-18.5-4.4c-10.3,6-28.5,10.2-41.3,10.2
					c-15.3,0-28.9-4.3-40.4-12.6c0,0-0.9,0.2-2.5,0.3c-1.6,0.2-3.3,0.3-4.9,0.3c-0.9,0-1.8,0-2.7-0.1c-14.6-0.4-41.1-5.8-53-38
					c3.1,27.3,26.3,48.4,54.4,48.4c2.8,0,5.6-0.3,8.3-0.7c12.8,9.2,28.5,14.7,45.4,14.7c14.2,0,27.5-3.8,39-10.5
					c6.2,3.1,13.1,4.9,20.5,4.9c25.2,0,45.6-20.4,45.6-45.6C687.9,497.2,675.8,480.7,658.7,474.1z"/>
				<path style="fill:#82AE4A;" d="M591.2,425.8c-2.3,0-2.3,3.6,0,3.6C593.5,429.4,593.5,425.8,591.2,425.8z"/>
				<path style="fill:#82AE4A;" d="M615.4,440.1c-4.6,0-4.6,7.2,0,7.2C620,447.3,620,440.1,615.4,440.1z"/>
				<path style="fill:#82AE4A;" d="M634.5,472.4c-4.6,0-4.6,7.2,0,7.2C639.1,479.6,639.1,472.4,634.5,472.4z"/>
				<path style="fill:#82AE4A;" d="M655.8,509.5c-4.6,0-4.6,7.2,0,7.2C660.4,516.7,660.4,509.5,655.8,509.5z"/>
				<path style="fill:#82AE4A;" d="M506.5,514.6c-5.8,0-5.8,9,0,9C512.3,523.6,512.3,514.6,506.5,514.6z"/>
				<path style="fill:#82AE4A;" d="M605.5,499c-5.8,0-5.8,9,0,9C611.3,508,611.3,499,605.5,499z"/>
			</g>
			<g>
				<path style="fill:#75625E;" d="M579.1,486.8c-1.6-1.3-5.6-1.3-5.6-1.3c0.6,5.3,0.9,18.8,1.3,26.3c0.3,7.5,1.1,17.7-0.6,22
					c-2,5-6-1.6-7.5-4.7c-1.9-3.8-10-20.8-10-20.8l-3.8,2.5c0,0,9.7,19.1,11.6,23.5c1.9,4.4,2.2,3.8,4.4,9.1
					c2.2,5.3,4.1,18.1,5,25.3c0.9,7.2-0.2,14.4-0.2,14.4l-4.3-3.4l-0.2,7.1l1.1,1.8c1.7,2.8,2.7,5.9,2.9,9.2
					c0.1,3.8,0.3,8.9,0.1,11.6c-0.3,4.7,0,21.9,0,21.9h12.2c0,0,0.9-51.6,0.9-61.6c0-10,13.4-37.5,13.4-37.5l-5.3-2.2
					c0,0-6.6,20.6-9.4,22.2c-2.8,1.6-4.1-22.6-4.1-30.4C580.9,514,579.1,486.8,579.1,486.8z"/>
				<g>
					<path style="fill:#5F4C46;" d="M585.1,552.2c-2.8,1.6-4.1-22.6-4.1-30.4c0-7.8-1.8-35-1.8-35c-0.5-0.4-1.3-0.7-2.2-0.9
						c0.6,3.2,0.6,8,0.4,10.1c-0.2,3,0.9,13.4,0.9,18.8c0,5.4,0.1,21.8,1,26.7c0.9,4.8,1.6,8.5,2.7,10.9
						C583.2,554.7,585.1,552.2,585.1,552.2z"/>
					<path style="fill:#5F4C46;" d="M574.1,533.9c-2,5-6-1.6-7.5-4.7c-1.9-3.8-10-20.8-10-20.8l-1.6,1c1.8,3.4,6.5,14.5,7.6,17.3
						c1.3,3.3,5.2,10.1,7.3,11.1c2,1,4.8-0.9,5.2-2.7c0.3-1.3,0.4-5.1,0.1-8C575.1,529.8,574.8,532.3,574.1,533.9z"/>
					<path style="fill:#5F4C46;" d="M597.4,531.2c-0.6,2.3-2.4,6.2-4.2,10.5c-2.2,5.4-6.8,12.1-8.1,16.8c-1.3,4.7-2.9,13.5-3.4,35.7
						c-0.3,14.6,0.8,27.9,0.9,37.1h2.8c0,0,0.9-51.6,0.9-61.6s13.4-37.5,13.4-37.5L597.4,531.2z"/>
					<path style="fill:#5F4C46;" d="M569.2,581.4c1.6,1.9,4.2,4.8,4.3,1.8l-4.3-3.4L569.2,581.4z"/>
				</g>
			</g>
		</g>
		<g>
			<g>
				<rect x="86.9" y="592.6" style="fill:#58595B;" width="0.8" height="8.4"/>
				<rect x="63.7" y="592.6" style="fill:#58595B;" width="0.8" height="8.4"/>
			</g>
			<g>
				<g>
					<polygon style="fill:#58595B;" points="62.7,601.9 62.7,607.5 63.1,607.8 63.3,607.5 63.3,601.9 					"/>
					<rect x="62.5" y="602.1" style="fill:#6D6E70;" width="0.6" height="5.7"/>
				</g>
				<g>
					<polygon style="fill:#58595B;" points="88.7,601.9 88.7,607.5 88.4,607.8 88.2,607.5 88.2,601.9 					"/>
					
						<rect x="88.4" y="602.1" transform="matrix(-1 -1.224647e-16 1.224647e-16 -1 177.4732 1209.9739)" style="fill:#6D6E70;" width="0.6" height="5.7"/>
				</g>
			</g>
			<g>
				<g>
					<polygon style="fill:#58595B;" points="64,601.4 64,606.3 64.2,606.5 64.5,606.3 64.5,601.4 					"/>
					<rect x="63.7" y="601.7" style="fill:#6D6E70;" width="0.5" height="4.8"/>
				</g>
				<g>
					<polygon style="fill:#58595B;" points="87.5,601.4 87.5,606.3 87.3,606.5 87,606.3 87,601.4 					"/>
					
						<rect x="87.3" y="601.7" transform="matrix(-1 -1.224647e-16 1.224647e-16 -1 175.0284 1208.1632)" style="fill:#6D6E70;" width="0.5" height="4.8"/>
				</g>
			</g>
			<g>
				<rect x="62.4" y="601" style="fill:#D8884A;" width="26.7" height="0.4"/>
				<g>
					<g>
						<path style="fill:#D8884A;" d="M63.1,594.8h25.3c0.2,0,0.4,0.2,0.4,0.4v1.1c0,0.2-0.2,0.4-0.4,0.4H63.1
							c-0.2,0-0.4-0.2-0.4-0.4v-1.1C62.7,595,62.9,594.8,63.1,594.8z"/>
						<g>
							<g>
								<path style="fill:#58595B;" d="M87.1,595.7c0-0.1,0.1-0.2,0.2-0.2c0.1,0,0.2,0.1,0.2,0.2c0,0.1-0.1,0.2-0.2,0.2
									C87.2,596,87.1,595.8,87.1,595.7z"/>
								<path style="fill:#6D6E70;" d="M87.2,595.7c0-0.1,0.1-0.2,0.2-0.2c0.1,0,0.2,0.1,0.2,0.2c0,0.1-0.1,0.2-0.2,0.2
									C87.3,595.9,87.2,595.8,87.2,595.7z"/>
							</g>
							<g>
								<path style="fill:#58595B;" d="M63.9,595.7c0-0.1,0.1-0.2,0.2-0.2c0.1,0,0.2,0.1,0.2,0.2c0,0.1-0.1,0.2-0.2,0.2
									C64,596,63.9,595.8,63.9,595.7z"/>
								<path style="fill:#6D6E70;" d="M63.9,595.7c0-0.1,0.1-0.2,0.2-0.2c0.1,0,0.2,0.1,0.2,0.2c0,0.1-0.1,0.2-0.2,0.2
									C64,595.9,63.9,595.8,63.9,595.7z"/>
							</g>
						</g>
						<g>
							<path style="fill:#E8955D;" d="M75.2,594.8H64.6c1.3,0.5,2.6,1,5.3,0.9C71.9,595.6,73.6,595.2,75.2,594.8z"/>
							<path style="fill:#E8955D;" d="M80.5,595.4c-2.4,0-3.7,0.8-5.3,1.3h11.4C84.7,596.1,83,595.3,80.5,595.4z"/>
						</g>
					</g>
					<g>
						<path style="fill:#D8884A;" d="M88.4,593.8H63.1c-0.2,0-0.4-0.2-0.4-0.4v-1.1c0-0.2,0.2-0.4,0.4-0.4h25.3
							c0.2,0,0.4,0.2,0.4,0.4v1.1C88.8,593.6,88.6,593.8,88.4,593.8z"/>
						<g>
							<g>
								<path style="fill:#58595B;" d="M64.4,592.9c0,0.1-0.1,0.2-0.2,0.2c-0.1,0-0.2-0.1-0.2-0.2s0.1-0.2,0.2-0.2
									C64.3,592.6,64.4,592.7,64.4,592.9z"/>
								<path style="fill:#6D6E70;" d="M64.3,592.9c0,0.1-0.1,0.2-0.2,0.2c-0.1,0-0.2-0.1-0.2-0.2c0-0.1,0.1-0.2,0.2-0.2
									C64.2,592.7,64.3,592.7,64.3,592.9z"/>
							</g>
							<g>
								<path style="fill:#58595B;" d="M87.6,592.9c0,0.1-0.1,0.2-0.2,0.2c-0.1,0-0.2-0.1-0.2-0.2s0.1-0.2,0.2-0.2
									C87.5,592.6,87.6,592.7,87.6,592.9z"/>
								<path style="fill:#6D6E70;" d="M87.6,592.9c0,0.1-0.1,0.2-0.2,0.2c-0.1,0-0.2-0.1-0.2-0.2c0-0.1,0.1-0.2,0.2-0.2
									C87.5,592.7,87.6,592.7,87.6,592.9z"/>
							</g>
						</g>
						<g>
							<path style="fill:#E8955D;" d="M76.3,593.8h10.5c-1.3-0.5-2.6-1-5.3-0.9C79.6,593,77.9,593.4,76.3,593.8z"/>
							<path style="fill:#E8955D;" d="M71,593.2c2.4,0,3.7-0.8,5.3-1.3H64.9C66.8,592.4,68.5,593.2,71,593.2z"/>
						</g>
					</g>
					<g>
						<path style="fill:#D8884A;" d="M88.4,599.5H63.1c-0.2,0-0.4-0.2-0.4-0.4V598c0-0.2,0.2-0.4,0.4-0.4h25.3
							c0.2,0,0.4,0.2,0.4,0.4v1.1C88.8,599.3,88.6,599.5,88.4,599.5z"/>
						<g>
							<g>
								<path style="fill:#58595B;" d="M64.4,598.6c0,0.1-0.1,0.2-0.2,0.2c-0.1,0-0.2-0.1-0.2-0.2s0.1-0.2,0.2-0.2
									C64.3,598.3,64.4,598.4,64.4,598.6z"/>
								<path style="fill:#6D6E70;" d="M64.3,598.6c0,0.1-0.1,0.2-0.2,0.2c-0.1,0-0.2-0.1-0.2-0.2c0-0.1,0.1-0.2,0.2-0.2
									C64.2,598.4,64.3,598.4,64.3,598.6z"/>
							</g>
							<g>
								<path style="fill:#58595B;" d="M87.6,598.6c0,0.1-0.1,0.2-0.2,0.2c-0.1,0-0.2-0.1-0.2-0.2s0.1-0.2,0.2-0.2
									C87.5,598.3,87.6,598.4,87.6,598.6z"/>
								<path style="fill:#6D6E70;" d="M87.6,598.6c0,0.1-0.1,0.2-0.2,0.2c-0.1,0-0.2-0.1-0.2-0.2c0-0.1,0.1-0.2,0.2-0.2
									C87.5,598.4,87.6,598.4,87.6,598.6z"/>
							</g>
						</g>
						<g>
							<path style="fill:#E8955D;" d="M76.3,599.5h10.5c-1.3-0.5-2.6-1-5.3-0.9C79.6,598.7,77.9,599.1,76.3,599.5z"/>
							<path style="fill:#E8955D;" d="M71,598.9c2.4,0,3.7-0.8,5.3-1.3H64.9C66.8,598.1,68.5,598.9,71,598.9z"/>
						</g>
					</g>
				</g>
				<g>
					<rect x="61.8" y="601.8" style="fill:#D8884A;" width="28.2" height="0.7"/>
					<polygon style="fill:#E8955D;" points="62.2,601.3 61.8,601.8 89.9,601.8 89.5,601.3 					"/>
				</g>
				<polygon style="fill:#E8955D;" points="89.1,601 88.8,600.6 62.7,600.6 62.4,601 				"/>
				<g>
					<g>
						<ellipse style="fill:#58595B;" cx="63.3" cy="600.8" rx="0.2" ry="0.1"/>
						<path style="fill:#6D6E70;" d="M63.5,600.8c0,0-0.1,0.1-0.1,0.1s-0.1,0-0.1-0.1c0,0,0.1-0.1,0.1-0.1S63.5,600.8,63.5,600.8z"
							/>
					</g>
					<g>
						<ellipse style="fill:#58595B;" cx="88" cy="600.8" rx="0.2" ry="0.1"/>
						<path style="fill:#6D6E70;" d="M88.2,600.8c0,0-0.1,0.1-0.1,0.1c-0.1,0-0.1,0-0.1-0.1c0,0,0.1-0.1,0.1-0.1
							C88.1,600.8,88.2,600.8,88.2,600.8z"/>
					</g>
				</g>
				<g>
					<g>
						<path style="fill:#58595B;" d="M63,601.5c0,0-0.1,0.1-0.2,0.1c-0.1,0-0.2,0-0.2-0.1c0,0,0.1-0.1,0.2-0.1
							C62.9,601.4,63,601.5,63,601.5z"/>
						<path style="fill:#6D6E70;" d="M62.9,601.5c0,0-0.1,0.1-0.2,0.1c-0.1,0-0.2,0-0.2-0.1c0,0,0.1-0.1,0.2-0.1
							C62.9,601.5,62.9,601.5,62.9,601.5z"/>
					</g>
					<g>
						<path style="fill:#58595B;" d="M88.9,601.5c0,0-0.1,0.1-0.2,0.1c-0.1,0-0.2,0-0.2-0.1c0,0,0.1-0.1,0.2-0.1
							C88.8,601.4,88.9,601.5,88.9,601.5z"/>
						<path style="fill:#6D6E70;" d="M88.9,601.5c0,0-0.1,0.1-0.2,0.1c-0.1,0-0.2,0-0.2-0.1c0,0,0.1-0.1,0.2-0.1
							C88.8,601.5,88.9,601.5,88.9,601.5z"/>
					</g>
				</g>
			</g>
		</g>
		<g>
			<path style="fill:#5A8E3F;" d="M633,643.6c-0.2-12,0.4-18.1,0.4-18.1l-0.4,0c0,0.1-0.6,6.1-0.4,18.2H633z"/>
			<path style="fill:#5A8E3F;" d="M629.4,632c0.8,1.8,1.3,3.7,1.7,5.7c0.4,1.9,0.6,3.9,0.7,5.9h1.6c0-0.1,0-0.1,0-0.2
				c-0.3-2-0.7-4-1.3-6c-0.6-2-1.3-3.9-2.3-5.7c-1-1.8-2.3-3.4-4.1-4.4C627.5,628.5,628.6,630.3,629.4,632z"/>
			<g>
				<g>
					<g>
						<path style="fill:#F1F1F2;" d="M634.8,619.3c0,1.8-0.8,3.2-1.7,3.2c-1,0-1.7-1.4-1.7-3.2c0-1.8,0.8-3.2,1.7-3.2
							C634,616.1,634.8,617.6,634.8,619.3z"/>
						<path style="fill:#E6E7E8;" d="M633.1,616.1v6.4c1,0,1.7-1.4,1.7-3.2C634.8,617.6,634,616.1,633.1,616.1z"/>
					</g>
					<g>
						<path style="fill:#F1F1F2;" d="M631.3,625.5c0,1.8,0.8,3.2,1.7,3.2c1,0,1.7-1.4,1.7-3.2c0-1.8-0.8-3.2-1.7-3.2
							C632.1,622.3,631.3,623.8,631.3,625.5z"/>
						<path style="fill:#E6E7E8;" d="M633.1,622.3v6.4c-1,0-1.7-1.4-1.7-3.2C631.3,623.8,632.1,622.3,633.1,622.3z"/>
					</g>
					<g>
						<path style="fill:#F1F1F2;" d="M636.2,624.2c-1.8,0-3.2-0.8-3.2-1.7c0-1,1.4-1.7,3.2-1.7c1.8,0,3.2,0.8,3.2,1.7
							C639.4,623.4,637.9,624.2,636.2,624.2z"/>
						<path style="fill:#E6E7E8;" d="M639.4,622.4H633c0,1,1.4,1.7,3.2,1.7C637.9,624.2,639.4,623.4,639.4,622.4z"/>
					</g>
					<g>
						<path style="fill:#F1F1F2;" d="M630,620.7c-1.8,0-3.2,0.8-3.2,1.7c0,1,1.4,1.7,3.2,1.7c1.8,0,3.2-0.8,3.2-1.7
							C633.2,621.5,631.7,620.7,630,620.7z"/>
						<path style="fill:#E6E7E8;" d="M633.2,622.4h-6.4c0-1,1.4-1.7,3.2-1.7C631.7,620.7,633.2,621.5,633.2,622.4z"/>
					</g>
					<g>
						<path style="fill:#F1F1F2;" d="M636.5,621.5c-1.2,1.2-2.8,1.7-3.5,1c-0.7-0.7-0.2-2.2,1-3.5c1.2-1.2,2.8-1.7,3.5-1
							C638.2,618.6,637.7,620.2,636.5,621.5z"/>
						<path style="fill:#E6E7E8;" d="M637.5,618l-4.5,4.5c0.7,0.7,2.2,0.2,3.5-1C637.7,620.2,638.2,618.6,637.5,618z"/>
					</g>
					<g>
						<path style="fill:#F1F1F2;" d="M629.6,623.4c-1.2,1.2-1.7,2.8-1,3.5c0.7,0.7,2.2,0.2,3.5-1c1.2-1.2,1.7-2.8,1-3.5
							C632.5,621.7,630.9,622.1,629.6,623.4z"/>
						<path style="fill:#E6E7E8;" d="M633.1,622.4l-4.5,4.5c-0.7-0.7-0.2-2.2,1-3.5S632.5,621.7,633.1,622.4z"/>
					</g>
					<g>
						
							<ellipse transform="matrix(0.7071 -0.7071 0.7071 0.7071 -255.6066 632.1355)" style="fill:#F1F1F2;" cx="635.3" cy="624.6" rx="1.7" ry="3.2"/>
						<path style="fill:#E6E7E8;" d="M637.5,626.9l-4.5-4.5c-0.7,0.7-0.2,2.2,1,3.5S636.8,627.5,637.5,626.9z"/>
					</g>
					<g>
						<path style="fill:#F1F1F2;" d="M632.1,619c-1.2-1.2-2.8-1.7-3.5-1c-0.7,0.7-0.2,2.2,1,3.5c1.2,1.2,2.8,1.7,3.5,1
							C633.8,621.8,633.3,620.3,632.1,619z"/>
						<path style="fill:#E6E7E8;" d="M633.1,622.5l-4.5-4.5c0.7-0.7,2.2-0.2,3.5,1C633.3,620.3,633.8,621.8,633.1,622.5z"/>
					</g>
				</g>
				<path style="fill:#F9A83B;" d="M635.1,622.4c0,1.1-0.9,2.1-2.1,2.1c-1.1,0-2.1-0.9-2.1-2.1c0-1.1,0.9-2.1,2.1-2.1
					C634.2,620.3,635.1,621.3,635.1,622.4z"/>
				<path style="fill:#FCC683;" d="M634.7,622.4c0,0.9-0.8,1.7-1.7,1.7c-0.9,0-1.7-0.8-1.7-1.7c0-0.9,0.8-1.7,1.7-1.7
					C634,620.7,634.7,621.5,634.7,622.4z"/>
			</g>
			<path style="fill:#629B42;" d="M633.9,643.6c0-0.5,0.1-1.1,0.1-1.6c0.2-2.5,0.7-5,1.4-7.4c0.7-2.4,1.7-4.8,2.9-7l1-1.6
				c0.4-0.5,0.8-1,1.2-1.5l0.6-0.8c0.2-0.2,0.4-0.5,0.7-0.7l1.3-1.4l-1.4,1.3c-0.2,0.2-0.5,0.4-0.7,0.6l-0.6,0.7
				c-0.4,0.5-0.9,0.9-1.3,1.5l-1.1,1.6c-1.4,2.2-2.6,4.5-3.5,6.9c-0.9,2.4-1.5,5-1.9,7.5c-0.1,0.6-0.2,1.2-0.3,1.8H633.9z"/>
		</g>
		<g>
			<path style="fill:#5A8E3F;" d="M17.7,681.4c-0.2-11.7,0.4-17.5,0.4-17.6l-0.4,0c0,0.1-0.6,5.9-0.4,17.6H17.7z"/>
			<path style="fill:#5A8E3F;" d="M14.2,670.1c0.8,1.8,1.3,3.6,1.7,5.5c0.4,1.9,0.6,3.8,0.7,5.7h1.5c0-0.1,0-0.1,0-0.2
				c-0.3-2-0.7-3.9-1.2-5.8c-0.5-1.9-1.2-3.8-2.2-5.5c-1-1.7-2.3-3.3-4-4.2C12.3,666.7,13.4,668.4,14.2,670.1z"/>
			<g>
				<g>
					<g>
						<path style="fill:#DC4F7A;" d="M19.4,657.8c0,1.7-0.8,3.1-1.7,3.1c-0.9,0-1.7-1.4-1.7-3.1s0.8-3.1,1.7-3.1
							C18.7,654.7,19.4,656.1,19.4,657.8z"/>
						<path style="fill:#CF2257;" d="M17.7,654.7v6.2c0.9,0,1.7-1.4,1.7-3.1S18.7,654.7,17.7,654.7z"/>
					</g>
					<g>
						<path style="fill:#DC4F7A;" d="M16.1,663.8c0,1.7,0.8,3.1,1.7,3.1c0.9,0,1.7-1.4,1.7-3.1c0-1.7-0.8-3.1-1.7-3.1
							C16.8,660.7,16.1,662.1,16.1,663.8z"/>
						<path style="fill:#CF2257;" d="M17.7,660.7v6.2c-0.9,0-1.7-1.4-1.7-3.1C16.1,662.1,16.8,660.7,17.7,660.7z"/>
					</g>
					<g>
						<ellipse style="fill:#DC4F7A;" cx="20.7" cy="660.8" rx="3.1" ry="1.7"/>
						<path style="fill:#CF2257;" d="M23.8,660.8h-6.2c0,0.9,1.4,1.7,3.1,1.7C22.5,662.5,23.8,661.7,23.8,660.8z"/>
					</g>
					<g>
						<ellipse style="fill:#DC4F7A;" cx="14.7" cy="660.8" rx="3.1" ry="1.7"/>
						<path style="fill:#CF2257;" d="M17.8,660.8h-6.2c0-0.9,1.4-1.7,3.1-1.7C16.4,659.1,17.8,659.9,17.8,660.8z"/>
					</g>
					<g>
						
							<ellipse transform="matrix(0.7071 -0.7071 0.7071 0.7071 -459.9249 206.9671)" style="fill:#DC4F7A;" cx="19.9" cy="658.7" rx="3.1" ry="1.7"/>
						<path style="fill:#CF2257;" d="M22.1,656.5l-4.4,4.4c0.7,0.7,2.2,0.2,3.4-1C22.3,658.6,22.7,657.1,22.1,656.5z"/>
					</g>
					<g>
						<path style="fill:#DC4F7A;" d="M14.4,661.7c-1.2,1.2-1.7,2.7-1,3.4c0.7,0.7,2.2,0.2,3.4-1c1.2-1.2,1.7-2.7,1-3.4
							C17.2,660.1,15.6,660.5,14.4,661.7z"/>
						<path style="fill:#CF2257;" d="M17.8,660.7l-4.4,4.4c-0.7-0.7-0.2-2.2,1-3.4C15.6,660.5,17.2,660.1,17.8,660.7z"/>
					</g>
					<g>
						<path style="fill:#DC4F7A;" d="M18.7,664.1c-1.2-1.2-1.7-2.7-1-3.4c0.7-0.7,2.2-0.2,3.4,1c1.2,1.2,1.7,2.7,1,3.4
							C21.4,665.8,19.9,665.3,18.7,664.1z"/>
						<path style="fill:#CF2257;" d="M22.1,665.1l-4.4-4.4c-0.7,0.7-0.2,2.2,1,3.4C19.9,665.3,21.4,665.8,22.1,665.1z"/>
					</g>
					<g>
						<path style="fill:#DC4F7A;" d="M16.8,657.5c-1.2-1.2-2.7-1.7-3.4-1c-0.7,0.7-0.2,2.2,1,3.4c1.2,1.2,2.7,1.7,3.4,1
							C18.5,660.2,18,658.7,16.8,657.5z"/>
						<path style="fill:#CF2257;" d="M17.8,660.9l-4.4-4.4c0.7-0.7,2.2-0.2,3.4,1C18,658.7,18.5,660.2,17.8,660.9z"/>
					</g>
				</g>
				<circle style="fill:#F9A83B;" cx="17.7" cy="660.8" r="2"/>
				<circle style="fill:#FCC683;" cx="17.7" cy="660.8" r="1.6"/>
			</g>
			<path style="fill:#629B42;" d="M18.6,681.4c0-0.5,0.1-1,0.1-1.6c0.2-2.4,0.7-4.8,1.3-7.2c0.6-2.4,1.6-4.6,2.8-6.7l1-1.6
				c0.3-0.5,0.7-1,1.1-1.5l0.6-0.7c0.2-0.2,0.4-0.4,0.6-0.7l1.3-1.3l-1.4,1.2c-0.2,0.2-0.5,0.4-0.7,0.6l-0.6,0.7
				c-0.4,0.5-0.8,0.9-1.2,1.4l-1.1,1.5c-1.4,2.1-2.6,4.3-3.4,6.7c-0.9,2.4-1.5,4.8-1.9,7.3c-0.1,0.6-0.2,1.2-0.2,1.7H18.6z"/>
		</g>
		<g>
			<path style="fill:#5A8E3F;" d="M384.8,679.7c-0.2-13.1,0.5-19.7,0.5-19.8l-0.4,0c0,0.1-0.7,6.7-0.5,19.8H384.8z"/>
			<path style="fill:#5A8E3F;" d="M380.9,667.1c0.9,2,1.5,4.1,1.9,6.2c0.4,2.1,0.6,4.3,0.8,6.4h1.7c0-0.1,0-0.1,0-0.2
				c-0.3-2.2-0.8-4.4-1.4-6.5c-0.6-2.1-1.4-4.2-2.5-6.2c-1.1-1.9-2.5-3.7-4.5-4.8C378.7,663.2,380,665.1,380.9,667.1z"/>
			<g>
				<g>
					<g>
						<path style="fill:#F1F1F2;" d="M386.7,653.2c0,1.9-0.8,3.5-1.9,3.5c-1,0-1.9-1.6-1.9-3.5c0-1.9,0.8-3.5,1.9-3.5
							C385.9,649.7,386.7,651.3,386.7,653.2z"/>
						<path style="fill:#E6E7E8;" d="M384.9,649.7v7c1,0,1.9-1.6,1.9-3.5C386.7,651.3,385.9,649.7,384.9,649.7z"/>
					</g>
					<g>
						<path style="fill:#F1F1F2;" d="M383,659.9c0,1.9,0.8,3.5,1.9,3.5c1,0,1.9-1.6,1.9-3.5c0-1.9-0.8-3.5-1.9-3.5
							C383.8,656.5,383,658,383,659.9z"/>
						<path style="fill:#E6E7E8;" d="M384.9,656.5v7c-1,0-1.9-1.6-1.9-3.5C383,658,383.8,656.5,384.9,656.5z"/>
					</g>
					<g>
						<path style="fill:#F1F1F2;" d="M388.2,658.5c-1.9,0-3.5-0.8-3.5-1.9c0-1,1.6-1.9,3.5-1.9c1.9,0,3.5,0.8,3.5,1.9
							C391.7,657.6,390.2,658.5,388.2,658.5z"/>
						<path style="fill:#E6E7E8;" d="M391.7,656.6h-7c0,1,1.6,1.9,3.5,1.9C390.2,658.5,391.7,657.6,391.7,656.6z"/>
					</g>
					<g>
						<path style="fill:#F1F1F2;" d="M381.5,654.7c-1.9,0-3.5,0.8-3.5,1.9c0,1,1.6,1.9,3.5,1.9c1.9,0,3.5-0.8,3.5-1.9
							C385,655.5,383.4,654.7,381.5,654.7z"/>
						<path style="fill:#E6E7E8;" d="M385,656.6h-7c0-1,1.6-1.9,3.5-1.9C383.4,654.7,385,655.5,385,656.6z"/>
					</g>
					<g>
						<path style="fill:#F1F1F2;" d="M388.6,655.5c-1.4,1.4-3.1,1.9-3.8,1.1c-0.7-0.7-0.2-2.4,1.1-3.8c1.4-1.4,3.1-1.9,3.8-1.1
							C390.4,652.4,389.9,654.2,388.6,655.5z"/>
						<path style="fill:#E6E7E8;" d="M389.7,651.7l-4.9,4.9c0.7,0.7,2.4,0.2,3.8-1.1C389.9,654.2,390.4,652.4,389.7,651.7z"/>
					</g>
					<g>
						<path style="fill:#F1F1F2;" d="M381.1,657.6c-1.4,1.4-1.9,3.1-1.1,3.8c0.7,0.7,2.4,0.2,3.8-1.1s1.9-3.1,1.1-3.8
							C384.2,655.8,382.5,656.3,381.1,657.6z"/>
						<path style="fill:#E6E7E8;" d="M384.9,656.5l-4.9,4.9c-0.7-0.7-0.2-2.4,1.1-3.8C382.5,656.3,384.2,655.8,384.9,656.5z"/>
					</g>
					<g>
						<path style="fill:#F1F1F2;" d="M385.9,660.3c-1.4-1.4-1.9-3.1-1.1-3.8c0.7-0.7,2.4-0.2,3.8,1.1c1.4,1.4,1.9,3.1,1.1,3.8
							C389,662.2,387.3,661.7,385.9,660.3z"/>
						<path style="fill:#E6E7E8;" d="M389.7,661.4l-4.9-4.9c-0.7,0.7-0.2,2.4,1.1,3.8C387.3,661.7,389,662.2,389.7,661.4z"/>
					</g>
					<g>
						<path style="fill:#F1F1F2;" d="M383.8,652.8c-1.4-1.4-3.1-1.9-3.8-1.1c-0.7,0.7-0.2,2.4,1.1,3.8c1.4,1.4,3.1,1.9,3.8,1.1
							C385.7,655.9,385.2,654.2,383.8,652.8z"/>
						<path style="fill:#E6E7E8;" d="M384.9,656.6l-4.9-4.9c0.7-0.7,2.4-0.2,3.8,1.1C385.2,654.2,385.7,655.9,384.9,656.6z"/>
					</g>
				</g>
				<path style="fill:#F9A83B;" d="M387.1,656.6c0,1.2-1,2.3-2.3,2.3c-1.2,0-2.3-1-2.3-2.3c0-1.2,1-2.3,2.3-2.3
					C386.1,654.3,387.1,655.3,387.1,656.6z"/>
				<path style="fill:#FCC683;" d="M386.7,656.6c0,1-0.8,1.8-1.8,1.8s-1.8-0.8-1.8-1.8c0-1,0.8-1.8,1.8-1.8S386.7,655.6,386.7,656.6
					z"/>
			</g>
			<path style="fill:#629B42;" d="M385.8,679.7c0-0.6,0.1-1.2,0.1-1.8c0.3-2.7,0.8-5.4,1.5-8.1c0.7-2.7,1.9-5.2,3.2-7.6l1.1-1.8
				c0.4-0.6,0.8-1.1,1.3-1.7l0.6-0.8c0.2-0.3,0.5-0.5,0.7-0.7l1.5-1.5l-1.6,1.4c-0.3,0.2-0.5,0.5-0.8,0.7l-0.7,0.8
				c-0.5,0.5-1,1-1.4,1.6l-1.2,1.7c-1.5,2.3-2.9,4.9-3.8,7.5c-1,2.7-1.7,5.4-2.1,8.2c-0.1,0.7-0.2,1.3-0.3,2H385.8z"/>
		</g>
		<g>
			<path style="fill:#5A8E3F;" d="M284.1,642.3c-0.2-13.8,0.5-20.7,0.5-20.8l-0.4,0c0,0.1-0.7,7-0.5,20.8H284.1z"/>
			<path style="fill:#5A8E3F;" d="M280,629c0.9,2.1,1.5,4.3,2,6.5c0.4,2.2,0.7,4.5,0.8,6.8h1.8c0-0.1,0-0.1,0-0.2
				c-0.3-2.3-0.8-4.6-1.4-6.9c-0.6-2.2-1.5-4.5-2.6-6.5c-1.1-2-2.7-3.9-4.7-5C277.8,625,279.1,627,280,629z"/>
			<g>
				<g>
					<g>
						<path style="fill:#DC4F7A;" d="M286.2,614.4c0,2-0.9,3.7-2,3.7c-1.1,0-2-1.6-2-3.7c0-2,0.9-3.7,2-3.7
							C285.3,610.8,286.2,612.4,286.2,614.4z"/>
						<path style="fill:#CF2257;" d="M284.2,610.8v7.3c1.1,0,2-1.6,2-3.7C286.2,612.4,285.3,610.8,284.2,610.8z"/>
					</g>
					<g>
						<path style="fill:#DC4F7A;" d="M282.2,621.5c0,2,0.9,3.7,2,3.7c1.1,0,2-1.6,2-3.7c0-2-0.9-3.7-2-3.7
							C283.1,617.9,282.2,619.5,282.2,621.5z"/>
						<path style="fill:#CF2257;" d="M284.2,617.9v7.3c-1.1,0-2-1.6-2-3.7C282.2,619.5,283.1,617.9,284.2,617.9z"/>
					</g>
					<g>
						<path style="fill:#DC4F7A;" d="M287.8,620c-2,0-3.7-0.9-3.7-2c0-1.1,1.6-2,3.7-2c2,0,3.7,0.9,3.7,2
							C291.4,619.1,289.8,620,287.8,620z"/>
						<path style="fill:#CF2257;" d="M291.4,618h-7.3c0,1.1,1.6,2,3.7,2C289.8,620,291.4,619.1,291.4,618z"/>
					</g>
					<g>
						<path style="fill:#DC4F7A;" d="M280.7,616c-2,0-3.7,0.9-3.7,2c0,1.1,1.6,2,3.7,2c2,0,3.7-0.9,3.7-2
							C284.3,616.9,282.7,616,280.7,616z"/>
						<path style="fill:#CF2257;" d="M284.3,618H277c0-1.1,1.6-2,3.7-2C282.7,616,284.3,616.9,284.3,618z"/>
					</g>
					<g>
						<path style="fill:#DC4F7A;" d="M288.1,616.9c-1.4,1.4-3.2,2-4,1.2c-0.8-0.8-0.2-2.6,1.2-4c1.4-1.4,3.2-2,4-1.2
							C290.1,613.7,289.5,615.5,288.1,616.9z"/>
						<path style="fill:#CF2257;" d="M289.3,612.9l-5.2,5.2c0.8,0.8,2.6,0.2,4-1.2S290.1,613.7,289.3,612.9z"/>
					</g>
					<g>
						<path style="fill:#DC4F7A;" d="M280.3,619.1c-1.4,1.4-2,3.2-1.2,4c0.8,0.8,2.6,0.2,4-1.2s2-3.2,1.2-4
							C283.5,617.1,281.7,617.7,280.3,619.1z"/>
						<path style="fill:#CF2257;" d="M284.3,617.9l-5.2,5.2c-0.8-0.8-0.2-2.6,1.2-4S283.5,617.1,284.3,617.9z"/>
					</g>
					<g>
						<path style="fill:#DC4F7A;" d="M285.3,621.9c-1.4-1.4-2-3.2-1.2-4c0.8-0.8,2.6-0.2,4,1.2s2,3.2,1.2,4
							C288.5,623.9,286.7,623.3,285.3,621.9z"/>
						<path style="fill:#CF2257;" d="M289.3,623.1l-5.2-5.2c-0.8,0.8-0.2,2.6,1.2,4S288.5,623.9,289.3,623.1z"/>
					</g>
					<g>
						<path style="fill:#DC4F7A;" d="M283.1,614.1c-1.4-1.4-3.2-2-4-1.2c-0.8,0.8-0.2,2.6,1.2,4s3.2,2,4,1.2
							C285.1,617.3,284.5,615.5,283.1,614.1z"/>
						<path style="fill:#CF2257;" d="M284.3,618.1l-5.2-5.2c0.8-0.8,2.6-0.2,4,1.2S285.1,617.3,284.3,618.1z"/>
					</g>
				</g>
				<circle style="fill:#F9A83B;" cx="284.2" cy="618" r="2.4"/>
				<path style="fill:#FCC683;" d="M286.1,618c0,1.1-0.9,1.9-1.9,1.9c-1.1,0-1.9-0.9-1.9-1.9c0-1.1,0.9-1.9,1.9-1.9
					C285.3,616.1,286.1,616.9,286.1,618z"/>
			</g>
			<path style="fill:#629B42;" d="M285.2,642.3c0-0.6,0.1-1.2,0.1-1.8c0.3-2.9,0.8-5.7,1.6-8.5c0.8-2.8,1.9-5.4,3.4-8l1.2-1.8
				c0.4-0.6,0.9-1.2,1.3-1.7l0.7-0.9c0.2-0.3,0.5-0.5,0.8-0.8l1.5-1.6l-1.6,1.5c-0.3,0.2-0.6,0.5-0.8,0.7l-0.7,0.8
				c-0.5,0.6-1,1.1-1.5,1.7l-1.3,1.8c-1.6,2.5-3,5.1-4,7.9c-1,2.8-1.7,5.7-2.2,8.6c-0.1,0.7-0.2,1.4-0.3,2.1H285.2z"/>
		</g>
		<g>
			<path style="fill:#5A8E3F;" d="M506.9,691.9c-0.2-13.8,0.5-20.7,0.5-20.8l-0.4,0c0,0.1-0.7,7-0.5,20.8H506.9z"/>
			<path style="fill:#5A8E3F;" d="M502.8,678.6c0.9,2.1,1.5,4.3,2,6.5c0.4,2.2,0.7,4.5,0.8,6.8h1.8c0-0.1,0-0.1,0-0.2
				c-0.3-2.3-0.8-4.6-1.4-6.9c-0.6-2.2-1.5-4.5-2.6-6.5c-1.1-2-2.7-3.9-4.7-5C500.5,674.6,501.8,676.5,502.8,678.6z"/>
			<g>
				<g>
					<g>
						<ellipse style="fill:#DC4F7A;" cx="507" cy="664" rx="2" ry="3.7"/>
						<path style="fill:#CF2257;" d="M507,660.3v7.3c1.1,0,2-1.6,2-3.7S508,660.3,507,660.3z"/>
					</g>
					<g>
						<ellipse style="fill:#DC4F7A;" cx="507" cy="671.1" rx="2" ry="3.7"/>
						<path style="fill:#CF2257;" d="M507,667.5v7.3c-1.1,0-2-1.6-2-3.7S505.9,667.5,507,667.5z"/>
					</g>
					<g>
						<path style="fill:#DC4F7A;" d="M510.5,669.5c-2,0-3.7-0.9-3.7-2c0-1.1,1.6-2,3.7-2c2,0,3.7,0.9,3.7,2
							C514.2,668.7,512.5,669.5,510.5,669.5z"/>
						<path style="fill:#CF2257;" d="M514.2,667.6h-7.3c0,1.1,1.6,2,3.7,2C512.5,669.5,514.2,668.7,514.2,667.6z"/>
					</g>
					<g>
						<path style="fill:#DC4F7A;" d="M503.4,665.6c-2,0-3.7,0.9-3.7,2c0,1.1,1.6,2,3.7,2c2,0,3.7-0.9,3.7-2
							C507.1,666.5,505.4,665.6,503.4,665.6z"/>
						<path style="fill:#CF2257;" d="M507.1,667.6h-7.3c0-1.1,1.6-2,3.7-2C505.4,665.6,507.1,666.5,507.1,667.6z"/>
					</g>
					<g>
						<path style="fill:#DC4F7A;" d="M510.9,666.5c-1.4,1.4-3.2,2-4,1.2c-0.8-0.8-0.2-2.6,1.2-4s3.2-2,4-1.2
							C512.8,663.2,512.3,665,510.9,666.5z"/>
						<path style="fill:#CF2257;" d="M512.1,662.5l-5.2,5.2c0.8,0.8,2.6,0.2,4-1.2S512.8,663.2,512.1,662.5z"/>
					</g>
					<g>
						<path style="fill:#DC4F7A;" d="M503,668.7c-1.4,1.4-2,3.2-1.2,4c0.8,0.8,2.6,0.2,4-1.2s2-3.2,1.2-4
							C506.3,666.7,504.5,667.2,503,668.7z"/>
						<path style="fill:#CF2257;" d="M507,667.5l-5.2,5.2c-0.8-0.8-0.2-2.6,1.2-4S506.3,666.7,507,667.5z"/>
					</g>
					<g>
						<path style="fill:#DC4F7A;" d="M508.1,671.5c-1.4-1.4-2-3.2-1.2-4c0.8-0.8,2.6-0.2,4,1.2s2,3.2,1.2,4
							C511.3,673.4,509.5,672.9,508.1,671.5z"/>
						<path style="fill:#CF2257;" d="M512.1,672.7l-5.2-5.2c-0.8,0.8-0.2,2.6,1.2,4S511.3,673.4,512.1,672.7z"/>
					</g>
					<g>
						<path style="fill:#DC4F7A;" d="M505.8,663.6c-1.4-1.4-3.2-2-4-1.2c-0.8,0.8-0.2,2.6,1.2,4s3.2,2,4,1.2
							C507.8,666.9,507.3,665.1,505.8,663.6z"/>
						<path style="fill:#CF2257;" d="M507,667.6l-5.2-5.2c0.8-0.8,2.6-0.2,4,1.2S507.8,666.9,507,667.6z"/>
					</g>
				</g>
				<circle style="fill:#F9A83B;" cx="507" cy="667.6" r="2.4"/>
				<path style="fill:#FCC683;" d="M508.9,667.6c0,1.1-0.9,1.9-1.9,1.9s-1.9-0.9-1.9-1.9c0-1.1,0.9-1.9,1.9-1.9
					S508.9,666.5,508.9,667.6z"/>
			</g>
			<path style="fill:#629B42;" d="M508,691.9c0-0.6,0.1-1.2,0.1-1.8c0.3-2.9,0.8-5.7,1.6-8.5c0.8-2.8,1.9-5.4,3.4-8l1.2-1.8
				c0.4-0.6,0.9-1.2,1.3-1.7l0.7-0.9c0.2-0.3,0.5-0.5,0.8-0.8l1.5-1.6l-1.6,1.5c-0.3,0.2-0.6,0.5-0.8,0.7l-0.7,0.8
				c-0.5,0.6-1,1.1-1.5,1.7l-1.3,1.8c-1.6,2.5-3,5.1-4,7.9c-1,2.8-1.7,5.7-2.2,8.6c-0.1,0.7-0.2,1.4-0.3,2.1H508z"/>
		</g>
		<g>
			<path style="fill:#5A8E3F;" d="M657.4,718.6c-0.3-17.7,0.6-26.6,0.6-26.7l-0.6-0.1c0,0.1-0.9,9-0.6,26.8H657.4z"/>
			<path style="fill:#5A8E3F;" d="M652.2,701.5c1.2,2.7,2,5.5,2.5,8.4c0.6,2.9,0.9,5.8,1.1,8.7h2.3c0-0.1,0-0.2,0-0.2
				c-0.4-3-1-5.9-1.9-8.8c-0.8-2.9-1.9-5.7-3.3-8.4c-1.5-2.6-3.4-5.1-6.1-6.4C649.3,696.3,651,698.9,652.2,701.5z"/>
			<g>
				<g>
					<g>
						<path style="fill:#F1F1F2;" d="M660.1,682.8c0,2.6-1.1,4.7-2.5,4.7c-1.4,0-2.5-2.1-2.5-4.7c0-2.6,1.1-4.7,2.5-4.7
							C658.9,678.1,660.1,680.2,660.1,682.8z"/>
						<path style="fill:#E6E7E8;" d="M657.5,678.1v9.4c1.4,0,2.5-2.1,2.5-4.7C660.1,680.2,658.9,678.1,657.5,678.1z"/>
					</g>
					<g>
						<path style="fill:#F1F1F2;" d="M655,691.9c0,2.6,1.1,4.7,2.5,4.7c1.4,0,2.5-2.1,2.5-4.7c0-2.6-1.1-4.7-2.5-4.7
							C656.1,687.2,655,689.3,655,691.9z"/>
						<path style="fill:#E6E7E8;" d="M657.5,687.2v9.4c-1.4,0-2.5-2.1-2.5-4.7C655,689.3,656.1,687.2,657.5,687.2z"/>
					</g>
					<g>
						<path style="fill:#F1F1F2;" d="M662.1,689.9c-2.6,0-4.7-1.1-4.7-2.5c0-1.4,2.1-2.5,4.7-2.5c2.6,0,4.7,1.1,4.7,2.5
							C666.8,688.7,664.7,689.9,662.1,689.9z"/>
						<path style="fill:#E6E7E8;" d="M666.8,687.3h-9.4c0,1.4,2.1,2.5,4.7,2.5C664.7,689.9,666.8,688.7,666.8,687.3z"/>
					</g>
					<g>
						<path style="fill:#F1F1F2;" d="M653,684.8c-2.6,0-4.7,1.1-4.7,2.5c0,1.4,2.1,2.5,4.7,2.5c2.6,0,4.7-1.1,4.7-2.5
							C657.7,685.9,655.6,684.8,653,684.8z"/>
						<path style="fill:#E6E7E8;" d="M657.7,687.3h-9.4c0-1.4,2.1-2.5,4.7-2.5C655.6,684.8,657.7,685.9,657.7,687.3z"/>
					</g>
					<g>
						<path style="fill:#F1F1F2;" d="M662.6,685.9c-1.8,1.8-4.1,2.5-5.1,1.5c-1-1-0.3-3.3,1.5-5.1c1.8-1.8,4.1-2.5,5.1-1.5
							C665.1,681.8,664.4,684.1,662.6,685.9z"/>
						<path style="fill:#E6E7E8;" d="M664.1,680.8l-6.7,6.7c1,1,3.3,0.3,5.1-1.5C664.4,684.1,665.1,681.8,664.1,680.8z"/>
					</g>
					<g>
						<path style="fill:#F1F1F2;" d="M652.5,688.8c-1.8,1.8-2.5,4.1-1.5,5.1c1,1,3.3,0.3,5.1-1.5c1.8-1.8,2.5-4.1,1.5-5.1
							C656.6,686.2,654.3,686.9,652.5,688.8z"/>
						<path style="fill:#E6E7E8;" d="M657.6,687.2l-6.7,6.7c-1-1-0.3-3.3,1.5-5.1C654.3,686.9,656.6,686.2,657.6,687.2z"/>
					</g>
					<g>
						<path style="fill:#F1F1F2;" d="M659,692.4c-1.8-1.8-2.5-4.1-1.5-5.1c1-1,3.3-0.3,5.1,1.5c1.8,1.8,2.5,4.1,1.5,5.1
							C663.1,694.9,660.8,694.2,659,692.4z"/>
						<path style="fill:#E6E7E8;" d="M664.1,693.9l-6.7-6.7c-1,1-0.3,3.3,1.5,5.1C660.8,694.2,663.1,694.9,664.1,693.9z"/>
					</g>
					<g>
						<path style="fill:#F1F1F2;" d="M656.1,682.3c-1.8-1.8-4.1-2.5-5.1-1.5c-1,1-0.3,3.3,1.5,5.1c1.8,1.8,4.1,2.5,5.1,1.5
							C658.6,686.4,657.9,684.1,656.1,682.3z"/>
						<path style="fill:#E6E7E8;" d="M657.6,687.4l-6.7-6.7c1-1,3.3-0.3,5.1,1.5C657.9,684.1,658.6,686.4,657.6,687.4z"/>
					</g>
				</g>
				<circle style="fill:#F9A83B;" cx="657.5" cy="687.3" r="3.1"/>
				<path style="fill:#FCC683;" d="M660,687.3c0,1.4-1.1,2.5-2.5,2.5c-1.4,0-2.5-1.1-2.5-2.5s1.1-2.5,2.5-2.5
					C658.9,684.9,660,686,660,687.3z"/>
			</g>
			<path style="fill:#629B42;" d="M658.8,718.6c0-0.8,0.1-1.6,0.2-2.4c0.3-3.7,1-7.3,2-10.9c1-3.6,2.5-7,4.3-10.2l1.5-2.4
				c0.5-0.8,1.1-1.5,1.7-2.2l0.9-1.1c0.3-0.3,0.7-0.7,1-1l2-2l-2.1,1.9c-0.3,0.3-0.7,0.6-1.1,1l-0.9,1.1c-0.6,0.7-1.3,1.4-1.9,2.1
				l-1.7,2.3c-2.1,3.2-3.9,6.6-5.1,10.2c-1.3,3.6-2.2,7.3-2.9,11.1c-0.1,0.9-0.3,1.8-0.4,2.7H658.8z"/>
		</g>
		<g>
			<path style="fill:#5A8E3F;" d="M572,775c-0.3-17.7,0.6-26.6,0.6-26.7l-0.6-0.1c0,0.1-0.9,9-0.6,26.8H572z"/>
			<path style="fill:#5A8E3F;" d="M566.7,757.9c1.2,2.7,2,5.5,2.5,8.4c0.6,2.9,0.9,5.8,1.1,8.7h2.3c0-0.1,0-0.2,0-0.2
				c-0.4-3-1-5.9-1.9-8.8c-0.8-2.9-1.9-5.7-3.3-8.4c-1.5-2.6-3.4-5.1-6.1-6.4C563.9,752.8,565.5,755.3,566.7,757.9z"/>
			<g>
				<g>
					<g>
						<path style="fill:#F1F1F2;" d="M574.7,739.2c0,2.6-1.1,4.7-2.5,4.7c-1.4,0-2.5-2.1-2.5-4.7c0-2.6,1.1-4.7,2.5-4.7
							C573.5,734.5,574.7,736.6,574.7,739.2z"/>
						<path style="fill:#E6E7E8;" d="M572.1,734.5v9.4c1.4,0,2.5-2.1,2.5-4.7C574.7,736.6,573.5,734.5,572.1,734.5z"/>
					</g>
					<g>
						<path style="fill:#F1F1F2;" d="M569.6,748.3c0,2.6,1.1,4.7,2.5,4.7c1.4,0,2.5-2.1,2.5-4.7c0-2.6-1.1-4.7-2.5-4.7
							C570.7,743.6,569.6,745.7,569.6,748.3z"/>
						<path style="fill:#E6E7E8;" d="M572.1,743.6v9.4c-1.4,0-2.5-2.1-2.5-4.7C569.6,745.7,570.7,743.6,572.1,743.6z"/>
					</g>
					<g>
						<path style="fill:#F1F1F2;" d="M576.7,746.3c-2.6,0-4.7-1.1-4.7-2.5c0-1.4,2.1-2.5,4.7-2.5c2.6,0,4.7,1.1,4.7,2.5
							C581.4,745.2,579.3,746.3,576.7,746.3z"/>
						<path style="fill:#E6E7E8;" d="M581.4,743.8H572c0,1.4,2.1,2.5,4.7,2.5C579.3,746.3,581.4,745.2,581.4,743.8z"/>
					</g>
					<g>
						<path style="fill:#F1F1F2;" d="M567.5,741.2c-2.6,0-4.7,1.1-4.7,2.5c0,1.4,2.1,2.5,4.7,2.5c2.6,0,4.7-1.1,4.7-2.5
							C572.3,742.4,570.1,741.2,567.5,741.2z"/>
						<path style="fill:#E6E7E8;" d="M572.3,743.8h-9.4c0-1.4,2.1-2.5,4.7-2.5C570.1,741.2,572.3,742.4,572.3,743.8z"/>
					</g>
					<g>
						<path style="fill:#F1F1F2;" d="M577.1,742.3c-1.8,1.8-4.1,2.5-5.1,1.5c-1-1-0.3-3.3,1.5-5.1c1.8-1.8,4.1-2.5,5.1-1.5
							C579.7,738.2,579,740.5,577.1,742.3z"/>
						<path style="fill:#E6E7E8;" d="M578.7,737.2l-6.7,6.7c1,1,3.3,0.3,5.1-1.5C579,740.5,579.7,738.2,578.7,737.2z"/>
					</g>
					<g>
						<path style="fill:#F1F1F2;" d="M567.1,745.2c-1.8,1.8-2.5,4.1-1.5,5.1c1,1,3.3,0.3,5.1-1.5c1.8-1.8,2.5-4.1,1.5-5.1
							C571.2,742.7,568.9,743.4,567.1,745.2z"/>
						<path style="fill:#E6E7E8;" d="M572.2,743.7l-6.7,6.7c-1-1-0.3-3.3,1.5-5.1C568.9,743.4,571.2,742.7,572.2,743.7z"/>
					</g>
					<g>
						<path style="fill:#F1F1F2;" d="M573.5,748.8c-1.8-1.8-2.5-4.1-1.5-5.1c1-1,3.3-0.3,5.1,1.5c1.8,1.8,2.5,4.1,1.5,5.1
							C577.7,751.3,575.4,750.6,573.5,748.8z"/>
						<path style="fill:#E6E7E8;" d="M578.7,750.3l-6.7-6.7c-1,1-0.3,3.3,1.5,5.1C575.4,750.6,577.7,751.3,578.7,750.3z"/>
					</g>
					<g>
						<path style="fill:#F1F1F2;" d="M570.7,738.7c-1.8-1.8-4.1-2.5-5.1-1.5c-1,1-0.3,3.3,1.5,5.1c1.8,1.8,4.1,2.5,5.1,1.5
							C573.2,742.9,572.5,740.6,570.7,738.7z"/>
						<path style="fill:#E6E7E8;" d="M572.2,743.9l-6.7-6.7c1-1,3.3-0.3,5.1,1.5C572.5,740.6,573.2,742.9,572.2,743.9z"/>
					</g>
				</g>
				<path style="fill:#F9A83B;" d="M575.2,743.8c0,1.7-1.4,3.1-3.1,3.1c-1.7,0-3.1-1.4-3.1-3.1s1.4-3.1,3.1-3.1
					C573.8,740.7,575.2,742.1,575.2,743.8z"/>
				<path style="fill:#FCC683;" d="M574.6,743.8c0,1.4-1.1,2.5-2.5,2.5c-1.4,0-2.5-1.1-2.5-2.5s1.1-2.5,2.5-2.5
					C573.5,741.3,574.6,742.4,574.6,743.8z"/>
			</g>
			<path style="fill:#629B42;" d="M573.4,775c0-0.8,0.1-1.6,0.2-2.4c0.3-3.7,1-7.3,2-10.9c1-3.6,2.5-7,4.3-10.2l1.5-2.4
				c0.5-0.8,1.1-1.5,1.7-2.2l0.9-1.1c0.3-0.3,0.7-0.7,1-1l2-2l-2.1,1.9c-0.3,0.3-0.7,0.6-1.1,1l-0.9,1.1c-0.6,0.7-1.3,1.4-1.9,2.1
				l-1.7,2.3c-2.1,3.2-3.9,6.6-5.1,10.2c-1.3,3.6-2.2,7.3-2.9,11.1c-0.1,0.9-0.3,1.8-0.4,2.7H573.4z"/>
		</g>
		<g>
			<path style="fill:#5A8E3F;" d="M33.1,748.7c-0.3-17.7,0.6-26.6,0.6-26.7l-0.6-0.1c0,0.1-0.9,9-0.6,26.8H33.1z"/>
			<path style="fill:#5A8E3F;" d="M27.9,731.6c1.2,2.7,2,5.5,2.5,8.4c0.6,2.9,0.9,5.8,1.1,8.7h2.3c0-0.1,0-0.2,0-0.2
				c-0.4-3-1-5.9-1.9-8.8c-0.8-2.9-1.9-5.7-3.3-8.4c-1.5-2.6-3.4-5.1-6.1-6.4C25,726.5,26.7,729,27.9,731.6z"/>
			<g>
				<g>
					<g>
						<path style="fill:#F1F1F2;" d="M35.8,712.9c0,2.6-1.1,4.7-2.5,4.7c-1.4,0-2.5-2.1-2.5-4.7c0-2.6,1.1-4.7,2.5-4.7
							C34.6,708.2,35.8,710.3,35.8,712.9z"/>
						<path style="fill:#E6E7E8;" d="M33.2,708.2v9.4c1.4,0,2.5-2.1,2.5-4.7C35.8,710.3,34.6,708.2,33.2,708.2z"/>
					</g>
					<g>
						<path style="fill:#F1F1F2;" d="M30.7,722c0,2.6,1.1,4.7,2.5,4.7c1.4,0,2.5-2.1,2.5-4.7c0-2.6-1.1-4.7-2.5-4.7
							C31.8,717.3,30.7,719.4,30.7,722z"/>
						<path style="fill:#E6E7E8;" d="M33.2,717.3v9.4c-1.4,0-2.5-2.1-2.5-4.7C30.7,719.4,31.8,717.3,33.2,717.3z"/>
					</g>
					<g>
						<path style="fill:#F1F1F2;" d="M37.8,720c-2.6,0-4.7-1.1-4.7-2.5c0-1.4,2.1-2.5,4.7-2.5c2.6,0,4.7,1.1,4.7,2.5
							C42.5,718.9,40.4,720,37.8,720z"/>
						<path style="fill:#E6E7E8;" d="M42.5,717.5h-9.4c0,1.4,2.1,2.5,4.7,2.5C40.4,720,42.5,718.9,42.5,717.5z"/>
					</g>
					<g>
						<path style="fill:#F1F1F2;" d="M28.7,714.9c-2.6,0-4.7,1.1-4.7,2.5c0,1.4,2.1,2.5,4.7,2.5c2.6,0,4.7-1.1,4.7-2.5
							C33.4,716.1,31.3,714.9,28.7,714.9z"/>
						<path style="fill:#E6E7E8;" d="M33.4,717.5H24c0-1.4,2.1-2.5,4.7-2.5C31.3,714.9,33.4,716.1,33.4,717.5z"/>
					</g>
					<g>
						<path style="fill:#F1F1F2;" d="M38.3,716c-1.8,1.8-4.1,2.5-5.1,1.5c-1-1-0.3-3.3,1.5-5.1c1.8-1.8,4.1-2.5,5.1-1.5
							C40.8,711.9,40.1,714.2,38.3,716z"/>
						<path style="fill:#E6E7E8;" d="M39.8,710.9l-6.7,6.7c1,1,3.3,0.3,5.1-1.5C40.1,714.2,40.8,711.9,39.8,710.9z"/>
					</g>
					<g>
						<path style="fill:#F1F1F2;" d="M28.2,718.9c-1.8,1.8-2.5,4.1-1.5,5.1c1,1,3.3,0.3,5.1-1.5c1.8-1.8,2.5-4.1,1.5-5.1
							C32.3,716.4,30,717.1,28.2,718.9z"/>
						<path style="fill:#E6E7E8;" d="M33.3,717.4l-6.7,6.7c-1-1-0.3-3.3,1.5-5.1C30,717.1,32.3,716.4,33.3,717.4z"/>
					</g>
					<g>
						<path style="fill:#F1F1F2;" d="M34.7,722.5c-1.8-1.8-2.5-4.1-1.5-5.1c1-1,3.3-0.3,5.1,1.5c1.8,1.8,2.5,4.1,1.5,5.1
							C38.8,725,36.5,724.3,34.7,722.5z"/>
						<path style="fill:#E6E7E8;" d="M39.8,724l-6.7-6.7c-1,1-0.3,3.3,1.5,5.1C36.5,724.3,38.8,725,39.8,724z"/>
					</g>
					<g>
						<path style="fill:#F1F1F2;" d="M31.8,712.4c-1.8-1.8-4.1-2.5-5.1-1.5c-1,1-0.3,3.3,1.5,5.1c1.8,1.8,4.1,2.5,5.1,1.5
							C34.3,716.6,33.6,714.3,31.8,712.4z"/>
						<path style="fill:#E6E7E8;" d="M33.3,717.6l-6.7-6.7c1-1,3.3-0.3,5.1,1.5C33.6,714.3,34.3,716.6,33.3,717.6z"/>
					</g>
				</g>
				<path style="fill:#F9A83B;" d="M36.3,717.5c0,1.7-1.4,3.1-3.1,3.1c-1.7,0-3.1-1.4-3.1-3.1c0-1.7,1.4-3.1,3.1-3.1
					C34.9,714.4,36.3,715.8,36.3,717.5z"/>
				<path style="fill:#FCC683;" d="M35.7,717.5c0,1.4-1.1,2.5-2.5,2.5c-1.4,0-2.5-1.1-2.5-2.5c0-1.4,1.1-2.5,2.5-2.5
					C34.6,715,35.7,716.1,35.7,717.5z"/>
			</g>
			<path style="fill:#629B42;" d="M34.5,748.7c0-0.8,0.1-1.6,0.2-2.4c0.3-3.7,1-7.3,2-10.9c1-3.6,2.5-7,4.3-10.2l1.5-2.4
				c0.5-0.8,1.1-1.5,1.7-2.2l0.9-1.1c0.3-0.3,0.7-0.7,1-1l2-2l-2.1,1.9c-0.3,0.3-0.7,0.6-1.1,1l-0.9,1.1c-0.6,0.7-1.3,1.4-1.9,2.1
				l-1.7,2.3c-2.1,3.2-3.9,6.6-5.1,10.2c-1.3,3.6-2.2,7.3-2.9,11.1c-0.1,0.9-0.3,1.8-0.4,2.7H34.5z"/>
		</g>
		<g>
			<path style="fill:#5A8E3F;" d="M219.2,673.1c-0.1-9.6,0.3-14.4,0.3-14.4l-0.3,0c0,0-0.5,4.9-0.3,14.5H219.2z"/>
			<path style="fill:#5A8E3F;" d="M216.4,663.9c0.7,1.4,1.1,3,1.4,4.5c0.3,1.5,0.5,3.1,0.6,4.7h1.3c0,0,0-0.1,0-0.1
				c-0.2-1.6-0.6-3.2-1-4.8c-0.4-1.6-1-3.1-1.8-4.5c-0.8-1.4-1.9-2.7-3.3-3.5C214.8,661.1,215.7,662.5,216.4,663.9z"/>
			<g>
				<g>
					<g>
						<ellipse style="fill:#DC4F7A;" cx="219.3" cy="653.8" rx="1.4" ry="2.5"/>
						<path style="fill:#CF2257;" d="M219.3,651.2v5.1c0.8,0,1.4-1.1,1.4-2.5C220.7,652.4,220.1,651.2,219.3,651.2z"/>
					</g>
					<g>
						<path style="fill:#DC4F7A;" d="M217.9,658.7c0,1.4,0.6,2.5,1.4,2.5c0.8,0,1.4-1.1,1.4-2.5s-0.6-2.5-1.4-2.5
							C218.5,656.2,217.9,657.3,217.9,658.7z"/>
						<path style="fill:#CF2257;" d="M219.3,656.2v5.1c-0.8,0-1.4-1.1-1.4-2.5S218.5,656.2,219.3,656.2z"/>
					</g>
					<g>
						<ellipse style="fill:#DC4F7A;" cx="221.8" cy="656.3" rx="2.5" ry="1.4"/>
						<path style="fill:#CF2257;" d="M224.3,656.3h-5.1c0,0.8,1.1,1.4,2.5,1.4C223.2,657.6,224.3,657,224.3,656.3z"/>
					</g>
					<g>
						<ellipse style="fill:#DC4F7A;" cx="216.8" cy="656.3" rx="2.5" ry="1.4"/>
						<path style="fill:#CF2257;" d="M219.4,656.3h-5.1c0-0.8,1.1-1.4,2.5-1.4C218.2,654.9,219.4,655.5,219.4,656.3z"/>
					</g>
					<g>
						
							<ellipse transform="matrix(0.7071 -0.7071 0.7071 0.7071 -398.0668 348.0019)" style="fill:#DC4F7A;" cx="221" cy="654.5" rx="2.5" ry="1.4"/>
						<path style="fill:#CF2257;" d="M222.8,652.7l-3.6,3.6c0.5,0.5,1.8,0.2,2.8-0.8C223,654.5,223.4,653.2,222.8,652.7z"/>
					</g>
					<g>
						
							<ellipse transform="matrix(0.7071 -0.7071 0.7071 0.7071 -401.5521 346.5553)" style="fill:#DC4F7A;" cx="217.6" cy="658" rx="2.5" ry="1.4"/>
						<path style="fill:#CF2257;" d="M219.4,656.2l-3.6,3.6c-0.5-0.5-0.2-1.8,0.8-2.8C217.6,656,218.8,655.7,219.4,656.2z"/>
					</g>
					<g>
						
							<ellipse transform="matrix(0.7071 -0.7071 0.7071 0.7071 -400.5315 349.0218)" style="fill:#DC4F7A;" cx="221" cy="658" rx="1.4" ry="2.5"/>
						<path style="fill:#CF2257;" d="M222.8,659.8l-3.6-3.6c-0.5,0.5-0.2,1.8,0.8,2.8C221.1,660,222.3,660.3,222.8,659.8z"/>
					</g>
					<g>
						
							<ellipse transform="matrix(0.7071 -0.7071 0.7071 0.7071 -399.0873 345.5353)" style="fill:#DC4F7A;" cx="217.6" cy="654.5" rx="1.4" ry="2.5"/>
						<path style="fill:#CF2257;" d="M219.4,656.3l-3.6-3.6c0.5-0.5,1.8-0.2,2.8,0.8C219.5,654.5,219.9,655.8,219.4,656.3z"/>
					</g>
				</g>
				<circle style="fill:#F9A83B;" cx="219.3" cy="656.3" r="1.6"/>
				<circle style="fill:#FCC683;" cx="219.3" cy="656.3" r="1.3"/>
			</g>
			<path style="fill:#629B42;" d="M220,673.1c0-0.4,0.1-0.9,0.1-1.3c0.2-2,0.5-4,1.1-5.9c0.5-1.9,1.4-3.8,2.3-5.5l0.8-1.3
				c0.3-0.4,0.6-0.8,0.9-1.2l0.5-0.6c0.2-0.2,0.4-0.4,0.5-0.5l1.1-1.1l-1.1,1c-0.2,0.2-0.4,0.3-0.6,0.5l-0.5,0.6
				c-0.3,0.4-0.7,0.8-1,1.2l-0.9,1.2c-1.1,1.7-2.1,3.5-2.8,5.5c-0.7,1.9-1.2,4-1.5,6c-0.1,0.5-0.1,1-0.2,1.4H220z"/>
		</g>
		<g>
			<path style="fill:#5A8E3F;" d="M282,735.1c-0.3-17.7,0.6-26.6,0.6-26.7l-0.6-0.1c0,0.1-0.9,9-0.6,26.8H282z"/>
			<path style="fill:#5A8E3F;" d="M276.7,718c1.2,2.7,2,5.5,2.5,8.4c0.6,2.9,0.9,5.8,1.1,8.7h2.3c0-0.1,0-0.2,0-0.2
				c-0.4-3-1-5.9-1.9-8.8c-0.8-2.9-1.9-5.7-3.3-8.4c-1.5-2.6-3.4-5.1-6.1-6.4C273.8,712.9,275.5,715.4,276.7,718z"/>
			<g>
				<g>
					<g>
						<path style="fill:#F1F1F2;" d="M284.6,699.3c0,2.6-1.1,4.7-2.5,4.7c-1.4,0-2.5-2.1-2.5-4.7c0-2.6,1.1-4.7,2.5-4.7
							C283.5,694.6,284.6,696.7,284.6,699.3z"/>
						<path style="fill:#E6E7E8;" d="M282.1,694.6v9.4c1.4,0,2.5-2.1,2.5-4.7C284.6,696.7,283.5,694.6,282.1,694.6z"/>
					</g>
					<g>
						<path style="fill:#F1F1F2;" d="M279.5,708.4c0,2.6,1.1,4.7,2.5,4.7c1.4,0,2.5-2.1,2.5-4.7c0-2.6-1.1-4.7-2.5-4.7
							C280.7,703.7,279.5,705.8,279.5,708.4z"/>
						<path style="fill:#E6E7E8;" d="M282.1,703.7v9.4c-1.4,0-2.5-2.1-2.5-4.7C279.5,705.8,280.7,703.7,282.1,703.7z"/>
					</g>
					<g>
						<path style="fill:#F1F1F2;" d="M286.6,706.4c-2.6,0-4.7-1.1-4.7-2.5c0-1.4,2.1-2.5,4.7-2.5c2.6,0,4.7,1.1,4.7,2.5
							C291.3,705.3,289.2,706.4,286.6,706.4z"/>
						<path style="fill:#E6E7E8;" d="M291.3,703.9h-9.4c0,1.4,2.1,2.5,4.7,2.5C289.2,706.4,291.3,705.3,291.3,703.9z"/>
					</g>
					<g>
						<path style="fill:#F1F1F2;" d="M277.5,701.3c-2.6,0-4.7,1.1-4.7,2.5c0,1.4,2.1,2.5,4.7,2.5c2.6,0,4.7-1.1,4.7-2.5
							C282.2,702.5,280.1,701.3,277.5,701.3z"/>
						<path style="fill:#E6E7E8;" d="M282.2,703.9h-9.4c0-1.4,2.1-2.5,4.7-2.5C280.1,701.3,282.2,702.5,282.2,703.9z"/>
					</g>
					<g>
						<path style="fill:#F1F1F2;" d="M287.1,702.4c-1.8,1.8-4.1,2.5-5.1,1.5c-1-1-0.3-3.3,1.5-5.1c1.8-1.8,4.1-2.5,5.1-1.5
							C289.6,698.3,288.9,700.6,287.1,702.4z"/>
						<path style="fill:#E6E7E8;" d="M288.6,697.3L282,704c1,1,3.3,0.3,5.1-1.5C288.9,700.6,289.6,698.3,288.6,697.3z"/>
					</g>
					<g>
						<path style="fill:#F1F1F2;" d="M277,705.3c-1.8,1.8-2.5,4.1-1.5,5.1c1,1,3.3,0.3,5.1-1.5c1.8-1.8,2.5-4.1,1.5-5.1
							C281.2,702.8,278.9,703.4,277,705.3z"/>
						<path style="fill:#E6E7E8;" d="M282.2,703.8l-6.7,6.7c-1-1-0.3-3.3,1.5-5.1C278.9,703.4,281.2,702.8,282.2,703.8z"/>
					</g>
					<g>
						<path style="fill:#F1F1F2;" d="M283.5,708.9c-1.8-1.8-2.5-4.1-1.5-5.1c1-1,3.3-0.3,5.1,1.5c1.8,1.8,2.5,4.1,1.5,5.1
							C287.6,711.4,285.3,710.7,283.5,708.9z"/>
						<path style="fill:#E6E7E8;" d="M288.6,710.4l-6.7-6.7c-1,1-0.3,3.3,1.5,5.1C285.3,710.7,287.6,711.4,288.6,710.4z"/>
					</g>
					<g>
						<path style="fill:#F1F1F2;" d="M280.6,698.8c-1.8-1.8-4.1-2.5-5.1-1.5c-1,1-0.3,3.3,1.5,5.1c1.8,1.8,4.1,2.5,5.1,1.5
							C283.2,703,282.5,700.7,280.6,698.8z"/>
						<path style="fill:#E6E7E8;" d="M282.2,704l-6.7-6.7c1-1,3.3-0.3,5.1,1.5C282.5,700.7,283.2,703,282.2,704z"/>
					</g>
				</g>
				<path style="fill:#F9A83B;" d="M285.1,703.9c0,1.7-1.4,3.1-3.1,3.1c-1.7,0-3.1-1.4-3.1-3.1c0-1.7,1.4-3.1,3.1-3.1
					C283.7,700.8,285.1,702.2,285.1,703.9z"/>
				<path style="fill:#FCC683;" d="M284.5,703.9c0,1.4-1.1,2.5-2.5,2.5c-1.4,0-2.5-1.1-2.5-2.5s1.1-2.5,2.5-2.5
					C283.4,701.4,284.5,702.5,284.5,703.9z"/>
			</g>
			<path style="fill:#629B42;" d="M283.4,735.1c0-0.8,0.1-1.6,0.2-2.4c0.3-3.7,1-7.3,2-10.9c1-3.6,2.5-7,4.3-10.2l1.5-2.4
				c0.5-0.8,1.1-1.5,1.7-2.2l0.9-1.1c0.3-0.3,0.7-0.7,1-1l2-2l-2.1,1.9c-0.3,0.3-0.7,0.6-1.1,1l-0.9,1.1c-0.6,0.7-1.3,1.4-1.9,2.1
				l-1.7,2.3c-2.1,3.2-3.9,6.6-5.1,10.2c-1.3,3.6-2.2,7.3-2.9,11.1c-0.1,0.9-0.3,1.8-0.4,2.7H283.4z"/>
		</g>
		<g>
			<path style="fill:#5A8E3F;" d="M415.4,764.7c-0.3-17.7,0.6-26.6,0.6-26.7l-0.6-0.1c0,0.1-0.9,9-0.6,26.8H415.4z"/>
			<path style="fill:#5A8E3F;" d="M410.1,747.6c1.2,2.7,2,5.5,2.5,8.4c0.6,2.9,0.9,5.8,1.1,8.7h2.3c0-0.1,0-0.2,0-0.2
				c-0.4-3-1-5.9-1.9-8.8c-0.8-2.9-1.9-5.7-3.3-8.4c-1.5-2.6-3.4-5.1-6.1-6.4C407.2,742.5,408.9,745,410.1,747.6z"/>
			<g>
				<g>
					<g>
						<path style="fill:#DC4F7A;" d="M418,728.9c0,2.6-1.1,4.7-2.5,4.7s-2.5-2.1-2.5-4.7c0-2.6,1.1-4.7,2.5-4.7S418,726.3,418,728.9
							z"/>
						<path style="fill:#CF2257;" d="M415.5,724.2v9.4c1.4,0,2.5-2.1,2.5-4.7C418,726.3,416.9,724.2,415.5,724.2z"/>
					</g>
					<g>
						<path style="fill:#DC4F7A;" d="M412.9,738c0,2.6,1.1,4.7,2.5,4.7s2.5-2.1,2.5-4.7c0-2.6-1.1-4.7-2.5-4.7
							S412.9,735.4,412.9,738z"/>
						<path style="fill:#CF2257;" d="M415.5,733.3v9.4c-1.4,0-2.5-2.1-2.5-4.7C412.9,735.4,414.1,733.3,415.5,733.3z"/>
					</g>
					<g>
						<path style="fill:#DC4F7A;" d="M420.1,736c-2.6,0-4.7-1.1-4.7-2.5c0-1.4,2.1-2.5,4.7-2.5c2.6,0,4.7,1.1,4.7,2.5
							C424.8,734.9,422.7,736,420.1,736z"/>
						<path style="fill:#CF2257;" d="M424.8,733.5h-9.4c0,1.4,2.1,2.5,4.7,2.5C422.7,736,424.8,734.9,424.8,733.5z"/>
					</g>
					<g>
						<path style="fill:#DC4F7A;" d="M410.9,730.9c-2.6,0-4.7,1.1-4.7,2.5c0,1.4,2.1,2.5,4.7,2.5c2.6,0,4.7-1.1,4.7-2.5
							C415.6,732.1,413.5,730.9,410.9,730.9z"/>
						<path style="fill:#CF2257;" d="M415.6,733.5h-9.4c0-1.4,2.1-2.5,4.7-2.5C413.5,730.9,415.6,732.1,415.6,733.5z"/>
					</g>
					<g>
						<path style="fill:#DC4F7A;" d="M420.5,732c-1.8,1.8-4.1,2.5-5.1,1.5c-1-1-0.3-3.3,1.5-5.1c1.8-1.8,4.1-2.5,5.1-1.5
							C423,727.9,422.4,730.2,420.5,732z"/>
						<path style="fill:#CF2257;" d="M422,726.9l-6.7,6.7c1,1,3.3,0.3,5.1-1.5C422.4,730.2,423,727.9,422,726.9z"/>
					</g>
					<g>
						<path style="fill:#DC4F7A;" d="M410.5,734.9c-1.8,1.8-2.5,4.1-1.5,5.1c1,1,3.3,0.3,5.1-1.5c1.8-1.8,2.5-4.1,1.5-5.1
							C414.6,732.4,412.3,733.1,410.5,734.9z"/>
						<path style="fill:#CF2257;" d="M415.6,733.4l-6.7,6.7c-1-1-0.3-3.3,1.5-5.1C412.3,733.1,414.6,732.4,415.6,733.4z"/>
					</g>
					<g>
						<path style="fill:#DC4F7A;" d="M416.9,738.5c-1.8-1.8-2.5-4.1-1.5-5.1c1-1,3.3-0.3,5.1,1.5c1.8,1.8,2.5,4.1,1.5,5.1
							C421.1,741,418.8,740.3,416.9,738.5z"/>
						<path style="fill:#CF2257;" d="M422,740l-6.7-6.7c-1,1-0.3,3.3,1.5,5.1C418.8,740.3,421.1,741,422,740z"/>
					</g>
					<g>
						<path style="fill:#DC4F7A;" d="M414.1,728.4c-1.8-1.8-4.1-2.5-5.1-1.5c-1,1-0.3,3.3,1.5,5.1c1.8,1.8,4.1,2.5,5.1,1.5
							C416.6,732.6,415.9,730.3,414.1,728.4z"/>
						<path style="fill:#CF2257;" d="M415.6,733.6l-6.7-6.7c1-1,3.3-0.3,5.1,1.5C415.9,730.3,416.6,732.6,415.6,733.6z"/>
					</g>
				</g>
				<circle style="fill:#F9A83B;" cx="415.5" cy="733.5" r="3.1"/>
				<circle style="fill:#FCC683;" cx="415.5" cy="733.5" r="2.5"/>
			</g>
			<path style="fill:#629B42;" d="M416.8,764.7c0-0.8,0.1-1.6,0.2-2.4c0.3-3.7,1-7.3,2-10.9c1-3.6,2.5-7,4.3-10.2l1.5-2.4
				c0.5-0.8,1.1-1.5,1.7-2.2l0.9-1.1c0.3-0.3,0.6-0.7,1-1l2-2l-2.1,1.9c-0.3,0.3-0.7,0.6-1.1,1l-0.9,1.1c-0.6,0.7-1.3,1.4-1.9,2.1
				l-1.7,2.3c-2.1,3.2-3.9,6.6-5.1,10.2c-1.3,3.6-2.2,7.3-2.9,11.1c-0.1,0.9-0.3,1.8-0.4,2.7H416.8z"/>
		</g>
		<g>
			<g>
				<g>
					<g>
						<path style="fill:#82AE4A;" d="M470.8,511.1c-6,0-10.9-4.5-11.6-10.3c-2.3-0.7-4.7-1-7.2-1c-14.4,0-26.1,11.7-26.1,26.1
							s11.7,26.1,26.1,26.1c14.4,0,26.1-11.7,26.1-26.1c0-5.6-1.8-10.8-4.8-15.1C472.4,511,471.6,511.1,470.8,511.1z"/>
						<path style="fill:#9BC05A;" d="M455.7,500.1c-1.2-0.2-2.5-0.3-3.8-0.3c-14.4,0-26.1,11.7-26.1,26.1c0,0.9,0,1.8,0.1,2.7
							C428.9,507.6,443.7,502.2,455.7,500.1z"/>
					</g>
					<path style="fill:#789F3F;" d="M470.8,511.1c-0.4,0-0.8,0-1.2-0.1c1.7,3.5,2.7,7.5,2.7,11.6c0,14.4-11.7,26.1-26.1,26.1
						c-3.5,0-6.8-0.7-9.8-1.9c4.4,3.3,9.8,5.2,15.6,5.2c14.4,0,26.1-11.7,26.1-26.1c0-5.6-1.8-10.8-4.8-15.1
						C472.4,511,471.6,511.1,470.8,511.1z"/>
				</g>
				<g>
					<path style="fill:#75625E;" d="M450.4,525.2c0,0,0.6,19.5,1.9,19.9c1.3,0.4,5.3-9.2,5.3-9.2l1,1.8c0,0-4.9,9.8-5.6,14.3
						c-0.8,4.5,0,23.1,0,23.1h-4.4c0,0,1.2-19.4,1-24.7c-0.2-5.2-1.6-12.5-1.5-15.7c0.1-3.2-0.3-7.9-0.3-7.9L450.4,525.2z"/>
					<g>
						<path style="fill:#5F4C46;" d="M458.7,537.6l-0.3-0.6c-0.3,0.4-0.6,1-0.8,1.5c-0.6,1.2-2.7,5.7-3.8,8.1c-1.1,2.4-2.1,4.6-2,9
							c0.1,3.6,0,15.4-0.1,19.3h1.4c0,0-0.8-18.6,0-23.1C453.8,547.5,458.7,537.6,458.7,537.6z"/>
						<path style="fill:#5F4C46;" d="M452.1,545.6c0.2-0.2,0.5-0.4,0.6-0.7c-0.2,0.1-0.3,0.2-0.4,0.1c-1.3-0.4-1.9-19.9-1.9-19.9
							l-1.3,0.8C449.3,530.7,450.1,547.2,452.1,545.6z"/>
					</g>
				</g>
			</g>
			<path style="fill:#789F3F;" d="M455.9,505.4c0,0.7-0.5,1.2-1.2,1.2c-0.7,0-1.2-0.5-1.2-1.2c0-0.7,0.5-1.2,1.2-1.2
				C455.3,504.2,455.9,504.7,455.9,505.4z"/>
			<path style="fill:#789F3F;" d="M464.2,512.1c0,1.3-1,2.3-2.3,2.3c-1.3,0-2.3-1-2.3-2.3c0-1.3,1-2.3,2.3-2.3
				C463.2,509.7,464.2,510.8,464.2,512.1z"/>
			<path style="fill:#789F3F;" d="M446.8,512.3c0,2-1.6,3.6-3.6,3.6c-2,0-3.6-1.6-3.6-3.6c0-2,1.6-3.6,3.6-3.6
				C445.2,508.7,446.8,510.3,446.8,512.3z"/>
		</g>
		<g>
			<g>
				<path style="fill:#629B42;" d="M365.3,552.2c-1.2-5.6-6.2-9.8-12.1-9.8c-4.2,0-7.8,2.1-10.1,5.2c-4.1,0.7-7.2,4.3-7.2,8.6
					c0,4.8,3.9,8.7,8.7,8.7c0.5,0,0.9,0,1.3-0.1c2,1.5,4.5,2.3,7.3,2.3c2.3,0,4.4-0.6,6.2-1.7c1,0.5,2.1,0.8,3.3,0.8
					c4,0,7.3-3.3,7.3-7.3C370,555.9,368.1,553.3,365.3,552.2z"/>
				<path style="fill:#73AA4F;" d="M344.8,547.5c2.5-3.8,6.7-4.9,6.7-4.9c-3.5,0.5-6.5,2.4-8.4,5.1c-3.7,0.7-6.7,3.7-7.2,7.5
					c1.8-3.6,5.5-6.1,9.8-6.1c1.9,0,3.7,0.5,5.3,1.4C349.5,548.6,347.3,547.5,344.8,547.5z"/>
				<path style="fill:#5A8E3F;" d="M365.3,552.2c-1.1-5.3-5.6-9.3-11-9.8c8.7,2.5,9.6,10.7,9.6,10.7c2.5,0.9,4.2,3.1,3.9,5.7
					c-0.4,3.8-3.5,5.6-5.8,5.5c-1.1-0.1-2.1-0.3-3-0.7c-1.6,1-4.5,1.6-6.6,1.6c-2.4,0-4.6-0.7-6.5-2c0,0-0.1,0-0.4,0
					c-0.3,0-0.5,0.1-0.8,0.1c-0.1,0-0.3,0-0.4,0c-2.3-0.1-6.6-0.9-8.5-6.1c0.5,4.4,4.2,7.7,8.7,7.7c0.5,0,0.9,0,1.3-0.1
					c2,1.5,4.5,2.3,7.3,2.3c2.3,0,4.4-0.6,6.2-1.7c1,0.5,2.1,0.8,3.3,0.8c4,0,7.3-3.3,7.3-7.3C370,555.9,368.1,553.3,365.3,552.2z"
					/>
			</g>
			<g>
				<path style="fill:#75625E;" d="M352.6,554.3c-0.2-0.2-0.9-0.2-0.9-0.2c0.1,0.8,0.1,3,0.2,4.2c0,1.2,0.2,2.8-0.1,3.5
					c-0.3,0.8-1-0.3-1.2-0.7c-0.3-0.6-1.6-3.3-1.6-3.3l-0.6,0.4c0,0,1.5,3,1.8,3.7c0.3,0.7,0.3,0.6,0.7,1.4c0.3,0.8,0.6,2.9,0.8,4
					c0.1,1.1,0,2.3,0,2.3l-0.7-0.5l0,1.1l0.2,0.3c0.3,0.4,0.4,0.9,0.5,1.5c0,0.6,0,1.4,0,1.8c0,0.7,0,3.5,0,3.5h1.9
					c0,0,0.1-8.2,0.1-9.8c0-1.6,2.1-6,2.1-6l-0.8-0.3c0,0-1,3.3-1.5,3.5c-0.4,0.2-0.7-3.6-0.7-4.8S352.6,554.3,352.6,554.3z"/>
				<g>
					<path style="fill:#5F4C46;" d="M353.6,564.7c-0.4,0.2-0.7-3.6-0.7-4.8c0-1.2-0.3-5.6-0.3-5.6c-0.1-0.1-0.2-0.1-0.4-0.1
						c0.1,0.5,0.1,1.3,0.1,1.6c0,0.5,0.1,2.1,0.1,3c0,0.9,0,3.5,0.2,4.3c0.1,0.8,0.2,1.4,0.4,1.7
						C353.3,565.1,353.6,564.7,353.6,564.7z"/>
					<path style="fill:#5F4C46;" d="M351.8,561.8c-0.3,0.8-1-0.3-1.2-0.7c-0.3-0.6-1.6-3.3-1.6-3.3l-0.2,0.2c0.3,0.5,1,2.3,1.2,2.8
						c0.2,0.5,0.8,1.6,1.2,1.8c0.3,0.2,0.8-0.1,0.8-0.4c0-0.2,0.1-0.8,0-1.3C352,561.1,351.9,561.5,351.8,561.8z"/>
					<path style="fill:#5F4C46;" d="M355.5,561.3c-0.1,0.4-0.4,1-0.7,1.7c-0.4,0.9-1.1,1.9-1.3,2.7c-0.2,0.7-0.5,2.2-0.5,5.7
						c0,2.3,0.1,4.5,0.1,5.9h0.4c0,0,0.1-8.2,0.1-9.8c0-1.6,2.1-6,2.1-6L355.5,561.3z"/>
					<path style="fill:#5F4C46;" d="M351,569.4c0.2,0.3,0.7,0.8,0.7,0.3l-0.7-0.5L351,569.4z"/>
				</g>
			</g>
		</g>
		<path style="fill:#EED463;" d="M181.5,644.3c-10.1,2.2-20.1,4.6-30.1,7c-5.9,51-6.9,198.2,111.1,277.5h95.8
			c-15-8.6-30.4-17.8-46-27.8C180,816.5,176.8,689.7,181.5,644.3z"/>
		<path style="fill:#EED463;" d="M90.8,667.7c-2.1,0.6-4.1,1.2-6.1,1.8C61.8,739.7,48,870.2,47.1,928.8h8
			C53.5,849.2,79.3,713.6,90.8,667.7z"/>
		<g>
			<polygon style="fill:#C4E6E9;" points="698.4,37.9 0,76.3 0,2.7 698.4,2.7 			"/>
			<g>
				<polygon style="fill:#C4E6E9;" points="698.4,111.1 24.2,125.3 698.4,138.1 				"/>
				<polygon style="fill:#C4E6E9;" points="0,97.8 0,106.1 698.4,82 698.4,51.6 				"/>
			</g>
		</g>
	</g>
</g>
<g id="logo">
	<g>
		<g>
			<path style="fill:#3C9119;" d="M77.1,27.5l-5.4-1.8l-5.4,1.8c0,0-2.4,3.2-2.4,5.8c0,0-0.5-3.2,1-5.1c0,0-5.4,3.2-6.3,4.7
				c0,0,1.3-3.9,9.4-7.5c0,0-3-1.3-8.7-0.2c0,0-2.9,1-4.6,5.2c0,0-0.1-2.5,0.7-2.6c0,0-2.1,1.7-3,3.4c0,0,0.8-3.7,4.3-5.4
				c0,0-5.9,0.7-7.3,1.7c0,0-1.2,0.9-1.4,2.5c0,0-0.4-1.2,0.4-2c0,0-2.7,2.4-3.8,3.8c0,0,0.2-2.4,4.1-4.5c0,0-2,0.4-2.6-0.5
				c0,0,1.8,0.4,2.8,0c0,0,8.7-3.9,11.7-3.4c0,0-2.9-2.7-6.1-2.8c0,0,1.1-0.5,4.2,0.6c0,0-1.5-2.5-0.7-3.9c0,0-0.4,2,1.5,4
				c0,0,1.7,1.7,3.9,1.8c2.3,0.1,6.8-0.2,6.8-0.2s-3.7-5-10-5.8c0,0,4.5-0.7,8.6,2.4c0,0-0.7-4.4,0.8-4.6c0,0-1.7,1.5,0.6,5.1
				c0,0,2.9,3,2.9,3.2c0.1,0.1,3.2,0.9,3.7,0.8c0,0,0-3.9-4.5-8.5c0,0-3.4-3.1-7.2-3.3c-3.8-0.3-7.3,0.6-12,4.2s-9.8,10.2-10,10.9
				s-4.1,4.7-4.3,10c0,0,0.3,0.9,0.8,0.7c0.3-0.1,1.4-0.8,2.9-1.4c1.6-0.8,3.2-1.4,3.9-1.4c1.1,0,4.8-0.4,6.9,0.4
				c2.2,0.7,8.4,3.9,11,3.8c2.5-0.1,6.6,0.8,11.1-4.9C75.2,34.7,77.6,31.2,77.1,27.5z"/>
			<path style="fill:#3C9119;" d="M38.3,41l1.8,5.5l4.7,3.3c0,0,4,0.2,6.2-1.5c0,0-2.3,2.3-4.8,2.1c0,0,5.8,2.5,7.5,2.4
				c0,0-3.8,1.1-11.6-3.2c0,0,0.7,3.2,4.9,7.3c0,0,2.5,1.9,7,0.7c0,0-1.9,1.6-2.5,0.9c0,0,2.7,0.7,4.4,0.5c0,0-3.5,1.5-6.9-0.4
				c0,0,3.9,4.5,5.6,4.9c0,0,1.4,0.4,2.9-0.3c0,0-0.8,1-1.9,0.9c0,0,3.5,0.9,5.2,1c0,0-2.1,1.2-6.1-0.6c0,0,1.4,1.4,1.1,2.3
				c0,0-0.7-1.7-1.6-2.3c0,0-8.3-4.9-9.5-7.6c0,0-0.5,4,1.2,6.6c0,0-1-0.6-2-3.7c0,0-1.3,2.7-2.8,2.8c0,0,1.8-1,2.5-3.6
				c0,0,0.4-2.3-0.9-4.2c-1.2-1.9-4.1-5.5-4.1-5.5s-2,6,0.9,11.5c0,0-3.3-3.2-2.9-8.4c0,0-3.2,3.1-4.2,2c0,0,2.1,0.5,3.8-3.4
				c0,0,0.8-4.1,0.9-4.3c0.1-0.3-1.1-3.2-1.5-3.5c0,0-3.2,2.2-4.3,8.6c0,0-0.5,4.6,1.5,7.9c1.9,3.3,4.7,5.6,10.5,7.4
				c5.8,1.8,13.9,2.1,14.7,1.9c0.8-0.2,6.1,0.6,10.5-2.2c0,0,0.6-0.7,0.1-1.1c-0.2-0.2-1.5-0.8-2.9-1.5c-1.6-0.9-3-1.8-3.5-2.4
				c-0.7-1-3.1-3.7-3.7-5.9c-0.6-2.1-1.7-9-3.2-11.1c-1.6-2.1-3.2-5.9-10.4-6.3C45.2,38.5,41.1,38.4,38.3,41z"/>
			<path style="fill:#3C9119;" d="M70,63.8l4.2-4l1-5.6c0,0-1.6-3.8-3.9-5c0,0,3,1.1,4,3.4c0,0-0.1-6.2-1-7.8c0,0,2.7,3.1,2,11.9
				c0,0,2.6-2,4.4-7.5c0,0,0.6-3-2.3-6.6c0,0,2.2,1.2,1.9,1.9c0,0-0.5-2.7-1.5-4.2c0,0,2.8,2.5,2.7,6.4c0,0,2.4-5.5,2-7.2
				c0,0-0.3-1.4-1.5-2.5c0,0,1.2,0.2,1.5,1.3c0,0-0.7-3.5-1.4-5.2c0,0,1.9,1.4,1.9,5.8c0,0,0.6-1.9,1.7-2c0,0-1.2,1.4-1.3,2.4
				c0,0-0.9,9.5-2.9,11.8c0,0,3.8-1.1,5.5-3.9c0,0-0.1,1.1-2.5,3.3c0,0,2.9,0.1,3.7,1.3c0,0-1.6-1.2-4.2-0.7c0,0-2.2,0.7-3.4,2.6
				c-1.1,1.9-3.2,6.1-3.2,6.1s6.2-0.8,10-5.7c0,0-1.5,4.2-6.3,6.2c0,0,4.1,1.6,3.5,3c0,0-0.5-2-4.7-2.1c0,0-4.1,1-4.3,1
				c-0.2,0-2.5,2.2-2.6,2.9c0,0,3.3,1.8,9.6,0.3c0,0,4.4-1.5,6.5-4.6s3.1-6.7,2.3-12.6c-0.9-5.9-4.1-13.5-4.6-14.1
				c-0.6-0.6-2-5.9-6.5-8.6c0,0-0.9-0.2-1.1,0.3c-0.1,0.3-0.1,1.7-0.2,3.2c-0.2,1.8-0.3,3.5-0.6,4.1c-0.6,1-2.1,4.4-3.7,5.9
				s-7.5,5.3-8.7,7.7c-1.2,2.4-3.9,5.4-1.3,12C64.8,58.6,66.6,62.4,70,63.8z"/>
		</g>
		<path style="fill:#1F6622;" d="M13.6,88.1c0.1,0.3-0.1,0.6-0.4,0.7c0,0-0.1,0-0.2,0c0,0,0,0,0,0c-0.1,0-0.3,0-0.4-0.1
			c-0.1-0.1-0.2-0.2-0.3-0.3c-0.1-0.3-0.2-0.6-0.2-1.2c0-0.2,0-0.3-0.1-0.4c-0.1-0.1-0.2-0.2-0.3-0.3c-0.2-0.1-0.5-0.2-0.6-0.2H10
			v2.2c0,0.3-0.2,0.5-0.6,0.5s-0.5-0.3-0.5-0.5v-5.9c0-0.3,0.2-0.5,0.5-0.5c0,0,0,0,0,0h1.8c1.2,0,2.1,1,2.1,2.1
			c0,0.7-0.3,1.2-0.8,1.6c0.1,0.1,0.2,0.2,0.3,0.4c0.2,0.3,0.3,0.7,0.3,1.1c0,0.3,0,0.5,0,0.6C13.4,87.8,13.6,87.9,13.6,88.1z
			 M12.2,84.1c0-0.6-0.5-1-1-1H10v2.1h1.2C11.8,85.1,12.2,84.6,12.2,84.1z M14.7,86.4c0-1.4,1.1-2.5,2.4-2.5c1.3,0,2.3,1,2.4,2.3
			c0,0,0,0,0,0.1s0,0.1,0,0.1c0,0.2-0.2,0.4-0.5,0.4h-3.2c0,0.2,0.2,0.5,0.3,0.7c0.2,0.2,0.6,0.4,1,0.4c0.4,0,0.8-0.1,1-0.3
			c0.2-0.2,0.6-0.2,0.7,0c0.1,0.1,0.2,0.4,0,0.6c-0.5,0.4-1.1,0.7-1.8,0.7C15.8,88.9,14.7,87.8,14.7,86.4z M15.8,85.9h2.8
			c-0.1-0.4-0.6-1-1.5-1.1C16.3,84.9,15.9,85.5,15.8,85.9z M20.8,86.4c0-1.4,1.2-2.5,2.5-2.5c0.6,0,1.2,0.2,1.6,0.5
			c0.2,0.2,0.3,0.5,0.1,0.7c-0.2,0.2-0.5,0.3-0.7,0.1C24,85.1,23.7,85,23.3,85c-0.8,0-1.5,0.7-1.5,1.4s0.7,1.4,1.5,1.4
			c0.4,0,0.7-0.1,0.9-0.3c0.2-0.2,0.5-0.1,0.7,0.1c0.2,0.2,0.1,0.5-0.1,0.7c-0.4,0.3-1,0.5-1.6,0.5C21.9,88.9,20.8,87.8,20.8,86.4z
			 M30.6,84.4v2.4v1.4c0,1.3-1.1,2.4-2.4,2.4c-0.4,0-0.7-0.1-1-0.3c-0.3-0.1-0.4-0.4-0.3-0.7c0.1-0.2,0.5-0.4,0.7-0.2
			c0.2,0.1,0.4,0.1,0.6,0.1c0.6,0,1.1-0.4,1.2-0.9c-0.3,0.2-0.6,0.2-0.9,0.2c-1.1,0-2.1-0.9-2.1-2.1v-2.4c0-0.3,0.3-0.5,0.5-0.5
			c0.3,0,0.5,0.2,0.5,0.5v2.4c0,0.6,0.5,1,1,1c0.6,0,1-0.4,1-1v-2.4c0-0.3,0.2-0.5,0.5-0.5C30.3,83.9,30.6,84.1,30.6,84.4z M32,86.4
			c0-1.4,1.2-2.5,2.5-2.5c0.6,0,1.2,0.2,1.6,0.5c0.2,0.2,0.3,0.5,0.1,0.7c-0.2,0.2-0.5,0.3-0.7,0.1c-0.3-0.2-0.6-0.3-0.9-0.3
			c-0.8,0-1.5,0.7-1.5,1.4s0.7,1.4,1.5,1.4c0.4,0,0.7-0.1,0.9-0.3c0.2-0.2,0.5-0.1,0.7,0.1c0.2,0.2,0.1,0.5-0.1,0.7
			c-0.4,0.3-1,0.5-1.6,0.5C33.2,88.9,32,87.8,32,86.4z M38.7,81.9c0.3,0,0.6,0.3,0.6,0.5v5.9c0,0.3-0.3,0.5-0.6,0.5
			c-0.3,0-0.5-0.3-0.5-0.5v-5.9C38.2,82.2,38.4,81.9,38.7,81.9z M40.7,86.4c0-1.4,1.1-2.5,2.4-2.5c1.3,0,2.3,1,2.4,2.3
			c0,0,0,0,0,0.1s0,0.1,0,0.1c0,0.2-0.2,0.4-0.5,0.4h-3.2c0,0.2,0.2,0.5,0.3,0.7c0.2,0.2,0.6,0.4,1,0.4c0.4,0,0.8-0.1,1-0.3
			c0.2-0.2,0.6-0.2,0.7,0c0.1,0.1,0.2,0.4,0,0.6c-0.5,0.4-1.1,0.7-1.8,0.7C41.7,88.9,40.7,87.8,40.7,86.4z M41.8,85.9h2.8
			c-0.1-0.4-0.6-1-1.5-1.1C42.3,84.9,41.8,85.5,41.8,85.9z M59.4,82.7L57,88.6c0,0,0,0.1,0,0.1l0,0c0,0,0,0,0,0.1c0,0,0,0,0,0
			c0,0,0,0-0.1,0h0c0,0-0.1,0.1-0.1,0.1h0c0,0,0,0,0,0c0,0-0.1,0-0.1,0c0,0,0,0,0,0c0,0-0.1,0-0.1,0c0,0-0.1,0-0.1,0c0,0,0,0,0,0
			c0,0-0.1,0-0.1,0c0,0,0,0,0,0c0,0-0.1,0-0.1-0.1c0,0,0,0,0,0c0,0-0.1,0-0.1,0c0,0,0,0,0,0c0,0,0,0,0-0.1c0,0,0,0,0,0
			c0,0,0-0.1,0-0.1l-1.3-3.1l-1.3,3.1c0,0,0,0.1,0,0.1c0,0,0,0,0,0c0,0,0,0-0.1,0.1c0,0,0,0,0,0c0,0,0,0-0.1,0c0,0,0,0,0,0
			c0,0-0.1,0.1-0.1,0.1c0,0,0,0,0,0s0,0,0,0c0,0-0.1,0-0.1,0c0,0,0,0,0,0c0,0-0.1,0-0.1,0c0,0-0.1,0-0.1,0c0,0,0,0,0,0
			c0,0,0,0-0.1,0c0,0,0,0,0,0c0,0-0.1,0-0.1-0.1c0,0,0,0,0,0c0,0,0,0-0.1,0c0,0,0,0,0,0c0,0,0,0,0-0.1v0c0,0,0-0.1,0-0.1l-2.5-5.8
			c-0.1-0.3,0-0.6,0.3-0.7c0.3-0.1,0.6,0,0.7,0.3l2,4.6l1.3-3.1c0.1-0.2,0.3-0.3,0.5-0.3c0.2,0,0.4,0.1,0.5,0.3l1.3,3.1l1.9-4.6
			c0.1-0.3,0.4-0.4,0.7-0.3C59.4,82.1,59.6,82.5,59.4,82.7z M62.1,82.7c0,0.3-0.2,0.5-0.5,0.5c-0.3,0-0.5-0.3-0.5-0.5v-0.2
			c0-0.3,0.2-0.5,0.5-0.5c0.3,0,0.5,0.2,0.5,0.5V82.7z M62.1,84.5v3.9c0,0.3-0.2,0.5-0.5,0.5c-0.3,0-0.5-0.2-0.5-0.5v-3.9
			c0-0.3,0.2-0.5,0.5-0.5C61.8,83.9,62.1,84.1,62.1,84.5z M66,84.5c0,0.3-0.3,0.5-0.6,0.5h-0.3v2.8c0.3,0,0.5,0.3,0.5,0.6
			c0,0.3-0.2,0.5-0.5,0.5c-0.6,0-1.1-0.5-1.1-1.1V85h-0.3c-0.3,0-0.5-0.3-0.5-0.5c0-0.3,0.2-0.5,0.5-0.5h0.3v-1.4
			c0-0.3,0.3-0.5,0.6-0.5c0.3,0,0.5,0.2,0.5,0.5v1.4h0.3C65.8,83.9,66,84.1,66,84.5z M68.7,88.4c0,0.3-0.3,0.5-0.6,0.5
			c-0.2,0-0.5-0.2-0.5-0.4c0,0,0-0.1,0-0.1v-5.9c0-0.3,0.2-0.5,0.5-0.5c0.3,0,0.6,0.2,0.6,0.5v1.7c0.3-0.2,0.7-0.3,1.1-0.3
			c1.2,0,2.2,1,2.2,2.2v2.3c0,0.3-0.2,0.5-0.5,0.5c-0.3,0-0.5-0.2-0.5-0.5v-2.3c0-0.6-0.5-1.1-1.1-1.1c-0.6,0-1.1,0.5-1.1,1.1V88.4z
			 M76.8,88.4v-5.9c0-0.3,0.2-0.5,0.5-0.5c0.3,0,0.6,0.2,0.6,0.5v2.4h2.6v-2.4c0-0.3,0.2-0.5,0.5-0.5c0.3,0,0.6,0.2,0.6,0.5v5.9
			c0,0.3-0.3,0.5-0.6,0.5c-0.3,0-0.5-0.2-0.5-0.5V86h-2.6v2.4c0,0.3-0.3,0.5-0.6,0.5C77.1,88.9,76.8,88.7,76.8,88.4z M84.3,88.2
			c-0.4-0.4-0.7-1.1-0.7-1.8c0-0.7,0.3-1.3,0.7-1.7c0.4-0.5,1-0.8,1.7-0.8c0.7,0,1.3,0.3,1.7,0.8c0.4,0.5,0.7,1.1,0.7,1.7
			c0,0.7-0.3,1.3-0.7,1.8c-0.4,0.5-1,0.8-1.7,0.8C85.3,88.9,84.7,88.6,84.3,88.2z M84.7,86.4c0,0.4,0.1,0.8,0.4,1.1
			c0.2,0.2,0.6,0.4,1,0.4c0.3,0,0.7-0.1,0.9-0.4c0.3-0.3,0.4-0.6,0.4-1.1c0-0.4-0.1-0.8-0.4-1C86.7,85.2,86.3,85,86,85
			c-0.4,0-0.7,0.2-1,0.4C84.8,85.6,84.7,86,84.7,86.4z M96.1,84.7l-1.6,3.9c0,0,0,0,0,0.1c0,0,0,0,0,0c0,0,0,0,0,0.1c0,0,0,0,0,0
			c0,0,0,0-0.1,0.1c0,0,0,0,0,0c0,0-0.1,0-0.1,0c0,0,0,0,0,0c0,0,0,0-0.1,0c0,0,0,0,0,0c0,0-0.1,0-0.1,0c0,0-0.1,0-0.1,0
			c0,0,0,0,0,0c0,0,0,0-0.1,0c0,0,0,0,0,0c0,0,0,0,0,0c0,0-0.1,0-0.1-0.1c0,0,0,0,0,0c0,0,0,0-0.1-0.1c0,0,0,0,0,0c0,0,0,0,0-0.1
			c0,0,0,0,0,0c0,0,0-0.1,0-0.1l-0.7-1.7L92,88.6c0,0,0,0,0,0.1v0c0,0,0,0-0.1,0.1c0,0,0,0,0,0c0,0,0,0-0.1,0.1c0,0-0.1,0.1-0.1,0.1
			h0c0,0,0,0,0,0c0,0,0,0-0.1,0c0,0,0,0,0,0c0,0-0.1,0-0.1,0c0,0-0.1,0-0.1,0c0,0,0,0,0,0c0,0,0,0-0.1,0c0,0,0,0,0,0
			c0,0-0.1,0-0.1-0.1c0,0,0,0,0,0c0,0,0,0-0.1-0.1c0,0,0,0,0,0c0,0,0,0,0-0.1c0,0,0,0,0,0c0,0,0-0.1,0-0.1l-1.6-3.9
			c-0.1-0.3,0-0.6,0.3-0.7c0.2-0.1,0.5,0,0.7,0.3l1.2,2.7l0.7-1.7c0.1-0.2,0.3-0.3,0.5-0.3c0.2,0,0.4,0.1,0.5,0.3L94,87l1.2-2.7
			c0.1-0.3,0.4-0.4,0.7-0.3C96.1,84.1,96.2,84.4,96.1,84.7z M102.3,86.4v2c0,0.3-0.2,0.5-0.5,0.5c-0.3,0-0.5-0.2-0.5-0.4
			c-0.4,0.3-0.8,0.4-1.3,0.4c-0.7,0-1.3-0.3-1.7-0.7c-0.4-0.5-0.7-1.1-0.7-1.8c0-0.7,0.2-1.3,0.7-1.8c0.4-0.5,1-0.7,1.7-0.7
			c0.5,0,0.9,0.2,1.3,0.4c0.1-0.2,0.3-0.4,0.5-0.4c0.3,0,0.5,0.2,0.5,0.5V86.4z M101.2,86.4c0-0.4-0.1-0.8-0.4-1
			c-0.2-0.3-0.6-0.4-0.9-0.4c-0.4,0-0.7,0.1-0.9,0.4c-0.2,0.3-0.4,0.6-0.4,1c0,0.4,0.1,0.8,0.4,1c0.2,0.2,0.6,0.4,0.9,0.4
			c0.4,0,0.7-0.1,0.9-0.4C101.1,87.2,101.2,86.8,101.2,86.4z M107.3,84.4c0,0.3-0.2,0.5-0.5,0.5c-0.2,0-0.4,0.1-0.6,0.2
			c-0.2,0.1-0.3,0.3-0.5,0.5c-0.2,0.3-0.4,0.7-0.4,0.8v1.9c0,0.3-0.2,0.5-0.5,0.5c-0.3,0-0.5-0.2-0.5-0.5v-3.9
			c0-0.3,0.2-0.5,0.5-0.5c0.3,0,0.5,0.2,0.5,0.5v0.1c0.1-0.1,0.1-0.1,0.2-0.2c0.3-0.2,0.8-0.4,1.3-0.4
			C107.1,83.9,107.3,84.1,107.3,84.4z M112.9,88.4c0,0.3-0.2,0.5-0.5,0.5c-0.3,0-0.5-0.2-0.5-0.4c-0.4,0.3-0.9,0.4-1.4,0.4
			c-1.3,0-2.4-1.1-2.4-2.5c0-1.4,1.1-2.5,2.4-2.5c0.5,0,1,0.2,1.3,0.4v-1.9c0-0.3,0.2-0.5,0.5-0.5c0.3,0,0.5,0.3,0.5,0.5v4
			c0,0,0,0,0,0V88.4z M110.5,85c-0.4,0-0.7,0.1-0.9,0.4c-0.3,0.3-0.4,0.6-0.4,1c0,0.4,0.1,0.7,0.4,1c0.3,0.3,0.6,0.4,0.9,0.4
			c0.4,0,0.7-0.1,0.9-0.4c0.3-0.3,0.4-0.6,0.4-1c0-0.4-0.1-0.8-0.4-1C111.2,85.1,110.9,85,110.5,85z"/>
	</g>
</g>
</svg>
