<svg xmlns="http://www.w3.org/2000/svg" viewBox="0 0 59.5 72.6"><defs><style>.cls-1{fill:#010002;}.cls-2{fill:#440238;}.cls-3{fill:#abaaad;}</style></defs><title>jam</title><g id="Layer_2" data-name="Layer 2"><g id="jam"><rect class="cls-1" x="3.4" y="0.7" width="53.1" height="6.42"/><path class="cls-2" d="M8.5,8.6A13.1,13.1,0,0,0,1.6,22.2V60.3S2,71.1,12.6,71.9l33.9.3s9.4-.3,11.5-10.8V18.9A12.7,12.7,0,0,0,51.5,8.6Z"/><path class="cls-1" d="M59.3,47.5c0-5.7,0-11.4-.1-17.2,0-3.3.3-6.7.3-10.1a13.2,13.2,0,0,0-1.4-6.5,14.3,14.3,0,0,0-4.7-5.1h3.1l.5-.2h.1a.5.5,0,0,0,.2-.4V.8a.8.8,0,0,0-.8-.8H3.7a.7.7,0,0,0-.8.8V7.9a.7.7,0,0,0,.8.7H6.3A12.4,12.4,0,0,0,.9,15.5a22.2,22.2,0,0,0-.8,7.3c-.1,0-.1.2-.1.3V53.5a.8.8,0,0,0,.1.4,47.3,47.3,0,0,0,.1,6.5A15.4,15.4,0,0,0,3.3,68C7,72.5,13,72.6,18.4,72.6H41.7a34.2,34.2,0,0,0,7.8-.6A13.1,13.1,0,0,0,57,66.9a16.5,16.5,0,0,0,2.3-7.8c.2-2,0-4,0-6Zm-3.5-46V7.1H4.4V1.5H55.8ZM37.7,51.1v1.6H1.6c.1-3.4.1-6.9.1-10.3V23.8h36ZM57.8,40.9V53.5a47.9,47.9,0,0,1-.2,7.6,11.8,11.8,0,0,1-3.8,7.1c-4,3.5-9.8,2.9-14.8,2.9H21.6c-4.9,0-10.4.6-14.8-2S1.3,59.7,1.6,54.5v-.3H39a.8.8,0,0,0,.2-.5V23.1a.8.8,0,0,0-.7-.8H1.6a35.5,35.5,0,0,1,.3-4.6,12.4,12.4,0,0,1,1.9-4.8A12.8,12.8,0,0,1,8.5,9a.8.8,0,0,0,.4-.4H51.2c0,.2.1.3.3.4,3,2.1,5.6,4.6,6.2,8.3s0,7,0,10.4S57.7,36.5,57.8,40.9Z"/><polygon class="cls-3" points="1.7 23.8 37.7 23.8 37.7 52.7 1.6 52.7 1.7 23.8"/></g></g></svg>