<svg xmlns="http://www.w3.org/2000/svg" viewBox="0 0 104.07 78.47"><defs><style>.cls-1{fill:#3c9119;}.cls-2{fill:#1f6622;}</style></defs><title>logo</title><g id="Layer_2" data-name="Layer 2"><g id="logo"><path class="cls-1" d="M68.2,15.36,62.76,13.6l-5.35,1.84S55,18.66,55,21.29c0,0-.54-3.18,1-5.12,0,0-5.42,3.24-6.28,4.69,0,0,1.33-3.88,9.4-7.52,0,0-3-1.29-8.67-.16,0,0-2.94,1-4.64,5.21,0,0-.14-2.55.65-2.6a14.59,14.59,0,0,0-3,3.36,8.43,8.43,0,0,1,4.3-5.4s-5.91.68-7.28,1.75A4.22,4.22,0,0,0,39.14,18a2.18,2.18,0,0,1,.36-2s-2.66,2.42-3.78,3.77c0,0,.2-2.36,4.08-4.54,0,0-1.95.43-2.61-.48a6.6,6.6,0,0,0,2.81,0s8.69-3.87,11.65-3.37c0,0-2.94-2.69-6.09-2.85,0,0,1.08-.47,4.19.56,0,0-1.46-2.53-.69-3.89a5.07,5.07,0,0,0,1.47,4,6.69,6.69,0,0,0,3.95,1.77c2.27.11,6.85-.2,6.85-.2a16.2,16.2,0,0,0-10-5.83,11.84,11.84,0,0,1,8.56,2.43s-.66-4.41.84-4.6c0,0-1.65,1.49.63,5.11,0,0,2.92,3,2.91,3.22a14.75,14.75,0,0,0,3.73.79S68,8,63.53,3.38c0,0-3.45-3.06-7.21-3.33s-7.31.6-12,4.23-9.8,10.22-10,10.91-4.08,4.71-4.34,10c0,0,.31.89.84.74.27-.07,1.44-.8,2.88-1.43a11.65,11.65,0,0,1,3.92-1.39c1.14,0,4.84-.38,6.91.42s8.4,3.92,11,3.78,6.62.85,11.11-4.89C66.36,22.55,68.72,19.07,68.2,15.36Z"/><path class="cls-1" d="M29.48,28.9l1.84,5.53L36,37.72s4,.2,6.21-1.45c0,0-2.3,2.26-4.75,2.14,0,0,5.75,2.47,7.51,2.38,0,0-3.83,1.13-11.59-3.19,0,0,.72,3.19,4.9,7.25,0,0,2.54,1.88,7,.69,0,0-1.92,1.57-2.51.93a13.49,13.49,0,0,0,4.45.48,8.38,8.38,0,0,1-6.9-.42s3.9,4.49,5.63,4.92a4.39,4.39,0,0,0,2.91-.3A2.23,2.23,0,0,1,47,52a37.39,37.39,0,0,0,5.21.95s-2.08,1.22-6.11-.65c0,0,1.43,1.39,1.12,2.34a6.33,6.33,0,0,0-1.56-2.27s-8.27-4.88-9.54-7.57c0,0-.54,4,1.17,6.64,0,0-1-.58-2-3.7,0,0-1.27,2.66-2.77,2.85a5.67,5.67,0,0,0,2.45-3.56A6.18,6.18,0,0,0,34,42.89c-1.22-1.9-4.11-5.46-4.11-5.46A16.38,16.38,0,0,0,30.78,49a11.45,11.45,0,0,1-2.92-8.39s-3.22,3.09-4.22,2c0,0,2.09.45,3.77-3.41,0,0,.81-4.08.91-4.34a10.24,10.24,0,0,0-1.5-3.5s-3.17,2.22-4.27,8.56c0,0-.49,4.63,1.45,7.88s4.73,5.58,10.52,7.35S48.45,57.19,49.25,57s6.1.65,10.54-2.2c0,0,.56-.68.14-1.13-.16-.19-1.54-.78-2.9-1.55a15.4,15.4,0,0,1-3.48-2.36c-.74-1-3.06-3.75-3.66-5.88s-1.67-9-3.23-11.12-3.22-5.94-10.39-6.29A9.63,9.63,0,0,0,29.48,28.9Z"/><path class="cls-1" d="M61.17,51.67l4.23-4,1-5.57s-1.57-3.76-3.88-5c0,0,3,1.11,4,3.44,0,0-.14-6.24-1-7.77,0,0,2.66,3.11,2,11.93,0,0,2.56-2,4.4-7.5,0,0,.59-3-2.3-6.6,0,0,2.22,1.16,1.92,1.94a13.57,13.57,0,0,0-1.46-4.2,9,9,0,0,1,2.66,6.45s2.38-5.5,2-7.18a5.27,5.27,0,0,0-1.45-2.53,2,2,0,0,1,1.51,1.3,37.73,37.73,0,0,0-1.41-5.24s2,1.41,1.91,5.79c0,0,.62-1.9,1.68-2a6.81,6.81,0,0,0-1.35,2.39s-.9,9.51-2.85,11.79c0,0,3.82-1.13,5.53-3.86,0,0-.14,1.14-2.52,3.3,0,0,2.89,0,3.7,1.32a5.49,5.49,0,0,0-4.17-.73,6.62,6.62,0,0,0-3.37,2.56c-1.14,1.87-3.19,6.07-3.19,6.07a16.33,16.33,0,0,0,10-5.74,11.64,11.64,0,0,1-6.26,6.18s4.13,1.61,3.54,3c0,0-.52-2-4.73-2.07,0,0-4.08,1-4.26,1A11.06,11.06,0,0,0,64.35,53s3.33,1.83,9.63.3c0,0,4.37-1.45,6.54-4.59S83.65,42,82.8,36.06A51.83,51.83,0,0,0,78.23,22c-.59-.64-2-5.88-6.51-8.64,0,0-.87-.22-1.07.3-.1.25-.08,1.75-.24,3.23A18.28,18.28,0,0,1,69.77,21c-.58,1-2,4.37-3.71,5.87s-7.53,5.33-8.7,7.73-4,5.42-1.29,12A10.78,10.78,0,0,0,61.17,51.67Z"/><path class="cls-2" d="M4.77,75.94a.55.55,0,0,1-.35.7.88.88,0,0,1-.22,0h0a.73.73,0,0,1-.39-.11,1,1,0,0,1-.32-.35A2.69,2.69,0,0,1,3.27,75a.84.84,0,0,0-.12-.43.93.93,0,0,0-.3-.29,1.9,1.9,0,0,0-.56-.24H1.11v2.17a.56.56,0,0,1-.56.55A.55.55,0,0,1,0,76.22v-5.9a.53.53,0,0,1,.55-.54H2.34A2.13,2.13,0,0,1,3.7,73.56a1.55,1.55,0,0,1,.35.37A1.89,1.89,0,0,1,4.38,75a2.52,2.52,0,0,0,0,.59A.54.54,0,0,1,4.77,75.94Zm-1.4-4a1,1,0,0,0-1-1H1.11v2.06H2.34A1,1,0,0,0,3.37,71.92Zm2.46,2.35a2.48,2.48,0,0,1,2.44-2.5,2.39,2.39,0,0,1,2.41,2.32v0a.28.28,0,0,1,0,.09.48.48,0,0,1-.52.4H7a1.31,1.31,0,0,0,.34.66,1.55,1.55,0,0,0,1,.45,1.63,1.63,0,0,0,1-.25.57.57,0,0,1,.75,0,.46.46,0,0,1,0,.65,2.53,2.53,0,0,1-1.79.66A2.48,2.48,0,0,1,5.83,74.27Zm1.09-.49H9.75a1.63,1.63,0,0,0-1.48-1.06A1.4,1.4,0,0,0,6.92,73.78Zm5,.5a2.54,2.54,0,0,1,2.54-2.51,2.64,2.64,0,0,1,1.59.55.55.55,0,0,1,.11.74.53.53,0,0,1-.75.1,1.6,1.6,0,0,0-.95-.32,1.44,1.44,0,1,0,0,2.87,1.62,1.62,0,0,0,.95-.32.54.54,0,0,1,.75.11.55.55,0,0,1-.11.74,2.75,2.75,0,0,1-1.59.53A2.53,2.53,0,0,1,11.92,74.28Zm9.78-2v3.78a2.36,2.36,0,0,1-3.42,2.14.52.52,0,0,1-.26-.71.55.55,0,0,1,.71-.22,1.34,1.34,0,0,0,.58.14,1.32,1.32,0,0,0,1.25-.91,1.94,1.94,0,0,1-.95.24,2.1,2.1,0,0,1-2.09-2.1V72.3a.53.53,0,0,1,.52-.53.52.52,0,0,1,.53.53v2.36a1,1,0,0,0,2.07,0V72.3a.51.51,0,0,1,.52-.53A.54.54,0,0,1,21.7,72.3Zm1.46,2a2.54,2.54,0,0,1,2.54-2.51,2.64,2.64,0,0,1,1.59.55.55.55,0,0,1,.11.74.53.53,0,0,1-.75.1,1.6,1.6,0,0,0-.95-.32,1.44,1.44,0,1,0,0,2.87,1.62,1.62,0,0,0,.95-.32.54.54,0,0,1,.75.11.55.55,0,0,1-.11.74,2.75,2.75,0,0,1-1.59.53A2.53,2.53,0,0,1,23.16,74.28Zm6.68-4.5a.56.56,0,0,1,.56.54v5.9a.56.56,0,0,1-1.11,0v-5.9A.55.55,0,0,1,29.84,69.78Zm2,4.49a2.48,2.48,0,0,1,2.44-2.5,2.39,2.39,0,0,1,2.41,2.32v0a.28.28,0,0,1,0,.09.48.48,0,0,1-.52.4H33a1.31,1.31,0,0,0,.34.66,1.55,1.55,0,0,0,1,.45,1.63,1.63,0,0,0,1-.25.57.57,0,0,1,.75,0,.46.46,0,0,1,0,.65,2.53,2.53,0,0,1-1.79.66A2.48,2.48,0,0,1,31.81,74.27Zm1.09-.49h2.83a1.63,1.63,0,0,0-1.48-1.06A1.4,1.4,0,0,0,32.9,73.78ZM50.57,70.6l-2.44,5.83a.26.26,0,0,1-.05.09h0l0,.06s0,0,0,0l-.07,0h0s0,0-.09.06h0l-.08,0H47.5l-.07,0h0a.2.2,0,0,1-.09-.06h0l-.07,0,0,0,0-.06s0,0,0,0a.25.25,0,0,1,0-.09l-1.31-3.1-1.31,3.1,0,.09a0,0,0,0,0,0,0l-.06.06s0,0,0,0l-.06,0h0l-.08.06h0a.15.15,0,0,0-.08,0h-.25l-.07,0h0l-.09-.06h0s0,0-.07,0l0,0-.05-.06h0a.73.73,0,0,1,0-.09L41,70.6a.55.55,0,0,1,1-.42l2,4.63,1.29-3.07a.55.55,0,0,1,.52-.34.57.57,0,0,1,.52.34l1.29,3.07,2-4.63a.54.54,0,0,1,.72-.28A.53.53,0,0,1,50.57,70.6Zm2.64-.08a.54.54,0,0,1-.54.55.55.55,0,0,1-.54-.55v-.21a.53.53,0,0,1,.54-.53.52.52,0,0,1,.54.53Zm0,1.81v3.9a.53.53,0,0,1-.54.54.54.54,0,0,1-.54-.54v-3.9a.53.53,0,0,1,.54-.55A.53.53,0,0,1,53.21,72.33Zm4,0a.56.56,0,0,1-.56.55h-.25v2.79a.55.55,0,0,1,.55.56.54.54,0,0,1-.55.55,1.11,1.11,0,0,1-1.11-1.11V72.87H55a.55.55,0,0,1-.55-.55.54.54,0,0,1,.55-.55h.29V70.32a.54.54,0,0,1,.56-.54.53.53,0,0,1,.55.54v1.45h.25A.56.56,0,0,1,57.18,72.32Zm2.66,3.9a.55.55,0,0,1-.56.55.57.57,0,0,1-.53-.41.59.59,0,0,1,0-.14v-5.9a.56.56,0,0,1,1.11,0v1.74a2.28,2.28,0,0,1,1.07-.29A2.19,2.19,0,0,1,63.09,74v2.26a.55.55,0,0,1-1.1,0V74a1.08,1.08,0,1,0-2.15,0Zm8.13,0v-5.9a.53.53,0,0,1,.55-.54.54.54,0,0,1,.56.54v2.4h2.59v-2.4a.53.53,0,0,1,.55-.54.54.54,0,0,1,.56.54v5.9a.55.55,0,0,1-.56.55.54.54,0,0,1-.55-.55v-2.4H69.08v2.4a.55.55,0,0,1-.56.55A.54.54,0,0,1,68,76.22ZM75.41,76a2.5,2.5,0,0,1-.69-1.76,2.58,2.58,0,0,1,.69-1.75,2.34,2.34,0,0,1,1.72-.76,2.21,2.21,0,0,1,1.67.76,2.5,2.5,0,0,1,.7,1.75A2.42,2.42,0,0,1,78.8,76a2.21,2.21,0,0,1-1.67.76A2.34,2.34,0,0,1,75.41,76Zm.4-1.76a1.62,1.62,0,0,0,.36,1.06,1.35,1.35,0,0,0,1,.37,1.31,1.31,0,0,0,.92-.37,1.54,1.54,0,0,0,.39-1.06,1.5,1.5,0,0,0-.39-1,1.41,1.41,0,0,0-.92-.38,1.45,1.45,0,0,0-1,.38A1.58,1.58,0,0,0,75.81,74.28Zm11.42-1.71-1.65,3.88,0,.08a0,0,0,0,1,0,0l0,.06h0l-.06,0s0,0,0,0a.26.26,0,0,1-.09,0h0l-.08,0H85l-.07,0h0a.24.24,0,0,1-.09-.06h0s0,0-.06,0,0,0,0,0l0-.06a0,0,0,0,1,0,0l0-.08-.73-1.73-.71,1.73-.05.08h0l-.06.06a0,0,0,0,1,0,0l-.06.06-.09.06h0l-.06,0h-.25l-.06,0h0a.18.18,0,0,1-.09-.06s0,0,0,0l-.06,0h0l0-.06s0,0,0,0a.56.56,0,0,0-.05-.08l-1.64-3.88a.52.52,0,0,1,.29-.69.5.5,0,0,1,.66.3l1.18,2.69.7-1.67a.53.53,0,0,1,.49-.32.51.51,0,0,1,.49.32l.71,1.67,1.18-2.69a.5.5,0,0,1,.67-.3A.53.53,0,0,1,87.23,72.57Zm6.21,1.71v2a.53.53,0,0,1-.53.53.54.54,0,0,1-.52-.43,2.27,2.27,0,0,1-1.33.43,2.32,2.32,0,0,1-1.7-.73,2.56,2.56,0,0,1-.68-1.76,2.52,2.52,0,0,1,.68-1.76,2.3,2.3,0,0,1,1.7-.75,2.28,2.28,0,0,1,1.33.44.54.54,0,0,1,.52-.44.54.54,0,0,1,.53.54Zm-1.06,0a1.47,1.47,0,0,0-.39-1,1.24,1.24,0,0,0-.93-.41,1.21,1.21,0,0,0-.93.41,1.46,1.46,0,0,0-.38,1,1.5,1.5,0,0,0,.38,1,1.26,1.26,0,0,0,.93.39,1.29,1.29,0,0,0,.93-.39A1.51,1.51,0,0,0,92.38,74.28Zm6.1-2a.53.53,0,0,1-.53.53,1,1,0,0,0-.6.19,1.51,1.51,0,0,0-.46.48,3.07,3.07,0,0,0-.41.84v1.9a.54.54,0,0,1-.55.53.53.53,0,0,1-.53-.53V72.3a.52.52,0,0,1,.53-.52.54.54,0,0,1,.55.52v.07a1.31,1.31,0,0,1,.21-.2A2.19,2.19,0,0,1,98,71.78.52.52,0,0,1,98.48,72.3Zm5.59,3.93a.54.54,0,0,1-.54.54.54.54,0,0,1-.53-.43,2.44,2.44,0,0,1-1.36.43,2.5,2.5,0,0,1,0-5,2.37,2.37,0,0,1,1.34.42V70.31a.55.55,0,0,1,1.09,0v4h0Zm-2.43-3.37a1.29,1.29,0,0,0-.94.41,1.45,1.45,0,0,0,0,2,1.29,1.29,0,0,0,.94.41,1.28,1.28,0,0,0,.94-.41,1.45,1.45,0,0,0,0-2A1.28,1.28,0,0,0,101.64,72.86Z"/></g></g></svg>