<svg xmlns="http://www.w3.org/2000/svg" viewBox="0 0 39.2 44.2"><defs><style>.cls-1,.cls-12,.cls-13,.cls-17,.cls-19,.cls-22,.cls-31,.cls-47,.cls-7{fill:#fff;}.cls-2,.cls-3,.cls-4,.cls-5{fill:#929292;}.cls-2,.cls-72,.cls-73{fill-opacity:0.41;}.cls-3{fill-opacity:0.13;}.cls-4{fill-opacity:0.3;}.cls-5{fill-opacity:0.63;}.cls-6{fill:#bc7a7a;}.cls-10,.cls-6{fill-opacity:0.12;}.cls-7,.cls-8{opacity:0.65;}.cls-10,.cls-11,.cls-8,.cls-9{fill:#413a3a;}.cls-39,.cls-9{opacity:0.33;}.cls-11{fill-opacity:0.54;}.cls-12{fill-opacity:0.65;}.cls-13,.cls-14{opacity:0.17;}.cls-14{fill:#676767;}.cls-15,.cls-55{fill:#fffcfc;}.cls-15,.cls-16,.cls-17{fill-opacity:0.9;}.cls-16{fill:#767676;}.cls-18{fill:#9e9e9e;fill-opacity:0.38;}.cls-19{fill-opacity:0.83;}.cls-20{fill:#9f9c9c;}.cls-20,.cls-21,.cls-33,.cls-34{fill-opacity:0.51;}.cls-21{fill:#dedbdb;}.cls-22,.cls-23,.cls-24,.cls-54,.cls-55,.cls-56,.cls-57,.cls-58,.cls-59{fill-opacity:0.55;}.cls-23{fill:#7c7c7c;}.cls-24,.cls-25,.cls-29,.cls-30{fill:#b9b2b2;}.cls-25,.cls-71{fill-opacity:0.22;}.cls-26{fill:#170909;fill-opacity:0.48;}.cls-27,.cls-67,.cls-68{fill:#959595;}.cls-27{fill-opacity:0.67;}.cls-28{fill:#cecece;fill-opacity:0.58;}.cls-29{fill-opacity:0.7;}.cls-30{fill-opacity:0.19;}.cls-31{fill-opacity:0.79;}.cls-32,.cls-33{fill:#191919;}.cls-32{fill-opacity:0.85;}.cls-34{fill:#cbcbcb;}.cls-35{fill:#d0c5c5;}.cls-35,.cls-37{fill-opacity:0.57;}.cls-36{fill:none;stroke:#000;stroke-width:0.29px;}.cls-37{fill:#837c7c;}.cls-38,.cls-39{fill:#ab9090;}.cls-38,.cls-40,.cls-41,.cls-42,.cls-43{fill-opacity:0.33;}.cls-40{fill:#5e5e5e;}.cls-41{fill:#595252;}.cls-42{fill:#8f8888;}.cls-43,.cls-44,.cls-45,.cls-46{fill:#3b3434;}.cls-44{fill-opacity:0.69;}.cls-45{fill-opacity:0.28;}.cls-46{fill-opacity:0.43;}.cls-47{fill-opacity:0.77;}.cls-48{fill:#cfbaba;fill-opacity:0.38;}.cls-49,.cls-50{fill:#fff5f5;}.cls-49{fill-opacity:0.32;}.cls-50{fill-opacity:0.81;}.cls-51,.cls-52,.cls-53,.cls-54{fill:#936c6c;}.cls-51{fill-opacity:0.57;}.cls-52{fill-opacity:0.21;}.cls-53{fill-opacity:0.31;}.cls-56{fill:#434343;}.cls-57{fill:#ae9999;}.cls-58{fill:#dadada;}.cls-59{fill:#e3caca;}.cls-60{fill:#8f8282;opacity:0.43;}.cls-61{fill:#c8afaf;}.cls-61,.cls-62,.cls-63{fill-opacity:0.24;}.cls-63,.cls-64,.cls-68,.cls-69,.cls-73{opacity:0.97;isolation:isolate;}.cls-65{fill:#948383;}.cls-65,.cls-66,.cls-67,.cls-68{fill-opacity:0.68;}.cls-66{fill:#fee;}.cls-69{fill-opacity:0.47;}.cls-70{fill:#6d6d6d;fill-opacity:0.62;}.cls-74{fill:#b79c9c;}.cls-74,.cls-75,.cls-76{fill-opacity:0.5;}.cls-75{fill:#fff8f8;}.cls-76{fill:#9b8282;}.cls-77{fill:#a49d9d;}.cls-77,.cls-78{fill-opacity:0.85;}.cls-78{fill:#796e6e;}.cls-79{fill:#c0abab;opacity:0.89;}</style></defs><title>paper</title><g id="Layer_2" data-name="Layer 2"><g id="paper"><g id="g4790"><g id="g4525"><g id="g4277"><path id="path2830" class="cls-1" d="M7.3,37.2a18.3,18.3,0,0,1-2.4-3.1L3,31.7c-.4-.7-.9-1.7-1.2-2.4s-.3-.1-.4-.3a19.9,19.9,0,0,1-.8-2.3c-.1-.2,0-.9-.1-1.1l-.3-.2a25.4,25.4,0,0,1-.1-3.9c.3-1.1.6-2.1,1-3.2a21.2,21.2,0,0,1,.2-2.4c.2-.6-.2-1.3-.4-1.8V11.6H2.3a.9.9,0,0,1,.3.5c0,1.1,1.4,2.7,2.8,2.2s.4-.6.7-.7h.2c.1,0,0-.1,0-.2l.6-.3c.1,0,0-.2,0-.2l.5-.4c.1-.1.1-.5.2-.6s.4-.5.5-.5-.1-.2,0-.3h.1A10.9,10.9,0,0,0,8.8,10c.1-.3.4-.4.6-.5a5.4,5.4,0,0,0,.9-1.2l.9-.8.8-.9c0-.1-.1-.2,0-.3a9.5,9.5,0,0,1,1.5-2c.5-.6,1.3-1,1.8-1.5s.2-.4.4-.5L18.3.8A10.3,10.3,0,0,1,19.7.4L20,.1h2.6l.8.8c.1,0,0,.1-.1.1s-.1-.2-.1-.1a.6.6,0,0,0,.1.7c.3.4.9.6,1.2.9l.7.9.9.5c.3.2.6.9.8,1s.8.8,1.3,1.1l.6.3c.1.1.3.2.4.4s-.1.2,0,.2.1,0,.2,0v.4l1.1,1.5c.1.2,0,.6.1.8s.6.8.8,1.2.5.3.6.5,0,.4.1.5l.3.3a4.5,4.5,0,0,0,.3,1.1v.4l.5-.4a4.1,4.1,0,0,1,1.7-.7c.4,0,.3-.2.6-.2h.5c-.3.4-.7.7-.8,1.2s-.7,3.1-.4,3.6.1,0,.1.3.1,0,.3.5a2.8,2.8,0,0,0,.1.9h.1c.1.1,0,.7.1.9s.1.1.1.2h0c.4.4,1.1.4,1.6.6l.4.4H38c0,.1-.1.2,0,.3a.1.1,0,0,1,.2,0c.5.5.8.3.8,1.4s.1.4,0,.5a13.1,13.1,0,0,1-2,2.1,3.6,3.6,0,0,0-.4.9.4.4,0,0,1-.4.2,6,6,0,0,0-.6,1.1c0,.1-.3.1-.3.2s-.1.6-.1.8-.3.9-.5,1.1h-.1a.1.1,0,0,0,0,.2l-.4.3a20,20,0,0,0-.3,3c-.2.2-.2.7-.4,1s-.2.1-.2.2,0,.5-.1.7a.5.5,0,0,0-.3.3c0,.1,0,.5-.1.6s-.4,1.2-.8,1.6a1.7,1.7,0,0,0-.1.7l-.6.8-.4.2-1,.7-.7.3-.6.5c-.1,0-.2-.1-.2,0s.3,0-.2.2-.4.1-.4.2-.1.2-.1.2-.3,0-.4,0l-.2.3c-.2,0-.4-.1-.5,0l-1.3.3c0,.1-.1.1-.1.2H25c-.5.2-.7,0-1.1.3s-1.2-.2-1.6,0l-1,.2a19.2,19.2,0,0,0-2.4,0l-.7.3c-.3,0-.7-.2-1,0s-.7,0-1.1.1a4.4,4.4,0,0,1-3-.3h-.8c-1.4,0-2,.3-2.8-.6s-.3-1.3-.4-1.4-.4-.3-.4-.5a.1.1,0,0,1,0-.2c-.1-.1-.2,0-.3,0s.1-.3,0-.4-.1-.2-.2-.3-.1-.7-.2-.9-.5-.3-.6-.6.3-1.1-.3-1.1"/><path id="path3604" class="cls-2" d="M19.1,17.7c.4.4.4.8.7,1.4v.3c.1.2.2.3.2.4s.1,1.2.5,1.7-.1.4,0,.5.4,1.2.7,1.8h.1c.1.1.1.1.1.2a13.8,13.8,0,0,0,.6,1.6c.3.3,1.2.6,1.3.9s0,.3,0,.5a3,3,0,0,0,.4.8c.1.2,0,.6.1.8a13.8,13.8,0,0,0,.8,1.7c.2.2,0-.4.2.1s.1.6.3.8h.1c.1.2,0,.6.1.8s.2.1.2.2.2,1.1.3,1.2a1.9,1.9,0,0,1,.3.8c0,.3.2,0,.3.1s-.1.3,0,.4.5-.2.5-.3h.6c.5-.3-.1,0,.2-.2s.2,0,.3,0,1.2-.3,2-.3.5-.4.3-.6-.8-.2-1-.4a1.6,1.6,0,0,1-.4-1.4c.1-.2,1.5-.3,1.6-.4s.2-.6.1-.9-.4-.2-.5-.5a.1.1,0,0,0,0-.2l-.5-.5c0-.1,0-.5-.1-.5l-.9-1c-.1-.1-.4-1.3-.5-1.4a3.3,3.3,0,0,1-.6-.6c0-.1.1-.2,0-.3s-.2,0-.2-.1v-.3c-.1-.3-.3-.4-.5-.7s0-.5-.1-.7-.2-.1-.2-.2a2.2,2.2,0,0,1-.1-.8c-.3-.3,0,.7-.3-.2a3,3,0,0,0-.2-1c0-.1-.1,0-.1,0s0-.4,0-.5-.8-2.8-1.1-2.9-1.4.2-2,0a6.4,6.4,0,0,1-1.4-.8c-.2-.2-2,.2-2.2.8Z"/><path id="path3606" class="cls-2" d="M32.5,14.8c-.4.2-.8,1.6-1.1,1.7s-.9.7-.9.5h.1c0,.2-.2.1-.1.3l.2.2c.1.2,0,.5.1.7h.1a12.6,12.6,0,0,1,.3,3c0,.3-.1.2-.3.4s.2.9,0,1.1-1.7-.1-1.4.5.2.1.4.1,2.9,0,3.5.3.3,1.7.6,2,1.6-.7,1.7-.9l.9-1c.2-.2.1-.6.3-.9a1.7,1.7,0,0,0,.1-1l-.8-.5c-.1,0,.1-.2,0-.2l-.3-.4c-.1-.1-.5-.2-.6-.4a1.5,1.5,0,0,0-.3-.6c-.2-.2.2-1,.2-1.1s.6-1.6.3-1.9-.2-.1-.2-.2-.1-1.8-.1-2.1a8.5,8.5,0,0,0,0-1.6A8.2,8.2,0,0,0,33,13s.1.1,0,.1-.9-.2-.9.2"/><path id="path3608" class="cls-3" d="M17,3c-1,.5-1.4,2-2.2,2.7a31.9,31.9,0,0,0-2.6,2.6c-.1.1-.1.4-.1.4s-.7,1-1.1,1.4.1.3,0,.4l-.7.9c-.2.3-1.2,1.9-.9,2.1s1,0,1.3.1,0,.2.1.3H11l.6.6a7.1,7.1,0,0,1,.5,2.9,3.6,3.6,0,0,0-.4.9,8.4,8.4,0,0,1-1.5,2.6c-.1.3-.4.4-.5.7s.1.2,0,.2-.3.4-.4.8-.5.8-.3,1,1.5-1.8,1.7-2,0-.6.2-.8.2,0,.2-.1,0-.3,0-.4a7.8,7.8,0,0,1,2.3-2.1c.6-.4.9.8,1,1.2s.2.3.2.4-.1,1.2,0,1.7a1.9,1.9,0,0,1,.2.8V23c0-.7-.1.2.2-.5v-.4c0-.2.3-.5.3-.6s0-.3,0-.4.3-.5.4-.8a9.6,9.6,0,0,0,0-2.4c-.2-.9-.9-3.7-.5-4.6s0-.2,0-.3a4.2,4.2,0,0,1,1.7-1.1l.7-.2h.3l1-.4c.6-.5.4-.8.8-1.4l.7-.9V8.6a.7.7,0,0,1,.3-.4c.1,0,.2-.7.3-.7s0,.1.2-.2V7a2,2,0,0,0,.6-.9c.3-.7-1.1-1.6-1.5-1.8s-.7-1-.8-1.3.1-.6,0-.7-1.9.5-2.6.7Z"/><path id="path3610" class="cls-4" d="M17.9,27.6A17.5,17.5,0,0,1,16.8,30c-.1.2-.1.4-.2.5s-.2.2-.3.3-.3.8-.5,1.1a18.4,18.4,0,0,0-1.2,1.8,3.6,3.6,0,0,1-.2,1c-.1.2.1.9,0,1h-.3l-1.7.4c-.1,0-.8-.1-.8,0s0,.6,0,.9v1.5c0,.1-.1.8-.1.6h.1c0,.2-.3.1-.4.1s-.5.7-.9.8-.2-.1-.2,0-.3.7-.3.9v.3c.5.5,2.4.8,3.2,1.2s.4-.1.5,0,1.5.2,1.7.5.9-.1,1.1,0h0c.1.1.6,0,.7,0s2.7.4,3.2.1a19.9,19.9,0,0,0,2.3-.8H23a.4.4,0,0,1,.1-.3s1.3-.1,1.4-.3a.3.3,0,0,1,.1-.2.1.1,0,0,1,.2,0,3.6,3.6,0,0,0,1.2-.8h.2c.2-.1.3-.3.5-.5l1-.2c.2,0,.2.4.3.1s-.4-1.4-.6-1.6.1-.2,0-.3h-.8a2.7,2.7,0,0,1-1.4-1.4,21.9,21.9,0,0,1-.1-3.7,3.3,3.3,0,0,0-.3-.6c-.2-.5.2-1.4-.1-1.9s-.2-.9-.4-1.4,0-.3,0-.3-.2-.5-.4-.8l-.7-.9c-.1,0,.1-.2,0-.2s-.2-.4-.4-.5h-.2c-.2-.3.4,0-.1-.3a5.3,5.3,0,0,0-1.8-.1,22.9,22.9,0,0,0-2.8,1.6Z"/><path id="path3612" class="cls-5" d="M4.8,16.2c.4-.1.4.3.5.5h.2c.2.1,1.6,1.1,2,.8s.4-.5.5-.6.2.1.2,0-.1-.3,0-.4a10.9,10.9,0,0,0,1.1-1c0-.1-.2,0,.1-.4l.4-.2c.2-.2.1-.3.3-.4s.5-.2.6-.4.1-.3.2-.2v.6c-.1.1-.3.1-.4.3a3.6,3.6,0,0,1-.4.9c-.2.2-.5.2-.6.5l-.7,1.1a12.2,12.2,0,0,0-1.2,1.9c0,.1.1.3,0,.4s-.2.1-.2.2,0,.6-.1.8-.2.1-.3.2,0,.6-.1.8l-.3.2c-.1.1,0,.2,0,.3s-.7.8-.9,1.2.1.2,0,.3H5.5c-.2.2-.1.7-.3.9s-.1.5-.2.6a3.6,3.6,0,0,1-.5.9c-.1.1,0,.3,0,.4s-.2,1.4.2,2.3a2.1,2.1,0,0,0,.6,1l1,1.7c.2.2.2.4.4.5s.2.2.1.2V32c-.1-.1-.2-.2-.2-.3l-1-1c-.4-.5-.7-1.5-.9-1.7S3.6,28,3,27.4s-.1-.5-.2-.5H2.6L1.3,25.5c-.3-.3-.2-.9-.4-1.3s.2-.8.4-1-.1-.3,0-.4l.5-.6c.3-.3,1.8.3,1.8.1a16.8,16.8,0,0,0,.7-2.4c.1-.2-.1-.6,0-.8s.9-2.7.6-2.9Z"/><path id="path3616" class="cls-6" d="M0,14.8c.2,1.4-.2,3.3.4,4.5s-.1.6,0,.8l.3.8c.4.8-.4,3.6-.1,4.6a10.5,10.5,0,0,0,.8,2.3l.4.3A21.8,21.8,0,0,0,2.3,31c.1.1.2,0,.3,0s0,.3.1.4l.5.5c.3.4.8.5,1.1.9l.3.5c.2.3.9.8,1.1,1.1s.1.3.2.4.1.1.2.1.1.7.3.9h.3c.1.2.2,1,.3,1.2a9.4,9.4,0,0,0,.9,1.2c.1.4.9.6,1.1.8s.3.5.5.6h.2c.1.1,0,.2,0,.3l1.1,1.1c.2.3,1.2.6,1.6.8s0,.1.1.2.7.1.9.3-.1.1,0,.1,5,0,5.7,0a6.7,6.7,0,0,0,2-.1l.6-.3a6.2,6.2,0,0,0,1.9-.2c0-.1.2,0,.3,0l1.2-.5c.2-.1.3-.3.6-.4h.2l.3-.4h.6c.1-.1.1-.3.3-.4a2,2,0,0,0,.9-.6h.5c0-.1-.1-.2,0-.3s.1,0,.2,0,1.5-1,1.6-1.4a.1.1,0,0,0,0-.2l.5-.5a2.4,2.4,0,0,0,.2-.8c.1-.1.5-.6.4-.8s-.2.1-.2,0a6.1,6.1,0,0,1,.3-1.3c1-1.1,1.5-2.4,2.5-3.4s.4-.9.7-1.2-.1-.2,0-.2l.8-1.2c.1-.1.1-.4.1-.5h.3c.1-.1.1-.7.2-.9s.3-.1.3-.2.2-.6.4-.8,1.7-1.4,2-2.1.6-.9.3-1.4-1.5-1.1-1.8-1.4h-.4c-.3-.3-.8-.3-1.2-.7s-.1-.5-.2-.7h-.2c-.1-.1-.1-.4-.1-.5a.1.1,0,0,1,0-.2c0-.5-.3-1.6,0-2.1l.3-1c.2-.4-.1-1,.1-1.4l.3-.2c.1-.1,0-.6.1-.6s.2-.3.1-.3H34.6c-1,.3-1.6.9-2.4,0l-1-.4a3.1,3.1,0,0,1-.5-2c0-.1.1-.7,0-.7s-.3-.8-.5-1.2,0,.2-.2-.1a.4.4,0,0,1-.1-.3c-.3-.3-2-.2-2.5-.7s.1-.2,0-.3-.3-.3-.3-.5l-.4-.4V6.2a5.3,5.3,0,0,0-.6-1H26c-.1-.3-.2-.8-.5-1s0-.6-.1-.7L24.8,3c-.1-.1-.1-.6-.2-.7L24,1.7h-.3A7.2,7.2,0,0,1,21.6.1h-.3a.7.7,0,0,0-1,.3l-.6.6c-.1.2,0,.4-.2.7a2.9,2.9,0,0,0-.9,1c-.1.3,0-.1-.3.2s-.3.5-.5.6-.8.5-1.2.8-1.5,1.2-1.5,1h.1c-.3,0-.4.2-.7.3l-1,.2c-.5.3.1,0-.1.3l-1.1.7-1.2.8s0,.2-.1.2l-.5.2A3.5,3.5,0,0,0,9.4,9l-.3.5a9.4,9.4,0,0,1-.9,1.2c-.1.1,0,.3-.1.4a7.4,7.4,0,0,1-1.2,1.3c-.2.2-.5.1-.7.2l-.9.5a2.1,2.1,0,0,1-1.9.7H2.9c-.2-.3.4,0-.1-.3s-.7.1-.9-.1-.5-.6-.7-.4-.4.8-1.2,1.8Z"/><g id="path3618"><path class="cls-7" d="M21.2,6.8c0,.3-.1.1-.2.3a4.4,4.4,0,0,0-.1,2c.2.5.5.4.9.6V10l.6.2c.1.2.5.3.7.5s.1.3.1.4a8.1,8.1,0,0,0,1,.9h.9l1.9-.6c.3-.2,1.2.2,1.5,0s-.1-.6,0-.7.2.1.3,0,0-.1,0-.2-1-1.8-1.7-2.2-1.7-.1-2.1-.3,0-.2,0-.3l-.4-.2a1.9,1.9,0,0,0-.4-.9c-.1-.1-.1-.5-.2-.5a2.8,2.8,0,0,0-1.8,0l-1.1.7Z"/></g><g id="path3628"><path class="cls-8" d="M19.3,16.2H20a2.1,2.1,0,0,1,2.3.3l.5.2.8.2a2.1,2.1,0,0,1,1,.4c.1,0,.4-.1.5,0h0c-.2,0-.2-.3-.3-.4s-1.1-.6-1.4-1-.9.1-1,.2-1.7.3-1.9.1a.4.4,0,0,1-.1-.3c-.2-.2-1.3.1-1.1.2Z"/></g><g id="path3674"><path class="cls-9" d="M28.1,9.2c.1.6.7,1,.8,1.5s0,.2,0,.3h.3a5.9,5.9,0,0,0,.7,2,10.6,10.6,0,0,1,1,1.2c.1,0,0,.1,0,.2h.3l.4.6c.1.1,0,.3,0,.4s.4,1.5.7,1.2,0-.2,0-.3l.4-.6a5.4,5.4,0,0,0,0-1.8c-.1-.1-.4-.6-.5-.6s-.8-.2-1-.6-.2-.7-.4-.9.1-1,0-1.3h-.1a.1.1,0,0,1,0-.2,1.8,1.8,0,0,0-.5-.7c-.2-.2-.7-.3-.9-.6a11.8,11.8,0,0,0-.6-1.3l-1,.2c-.2.1,0,.5.4,1.2Z"/></g><path id="path3724" class="cls-10" d="M26.2,13.5c.2.8,1,1.8,1,2.5a2.9,2.9,0,0,0,.3,1,4.3,4.3,0,0,1,.2,1.2s-.1.4,0,.5h.2c.7.4,1.4-1,1.7-1.1s.4-.1.6-.4a3.5,3.5,0,0,0,.5-.8c-.5-.5-1.9.3-2.5-.2s.1-.2,0-.3H28c-.1-.3.1-1.9-.1-2.1s-.8-.1-1-.3.1-.3,0-.4-.4-.8-.7-1,.1,1.3-.7.5,1.2-.6.2-.6"/><path id="path3726" class="cls-10" d="M24.1,3.2a2.8,2.8,0,0,0-1-1.5h-.3l-.2-.4c-.1-.2-.7,0-.8-.1S20.7.4,20.4,1s.5,1.1.7,1.3-.3,1.3.1,1.8h.2c.4.1.7.7.7.7s-.9-2.5-.7-2.8.6.2.7.3.3.3.4.4.6-.1.7,0a.4.4,0,0,1,.2.3c.3.4.2-.4.7.2Z"/><path id="path3728" class="cls-11" d="M26.9,25.4c.2.3-.2,1.2,0,1.5h.3c.2.3-.1,1,0,1.4s.1.2.2.5,1.5,1.8,2,2.4,0,.2,0,.2l.6.9c.1.2.7-.8.7-.9s.5-.8.6-.8v-.6a8.1,8.1,0,0,0,0-2.2c-.3-.5-1.4-.9-1.5-1.3s.1-1.8-.2-2.2a5.4,5.4,0,0,0-.5-1.1l-.6-.6a7,7,0,0,1-.3-1.2c0-.1-.1,0-.2,0s-.1,0-.3.2-.1.8-.3,1.3a5.6,5.6,0,0,0-.5.8c0,.3.2.5.2.8"/><path id="path3742" class="cls-12" d="M32.2,24a8,8,0,0,0-2.9-.5c-.3.2.1,1.1.2,1.4s0,.7.1.8,1,.3,1.3.7h.4l1.7-.2,1-.7a6.2,6.2,0,0,0,.1-1.3c-.2-.2,0,.4-.2-.1s0-.3,0-.3l-1.7.2Z"/><g id="path3744"><path class="cls-13" d="M29.1,24.2c-.1.3-.4,0-.5.2s-.5,1.5-.2,1.7l.8,1.3c.1.2-.1.6,0,.9s.3.2.4.3.5.4,1.1.4.6,1.2.8,1,0-.2,0-.2.2-.1.3-.2a2.5,2.5,0,0,1,.2-.7,9.7,9.7,0,0,0,0-1.7v-.3c-.3-.3-1-.5-1.2-.8s.9-1.6-1.7-1.9Z"/></g><g id="path3774"><path class="cls-14" d="M32,17.2c0,1-.2,2.3.5,3s-.1.3,0,.4,1.6.4,2.1.9,0,1.6.3,2.2.5,1.1.4,1.3h-1c.1-.2.4-.3.5-.5h-.1a.3.3,0,0,1-.1-.2c-.3-.3.1-.7-.3-.9a9.8,9.8,0,0,0-2.3-.2,5.6,5.6,0,0,0-1.3,0,.4.4,0,0,0-.1.3l-2.4.2c-.1,0-.3.5-.5.3l-.2-.3v-.3c0-.6.1-.3.5-.5v-.2c.2-.2,1.6,0,1.9-.1a3.1,3.1,0,0,0,.9-.7c.1-.2.5-.1.6-.3s-.3-1.2-.5-1.4a24.3,24.3,0,0,1,.3-3.8c.2-.2.6,0,.8.7Z"/></g><path id="path3784" class="cls-15" d="M22.4,26.9a17.5,17.5,0,0,1,.4,3.2c.1.5.3.8.4,1.2s.1,1,.2,1.5-.1,1.3.4,1.8a4.8,4.8,0,0,1,1.6,2,12.9,12.9,0,0,0,.6,2.1c.1.2-.1.7,0,.8s1-.2,1.1-.3.6.1.8-.1v-.3a3,3,0,0,0,.7-.8c.1-.3-.1-1.5.1-1.7s.8-.3,1.1-.6,0-.3.1-.4.5-.2.6-.5.2-.7.4-1.1.6-.5.5-.7h-.5a3.6,3.6,0,0,0-1.5.2c-.5.2-1.9,1.7-2.5,1.1s-.6-1.3-1-1.8-2.2-2.6-2.2-3.6-.6-1.2-.6-1.9a.9.9,0,0,0-.3-.5c0-.1,0-.6-.1-.5s-.4.5-.6.4.2-.4.3-.7l-.3-.2"/><path id="path3788" class="cls-15" d="M19.6,16.7a9.1,9.1,0,0,1,2.1.5h.2c.4.2.8.1,1.2.3s1.8.2,2.2.7.3,0,.4,0a.4.4,0,0,0,.1.3h.8c.1.1.8.3.9.1s.3-.7.2-.9h-.3c-.2-.2.1-1.1-.1-1.4s0-.4-.1-.5-.4-2.1-.4-3.1-.3-.6-.6-.5.6,4.9.4,5.1-.8-.6-1.2-.6l-.8-.2c-.3-.2-1.7.1-1.9,0s.4,0-.1-.3L19.7,16c-.2.1-.4.3-.1.7Z"/><path id="path3790" class="cls-16" d="M19.8,15.7c1.1-.2,1.8.2,2.8.2a1.9,1.9,0,0,1,1,.5c.1.2.5,0,.8.1l.2.3c.2.2.8,0,.9.2l.9.9c.3.4.4-.8.3-1l-.5-.5H26c-.1,0,0-.2-.1-.2s-.9-.1-1.1-.3l-.4-.6c-.1-.1-.2,0-.3,0a4.3,4.3,0,0,0-1.5-.9h-1l-.6.4H19.6c-.1.2-.1.5-.3.6s-.4-.1-.4.5"/><path id="path3792" class="cls-17" d="M19.9,13.6c.5-1.3,1.1-2.8,1.7-4s0-1,.4-.8l.5.5c.9.6,1.6,1.2,2.6,1.1s3.2-.6,3.5,0-.4.5-.5.6,0,.2-.1.2-.8.4-1.1.7h-.2c-.6.3-1.5.2-1.5,1.2a2.4,2.4,0,0,0,.2.9c.1.1,0,.4,0,.5s1,1.5.6,1.9-.5-.2-.6-.2h-.2c-.2-.1-.4-.5-.5-.5s-.3-.1-.4-.2l-.3-.4h-.3l-.4-.3c0-.1-.2,0-.2,0s-2.3.1-2.9-.3-.4-.2-.3-.9Z"/><path id="path3794" class="cls-18" d="M18.3,16c-.9.1-1.4,1.2-1.8,1.9s-.2.1-.2.1a21.3,21.3,0,0,0-.2,4.3l.3.5c.2.2,0,1,.1,1.2s1.1-1.1,1.3-1.2,1.8.4,1.8.4a6.6,6.6,0,0,0,0-1.4l-.4-.3c-.2-.6-.2-1.3-.5-1.6a26.5,26.5,0,0,1,.2-2.7c.1-.2.7-.3.8-.4s-.1-1.1-.1-1.1"/><path id="path3796" class="cls-19" d="M19.3,18.4a5,5,0,0,0-.2,1.2,3.3,3.3,0,0,0-.1,1.7l.2.3a5.5,5.5,0,0,1,.2,2.2c-.2.3-1.5-1.1-1.6-1.2s-1.4.1-1.4.1a2.5,2.5,0,0,1-.2-.7l-.4-.4c0-.1.1-.2,0-.3l-.3-.4c-.3-.2-1.5.2-1.7.4a.4.4,0,0,1-.1.3c-.1,0-.2-.1-.2,0A6.2,6.2,0,0,0,12.1,23c-.1.1-.4.7-.5.7a.1.1,0,0,1-.2,0,7.4,7.4,0,0,0-.3,1.7,9.9,9.9,0,0,1,.1,2.4L11,28a2.9,2.9,0,0,0,0,1.6h.1c.1.1.1.1.1.2s.1.3.3.3h.8c.1,0,1.3-1.4,1.5-1.6s.4-.9.6-1.1.6.2.7.2.3.1.8.3a4.1,4.1,0,0,0,2.7-.4c.1,0,.3.1.4,0s.2-.4.5-.5a.1.1,0,0,0,.2,0c0-.1-.1-.2,0-.3s.2.1.2,0a2,2,0,0,1,1.5-.7c.4,0,0,0,.2-.1H22c.1-.1.3-.8.1-.9a6.3,6.3,0,0,1-1.2-1.8c-.3-.6-.4-1.6-.7-2a29.9,29.9,0,0,1,0-3"/><path id="path3798" class="cls-20" d="M15.6,27.9a2.5,2.5,0,0,0-1.3-.3l-.7,1c-.2.2-.1.5-.2.7l-1.4.6a4.1,4.1,0,0,1-1.1,0,2.9,2.9,0,0,1-.5-1.4c0-.2,0-1.4-.1-1.3s0,.7-.1.9.1,1.8.8,2.6.9-.2,1.1,0a1.6,1.6,0,0,0,1,.1c.2-.1.2-.3.3-.4l1.2-1.3c.3-.2.7-.1.9-.3s.6,0,.7,0l1.4-.4c.2-.3.6.2.8,0l.8-.9c.1-.1.2.1.3,0l.2-.3c.2-.2-1.4-.3-1.7-.2l-.8.2c-.2.3-.5.4-1.6.7Z"/><path id="path3812" class="cls-21" d="M11.5,30.1l-2.1-1c-.3-.1-.4-.9-.6-.7S8.1,30,7.7,30.7s-.2.1-.2.2a2.2,2.2,0,0,0-.1.8c-.1.1-.1.6-.1.5S7,29.3,6,29.9a5.6,5.6,0,0,0-.4,2.9h.3a1.1,1.1,0,0,0,.2.5c.1.2.4.3.5.4s-.2.3-.3.4a2.4,2.4,0,0,0,.1,1.2c.2.3.4.1.5.3a.1.1,0,0,1,0,.2c0,.1.3.1.4.2s-.6,3.5.6,2.9a4.6,4.6,0,0,1,.7-.7.1.1,0,0,0,.2,0,1.7,1.7,0,0,0,.6-1.2c0-.3-.8-.6-.6-.8s.8,0,1.2-.4-.3-.1-.3-.1v-.7c.3-.3,2.1.4,2.4.1s-.3-1.7,0-2,.9-.5,1.5-.8.6.1.7,0V32c0-.7-.1-.2-.2-.6s-.8-.4-1-.5-.7-.3-1.6-.8Z"/><path id="path3814" class="cls-1" d="M8.7,38.3c.3.4.1.9.3,1.3a1.3,1.3,0,0,0,.7.4c.2.1-.1.2.1.2H10c0,.3-.1-.3,0-.3s.1-1,.4-1.7,0-.3,0-.4l.3-.2c.3-.8,0-.9.8-1.7s0-1,.2-1.2,1.6.4,1.9.5.8-.4.9-.6-.1-.6,0-.7.5-.2.6-.5,0-.3,0-.4.1.3.1-.1-.4-.4-.2-1,.8-.6,1.2-1l.6-.6c0-.1.1,0,.1,0s-.1-.2,0-.3.2-.2.3-.4.2-.5.3-.7a.7.7,0,0,1,.4-.5c0,.2-.4,0-.4.1l-.6.9a.1.1,0,0,0,0,.2c-.4.2-.8.1-1.1.4l-.6.8c0,.1,0,.4-.1.5s-1.6.1-1.7.2.5,2.2.2,2.6-2,.1-2.7.8a9.6,9.6,0,0,0-.7,1.8h-.1c-.1.1,0,.2,0,.3l-.4.5c-.1.2.1.9-.1,1.1s-.1-.2-.1.1-.1.5,0,.7.6,1,.1,1"/><path id="path3816" class="cls-22" d="M21.4,30.5c-.1.4-.5.6-.8.9s0,.6-.1.8l-.5.5c-.2.2-.8.4-.9.6s.9,2,.5,2.9-.3.2-.4.4-2.8-.7-2.8,1c0,.1-.1.7,0,.7a1.6,1.6,0,0,1,.4,1.1,3.4,3.4,0,0,1-.9.8h-.2c-.1.1-.2,1.1-.4,1.3s-1.1.6-1,.8a8.5,8.5,0,0,0,1.6,0c.4,0-.2-.7-.2-.7v-.5c0-.5.4-.7.7-1a4.3,4.3,0,0,0,.1-.5c.2-.3.3-.3.5-.5s0-.3.1-.4.6.1.7,0,.1-.3.2-.4.2.1.3,0a.1.1,0,0,1,0-.2c.2-.5,0,.1.2-.1s0-1.1.1-1.3l.5-.4c.1,0,.3.1.3,0a8.8,8.8,0,0,0,.6-1,16.6,16.6,0,0,0,1.6-2.1c.1-.4.1-1.1.2-1.4l.2-.3c.1,0,0-.3,0-.3l.3-.4c.1-.3-.7-.3-.4-.7s.4.3.6.3v-.8"/><path id="path3818" class="cls-23" d="M19,28.5a2.9,2.9,0,0,0-1.9,1.1c-.5,1.2.7,3,.6,3.2a2,2,0,0,1-1.6.9c-.1,0-.6.2-.6.1s.8.4.8.5-.4,1.1-.6,1.4A10.1,10.1,0,0,1,14.1,37c-.1,0-.2-.1-.3,0h0a.1.1,0,0,1-.1.1h-.5c-.1.2-.5,2.4-.5,2.4s-1.3.4-1.7.8a4.1,4.1,0,0,0,0,1.1v.3a9.4,9.4,0,0,0,2.9,0l.4-.8v-.5c0-.2.2-.3.2-.5a5.4,5.4,0,0,0,0-1.8v-.5a15.9,15.9,0,0,0,1.3-1.3c.1-.2.1-.8.3-.9s1.3-.1,1.7-.5,0-.7,0-.8.2-.3.2-.5-.2-1.4,0-1.9l.5-.5c.1-.1.1-.3.2-.5s.8-.7,1.1-1,.1-.7.2-.9h.5c.1-.1.3.1.5,0s.2-.6.1-.8-.6-.2-.4-.2"/><path id="path3820" class="cls-24" d="M19.1,29.1a3.7,3.7,0,0,0-1.6,2.1c-.1.2.2,0,.3.1s-.2.9-.2,1,.1.9,0,1.3-.4.8-.5.8a9.8,9.8,0,0,1-2.7,1.8,3.1,3.1,0,0,0-.7.9l-.9.9c-.1,0-.1.4-.1.5h-.5c-.3.3-.1.5-.2.8a1.5,1.5,0,0,0,.2,2h.3a.1.1,0,0,1,0,.2h.4c1.6,0,1.8-3.5,2.4-3.9s.4-.4.8-.5,1.4.3,1.6,0l1.2-1.5c.2-.2,0,.4.2-.1s-.1-.4,0-.5h.1c.1-.1,0-.2,0-.3l.4-.5c0-.1.4-.2.4-.2s0-.2,0-.3l.6-.2c.1,0,0-.1,0-.1l.4-.2a2.3,2.3,0,0,0,.1-.4c.1,0,.2.1.2,0s.7-.6.7-.7.3-.2.4-.4a6.6,6.6,0,0,0,0-1.4l-.4-.6c-.1-.2.1-.8,0-1s-1.1-.3-1.5-.3h0"/><path id="path3822" class="cls-24" d="M30.8,31.7c-.2.8-.7,1.5-.9,2.4s0,.4-.1.6a3.9,3.9,0,0,0-.6,1.8,1.4,1.4,0,0,1-.5.8c0,.1.1.2,0,.3l-.5.2c0,.1-.7,2-.5,2.2s1.5-2.7,1.6-2.8,0-.3.1-.4l.4-.2a4.1,4.1,0,0,1,.3-.8c.2-.2-.1-.9.1-1.1s.2-.6.3-.6.6-1.3,1-1.8,0-.7,0-.8-.5-.2-.7.2Z"/><path id="path3824" class="cls-24" d="M29.8,31.5c.3.3.4.8.7,1s1.9-.2,2.2-.6a3.1,3.1,0,0,0,.1-1c0-.1.1-.4,0-.5h-.2c-.1-.2,0-.5-.1-.7s-1.5-.9-2-2.1-.3-.2-.4-.4a6.4,6.4,0,0,1-.2-.7c-.1-.1.1-.5,0-.5s-.3-.2-.3-.5"/><path id="path3826" class="cls-25" d="M29.5,34.1c-.4.6-.8,1.5-1.5,1.8s-.5-.1-.6,0-.2.3-.3.2l-.4-.4c-.1-.2-.8.2-.9,0l-.7-.9c-.1,0,0-.3,0-.4s-.2-1.3-.5-2,.1-.2,0-.2-.1,0-.1,0,.1-.3,0-.4-.1.3-.2-.1a6.8,6.8,0,0,1-.3-1.9c.1-.1.2.5.3.6a6.2,6.2,0,0,0,.4,1.6c0,.1.2.1.3.2s0,.3.1.3.3.1.3.2.4.5.5.6H26c-.2,0,0,.3.1.4s1.5.4,1.8.2.1-.2.2-.2,1.2,0,1.2,0"/><path id="path3828" class="cls-26" d="M21.2,7.1a16.3,16.3,0,0,1-1.9,3.4c-.1.2,0,.4-.2.6l-.4.3a.1.1,0,0,1,0,.2c0,.2-.5.4-.5.5h-.3c-.6.7-.4.1-1,.4l-.4.5c-.3.3-.1,1.8-.3,2.3a2.4,2.4,0,0,0-.3.9c0,.1-.2.2-.2.3s-.1,1.1-.2,1.4a8.4,8.4,0,0,0-.4,1.2v.8c0,.1.1.3,0,.3s-.1-.5-.1-.5-.2,0-.2-.3-.1-.1-.2-.3v-4c.2-.3.3-.9.5-1.1s0-2.5.1-2.6.5-.2.6-.3a19.1,19.1,0,0,1,2.1-1.5c.2-.1.4-.4.5-.5h.5c.5-.3-.2,0,.1-.3l.6-.2a2.1,2.1,0,0,1,.3-.7l.6-.2c.5-.3-.1,0,.1-.3H21c.2-.1.1-.3.2-.1Z"/><path id="path3830" class="cls-27" d="M17.8,5.8A35.9,35.9,0,0,0,14.2,9l-.8.9a3.2,3.2,0,0,0-1.8,1.6c-.3,1,1.2,5.8,1.8,6.4a.4.4,0,0,0,.1.3l.8.2.6-1.6c.1-.2-.1-.6,0-.8s.2-.7.4-1.1,0-.3,0-.4l.3-.2v-.4a4.9,4.9,0,0,1,.9-2.2c.1,0,0-.1,0-.2l.6-.3.2-.2,1-.3.2-.3.4-.2s-.1-.1,0-.1l.5-.2a5,5,0,0,0,.8-1.2c0-.2.3-.1.3-.2V8.2c.1-.2.4,0,.5-.1s0-.3.1-.4,1-1,.8-1.5-3.1-.5-4.1-.4Z"/><path id="path3832" class="cls-28" d="M17,4.8c-.7,0-1.1.8-1.7,1h-.1a12.4,12.4,0,0,0-2.1,1.8.1.1,0,0,1,0,.2h-.2L11.8,8.8l-.4.8c-.1.1.1.5,0,.6a5.3,5.3,0,0,0-.9,2.3V13c.1.2.4.3.5.4s.6,1.1,1.2.7a20.4,20.4,0,0,0,1.4-2.6c0-.1-.1-.2,0-.3s1.6-1.1,2.2-1.7.3-.7.5-.9.2.1.2-.1-.6.3-.1-.3h.4a1.8,1.8,0,0,1,.7-.5c.2-.3-.4,0,.1-.3h.7l1.1-.5h.5l.6-.4c.3-.2.2.2.5,0s-.1-.5,0-.6-.3.6.2,0V4.8H21c-.1-.1-.1-.5-.3-.6h-.2c-.2-.2-.2-.5-.3-.7l-.6-.2c-.2-.2-.6-.8-1.1-.3A4.9,4.9,0,0,1,17,4.8Z"/><path id="path3834" class="cls-29" d="M25.2,8.6c0,.3,0,0,.2.1s.6.5.8.6h.4c.4.3,1.1.4,1.3.7s-.7.5-.7.5.1,0-.1.2-.7-.1-.9,0,.1.3,0,.3h0l.7.2c.1,0,0,.1,0,.1s.6.1.8.3-.1.2,0,.2.5.3.3.5-2.4-.1-2.8.4.9,4.5,1.3,4.7.3-1.2.3-1.5-.7-2.7-.7-2.8h.3l.9-.6c.4-.2,1-.1,1.3-.4s-.5-1.1-.6-1.3-.2-1.1-.3-1.2,0,.4-.3-.2a.1.1,0,0,0,0-.2c-.1-.2-.4-.3-.6-.5s-.7.1-.9,0-.8-.3-.7,0Z"/><path id="path3836" class="cls-30" d="M21.4,9.9c-.4.6-1.1,2.6-.3,3h1c.4-.2,0-.1.2-.3h.3c.3-.2-.4,0,.1-.2a10.9,10.9,0,0,1,1.7.1c.3,0,1-.5.7-.9s-1.2-.5-1.5-.9l-.6-.6c-.1-.1-.1-.4-.2-.5h-.3"/><path id="path3838" class="cls-31" d="M20.9,3.8c-.1.2.2.2.3.4a5.4,5.4,0,0,0,1.4,1.6.1.1,0,0,0,.2,0l.4.4c.1.1.1.4.2.5h.4c0,.1-.1.2,0,.3l2,1.9c.3,0,.2.1.3.2s.4-.1.5,0,.5.4.6.3a11,11,0,0,0-1.4-1.8,7.6,7.6,0,0,1-2.2-1.8h-.3l-.5-.5a1.7,1.7,0,0,0-.2-.5s-.3,0-.3-.1.6.3-.2-.2l-.4-.4c-.1-.1-.2,0-.3,0a1.6,1.6,0,0,0-.7-.7c-.2,0-.4.1-.5-.1s.3-.6-.4-.6"/><path id="path3840" class="cls-32" d="M7.3,17.4c1-.9,1.8-2.1,2.7-3h.3c.2-.1.3-.6.5-.8H11v-.3c0-.2.2,0,.2-.1a.1.1,0,0,0,0-.2l.5-.6c.1,0,0-.1,0-.2l.7-.9c.2-.2.2-.7.4-.9H13c.3-.3.5-.9.7-1.1a3.5,3.5,0,0,1,.5-.8s-.1-.2,0-.2,1.2-1,1.7-1.6a9,9,0,0,0,.9-1h.3l.9-.7c.1-.1.1-.5.2-.5s.6-.2.7-.3-.1-.2,0-.3a.1.1,0,0,0,.2,0c.1,0,.1-.1.1-.2s.3.1.2.1h0c0,.4,0,.2-.2.4s0,.6-.1.7l-.4.3s0,.3-.1.4-.4,0-.4.1l-1.3.7a4.1,4.1,0,0,0-2.1,1.7l-.4.2c-.2.4-.2.6-.5.8s.1.2,0,.2-.3.3-.4.5a3.6,3.6,0,0,0-.3.7l-.5.6c-.2.1-.2.5-.3.6s-.3.2-.3.4a4.7,4.7,0,0,1-.5,1l-.7.8a2.3,2.3,0,0,0-.1.4,2.7,2.7,0,0,0-.8.7c-.1.1-.1.3-.2.4s-.1-.3-.2.1a8.3,8.3,0,0,1-1.7,2.7c-.1.1-1.1.2-.6-.3Z"/><path id="path3842" class="cls-32" d="M6.9,17.7a5.3,5.3,0,0,1-1.2-.3L5,16.9s.1-.4-.1-.2,0,2.4-.2,2.6-.2.6-.4.9.1.1,0,.1h.5c.4,0,.8-.4,1.2-.6h.3l.4-.5c0-.1.1,0,.2,0l.5-.4h.8l.2-.4c.2-.3.1-.8-.3-.8"/><path id="path3844" class="cls-33" d="M8,19.1a2.2,2.2,0,0,0-.5.8c-.1.2.1.5,0,.7l-.5.7c-.1.3,0,.8-.2,1s-.2.1-.2.2,0,.1,0,.2H6.3c0,.1-.1.5-.2.5a4.6,4.6,0,0,0-.7.7c-.3.3-.3.8-.6,1.1s-.7.4-.8.6-.1.4-.1.4-.3.1-.4.3,0,.6-.1.7-.3.4-.2.5.7.3.7.7h0c-.2,0-.9-1-1-1.2a2.2,2.2,0,0,1-.1-.8c0-.2-.1-.6,0-.8s.4-.3.2-.5-.3-.3-.2-.5.8-.8.8-.9a.6.6,0,0,0,.1-.4,2,2,0,0,0,.6-.7h.5a.4.4,0,0,0,.2-.4h.6c.2-.3.7-.6.8-.8s0-.2,0-.3a4.1,4.1,0,0,0,.7-1.1c.2-.3,0-.6.3-.9s.2.1.2,0-.3.2.4.2Z"/><path id="path3846" class="cls-34" d="M4.6,18.2l-.9,2.4c-.1.3.3,1.5,0,1.7s-1-.1-1.2,0,.8.2-.3.2,0-.3-.2-.2-.2,1.5-.4,1.7H1.4l-.2,1.4a3.2,3.2,0,0,0,1.4.1c.1,0,0-.2.1-.2a4.6,4.6,0,0,1,1.2-1.2c.1,0,.2.1.3,0a2.6,2.6,0,0,0,1.9-1.6c.1-.3.1-1.8.2-1.9s.7-1.2.5-1.6a4.8,4.8,0,0,0-.9-1.3c-.3-.3-.4.6-.9-.1s.2-.7.2-1"/><path id="path3848" class="cls-1" d="M1.3,13.8C.7,13.7,0,16.1.2,16.5s.4.5.5.8.1.6.2,1-.2,1.5,0,1.8.6-1.2.6-1.5a6.5,6.5,0,0,1,0-1.4l.5-.4c0-.1.2-.3.3-.4s.2.1.3,0l.4-.5c.9-.5,1.3.4,1.6.4H5.7l.5-.4H7c.3-.3.7-.3,1.1-.5L10,12.9c.2-.4-.4-1.7-.2-1.9h.4l.5-.9c0-.1.4-.4.2-.7l-1.1.2a1.1,1.1,0,0,1-.2.5l-.6.4c-.4.2-1.2,1.5-1.4,1.6H7.4c-.1,0-.1.2-.1.2a4.2,4.2,0,0,0-1.6,1.2H5.5l-.2.2H4.9l-.6.4H3.7a2.5,2.5,0,0,1-1.5.1,1.1,1.1,0,0,0-.9-.3Z"/><path id="path3850" class="cls-35" d="M6.2,26.6c.2,0,.4.4.5.5h.4c.6.3,1.6,1.2,2.2.9s-.2,0,.1-.2l.3-.3c.5-.7.4-1.9.8-2.4s0-.3,0-.4a1.5,1.5,0,0,0,.3-.6,8.1,8.1,0,0,0,.6-.8s-.1-.2,0-.2.7-1.1,1.1-1.5a11.8,11.8,0,0,1,3-.4,11.5,11.5,0,0,0,.1-1.9c-.1-.2-.4-.4-.5-.5s-.1-.3-.1-.4-.2-.6-.4-.9l-.3-.3c-.2-.3-.1-.8-.4-1l-.3-.3a.1.1,0,0,1,0-.2c-.3-.6-.1-.9-.8-.9s-.4-.1-.5,0-.5.7-.8,1a2.5,2.5,0,0,0-.1.9l-.6,1.2c-.1.2-.2,1.1-.3,1.4l-.2.3c-.2.4-.4,1-.6,1.5s.1,1.1-.2,1.4-1.2,1.3-1.3,1.3H7.9c-.4.2-1.2.5-1.3.7s-.5-.1-.6,0,0,.2,0,.2-.5.4.2,1.9Z"/><path id="path3852" class="cls-36" d="M17.2,30v.3l-.3.6c-.1.1,0,.4,0,.5s-.5.5-.5.6"/><path id="path3854" class="cls-37" d="M15.1,37.8a4.6,4.6,0,0,0-1.5,2.7c-.1.2.1.1,0,.4s-.3.2-.2.5a3.3,3.3,0,0,0,2.2.5l.8-1.3c.3-.3,1.3.3,1.5,0s-.2-2.6,0-2.8.1.1.1,0,0-1.2,0-1.5.1-.3,0-.4-1.8-.3-2.7.6a4,4,0,0,0-.4,2"/><path id="path3856" class="cls-38" d="M22.4,32.5c0,.6.5,2.1.2,2.7a4.1,4.1,0,0,1-.5.9,5.8,5.8,0,0,1-.2,1c-.2.4-.9.6-1.2.9a1.7,1.7,0,0,1-.2.5l-.7.6c-.1.1-.5.1-.6.3s.4-.1-.1.2-1.3,1.6-.7,1.9.6,0,.7,0a2.4,2.4,0,0,0,1.9-1l.4-.5c.3-.1,1.3-.5,1.7-.3s.7.3.8.2l.5-.4c.2-.1.5.1.7-.1s-.4-2.3-.6-2.4a24.4,24.4,0,0,1-.1-2.7l-.5-1c-.1-.2.1-.6,0-.8s-.1-.3-.2-.6-.3.2-.5-.1-.2-1.2-.8.1.1.6.1.9"/><g id="path3858"><path class="cls-39" d="M23.3,26.7c.3,1.3.3,2.6,1.1,3.4a12.4,12.4,0,0,1,1.7,2.7c.1.1,0,.4,0,.5l.3.4c.1.2-.1.6.1.7s.6-.1.7-.2,2-.6,1.5-1.2-.1-.5-.2-.7a2.5,2.5,0,0,1-.8-1c-.1-.2-.1-.5-.2-.6s-.3-.2-.3-.3,0-.2,0-.3l-.3-.2c0-.1.1-.3,0-.4h-.1c-.2-.2-.2-1-.3-1.2s-.3-.2-.4-.3a2,2,0,0,0-.6-.9h-.4l-.5-.5c-.2-.2,0-1.1-.1-1.4s-1-.4-1.2-.2.1.3,0,.3-.1.1-.1.2a3.3,3.3,0,0,0,.1,1.3Z"/></g><path id="path3868" class="cls-40" d="M28.8,11c.1.2.3.3.5.5s.1.5.2.6l.4.3s-.1.2,0,.2l.9.9c.1.1,0,.2,0,.3l.6.6c.1.1,0,.4.1.5s0-.4.3.1.2.9.4.8,0-.3.1-.4-.6-1.8-1-2.3l-1-1.2c-.2-.5-.2-1.4-.5-1.8h-.5s0-.3-.1-.2-.4.6-.6.5.3-.4.5-.7h-.5a5.3,5.3,0,0,0,.2,1.3Z"/><path id="path3870" class="cls-41" d="M21.2,6.2c.4.1.6.7.8,1l1.7.4c.1.1.5.8.7.9a10.4,10.4,0,0,1,2,1.5l.4.5h.5c0-.1.2-.2.1-.3s-.2.1-.2,0,0-.2,0-.2a5.8,5.8,0,0,0-1.7-1.4c-.2-.2-.1-.2-.2-.4H25c-.2-.2-.4-.8-.6-1s-1.3-.3-1.7-.7h-.3l-.5-.5s-.3,0-.3-.1-.1-.2-.2-.2-.4-.1-.5.1.1.4.1.6"/><path id="path3872" class="cls-42" d="M21.7,7.2c-.5.2-.1.5.2.6s0,.1.1.3,1.5-.3,1.8,0l1.3,1.1c.2.3.1.6.1.5h.2a.4.4,0,0,0,.1-.3l.9.4c0-.3-.9-.8-1.1-1h.6c.7.1-1,.2-.2,0h.2a7.3,7.3,0,0,0-.8-.9h-.6a7.3,7.3,0,0,1-2.8-.4Z"/><path id="path3874" class="cls-43" d="M23.1,21.2A6.1,6.1,0,0,0,24,23c.2.3.6.5.8.8A11.3,11.3,0,0,1,26,25.9c.2.3.6.5.7.8a10.2,10.2,0,0,0,1,2.1s0,.5.1.6.1.2.2.2-.1,1.1.7.7,1-1.3.8-1.7-.4-.3-.6-.5a15.2,15.2,0,0,1-2.2-2.2c-.1-.2,0-.5-.1-.7s-.2-.1-.2-.2,0-.3,0-.4a5.4,5.4,0,0,1-.5-1.1c-.2-.8.1-1.4-.4-2.4s-.7-.4-.9-.7-.4-.6-.7-.8.1-.2,0-.3-.5.1-.6.1a.5.5,0,0,0-.3.5"/><path id="path3876" class="cls-44" d="M19.6,17.9c.3.4,0,1,.3,1.4s.3-.6.3-.7.3-.3.5-.3,1,.3,1.4.3.5.2.4.2.1-.2,0-.2a.8.8,0,0,0-.4-.4c-.4-.3-.1-.2-.4-.5s-.5,0-.6-.2.4.1-.1-.2h-.4c0-.1-.2-.6-.4-.4s-.4.3-.6,1Z"/><path id="path3878" class="cls-45" d="M20,18.8c.1.7,1,3.4,1.3,3.5s1.1.1,1.2-.1-.1-1.1.1-1.5,1-.9.6-1.3.3.7-.2-.1-.1-.3-.2-.4-.3-.2-.2-.2,0,.3,0,.2.2-.3.1-.2-.3.3-.4.4-.1-.3-.2-.3h-.3c-.2-.3.4,0-.1-.3s-.8.4-.8-.5"/><path id="path3880" class="cls-45" d="M20.4,28.3a32.9,32.9,0,0,1-.5,4.4,24.3,24.3,0,0,0,0,2.7c0,.3-.1,1.2,0,.9s0-.2,0-.2.5-.4.5-.4-.1-.3,0-.4.7-.5.7-1.2a7.6,7.6,0,0,0-.1-1.6c-.1,0-.2.3-.3.3s0-.3,0-.5a5.7,5.7,0,0,1,0-1.3c.1,0,.1.1.2,0v-.5c0-.4.3-1.8.1-2.1s-.3-.4-.6-.1Z"/><path id="path3882" class="cls-46" d="M32.6,13.9a8.8,8.8,0,0,1-1.2,2.8c-.3.2-.6-.4-.6.1s.1.7,0,.7-.1,0-.1,0,.3.8.1.9-.1,0-.1,0a17.7,17.7,0,0,0-.1,2.3h.1c.1.1-.1.6,0,.8a2.2,2.2,0,0,1,.2,1c0,.6-2.2-.1-1.7.8s1.2.4,1.5.3l.3-.3a20.9,20.9,0,0,1,2.5,0c.1,0,.1.2.1.2a1.9,1.9,0,0,0-.1-.8,16,16,0,0,1,0-3.1,8.7,8.7,0,0,0-.5-1.9l-.3-.3c-.2-.2,0-1.4,0-1.6v-.4l.6-1.1c.1-.3-.2-.6-.7-.4Z"/><path id="path3884" class="cls-47" d="M28.7,13.9c.2.4.6.6.9,1l.3.4h.3a2,2,0,0,1,.8.8c.4.3,1.3-.7,1.1-.9l-.9-1-.4-.2s.1-.2,0-.2l-.9-.9h-.3c-.1-.1-.1-.4-.2-.5h-.6a1.4,1.4,0,0,0-.1,1.4Z"/><path id="path3886" class="cls-48" d="M11.5,14.5a23.3,23.3,0,0,0-.7,2.5c-.1.4,0,.7-.1,1l-.3.3c0,.1.1.2,0,.3h-.2c-.1.1,0,.3-.1.4H9.6c-.7.4-1.9,2-1.5,2.9s.9.7,1.2,1,1.2-.2,1.4-.4a.6.6,0,0,1,.1-.4c.1-.1.4-.2.4-.3s0-.3,0-.4.2,0,.3,0,.1-.4.2-.5.1-.6.3-.8,1.1-.2,1.2-.6.6-2.4.7-2.5,0,.4.3-.2.7-1.9.4-2.4-.4-.7-1.1-.7h-.6l-.5.2c-.1.1,0,.3-.1.3s-.4-.5-.6-.4.2.3.3.5h-.3"/><path id="path3888" class="cls-49" d="M18.4,5.7a4.5,4.5,0,0,0-1.2.6c-.4.5-.4,1.2-.7,1.7s.1.2,0,.3a4,4,0,0,1-.7,1.3c0,.1.1.2,0,.3s-.7.4-.8.7a1.8,1.8,0,0,1-.8.9l-.5.4a5.8,5.8,0,0,0-.3,1.4c.2.2.6-.6.7-.7l.9-.9c.1-.1,0-.3.1-.5s.4-.2.5-.3-.1-.2,0-.3l.3-.4c.1,0,.1-.3.2-.3A4.4,4.4,0,0,1,17.2,9c.1-.1.2-.5.3-.4l.3.6c.1.1-.1-.3,0-.4s.2,0,.2-.1.1-.4.2-.5l.3-.4c.1-.1.1-.7.2-.8l.3-.3c0-.1-.1-.2,0-.3a1.5,1.5,0,0,1,.6-.3c-.1-.2-.3-.4-1.2-.4Z"/><path id="path3890" class="cls-50" d="M9.3,17.8a3.8,3.8,0,0,0-.3,1c0,.2-.3.4-.3.6s0,.4,0,.5a9.3,9.3,0,0,0-.4,1.3c0,.1-.2.1-.2.3s.1.4,0,.5-1.6,2.4-.2,2.4h.7c0-.1,0-.3.1-.3l.6-.4c0-.1,0-.4.1-.5a6.6,6.6,0,0,0,1.5-2.6c.1-.3-.1-.8.1-1s.9-2,.4-2.6a3.3,3.3,0,0,0-2.1.8Z"/><path id="path3892" class="cls-51" d="M5.2,18.3c-.8.6-.1,1.7-.4,2.4H4.7c-.1,0-.2.5-.2.6s0,.2,0,.3-1.1.7-1.5,1.1-.6.1-.9.1-.1-.2-.2-.1-.1.6-.1.9,0-.2-.3.4a5.3,5.3,0,0,0,.1,2.2c.1.1,1,.1,1,0l.9-.8c.1-.1,0-.2,0-.3a6.5,6.5,0,0,1,.8-.9c.7-.3,1.1.5,1.8-.7s.3-1.5.7-1.9,0-.7,0-.8a2.9,2.9,0,0,0-.7-1.9c-.1-.1-.8-.1-.9-.3s-.1-.6,0-.3Z"/><path id="path3894" class="cls-51" d="M2.5,15.1a1.7,1.7,0,0,1,1.4.7s.3-.1.3,0h.4l-.9-.5c-.5-.6-.8-.8-1.2-.3Z"/><path id="path3896" class="cls-51" d="M2.7,15.3c-.4-.1-.2,0-.4.2H2.1c-.3,0-.7,0-.9.3v.5c.3.3.8-.3,1-.3s.7.3,1.1.1-1.7.4-.1-.7.3.3.5.4.8-.4.8,0"/><path id="path3898" class="cls-51" d="M3.7,28.1c.4.3.3.8.5,1.2l.6.7c.1.2,0,.6.1.8H5c.2.1.3.9.4,1s.2.6.3.7l.6.7a7.8,7.8,0,0,1,.8,1c.3-.3-.3-.6-.3-.6A9.8,9.8,0,0,1,6.1,32a4.3,4.3,0,0,1-.9-1.3c-.1-.1,0-.3,0-.4s-.2-.7-.4-.9.1-.6,0-.8-.7-2-.5-2,.1.1,0,.1H4.2c-.1-.2.2-1,0-1.2s-.7,2-.5,2.7Z"/><path id="path3900" class="cls-52" d="M11.5,27.6c0,.2,0,.3.1.4s.4-.1.6,0,.4.6.5.6l.7-2c-.4-.2-1.3.3-1.6,0s0-.7-.1-.9-.3.1-.3.2-.3.3-.4,1.5-.6.9-.3,1.5.5.2.7.4.4.4.4.2.4-.9.3-1l-.3-.2c.1,0,0,.1,0,.1s.1-.3.5-.3"/><path id="path3902" class="cls-53" d="M7.9,29.6c-.1.2-.3.2-.4.3a3,3,0,0,1-.4.8c0,.1-.5.5-.5.7l1.3.5c.3.1.3.4.4.5s.2,0,.3,0-.4,0,.1.3,1-1.4.8-1.8-.7-.7-1.6-1.3Z"/><path id="path3904" class="cls-54" d="M25.3,40.7a4.5,4.5,0,0,0-2.5.9h-.4c-1.3.9.2.1-.4.6s-.4.4-.6.6l-1.1.7-.7.5c-.3.2-.7,0-.9-.1s-.8.2-1.1,0H17c-.1,0-.2-.2-.2-.3l-1.5-.5c-.1,0,0-.1-.2-.2l-.8-.3a2.5,2.5,0,0,1-1.3-.5c-.2-.2-1.1.3-1.3,0l-.3-.5a.3.3,0,0,1-.2-.4c.2-.1.7.1.9,0a2.8,2.8,0,0,0,1.1-.8c.2-.2.7-1.7,1-1.7a9.5,9.5,0,0,1,.3,1.9c.2.7.5.3.7.5a3.3,3.3,0,0,0,3.1,1.4,2.7,2.7,0,0,0,.9,0c.1,0,.1-.2.2-.2s.7,0,1-.2.2-.4.3-.5.6-.3.7-.6,0-.3,0-.4l1.7-.7c.3,0,1.1,0,1.3-.3a3.3,3.3,0,0,1,.6-1c.1.1.7,2,.3,2.1Z"/><path id="path3906" class="cls-54" d="M20.2,37.2c-.8.5-1.1,1.3-1.7,1.9a7,7,0,0,0-.6.9c0,.1.1.4,0,.4l-.2-.3c-.3-.2-.3.3-.4.4s0-.1-.2.1.1.3,0,.4h-.2a3.8,3.8,0,0,0,0,1.5c.1.1.1.3.2.4a2.2,2.2,0,0,0,1.1-.1s-.1-.1,0-.1l.3-.2a.4.4,0,0,0,.2-.3H19a7.6,7.6,0,0,0,.6-1.6c-.2-.5.2-.1.2-.2s0-.5.1-.6.4-.5.5-.7,0-.7.1-.7l.8-.8,1-1s0-.4.1-.5.3-.1.2-.3-.6,0-.8,0-.5.5-1.2,1.1h-.4c-.2,0-.3.4-.4.5s-.3-.1-.3,0a10.6,10.6,0,0,0-1.1.9v.2l-.5.7a10.3,10.3,0,0,1-.3,1.2c-.5.5-2.2-.2-2.8.1s-.3.5-.4.7-.2.5-.1.7,0-.1.2.2l.4.3c.2.3,2.5-.2,2.7-.1s.3.3.6.3.9-1.3,1.3-1.3"/><path id="path3908" class="cls-55" d="M6.1,34.2A5.2,5.2,0,0,0,8,36.8c.1.1.7,1.1.8,1s-.2-.8-.2-1l-.3-.6c0-.1-.3-.1-.3-.3s-.1-.3-.1-.3-.4-.1-.4-.2-.1-.5-.2-.7-.4-.1-.5-.3.1-.2,0-.2-.5.3-.7,0Z"/><path id="path3910" class="cls-55" d="M10.9,35.3c.2-.3.1-1,.6-1H12l.3.4h.8c.1-.1.1-.2.3-.3a.1.1,0,0,0,.2,0c.3-.2.2-1,.5-1.4s-.1-.5,0-.7.2-.3.4-.5.2-.9.3-.9h.3c.1-.2-.2-.3.1-.3s.2.4.4.5,0-.4.2.2,0,.3,0,.5-.9,1.6-1.5,2.2.5,1.9.2,2-1.6-.3-2.2,0,0,1.9-.1,2.1-.5,0-.4,0h.3l-.7.2c-.1,0,0-.2,0-.2s0,.1-.3-.2a3.3,3.3,0,0,1-.3-1.5c0-.2-.1-1.1.2-1.1"/><path id="path3912" class="cls-55" d="M20.2,17.8a1.5,1.5,0,0,1,1.1.6c.1.1.3,0,.4,0l.6.4c.4.2,2,.4,2.2.6s.4,0,.7.2l.2.2a4.7,4.7,0,0,0,2.5-.7c0-.1.2,0,.2,0v-.5c-.2-.6-1.8-.8-2.4-1.1s-.2.1-.3,0,.1-.1,0-.1-.4.1-.4,0-1.1-.3-1.6-.5.2,0-.1-.2-.5-.1-.6-.2-1.5-1.1-2.1-.8-.4.6-.6,1-.3.3-.3.5.4.3.5.6-.2.4-.3.6a21.7,21.7,0,0,0,.7,2.4c.2.1.1-1,.7-1h-.1v-.2c.1-.2.2-.8.4-.9s2.3,2.1,4,1.2c.1,0,.6.2.7,0h-.2a4.9,4.9,0,0,1-1.1-.4c-.2-.1-.6.2-.8,0l-.7-.3c-.1-.1-.3,0-.4,0a3.8,3.8,0,0,0-1.5-.9,8.5,8.5,0,0,1-1.5-.4Z"/><path id="path3914" class="cls-36" d="M21.7,21.8l1.6.7"/><path id="path3918" class="cls-56" d="M20.9,21.6c0-.5-.6-2.7-.4-2.9s2,.4,2.2.5h.4v.2c.1.1.2,0,.4,0s0,.3.1.3H24a.4.4,0,0,1,.1.3c.1,0,.3-.1.3,0s-1.2.7-1.6.3-.5-.9-1.1-.6-.3.5-.5.6-.3,1.5-.3,1.2Z"/><path id="path3920" class="cls-56" d="M25.7,21.6a11.2,11.2,0,0,0,0,2.6c0,.1.5,0,.5,0s.3-.1.4-.2.2.1.3-.2-.4-2-.2-2.5a10.5,10.5,0,0,1,.8-1.1c.2-.2,1.6.3,1.6-.1V18h-.3c-.7,0-1,.4-1.4.8s-.2-.1-.2,0a6.1,6.1,0,0,0-.4.6c-.1.1.1.6,0,.7s-.7-.2-.8,0l-.2.3c-.1.1-.1,0-.1,0a4.8,4.8,0,0,0,0,1.2"/><path id="path3922" class="cls-57" d="M27.8,20.7c-.1.3.4.7.4.8s.2.6.3.7,1.1.9,1.5,1.4v.2l.6.2c.3.1.8-.2,1,0s0,.1,0,.1h.3c-.1,0,.1-.6.1-.6a4,4,0,0,0,.2-1.9,5.8,5.8,0,0,0-.2-1.9l-.2-.2c-.2-.3-.1-.8-.3-1s-.6-.6-.7-.9a3.1,3.1,0,0,0-.5-1c-.4-.3-1.7,1.4-2.2,1l-.3-.5c-.2-.2.3-2.3-.4-1.9a12.3,12.3,0,0,0-.2,2.9,4.8,4.8,0,0,1,0,1.2c-.1.1-.7.7-.4,1s.5.7,1.1.7"/><path id="path3924" class="cls-57" d="M36.7,24.7c-.1.8-.9,1.3-1.1,1.9a6.4,6.4,0,0,1-1.4,2.2c-.1.1-.3.9-.6,1.2a1.6,1.6,0,0,1-.9.5l-.6.7s-.3,0-.3.1,0,1.2-.2,1.4l-.3.7c-.1.2-.4.3-.5.5s-.5,1.2-.7,1.3a15.7,15.7,0,0,0-1,2.6c-.1.2-.2.2-.3.3s0,.6-.1.7-.4.5-.3.6h.8c1-.6.4-1,.6-1.3a3.1,3.1,0,0,0,.1-1,3.3,3.3,0,0,1,1.1-2c.1-.1.1-.4.2-.4s.2-.1.3-.3,1.3-1.8,1.8-2.9l.8-.8c.1-.2,0-.4.1-.6s.2,0,.2-.1.2-.5.3-.7.6-1,.8-1.5l.8-.8c.3-.2.8-1.7,1.1-2s-.2-.6-.7-.3Z"/><path id="path3926" class="cls-58" d="M35,25.5l-1.7,2.4-.5.5c0,.1,0,.4-.1.5l-.4.4s.1.2,0,.2l-.8,1c0,.1.1.2,0,.3s-.3.2-.3.4l-.5.6c-.1.2.1.4-.1.4s-1,1.4-.7,1.7.7-.4.8-.5a.7.7,0,0,0,.3-.6c.1-.3.7-.6.9-.9l.3-.7c.1-.2.3-.2.4-.3s0-.4.1-.5H33c.1-.1,0-.2,0-.3s.8-.3,1.1-.5l.7-.7c.1-.1,0-.4.1-.5l.4-.3s0-.3.1-.4.3-.1.3-.2,0-.2,0-.3l.4-.2v-.4h.4c.1-.2,0-.5.3-.5s.8-1.1.5-1.4-1,.4-1.1.5l-.2.4h0c-.2-.1-.4-.6-.6-.4s1.1.6,0,.6"/><path id="path3928" class="cls-59" d="M26.4,12.1c.2.1.2-.1.4-.2h.3c.8-1-2.2-2.5-1.8-2.9a1,1,0,0,1,.9-.3c1.5,0,1.2.9,2,1.8s.7,1.6.5,1.9l-.5.5c-.2.3-1.3-.3-1.6,0s.3,1,.3,1.2a3.3,3.3,0,0,1,0,1.4,7.1,7.1,0,0,0-.7.9c-.1.2.1.5-.1.6s-.4-.9-.4-1.3-.3-2.9.2-3.3.5-.2.8-.3"/><g id="path3930"><path class="cls-60" d="M14.6,21.8c-.5.1-1.1-.1-1.6.2s-2.1,2.4-2.5,3.2.3,1.2-.2,1.7.1.3-.1.2-.4-.6-.5-.9.5-2.3,1.1-2.9,0-.3.1-.3.3-.1.3-.2,0-.2,0-.2a3.5,3.5,0,0,1,2.6-1.5c.9,0,2.1-1,.8.7Z"/></g><path id="path3944" class="cls-61" d="M16.8,24.2a3.6,3.6,0,0,0-.4.9c0,.2-.6,1.1-.3,1.4s.9.6,1.2.9,1.4-.1,1.6-.2h.5a2.9,2.9,0,0,0,.4-1.6V25c.1-.1.8-.2.5-.6a6.2,6.2,0,0,0-1.9-1.1c-.2-.1-.6.2-.8,0s0-.3-.7-.3"/><path id="path3946" class="cls-62" d="M23.9,9.3c0,.6.8.9,1.1,1.2h.3l.4.5.4.2c.2.2.1.6.3.8s1.1-.2,1.1-.3-.3-1-.4-1.2a5.2,5.2,0,0,0-1.8-1.2h-.8L24.1,9c0-.1,0-.3-.1-.3s-.4.2-.1.6Z"/><path id="path3948" class="cls-36" d="M28.9,19.6c.9-.3-.4-2.4-.4-.8s-.2.5,0,.6.4,0,.6,0v1.2c-.1,0-.2-.1-.3,0s.1.2,0,.2h-.2c-.8,0-.5-.9.3-1.2Z"/><path id="path3950" class="cls-63" d="M33.4,14.9h-.5l.5-.3h-.1v.9h.7l-.5.3h.1c0-.1.1-.1.1-.2v-.6h-.1l-.2-.2a.1.1,0,0,0-.1-.1h-.3l.6-.4h.4v.2c.1.1.1.1.1.2v.4c0,.1-.1.1-.1.2v.2l-.7.4s1.6-.9,0,.1h-.6l-.2-.2v-.9l.7-.5h.5l-.5.4Z"/><path id="path3952" class="cls-64" d="M33.2,16.1h.7l.2-.2c0-.1.1-.2.1-.3v-1h-.7l-.2.2H33a.3.3,0,0,1-.1.2.4.4,0,0,0-.1.3v.3c0,.1.1.2.1.3V16h.9l.2-.2v-.2h.1v.2l-.2.2H33v-.2a.4.4,0,0,1-.1-.3v-.3c0-.1,0-.2.1-.2a.4.4,0,0,1,.1-.3h.2l.3-.2h.6v.7c0,.1-.1.2-.1.3a.4.4,0,0,1-.1.3l-.2.2h-.7Z"/><path id="path3954" class="cls-64" d="M33.1,16H34v-.2c0-.1.1-.2.1-.3V15c-.1-.1-.2-.2-.2-.3h-.8l-.3.3v.6l.3.4h1.1c0-.1,0,0-.1,0l.3-.3a.4.4,0,0,0-.1-.3l-.3-.3h-.7a.4.4,0,0,0-.1.3.4.4,0,0,0-.1.3v.3c0,.1,0,.2.1.2h.7s.1,0,0,.1h0v-.7l-.2-.2h-.6v.4a.4.4,0,0,1-.1.3v.4h1.3l.2-.2v-.7c0-.1-.1-.1-.1-.2h-.8c.2-.1,0,0,0,.1h-.3c0,.1-.1.1-.1.2H33c0,.1-.1.2-.1.3v.4c0,.1.1.1.1.2h1l.2-.2v-.2a.4.4,0,0,0,.1-.3v-.2l-.3-.2h-.4c-.1,0-.2,0-.1-.1s0,.1,0,.1-.1,0-.1.1h-.4v.2h0v-.2h.3a.1.1,0,0,1,.1-.1h.7l.3.2c0,.1.1.1.1.3v.5h-.2a.1.1,0,0,1-.1.1H33a.3.3,0,0,1-.1-.2v-.2c-.1,0-.1-.1-.1-.2s.1-.1.1-.2v-.2h.1l.2-.2h.1l.3-.2h.7v.2c0,.1,0,.2.1.2v.5l-.2.2-.2.2H32.9v-.5c.1-.1.1-.1.1-.2v-.3l.2-.2h.4l.3.2v.2c.1,0,.1.1.1.2a.4.4,0,0,1-.1.3H34a.2.2,0,0,1-.2.2h-.7c-.1-.1-.1-.1-.1-.2v-.9l.3-.2h.3l.3.2.3.2a.4.4,0,0,1,.1.3l-.3.3a.1.1,0,0,1-.1.1H33l-.2-.3a.8.8,0,0,1-.1-.4v-.3l.3-.2.5-.2h.3l.2.2v.2a.4.4,0,0,1,.1.3v.5a.3.3,0,0,1-.1.2l-.2.2c-.1-.1,0-.1-.1-.1h-.7Z"/><path id="path3956" class="cls-64" d="M32.6,16.7h.2c.1.1.1.2.2.2l.2.2h.2l.3.2.2.2.2.2a.1.1,0,0,1,.1.1h-.4a.2.2,0,0,0-.2-.2l-.3-.2-.2-.2h-.2c0-.1-.1-.1-.2-.2l-.2-.2Z"/><path id="path3958" class="cls-64" d="M34,17.9c-.1,0-.1-.1-.2-.2l-.2-.2h-.1c-.1-.1-.2-.1-.2-.2h-.2l-.3-.2h-.1c-.1-.1,0-.1.1-.1l.3.2.3.3.3.2a.2.2,0,0,1,.2.2h.2v.2h.1c.1.1.1.1,0,.2h-.1l-.3-.3-.3-.2a.2.2,0,0,0-.2-.2h-.5l-.2-.2h-.1a.1.1,0,0,0,.1-.1h.5c0,.1.1.1.2.1a.1.1,0,0,0,.1.1h.2l.2.2a.1.1,0,0,1,.1.1l.2.2v.2a.4.4,0,0,0,.1.3.1.1,0,0,1-.1.1h-.1c-.1-.1-.1-.2-.2-.2s-.1-.1-.2-.2a.1.1,0,0,1-.1-.1h.1a.1.1,0,0,1,.1.1h.2l.2.2h.1c-.1.2-.1.1-.1,0a.4.4,0,0,1-.1-.3.3.3,0,0,1-.1-.2h-.2c0-.1,0-.1-.1-.2h-.2a.1.1,0,0,1-.1-.1h-.9a.1.1,0,0,0,.1-.1h0v.2h.7c.1.1.2.1.2.2l.3.3.3.2h-.1a.3.3,0,0,0-.1-.2H34c0-.1-.1-.1-.2-.2l-.2-.2c-.1,0-.1-.1-.2-.2L33,17l-.3-.2h.1c0,.1.1.1.1.2h.3c0,.1.1.1.1.2h.3c0,.1.1.1.1.2l.2.2.2.2Z"/><path id="path3960" class="cls-64" d="M32.7,18.2v.2a.3.3,0,0,1-.1.2v.8a.1.1,0,0,0,.1.1.3.3,0,0,0,.1.2h.5c-.1.1.1-.1.1,0h-.1c.1-.1.1-.1.1-.2h.1v-.7h.5c.1,0,.2,0,.2.1v.5a.4.4,0,0,1-.1.3v.5H34v-.3c0-.2.1-.3.1-.5v-.2h.1a.1.1,0,0,0-.1.1v.2a.9.9,0,0,0-.1.5c0,.1,0,.1-.1.1h0c-.1-.1,0-.3,0-.5s.1-.3,0-.4h-.2c-.1,0,0-.1.1-.1h-.2c-.1,0-.1.1.1,0h.3v.4H34v-.2h0v-.2c.1-.1,0-.1.2-.1h0a.1.1,0,0,0-.1.1c-.1,0-.1-.1-.1-.2s-.1-.1-.2,0h0c.1,0,0,.1,0,.1h-.1v.2a.3.3,0,0,1-.1.2c0,.1,0,.2-.1.2v.2l-.3.2c0,.1-.1.1-.2.1h-.3v-.4h.1v.2c0,.1,0,.1.1.1h-.2v-.3s-.1-.1.1-.1h0v.2h.5a.1.1,0,0,0,.1-.1h-.5c-.1,0-.2,0-.2-.1v-.4h0c.1-.1.1-.1.1,0v.6h.7c.1-.1-.1,0-.1,0h-.1s-.1.1,0,.1.1,0,.1,0h.1c.1,0,.1-.2.2-.3a.1.1,0,0,1,.1-.1h.1c-.1,0-.1,0-.1.1l-.2.3a.5.5,0,0,1-.4.2c0-.1-.1-.1,0-.2h.2s-.1.1-.1,0h.3c0,.1-.1.1-.1.2l-.3.2h-.5V19h.1v.3h.1a.1.1,0,0,0,.1.1h.6a.1.1,0,0,1-.1.1l-.3.2h-.2l-.2-.2h0v-.2h.1v.2c0,.1.1.1.2.1h.2c.1,0,.1-.1.2,0l-.3.2h-.3c-.1,0-.1-.1-.1-.2h.1v.4h.7v-.2a.3.3,0,0,0,.1-.2c0-.1.1-.1.1-.2v-.2l.3-.3h.2s-.1,0,0-.1h0V19H34v-.4c0-.1-.1-.1-.2-.1h.1a.1.1,0,0,1-.1.1c-.1,0,0-.1.1-.1h.2c.1.1,0,.2,0,.4s-.1.3,0,.5,0,.1-.1.1h0a.6.6,0,0,1,.1-.4V19h.2c.1,0,0,.2,0,.3s-.1.3-.1.4-.1.2-.1.3h0v-.2a.4.4,0,0,0,.1-.3v-.6h-.4a.1.1,0,0,0-.1.1h0V19c0,.1,0,.2-.1.2s0,.1-.1.2a.1.1,0,0,1-.1.1.2.2,0,0,1-.2.2H33c-.1,0-.2,0-.2-.1h-.2c-.1,0-.1-.1-.1-.2s-.1-.1-.1-.2v-.7c0-.1.1-.2.1-.3Z"/><path id="path3962" class="cls-64" d="M28.8,19.6h.3c0,.1.1,0,.1,0h0a.4.4,0,0,0,.1-.3c0-.1-.1-.2-.1-.3l-.2-.3v-.2h-.2a.1.1,0,0,0-.1.1h0c-.1,0-.1.1-.1.2v.8c0,.1.1.1.1.2h.2c.1,0,.2,0,.2.1h.2v.5a.3.3,0,0,1-.1.2.3.3,0,0,0-.1.2l-.3.2h-.4v-.7a.3.3,0,0,1,.1-.2c.1-.1.2-.1.2-.2h.6c0,.1.1.1.1.2a.4.4,0,0,1,.1.3.3.3,0,0,1-.1.2h-.2c.1,0,0,0,0,.1h-.3c-.1.1,0,.1-.1.1h0c.1-.1.1-.1.1,0h-.1c-.1.1-.1,0-.1,0v-.2h.1v.2c0,.1.1.1-.1.1h.1c0-.1,0-.3.1-.2h.1c-.2.1-.1.1-.1,0h.4c0-.1.1-.2.1-.3a.4.4,0,0,0-.1-.3h-.1c0-.1-.1-.1-.2-.1h-.3c0-.1-.2,0-.1,0s-.1.1-.1.2v.5c0,.1,0,.2.1.2a.1.1,0,0,0,.1.1H29a.3.3,0,0,0,.1-.2c.1-.1.1-.1.1-.2s.1-.2,0-.2,0-.2-.1-.2-.1-.1-.1-.2h-.3a.1.1,0,0,1-.1-.1c-.1,0-.1-.1-.2-.2v-.8c0-.1,0-.1.1-.2H29a.3.3,0,0,1,.1.2l.2.3a.4.4,0,0,0,.1.3.4.4,0,0,1-.1.3c0,.1-.1.2-.3.2h-.2Z"/><path id="path3964" class="cls-64" d="M32.3,24.2h-.6l-.3.3h-.7c0-.1,0-.1.1-.1h.1l.2-.2h.5l.3-.2h.8c.1.1.2.2.2.3s0,.3-.1.4-.1.2-.2.3l-.4.2h-.3l-.2-.2v-.5c0-.1,0-.1.1-.2h-.1v.3c0,.1,0,.2.1.2h.7c0-.1.1-.1.1-.2s.1-.1.1-.2a.1.1,0,0,0,.1-.1h0l-.2.3c0,.1-.1.2-.2.3s-.1.1-.2.2h0l-.3.2a.1.1,0,0,1-.1-.1c-.1-.1-.1-.1-.1-.2v-.6c0-.1.1-.1.1-.2l.2-.2h.2l-.3.2-.6.4-.4.2H31l.4-.2c.1-.1-.1-.1-.1-.1a.1.1,0,0,1-.1.1H31c-.1,0-.2.1-.1,0l-.3.2s-.1.1,0,.1h.1l.9-.5s.2-.1.2-.2h.1l-.4.2h-.3a.1.1,0,0,1-.1.1c.1,0,.1,0,.1-.1s.3,0,.3,0l.7-.4c.1,0,.2,0,.2-.1h.1c-.1.1-.1,0-.1.1h-.3c0,.1-.1.1-.2.1h.2a.1.1,0,0,1,.1-.1s.3-.2.3-.3l-.4.3-.5.2h.1l.4-.3.5-.2h0c0,.1-.3.2-.3.2l-.4.3h-.1l.4-.3h.3l-.4.2-.7.3h-.3l.4-.3.4-.2h0l-.4.3-.8.4h-.2l.3-.2h0c.2-.1.4-.3.6-.3s.2-.1.1,0l-.4.3h.1l.6-.4.4-.3c.2,0,.1.2,0,.2h-.3c.2-.1,0,0,0,.1a.3.3,0,0,0-.1.2v.7h.5c.1-.1.2-.2.2-.3a.2.2,0,0,0,.2-.2h0c.2-.1.1-.1.1,0v.2a.3.3,0,0,0-.1.2h-.9a.3.3,0,0,1-.1-.2v-.3l.2-.3h.1a.1.1,0,0,0-.1.1V25c.1.1.1.2.2.2h.5l.2-.3a.6.6,0,0,0,.1-.4l-.2-.3c-.2-.1-.2,0-.4,0l-.4.2h-.3c0,.1-.1.1-.2.1h-.1l-.2.2-.3.2h.5l.2-.2.4-.2h.1l.2-.2h.2Z"/><path id="path3966" class="cls-64" d="M33.2,31.7c0-.2-.1-.3-.1-.4a4.3,4.3,0,0,1-.1-.5.2.2,0,0,0-.2-.2l-.3-.2h-.1l-.2.3a.6.6,0,0,0-.1.4c0,.2,0,.3.1.4l.3.2c.1.1-.1.3-.2.2l-.4-.2h-.3a.1.1,0,0,1,.1-.1h0c-.1,0-.1.1-.1.2v.5a.8.8,0,0,0,.1.4h.5l-.2.2h-.5a.6.6,0,0,1-.1-.4v-.5a1,1,0,0,1,.1-.3l.2-.2h.4l.3.2h-.1l-.3-.2c0-.1-.1-.2-.1-.4a.6.6,0,0,1,.1-.4c0-.1.1-.2.2-.3l.5-.2H33l.2.3a.7.7,0,0,0,.1.5c0,.1.1.2.1.3l-.2.2Z"/><path id="path3968" class="cls-64" d="M20.7,7.9a.8.8,0,0,1-.4.4l-.3.4c0,.1-.1.2-.2.4l-.3.3-.4.2h.3l.3-.2h.1c-.3.1-.2.1-.1,0V9a.4.4,0,0,0,.1-.3h0a1.3,1.3,0,0,0,.1.6h0a1.3,1.3,0,0,0-.1-.6c-.1-.1-.1-.1.1-.1h0v.2c0,.1,0,.2-.2.2h-.1c0-.1,0-.4-.1-.4h.2v.3h-.2c0-.1,0-.2-.1-.2h.1v.5h0c.1.1.1.4-.1.3a.9.9,0,0,1-.1-.5c0-.1-.1,0,.1-.2h.1v.4l-.2.2h0V8.6h.2v.4H20c-.3.3-.2.1-.2,0s0-.7.3-.4a1.3,1.3,0,0,1,.1.6.3.3,0,0,1-.1.2c-.1.1-.2.2-.2,0a1.4,1.4,0,0,1-.2-.6h.1c.1-.2.2-.3.3-.1A.8.8,0,0,1,20,9a.7.7,0,0,1-.5.4h-.6c-.2,0,0-.2.1-.1h.4c-.2.1-.1.1,0,0l.2-.3.2-.3a.8.8,0,0,1,.4-.4l.3-.4Z"/><path id="path3970" class="cls-64" d="M19.4,6.3c.1,0-.2.1-.1.1s.1-.1,0,0l-.3.3c0,.2-.1.3-.2.5v.5a.6.6,0,0,0,.1.4h.7l.3-.4a.7.7,0,0,0,.1-.5.3.3,0,0,0,0-.4l-.2-.2h-.4v.2h-.2a.3.3,0,0,1,.1-.2c.2-.2.3-.3.5-.3H20c.1.1.2.2.2.3s0,.3,0,.4a4.3,4.3,0,0,1-.1.5l-.3.5-.6.3c-.2.1-.3.2-.5.1a.6.6,0,0,1-.1-.4.7.7,0,0,1,.1-.5c0-.2.1-.3.2-.5l.2-.3a.9.9,0,0,1,.5-.3Z"/><path id="path3972" class="cls-64" d="M19.5,4.7l-.4.4-.5.5-.6.3c0,.1-.1.1,0,.1s0,0-.1,0h.4c.1-.1.2-.2.2-.3a.8.8,0,0,0,.4-.4l.2-.2-.6.2h0a1,1,0,0,0-.5.4l-.4.4h.1l.4-.3.6-.6h0a1.7,1.7,0,0,0-.6.6l-.3.3h-.2c.2-.1.2-.2.3-.3l.7-.6h.2a.1.1,0,0,0,.1-.1c.1,0,0,.3-.1.3s-.3.4-.6.5a1.8,1.8,0,0,1-.7.5h0l.3-.4a1.6,1.6,0,0,1,.8-.6,1.5,1.5,0,0,1,.7-.3h0c0,.1-.2.2-.2.3l-.4.4-.6.5h-.3l.4-.3h.2c.2-.2.4-.3.5-.5l.4-.4Z"/><path id="path3974" class="cls-64" d="M18.3,5.5h0l.3-.3.3-.3h.2l-.3.3-.6.5Z"/><path id="path3976" class="cls-64" d="M23.4,17.7h-.3a.5.5,0,0,0-.2.4l-.2.4c0,.1.1.1-.1.2h0c.1-.1.1-.3.2-.5l.4-.5h.2l-.4.5a1.4,1.4,0,0,0-.2.6c-.1.2-.3.2-.2,0a.9.9,0,0,1,.1-.5l.2-.3.6-.3Z"/><path id="path3978" class="cls-64" d="M23.8,19.1h-.1c-.2.2,0,.2-.3.2l.3-.5h.2l-.3.4c-.5.3-.2.2-.2.1h.1c.2-.1.3-.3.5-.3Z"/><path id="path3980" class="cls-64" d="M24.5,17.9c0,.1-.1.2-.1.3h-.1a.1.1,0,0,0-.1-.1c-.1,0-.1.1-.1,0h.2a.1.1,0,0,0-.1.1h-.1c.1-.1.3-.3.4-.1s-.1.4-.3.3.1-.2.1-.3Z"/><path id="path3982" class="cls-64" d="M25,19.1h-.6a.4.4,0,0,0-.1.3v.6H24c-.1-.1.1-.1.1-.2l.3-.2c0-.2,0-.3.1-.4s.2-.3.4-.3a.2.2,0,0,1,.2.2c0,.2,0,.2-.2.3s.1-.2,0-.3-.2-.1-.3-.1-.2.1-.1,0h-.1l.4-.3c.1,0,.2,0,.3.2v.3c-.3.2-.2.1-.2-.1s0-.2-.1-.2h-.2a.8.8,0,0,1-.1.4.2.2,0,0,1-.2.2c0,.1-.2.2-.1.2s0,0-.1.1h0c.1-.1.1-.1.1-.2s-.1-.2-.1-.4l.2-.3a.5.5,0,0,1,.5-.3h.4l-.2.2Z"/><path id="path3984" class="cls-64" d="M26,19.3l-.3.3-.3.4c-.1.1-.2.2-.2.3s-.1.2-.1.3h-.2a.4.4,0,0,0,.1-.3c.1-.1.1-.3.2-.4l.3-.3.3-.3Z"/><path id="path3986" class="cls-64" d="M25.5,19.8l-.3-.2c-.1-.1-.1-.1.2-.2h-.2c.1-.1.1-.1.2,0l.3.2Z"/><path id="path3988" class="cls-64" d="M21.4,20.9l-.2.4c0,.1.1.2.1.3s.2.2.3.2h.2a.2.2,0,0,1-.3,0c-.2,0-.3,0-.4-.2s-.1-.2,0-.4a.4.4,0,0,1,.1-.3Z"/><path id="path3990" class="cls-64" d="M22.3,21.3c-.1-.1-.3,0,0-.1h0a1,1,0,0,0,.1.3h-.2c0-.1,0-.1-.1-.2s-.1-.2.1-.3h.2l.3.3c0,.2-.3.1-.4,0h.2c.2.1.2,0,0,.2h0l-.3-.3h-.1c.1-.3.1-.1.2,0s.4.5,0,.4-.2-.2-.2-.3.2-.2.3-.1Z"/><path id="path3992" class="cls-64" d="M21.9,20.1l-.2.2c.1,0,0,0-.1.1h0s0,.1.1,0h0a.1.1,0,0,1-.1.1v-.2h.2c0,.1,0,.1-.1.2s-.3.3-.4.1a.3.3,0,0,1,.3-.3c.2.1,0,.3-.2.2l.2-.2Z"/><path id="path3994" class="cls-64" d="M22.8,20.5h0c.2-.1,0,0,0,.2s.1.1.2.2h.3c-.2.1-.1.1-.2,0h-.4c0-.2-.1-.3-.1-.4a.3.3,0,0,1,0-.4h.2c-.1.1-.1.2-.1.4l.2.3.4.2c.2.1,0,.2-.2.2a.2.2,0,0,1-.3,0c-.1-.1-.2-.1-.2-.3s.2-.3.4-.3Z"/><path id="path3996" class="cls-64" d="M23.3,20c0-.1.1-.2.1-.3h.2v.3Z"/><path id="path3998" class="cls-64" d="M20.9,22c0,.2.1.3.1.4s.2.3.2.5h-.1A.1.1,0,0,0,21,23c0-.2-.1-.3-.1-.5a.5.5,0,0,1-.2-.4Z"/><path id="path4000" class="cls-64" d="M21.1,36.8v1.1a3.1,3.1,0,0,0,.3,1.3v.2a2,2,0,0,0,.8.8l.7.4.4.2.3.2.3.3h-.9l-.8-.2c0-.1-.2-.1-.3-.2l-.6-.4a4.2,4.2,0,0,1-.4-1,2.7,2.7,0,0,1-.3-1.2c-.1-.3-.1-.6-.2-.8s0-.1.2-.2h0v.4a2.8,2.8,0,0,0,.3,1.3l.3.8a.3.3,0,0,1,.1.2.1.1,0,0,0,.1-.1h-.2c-.1-.2-.1-.4-.2-.5a3,3,0,0,0-.2-1,1.4,1.4,0,0,1-.2-.7c0-.1,0-.2.2-.2h0c0,.3.1.6.1.8s.1.2-.1.1,0-.1,0-.1v-.3c0-.4.1-.9.1-1.3h0v-.2c.2-.1.2-.1.2,0a3.1,3.1,0,0,0,.1,1c-.1.2,0,.5,0,.7s-.4-.1-.4-.3-.1-.6-.1-1,0-.3.3-.3h0c0,.3-.1.6-.1.9s0,.2-.2.3h0v-.2a3.4,3.4,0,0,1,.1-1v-.3H21a1.3,1.3,0,0,0-.1.6.9.9,0,0,1,.1.5c0,.1,0,.2-.2.2h0a1.5,1.5,0,0,0,.1-.7h.2c0,.1-.1.2-.1.4a2,2,0,0,1-.1.7h-.1c-.1,0,0-.1,0-.1v-.7h.1v.8a4.3,4.3,0,0,0,.2,1.1l.6,1a1.6,1.6,0,0,0,.4.7h.1s.3,0-.2.1h0l-.4-.7c-.1-.2-.2-.3.1-.3h0a.1.1,0,0,1,.1.1l.6.7.5.4a.1.1,0,0,0-.1.1h-.1a.2.2,0,0,0-.2-.2h-.2c.2-.2.1-.2.3-.1a1,1,0,0,0,.5.4l.3.2h-.3l-.5-.3c-.2-.1-.3-.1,0-.2h.1l.6.2h-.5c.1,0,.1,0,.1.1h.3l.7.2h.3c.1,0,0,.1,0,.1s-.2.1-.3.1h-.1c.2-.2.2-.2.2-.1s.2.1.3.2h-.2l-.2-.2c0-.1.1-.1.1-.2h.4c0,.1.1,0,.1,0s-.2.1-.4,0h.2c-.1.2-.1.2-.2.1l-.7-.3-.4-.2-.3-.2h-.4c.2-.1.1-.1.2,0l.6.3c.1,0,.5.1.6,0h-.2c-.1.1-.1,0-.1,0h-.1l-.4-.2-.5-.2c-.1-.1-.1-.1.1-.1s.1,0,.1.1l.7.4c.1.1.3.1-.1.2h-.1l-.8-.3-.5-.2c-.1-.1-.1-.1.1-.2H22l.8.4.8.2h-.3a.5.5,0,0,0-.4-.2l-.6-.4h-.1c0,.1.1.2.2.3s.1.1.1.2h-.1l-.2-.2c-.1-.1-.2-.2-.2-.3s.1-.1.2-.2l.3.2.6.3.4.3h.1c-.1.2-.1.2-.2.1l-.8-.2-.7-.4h-.1c.1-.2.1-.1.2,0l.5.2.7.3h.1c.1,0,.1,0,.1.1s-.2.1-.3,0l-.6-.4h-.2c.2-.2.2-.2.3-.1l.5.2.5.2c0,.1-.1.1-.1.2h-.6c-.2-.1-.4-.1-.6-.3s.1-.2.2-.2h.4c.1.1.1.2.2.2l.5.2.7.3h.1c-.2.2-.3.2-.4.1h.5l-.3.2h-.3a.1.1,0,0,1,.1-.1h.1c0,.1.1.1.2.2h-.2l-.3-.2a.2.2,0,0,1,.2-.2h.1a.1.1,0,0,1-.1.1h-.3l-.6-.2h-.4a.1.1,0,0,0-.1-.1h.6l.6.2H24c.1,0,.1-.1.1,0h-1l-.5-.3h-.1c.1-.2.1-.1.2,0l.6.3c.1.1.1.1-.1.2h-.3l-.5-.4h-.1c.2-.2.2-.1.3,0s.4.2.4.3-.2,0-.2.1l-.6-.4-.6-.7a.3.3,0,0,0-.1-.2c.2-.3.2-.1.3.1l.4.7v.2c-.2.2-.2.1-.3,0a4.3,4.3,0,0,1-.4-.7l-.5-1a4.5,4.5,0,0,1-.3-1.1v-.8c.1-.1.2-.1.2-.2a.1.1,0,0,1,.1.1v.3a.4.4,0,0,0-.1.3h0s.1.1,0,.1-.1.1-.1.2v-.7c.1-.2.1-.1.1-.3v-.2h0a.2.2,0,0,1,.2-.2h0a2,2,0,0,0-.1.7h0c-.2.2-.2.1-.2,0a.9.9,0,0,0-.1-.5c0-.2.1-.4.1-.6s.2-.1.2-.2a.1.1,0,0,1,.1.1c0,.1-.1.2-.1.3v1a.3.3,0,0,0-.1.2H21c-.3.3-.2.1-.2,0a2.8,2.8,0,0,0,.1-.9H21v.2a3.1,3.1,0,0,0,.1,1v.3h0v-.7c0-.3-.1-.6-.1-1s0,0,.2-.2h0a.1.1,0,0,1-.1.1v1.9c-.2.2-.2.3-.3.1a2.5,2.5,0,0,0-.1-.8h.2c0,.3.1.5.1.7l.3,1c.1.2.1.4.2.6h0l-.2.2c-.1,0-.1-.2-.2-.2l-.3-.8a5,5,0,0,1-.3-1.3v-.4h.2c0,.2.1.5.1.8a5.6,5.6,0,0,0,.4,1.2,2.5,2.5,0,0,0,.4.9c.1.3.3.4.6.5h.3l.7.3h.7s-.2.1-.1.1-.2-.2-.3-.3l-.3-.2-.3-.2-.7-.4a2.3,2.3,0,0,1-.9-.8.3.3,0,0,0-.1-.2,3.1,3.1,0,0,1-.3-1.3V36.9Z"/><path id="path4004" class="cls-65" d="M31.4,23.1l-.3-.2h-.3c-.1-.1-.4.1-.5,0v-.2h-.4c-.1-.1-.3.1-.4,0s-.1-.1-.2-.2h-.7s.1-.1,0-.1h-.2c-.2-.1-.2-.2-.3-.3h-.3c0-.1-.1,0-.1,0a.1.1,0,0,1,0-.2h-.3v.2h-.1c-.1.1,0,.5,0,.6h-.2v.6c0,.1.1.6,0,.6H27c-.1.1.1.3,0,.3h-.2c0,.1.1.1,0,.2s-.1-.1-.1,0,.1.3,0,.4-.1,0-.1,0v1.1c0,.1-.1.2,0,.3s.1-.1.1,0-.1.3,0,.4h.1c.1.1,0,.3,0,.5s.2-.1.2,0-.1.2,0,.2.1,0,.1,0a.1.1,0,0,1,0,.2h.2c0,.1-.1.2,0,.3h.4c.1.1-.1.3,0,.3h.1v.2H28s-.1.1,0,.1-.1-.4.2.2,0,.2,0,.3h.2c0,.1-.1.1,0,.2s0-.2.2.1,0,.1,0,.2.1-.1.2,0-.1.1,0,.1h.1c.3.3-.4,0,.2.3s.1,0,.2,0,.5-.4.9-.6h.1a.1.1,0,0,0,.1-.1h.3V29s.1.1.1,0,0-.1,0-.1-.1-.3-.2-.6,0-.2,0-.3l-.3-.8v-.8h-.1c-.1-.1,0-.1,0-.2H30v-.2h-.1v-.2h-.2c-.3-.1,0-.1-.1-.3s0,.2-.3-.1.1-.1,0-.2h-.1v-.2s-.1.1-.1,0,0-.2,0-.3-.2.1-.2,0h0c0-.1-.1,0-.1,0v-.5h.3s-.1-.1,0-.1H31c0-.1.1-.1.1-.2h0l.2-.2v-.4h-1c-.3,0,.1,0-.3-.2h-.7c-.1-.1-.3.1-.4,0v-.2h-.5c-.6-.3.1,0-.2-.3s-.2.1-.2,0,0-.1,0-.1a.1.1,0,0,0-.2,0v-.2h-.1c-.1,0,0-.1,0-.1s-.1,0-.2,0,.1-.2,0-.2H26.4v.3c0,.2.1.3,0,.5h-.1c-.1.1,0,.5,0,.6s0,.1-.1.3,0,.2,0,.3a7.5,7.5,0,0,0,0,1.5h.1v.2h.1c.1.1,0,.2,0,.3l.2.2c0,.1-.1.3,0,.4h.1c.1.1,0,.5,0,.6s.1.1.1.2,0,.2,0,.2a.1.1,0,0,0,.2,0c.1.1-.1.4,0,.5h.1c.1.1,0,.2,0,.3h.2c.1.1-.1.5,0,.6s.1-.1.1,0,0,.2,0,.3h.1c.1.1,0,.1,0,.2h.3l.4.5c.2.1.2-.2.3.1v.2c.1,0,.2-.1.3,0s-.1.1,0,.1.1,0,.1,0l.2.2h.1c.1.3.1.1.3.2h.2a2.9,2.9,0,0,0,0-1.3c0-.1-.1-.1-.1-.2a.4.4,0,0,1-.1-.3h0l-.2-.3c0-.1.1-.1,0-.2h-.1c0-1.6.1.2-.1-.6a3.4,3.4,0,0,1,0-1h-.2c0-.1.1-.3,0-.3s-.1-.1-.1-.2,0-.7,0-.7-.1,0-.2,0,.1-.1,0-.2h-.1c-.1-.1,0-.2,0-.3V24c0-.1.1,0,.1,0l.2-.2h.4a.1.1,0,0,0,.1-.1h1.5c.6-.8.7-.3.5-.9"/><path id="path4006" class="cls-65" d="M18.8,39.4H19c0-.1.1-.2.1-.3l.3-.3a.4.4,0,0,0,.1-.3l.2-.2c0-.1-.1-.3,0-.4s.1-.1.1-.2h0c0-.1.1-.2.1-.3s0-.3,0-.5h.2c.1,0-.1-.2,0-.2s.1-.1.1-.2,0-.2,0-.3l.2-.3s-.1-.1,0-.1.1-.1.1-.2v-.3a.1.1,0,0,1,.1-.1c.1-.1,0-.1,0-.2l.2-.3h.1c.1-.2,0-.4,0-.6s0,.5.3-.8h0c0-.1.2-.2.3-.3s-.1-.4,0-.6.1-.1.1-.2,0-.8,0-1,.1-.9-.1-.9,0,.2,0,.2,0-.2,0-.2-.1.2,0,.3.1.1.1.2.1.5.1.6.2,0,.2.1-.1.4,0,.6.1.2.1.3v.3l.2.3c0,.1-.1.2,0,.3s.2.2.2.3,0,.3,0,.4.5.4.6.6v.2h.1v.2c.1.1.2.1.3.3h0c0,.1.1.1.1.2s0,.2,0,.3.1-.1.2,0-.1.1,0,.1h.2c.5.2,0,.1.2.3h.1l.3.3h.1c.1,0,0,.1,0,.2s0-.2.3.1h0l.2.2c0,.1-.1.2,0,.3h.1v.3c0,.1.1.1.1.2s0,.6,0,.7,0,.2.2.3-.1.3,0,.3.1,0,.1,0,0,.6,0,.8.1.2,0,.3-.1-.1-.1,0a.3.3,0,0,0-.3.3c-.1.2.2.1-.1.3h-.3c-.1,0,0,.1,0,.1s-.2-.1-.3,0v.2c-.1,0-.3-.1-.4,0h-.2s.1.1,0,.1-.1,0-.2,0-.1.2-.2.2h-.1c-.1.1-.2,0-.3,0v.2a.8.8,0,0,1-.4.4h-.1c-.1.1,0,.3,0,.3s-.1,0-.2,0,0,.2-.1.2h-.1c-.1,0,0,.1,0,.1s-.1,0-.2,0,.1.1,0,.2-.2-.1-.3,0,.1.1,0,.1-.3-.1-.4,0,.1.1,0,.2h-.1c-.2,0-.6.1-.7,0s-.2-.4-.4-.5-.1.1-.2,0a.6.6,0,0,1-.2-.6h-.2s.1-.3,0-.4-.1-.1-.1-.2v-.3h-.1c-.1,0,0-.1,0-.1l-.2-.2c0-.1.1-.2,0-.3S18.7,40.3,18.8,39.4Z"/><path id="path4008" class="cls-65" d="M17.1,31.7l-.2.3h-.3c0,.1.1.2,0,.3s-.2.3-.2.5.1.3,0,.4,0-.8-.3.3v.2h-.2c0,.1.1.1,0,.2h-.1v.2c-.1,0-.2-.1-.3,0s.1.1,0,.1-.1.3-.2.3h-.2c0,.1.1.1,0,.2s-.1-.1-.1,0,.1,0-.2.3h-.2c-.1,0,0,.1,0,.1h-.2v1.5h.2s-.1.1,0,.1.1,0,.1,0v.2h1a.1.1,0,0,1,0-.2c.1,0,.4.1.5,0h.3l.3-.3h0l.4-.5h0c0-.1.1,0,.1,0s0-.3,0-.3l.2-.2s-.1-.1,0-.1h.1c.1-.1,0-.2,0-.3s.1-.1.1-.2,0-.2,0-.3h.2c0-.1-.1-.1,0-.2H18q.2,0,.3-.3h.1c.1-.1,0-.1,0-.2s.1.1.2,0-.1-.1,0-.1.1,0,.1,0,0-.6,0-.8,0,.1.1-.3a5.7,5.7,0,0,0,0-1.3H19c.3-.3,0,.4.3-.2s-.1-.2,0-.3h.1v-.6c-.1-.1-.2.1-.3,0s.1-.1,0-.1H17.7"/><path id="path4010" class="cls-66" d="M12.9,14c-.2.2-.1.4-.3.6s-.1.1-.1.2v.3c-.3.7.1-.7-.3.4s.1.2,0,.3h-.1V16h-.2c-.1,0-.1.2-.2.3s-.1-.1-.2,0-.2.1-.2.3a3.3,3.3,0,0,0,0,1.4c0,.1.1.1.1.2v1.2c-.3.6,0-.2-.3.1s.1.3,0,.3H11c-.1.1,0,.1,0,.2s-.1.1,0,.1h.9c.2,0,.5-.4.6-.6s0-.2.1-.4,0,.6.3-.5a6.5,6.5,0,0,0,0-1.4v-.9c0-.1.1-.1.2-.2s-.1-.2,0-.3h.1c.1-.1-.1-.2,0-.3h.1v-.2h.2c0-.1-.1-.3,0-.3s.1,0,.1,0v-.2c.1-.1.3-.1.3-.3h.2c0-.1-.1-.5,0-.6s.2-.4.1-.6v-.2c-.1,0,0-.1,0-.1h-.5"/><path id="path4012" class="cls-67" d="M21.2,14.9h-.6c0-.1-.2,0-.2,0l-.2-.2h-.9c-.1-.1,0-.1,0-.2h-.6V14H17.2c-.1.1,0,.2,0,.3v3.7c.2.2.1-.4.1-.5s0,.7.3-.4v-.4c0-.1.1-.1.1-.2s0-.1,0-.1l.2-.2c0-.1-.1-.3,0-.4v-.2h1.8c.2-.2.1.2.1-.2"/><path id="path4014" class="cls-68" d="M13.2,20.8a.2.2,0,0,0,.2-.2.3.3,0,0,0,.1-.2v-.9h-.7a.4.4,0,0,1-.1.3c0,.1,0,.1-.1.2v.2c0,.1-.1.1-.1.2h0V20a.4.4,0,0,0,.1-.3c.1,0,.1-.1.1-.2l.3-.3h.2c.1,0,.2,0,.2.1l.2.2v.6a.4.4,0,0,0-.1.3.3.3,0,0,0-.1.2l-.2.2Z"/><path id="path4016" class="cls-68" d="M12.8,18.8c-.1,0-.1.1-.2.2h0a.4.4,0,0,0-.1.3.3.3,0,0,0-.1.2c0,.1-.1.1-.1.2s-.1.1-.1.2h-.3c-.1,0-.2,0-.2-.1a.1.1,0,0,1-.1-.1.3.3,0,0,1-.1-.2v-.6c.1,0,.1-.1.1-.2h.1a.3.3,0,0,1,.1-.2h.1v-.2h0c0,.1,0,.1-.1.1s-.1.1-.1.2,0,.1-.1.2a.3.3,0,0,1-.1.2v.5c0,.1,0,.2.1.2h.1a.1.1,0,0,0,.1.1h.3v-.3a.3.3,0,0,0,.1-.2V19l.2-.2Z"/><path id="path4018" class="cls-68" d="M11.7,17.8V18a.4.4,0,0,1-.1.3.4.4,0,0,1-.1.3.3.3,0,0,0-.1.2.3.3,0,0,0-.1.2h-.1c0-.1.1-.1.1-.2s.1-.1.1-.2.1-.1.1-.2a.4.4,0,0,0,.1-.3.4.4,0,0,0,.1-.3Z"/><path id="path4020" class="cls-64" d="M10.9,19.5a.1.1,0,0,0,0-.2H11c-.1,0-.1.1-.1,0v-.2H11c.1,0,0,.1,0,.1Z"/><path id="path4022" class="cls-64" d="M12.6,20.3v-.2a.4.4,0,0,0,.1-.3h.1c0-.1,0-.2.1-.2s.1-.1.1-.2h.8v.2a.4.4,0,0,1,.1.3c0,.1-.1.2-.1.3v.2l-.2.2a.3.3,0,0,1-.1.2h-.2c.1,0,.1,0,.1-.1s.1-.1.1-.2a.2.2,0,0,0,.2-.2c.1,0,.1-.1.1-.2s.1-.1.1-.2v-.3c-.1-.1-.1-.1-.1-.2h-.3c-.1,0-.2,0-.2.1h-.1c.1-.1.1,0,0,0H13a.1.1,0,0,1-.1.1h0c0,.1-.1.1-.1.2v.5Z"/><path id="path4024" class="cls-64" d="M12.7,18.9a.3.3,0,0,0-.1.2l-.2.3v.2c-.1.1-.1.2-.2.2V20h-.4a.4.4,0,0,1-.1-.3v-1h.1l.3-.2h.1c-.1,0-.2,0-.2.1h-.1c0,.1-.1.1-.1.2v1c0,.1,0,.2.1.2s.1.1.2.1h-.1s.2-.1.1-.1a.1.1,0,0,0,.1-.1l.2-.2v-.2l.2-.3a.4.4,0,0,1,.1-.3Z"/><path id="path4026" class="cls-64" d="M11.9,18c-.1.1-.2.2-.2.3s-.1.2-.1.3-.1.1-.1.2-.1.2-.2.2h0c.1-.1.1-.2.1-.4s.1-.1.1-.2.1-.2,0-.2h.1a.1.1,0,0,1-.1.1.4.4,0,0,1-.1.3v.3h-.1c0-.1.1-.1.1-.2v-.3h.1c0,.1-.1.2-.1.3h0a.1.1,0,0,0-.1.1h-.1c.1-.1.1-.2.2-.2v-.2h0c-.1,0-.1.2-.1.2h0a.3.3,0,0,1,.1-.2v-.2h0a.4.4,0,0,0-.1.3.4.4,0,0,0-.1.3.3.3,0,0,0-.1.2c-.1.1-.1.1-.1.2h-.1c0-.1,0-.2.1-.2a.4.4,0,0,1,.1-.3c0-.1,0-.2.1-.2s0-.3.1-.3.2-.2.2-.1,0,.2-.1.2-.1.2-.1.3h-.2s0-.2.1-.2.1-.3.2-.3v.2l-.2.3h-.1a.3.3,0,0,1,.1-.2c0-.1.1-.3.1-.4h.2a.3.3,0,0,0-.1.2c0,.1-.1.1-.1.3v.2h-.1v-.2c.1-.1.1-.2.1-.4a.1.1,0,0,0,.1-.1h.1c.1.1,0,.1,0,.2a.4.4,0,0,1-.1.3.6.6,0,0,1-.1.4h0v-.3c0-.1.1-.2.1-.3s.1-.2.2-.3Z"/><path id="path4028" class="cls-64" d="M10.8,19.6h0c.1-.1.1-.1.1,0h-.1c.3-.1.1,0,0,0h0c.1,0,.1,0,.1-.1H11c0,.1-.2.2-.2.1s0,0,.1-.1h-.1Z"/><path id="path4030" class="cls-64" d="M11.2,17.2h-.1l-.2.2c0,.1-.1.2-.1.3l-.2.3a.3.3,0,0,0-.1.2c0,.1-.1.2-.1.3a.3.3,0,0,0-.1.2h-.2c0-.1.1-.1.1-.2v-.2c0-.1.1-.1.1-.2v-.3l.2-.3v-.2a.2.2,0,0,1,.2-.2c0-.1.1-.1.1-.2Z"/><path id="path4032" class="cls-64" d="M10.3,17.8a.4.4,0,0,0,.1.3c0,.1,0,.2.1.2l.2.2h0a.1.1,0,0,0-.1-.1h-.2a.3.3,0,0,1-.1-.2.4.4,0,0,1-.1-.3Z"/><path id="path4034" class="cls-64" d="M9.7,16.3h.2c0,.1.1.1.1.2s.1.1.1.2v.2c0,.1-.1.1-.2.2H9.1c0-.1-.1-.1-.2-.1s-.1.1-.1,0,.1,0,0,.1V18c0,.1.1.1.2.2h.4c.1,0,.1-.1.1-.2v-.4a.3.3,0,0,1-.1-.2v-.5c.1,0,.1-.1.2-.2h.1s-.1.1-.1,0h.1c-.1,0-.1.1-.1.2v.2a.3.3,0,0,0,.1.2V18H8.8c-.1,0-.1-.1-.2-.2v-.5c.1,0,.1-.1.1-.2l.3-.2h1v-.5H9.7Z"/><path id="path4036" class="cls-64" d="M15,16.6l-.2.3a.8.8,0,0,1-.2.4c0,.1-.1.2-.1.3s-.1.1-.1.2l-.3.2c-.1.1-.1,0-.2,0s-.1-.2-.1-.3v-.5h.5c0-.1-.1-.1-.2-.1H14a.1.1,0,0,1,.1-.1H14c0,.1-.1.1-.1.2v.5c0,.1.1.1.1.2h.2c.1,0,.1-.1,0,0h.1a.4.4,0,0,1,.1-.3c0-.1.1-.2.1-.3s.2-.2.2-.3.2-.2.2-.3Z"/><path id="path4038" class="cls-64" d="M14.3,15.9c-.1.1-.1.2-.2.2a.4.4,0,0,1-.1.3.1.1,0,0,1-.1.1h-.3c-.1,0-.1,0-.1-.1v-.3h.1c-.1,0,0,.1,0,.2s0,.1.1.1h.2a.1.1,0,0,0-.1.1c.1-.1.1-.1.1-.2s.1-.1.1-.2l.2-.2Z"/><path id="path4040" class="cls-64" d="M13.9,15l-.2.2c0,.1-.1.2-.1.3l-.2.2h-.1l.2-.2c0-.1.1-.2.1-.3l.2-.2Z"/><path id="path4042" class="cls-64" d="M13,15.9h0c.1-.2,0-.1,0,0h0Z"/><path id="path4044" class="cls-64" d="M13.7,14.1v.2a.4.4,0,0,0-.1.3l-.2.2V15h-.4v-.8L13,14h.1c.3-.2.1,0,0,0h-.2v.8H13c.1,0,.1,0,0,.1h.2l.2-.2a.4.4,0,0,1,.1-.3v-.2Z"/><path id="path4046" class="cls-64" d="M13,13.2h0c0,.1-.1.1-.1.2l-.2.3v.4a.3.3,0,0,0-.1.2h-.3c.1,0,.1,0,0,.1h.2c0-.1,0-.1.1-.2v-.2a.3.3,0,0,0,.1-.2l.2-.3.3-.3Z"/><path id="path4048" class="cls-64" d="M12.3,13.7c0,.1,0,.1.1.2v.3c.1,0,.1.1.1.2h.1c-.2.1-.1,0-.2-.1s-.1-.2-.1-.3h0V14a.4.4,0,0,0,.1.3h-.1V14c0-.1-.1-.2-.1-.3Z"/><path id="path4050" class="cls-64" d="M14.3,17.3a.1.1,0,0,0-.1-.1h-.3v.5h0c0,.1,0,.1-.1.1h.1v-.3l.2-.3h.2c.1-.1.2-.1.2,0s.1.1.1.2.1.1.1.2h-.1v-.2a.1.1,0,0,1-.1-.1h-.2c-.1,0-.3.1-.1,0a.1.1,0,0,0-.1.1c0,.1-.1.2-.1.3h-.1c.1-.1.1-.1.1-.2l.2-.2h.4v.5c0,.1-.1.1-.1.2a.1.1,0,0,0-.1.1h.1l.2-.3c0-.1,0-.2.1-.2v-.3a.3.3,0,0,0,.1-.2h.1a.1.1,0,0,1,.1-.1h-.1V17c-.1.1-.2.2-.2.3s-.1.2-.1.3v.2c-.1,0-.1.1-.1.2s-.2.1-.2-.1h.1c0,.1.1,0-.1.1s.1-.1.2-.2v-.2a.3.3,0,0,1,.1-.2c.1-.2.1-.3.2-.4H15c0,.1-.1.1-.1.2a.3.3,0,0,0-.1.2c0,.1-.1.1-.1.2a.4.4,0,0,0-.1.3l-.2.2-.3.3c0-.1.1-.1.1-.2h.1c0-.1.1-.2.1-.3v-.2a.3.3,0,0,0-.1-.2h-.1c.1,0,0,.1,0,0l-.2.2a.4.4,0,0,1-.1.3h-.1c0-.1,0-.1.1-.2v-.2h.4l.2.2v.2h-.1a.3.3,0,0,0-.1-.2c0-.1,0-.1-.1-.2h-.2l-.2.2v.3c-.1.1-.1.2-.2.1h0v-.2a.4.4,0,0,1,.1-.3h0l.3-.2h.2Z"/><path id="path4052" class="cls-64" d="M14.2,16.1l-.2.2v.2h-.1l.2-.2c0-.1.1-.2.1-.3h.1l-.2.3-.2.3a.2.2,0,0,1-.2.2h-.2a.3.3,0,0,1-.1-.2h.1c0,.1,0,.2.1.2s.1.1.2.1h.3a.1.1,0,0,0-.1.1h-.5c0-.1-.1-.1-.1-.2h.1v.2c.1,0,.1.1.2,0h0l.2-.3.2-.3c0-.1,0-.1.1-.1h.1l-.2.2-.2.3h-.1l.2-.3Z"/><path id="path4054" class="cls-64" d="M13.9,15.2l-.2.3-.2.3h0c0-.1-.1.1-.1,0l.2-.3h.1c.1,0,0,.1,0,.1h-.1l-.2.3h0l.3-.3h.2c-.1,0-.1,0-.1.1h-.1v.2h.1v.2h-.1v-.2l.3-.2h0v.2l-.3.3h-.2l.2-.2c.1-.1.2-.3.3-.3h-.1v.3h-.2l.2-.3.2-.2Z"/><path id="path4056" class="cls-64" d="M13.9,14.3l-.2.2-.2.4-.2.2h-.1v-.3c.1,0,.1-.1.2-.2h0l-.2.3v.2h-.1l.3-.4c.1,0,.2-.2.2-.3h0l-.3.3V15H13v-.7a.1.1,0,0,0,.1-.1l.3-.2H13v.6c0,.1,0,.2.1.2h0c.1,0,.1-.1.1-.2l.3-.3h.2l-.2.3-.3.4h0l.2-.4h.2l-.2.3V15c-.2.2-.1.1,0,.1h0l.3-.4.2-.3Z"/><path id="path4058" class="cls-64" d="M13.8,14.7h0Z"/><path id="path4060" class="cls-64" d="M13.3,20.7c-.1.1.1,0,.1,0h.1c.1,0,.2-.2.1-.2h-.2v-.2l.2-.3h0l-.2.3c0,.1,0,.1-.1.1h.1l.2-.4c0-.1.1-.1.1-.2h.1a.1.1,0,0,1-.1.1c-.1,0-.1.1-.1,0v-.4c0-.1-.1-.1-.1-.2H13v.2c-.1,0-.1.1-.1.2a.1.1,0,0,0-.1.1c0,.1-.1.1-.1.2s0,0-.1.1h0c0-.1,0-.2.1-.2s0-.1.1-.2v-.4c.1,0,.1-.1.2-.2h.7v.2a.4.4,0,0,0-.1.3h-.1c.1,0,.1,0,.1-.1h0a.5.5,0,0,1-.2.4.1.1,0,0,1-.1.1.1.1,0,0,1-.1.1h0l.2-.4h.1s.2-.1.1,0l-.2.3c0,.1,0,.1-.1.2h0l.3-.2h-.1l-.3.3s-.2,0-.1-.1Z"/><path id="path4062" class="cls-64" d="M6.6,15.4v.2l.4.3h.5l.2.2c-.1.1-.2,0-.3,0L7.1,16l-.2-.2H6.5l.2.2h.6a.8.8,0,0,0,.2-.4l.2-.3.2-.2v-.2c0-.1-.1,0-.1,0h0l-.2.3-.2.5-.2.3h.1l.3-.5c0-.1.1-.2.2-.4H7.7l-.3.6H7.3V16h0l.2-.3.3-.6h0a.8.8,0,0,0-.2.4v.3H7.3c.1,0,.1-.1.2-.2l.3-.5h.1l-.3.5c-.1.1-.2.3-.3.3v-.3a.5.5,0,0,1,.2-.4h.2l-.3.6-.2.2h0c-.1,0-.1,0-.1.1H7.1l.2-.2.3-.6c.1-.1.3-.4.4-.3H8a.5.5,0,0,0-.2.4l-.3.5H7.2c.1-.1.1-.3.2-.4s.1-.3.2-.4h0l.2-.3h.3a.3.3,0,0,1-.1.2l-.2.3c0,.1-.1.2-.2.3l-.2.3-.2.2H6.6l-.2-.2v-.2h.6c0,.1.1.1.1.2h.2l.3.2h0L7,15.9l-.4-.2v-.2Z"/><path id="path4064" class="cls-64" d="M7.6,16.2h0Z"/><path id="path4066" class="cls-64" d="M6.9,13.6l-.3.4a.5.5,0,0,1-.2.4c0,.2,0,.3-.1.4v.3H6.1c0,.1,0,.2-.1.2H5.9c0-.1,0-.2.1-.2l.2-.3.2-.3c0-.1,0-.2.1-.2s0-.2.1-.2v-.3l.2-.2c0-.1,0-.2-.1-.1h0a.1.1,0,0,1,.1-.1H6.7c-.1.1-.1.2-.2.4v.4c-.1.1-.1.2-.2.1s-.1-.1-.2-.2v-.5a.4.4,0,0,1,.1-.3.3.3,0,0,1,.1-.2h.2c-.1,0-.1.1-.1.2a.8.8,0,0,1-.2.5v.4c0,.1-.1.2,0,.3h.3c.2-.1.2-.3.3-.4a.8.8,0,0,0,.2-.4h0l-.3.5H6.4c-.1.1-.1.1-.1,0s.2-.3.2-.5a.4.4,0,0,0,.1-.3h.1l-.3.5-.3.7v.2s-.1,0,0,.1H6c0-.1,0-.1.1-.1h0l.3-.4c0-.2.1-.3.2-.5s.1-.1,0-.1h0v.2a.8.8,0,0,0-.2.4h0l.3-.3a1.4,1.4,0,0,0,.2-.6h0c.1,0,0,0,0,.1H6.7s.2-.2.2-.1h0c0,.2-.2.4-.2.5s-.3.5-.5.5h0l.2-.3c0-.1.1-.2.1-.3h.2c.1.1,0,.1,0,.2a.8.8,0,0,0-.2.5l-.3.4H6.1a.1.1,0,0,1-.1.1H6c-.1,0,0-.2,0-.3l.3-.6.3-.5h.1v.2c-.1.2-.1.4-.2.6H6.3c.1,0,.1-.1.1-.2l.3-.5c.1,0,.4-.2.2,0l-.2.3c-.1.2-.1.3-.3.4l-.3.3H5.9c-.1,0,0-.1,0-.2a.6.6,0,0,1,.1-.4c0-.2.1-.4.1-.6v-.2h.1v.2c-.1.1-.1.1-.1.2v.8h.2c-.1.1,0,.1,0,0h.1v-.3l.2-.3q.2-.3.3-.3H7l-.2.3c0,.1-.1.1-.1.2v.4l-.2.3c-.1.1-.2.2-.2.3v.2H5.9v-.2c0-.1.1-.1.1-.2v-.3a.4.4,0,0,0,.1-.3l.2-.4.3-.4Z"/><path id="path4068" class="cls-64" d="M5.3,13.1h.5v-.3l-.2-.2H5.2a.4.4,0,0,0-.1.3v.2c0,.1,0,.2.1.2h.3l.2-.3.3-.2H5.8l-.2.2a.5.5,0,0,1-.4.2.1.1,0,0,0-.1-.1v-.5a.4.4,0,0,1,.1-.3h0l.3-.2h.3l.3.2v.3H5.3Z"/><path id="path4070" class="cls-64" d="M11.4,22.2h-.2a.1.1,0,0,0-.1-.1H11a.1.1,0,0,1,.1-.1.1.1,0,0,0-.1.1h0v.2a.2.2,0,0,0,0,.3v.5a.3.3,0,0,0-.1.2c0,.1-.1.1-.1.2h-.5V23c0-.1.1-.1.1-.2l.4-.2H11c.1,0,.2,0,.2.1h.1v-.6h.1v.3h-.8c-.1,0,0,0-.1.1h0c-.2.1-.2.1-.1.1h-.1v.5a.1.1,0,0,0,.1.1h.2v-.9c-.1-.1-.1-.1,0-.2v-.2a.2.2,0,0,1,.2-.2h.2l.2.2Z"/><path id="path4072" class="cls-64" d="M9.9,21.5h.4a.1.1,0,0,0-.1-.1H9.9Z"/><path id="path4074" class="cls-64" d="M10.6,21.9v.5h-.1v-.2c-.1-.1-.1-.1-.1-.2h.1c0,.1,0,.2.1.2v.3h-.1V22Z"/><path id="path4076" class="cls-64" d="M10.6,22.5a.3.3,0,0,1,.1-.2v-.2a.3.3,0,0,0,.1-.2l.2-.2c.1-.1.1-.2.2-.2h.1c-.1.1-.1.2-.2.2l-.2.2v.4c0,.1-.1.1-.1.2Z"/><path id="path4078" class="cls-64" d="M8.6,21.5h.8c-.1.1-.1.1,0,.1v-.2l.2-.2v-.5a.3.3,0,0,0,.1-.2h.1c0,.1,0,.2-.1.2v.3c0,.1-.1.1-.1.2l-.2.3-.2.2H9l-.3-.2H8.6Z"/><path id="path4080" class="cls-64" d="M24,28.2a.3.3,0,0,0,.1.2c0,.1.1.1.1.2h.4a.1.1,0,0,0-.1.1h-.1c-.1-.1-.1-.1-.1-.2a.4.4,0,0,1-.1-.3v-.2l.3-.3h-.1a.4.4,0,0,0-.1.3.4.4,0,0,0-.1.3v.2a.4.4,0,0,1,.1.3c0,.1.1.2.1.3h0c0,.1,0,.1-.1.1v-.4a1.1,1.1,0,0,1-.1-.5h.1v.2c0,.1.1.2.1.4s.1.1,0,.1h0v-.4h0v.3h0c0-.2-.1-.3-.1-.5a.4.4,0,0,1-.1-.3v-.2l.2-.2h.4c0,.1,0,.1-.1.1h-.2c-.1,0-.1,0-.1.1h.2c0-.1,0-.1-.1-.1h.1c.1,0,.1.1.1.2h-.2s-.2.2-.2.1.1-.2.2-.2h.2c0-.1,0-.2-.1-.2h-.1c0,.1-.2.2,0,.1h-.2v.2a.6.6,0,0,0,.1.4c0,.1.1.3.1.4s0,0-.1.1h0c-.1-.1-.1-.1-.1-.2h.1a.4.4,0,0,1,.1.3v.2c-.1,0-.1,0-.1-.1l-.2-.4v-.2h.1a.7.7,0,0,0,.1.5v.4c0,.1,0,.1-.1.1h0v-.2c0-.1-.1-.2-.1-.3v-.2c-.1-.1,0-.2,0-.3V28c0-.1,0-.2.1-.2l.3-.2h-.3v.5l.2.3h0c-.1,0-.1,0-.1-.1H24c0-.1-.1-.1-.1-.2Z"/><path id="path4082" class="cls-64" d="M25.5,27.8h-.4a.3.3,0,0,1-.1.2v.2c.1.1.1.2.2.2h.2l.2-.2V28c-.1,0-.1-.1-.2-.2h.1a.4.4,0,0,0,.1.3c0,.1,0,.2.1.2h-.1a.3.3,0,0,1-.1-.2c0-.1-.1-.2-.1-.3h0c.1-.1.1-.1.1,0s.1.1.2.2v.5l-.2.2h-.2c-.1,0-.2,0-.2-.1l-.2-.2v-.3c.1-.1.1-.1.1-.2l.3-.2h.2Z"/><path id="path4084" class="cls-64" d="M26.3,27.1h-.2a.4.4,0,0,0-.1.3.3.3,0,0,0-.1.2c-.1.1,0,.2,0,.3h.5v-.3c0-.2-.1-.3-.1-.4l-.2-.4c0-.1-.1-.3-.1-.4a.4.4,0,0,0-.1-.3H26v.2c0,.2.1.3.1.5l.2.3a.4.4,0,0,0,.1.3c0,.1,0,.2.1.2s0,.1.1.1h-.2c0-.1-.1-.1-.1-.2a.4.4,0,0,1-.1-.3c-.1-.1-.1-.3-.2-.4a4.3,4.3,0,0,1-.1-.5v-.3H26c.1,0,.1.2.1.3v.3l.2.4V28l-.3.3H26l-.2-.2v-.2a.4.4,0,0,1,.1-.3c0-.1.1-.2.1-.3a.5.5,0,0,1,.4-.2Z"/><path id="path4086" class="cls-64" d="M26.6,26.9h0a.1.1,0,0,1-.1.1v.5h.5s.2,0,0,.1h-.4l-.2-.2c-.1,0-.1-.1-.1-.2v-.2c.1-.1.1-.2.3-.3Z"/><path id="path4088" class="cls-64" d="M27,27.2h0Z"/><path id="path4090" class="cls-64" d="M26.9,26.8c0,.1.1.1.1.2s.1.2.1.4.1.1,0,.1H27c.1-.1.1-.1,0-.2a.4.4,0,0,0-.1-.3c0-.1-.1-.2-.1-.3Z"/><path id="path4092" class="cls-64" d="M27.2,26.9v-.2h0c-.1,0-.1.1-.1.2a.4.4,0,0,1,.1.3c.1,0,.1.1.2.2h0a.8.8,0,0,1-.2-.4h.1c0,.1.1.2.2.3h-.2c-.1,0-.1-.1-.2-.2v-.3c-.1,0-.1-.1,0-.2h.1v.2c.1,0,.1.1.1.2Z"/><path id="path4094" class="cls-64" d="M27.4,26.2Z"/><path id="path4096" class="cls-64" d="M27.3,25.9v.2a.4.4,0,0,0,.1.3h.4c.1.1.1.1,0,.2h-.1c.1-.1.1-.1,0-.1h-.2c-.1,0-.2,0-.2-.1s-.1-.1-.1-.2V26Z"/><path id="path4098" class="cls-64" d="M27.6,25.5c0,.1-.1.2,0,.2s0,.1.1.1h-.2v-.2Z"/><path id="path4100" class="cls-64" d="M25.9,30.7h-.4a.3.3,0,0,0-.1.2V31h.7l.2.2v.3h-.2c-.1,0,.1-.1,0,0h-.5c.1.1.1.1.2,0H26c.1-.1.2-.1.1,0s.1-.1.1-.2,0-.1,0-.2-.1-.2-.2-.2h-.7v-.5h.5Z"/><path id="path4102" class="cls-64" d="M26.8,30.3h0c.1,0,0,.1,0,.1h-.1l-.2.3a.5.5,0,0,0,0,.6l.2.2H27a.1.1,0,0,1,.1-.1H27c.1-.1.1-.1.1-.2h.1a.1.1,0,0,1-.1.1h-.5a.2.2,0,0,0-.2-.2.4.4,0,0,1-.1-.3,1,1,0,0,1,.1-.3l.2-.3c.1-.1.1-.2.3-.3Z"/><path id="path4104" class="cls-69" d="M27.5,29.9h-.2l-.2.3a.4.4,0,0,1-.1.3v.3l.2.2c0,.1.1.1.2.1h.2c.1-.1.1-.1.1-.2a.4.4,0,0,0,.1-.3v-.3a.3.3,0,0,0-.1-.2l-.3-.2h.1c.1.1.2.1.2.2l.2.2v.3a.6.6,0,0,1-.1.4q0,.2-.3.3h-.4c-.1-.1-.1-.1-.1-.2a.4.4,0,0,1-.1-.3.4.4,0,0,0,.1-.3c.1-.1.1-.3.2-.3s.2-.2.4-.2Z"/><path id="path4106" class="cls-69" d="M28,29.6l.3.2.3.4h-.2a.3.3,0,0,1-.1-.2.6.6,0,0,1-.1-.4v-.2l.2-.2h.5c0,.1.1.2.1.3h-.1c0-.1-.1-.2-.1-.3h-.5v.3a.8.8,0,0,0,.1.4h.1l-.3-.3-.3-.3Z"/><path id="path4108" class="cls-64" d="M29,29.1a.3.3,0,0,0,.1-.2.8.8,0,0,0,.1-.4c0-.1,0-.1-.1-.1h0a.1.1,0,0,0-.1.1c0,.1,0,.1.1.1H29a.3.3,0,0,1-.1-.2l.2-.2c.2,0,.2,0,.2.2a.4.4,0,0,1-.1.3c0,.1,0,.2-.1.2Z"/><path id="path4110" class="cls-64" d="M20.8,36.8c0,.4.1.7.1,1.1h-.1a.1.1,0,0,0,.1-.1h0a1.3,1.3,0,0,1,.1-.6h0s-.1-.1.1,0H21c0,.3-.1.5-.1.7s-.1.4-.2.3h0c0-.2,0-.3.1-.4v-.2h0c.1,0,0,0,0,.1h0c-.1,0-.1,0-.1-.2s.1-.5.2-.7,0-.2.1-.1h0a.4.4,0,0,0-.1.3c0,.3-.1.6-.1,1h0c-.1,0-.1,0-.1-.1a.6.6,0,0,0,.1-.4s.1-.1.1,0h0v.5c.1.2.1.4.2.5s0,.2.1.2h-.1v-.6h.1v.2a5,5,0,0,0,.2,1.2h-.1v-.2a.4.4,0,0,1-.1-.3c0-.1-.1-.2,0-.1s.1,0,.1.1h0a.4.4,0,0,1,.1.3c.1.3.3.5.4.8s.1,0,.1.1h0l-.2-.3h.2l.7.7h.2c-.1.1-.1,0-.1,0s0-.1-.1-.1l-.4-.5h.2l.2.2.8.5h-.1l-.6-.3c-.1,0-.2,0-.2-.1h.4l.5.2H23a.1.1,0,0,0-.1-.1H23l.7.4h0a.1.1,0,0,1-.1-.1l-.4-.2-.7-.3h.2c-.1.1-.1,0-.1,0h-.1l-.4-.4-.3-.2h-.1l-.3-.3s-.1-.1,0-.1h.1l.3.4h0c-.1.1-.1,0-.1-.1l-.5-.9c-.1.1,0,0,0,.1s0,0,.1.1h0c0,.1.1.2.1.3l.2.3h-.1a1.9,1.9,0,0,0-.3-.8c0-.2-.1-.3-.1-.5a.1.1,0,0,1-.1-.1h0V37.6a.1.1,0,0,0,.1-.1h0V38H21c0-.2.1-.4.1-.7v-.3h0c.1,0,0,.1,0,.1s-.1.4-.2.6v.2h-.2v-.8h.1v.4a1.9,1.9,0,0,0-.1.8c-.1,0-.1.2-.1-.1v-.3a4.3,4.3,0,0,0,.1-.5h.1a.7.7,0,0,1-.1.5v.5h0a.1.1,0,0,1-.1.1c0-.4.1-.7.1-1.1s.1-.3.1-.4h0c.1-.1.1,0,.1,0v.9a1.3,1.3,0,0,0-.1.6V39s.1,0,0,.1h0c-.1-.1,0-.1,0-.2h0v-.2h0c.1,0,.1,0,.1.1l.3,1c0,.1.1.2.1.3s.1.1.1,0-.2,0-.2-.2v-.2h0c.3.1.2.1.4.3l.4.5.2.3.5.4.3.2c0,.1.1.1.2.2H23l-.5-.5-.2-.2h.1a.1.1,0,0,0,.1.1.1.1,0,0,0,.1.1l.4.3.3.2h0c0-.1-.1-.1-.2-.2l-.4-.3a.5.5,0,0,0-.4-.2h.1l.8.5.7.2h-.1a.1.1,0,0,1-.1-.1c-.1,0-.2,0-.2-.1l-.6-.2H23l.5.3h-.1l-.5-.3h0c0-.1.1,0,.1,0l.5.2h-.4l-.8-.5c0-.1,0-.1.1-.1h0l.4.2c.1.1.3.2.4.4a.2.2,0,0,1,.2.2h-.2l-.3-.2-.5-.5h-.1v-.2l.3.3.4.5h-.2l-1-.9a2.1,2.1,0,0,0-.4-.6.3.3,0,0,1-.1-.2c-.1,0-.1-.1-.1-.2h0v.2c0,.1.1.2,0,.3h-.1a.6.6,0,0,0-.1-.4l-.3-1c0-.1,0,0,.1-.1h0v.4c0,.1,0,.2-.1.2s0,0,0-.1V37c0-.1,0-.1.1-.1h0a.9.9,0,0,0-.1.5c0,.3-.1.7-.1,1h-.1a.6.6,0,0,1,.1-.4v-.5h0a.1.1,0,0,1,.1-.1h0a.7.7,0,0,0-.1.5v.3c-.1,0-.1.1-.1.2h0a2.5,2.5,0,0,1,.1-.8v-.5c.1,0,.1,0,.1-.1h0v.8h0A1.4,1.4,0,0,0,21,37c0-.1,0-.1.1-.1s0-.1.1-.1h0v.3a.9.9,0,0,0-.1.5h0c0,.1,0,.1-.1.1v-.3h0a.1.1,0,0,0,.1-.1v1.3c0,.1,0,.1-.1.1h.1l.2.4.3.9h-.1c0-.1-.1-.2-.1-.3s-.2-.3-.2-.5h0a3.5,3.5,0,0,1,.5.8c.1.1.2.2.1.3h-.1l-.2-.3v-.2h0a.1.1,0,0,1,.1.1l.3.3H22l.6.5c0,.1,0,.1.1.1h0c0,.1-.1.1-.2,0h0l.8.4.4.2h.1c0,.1.1.1-.1.2a.1.1,0,0,0-.1-.1l-.5-.2h.3c.1.1.1.1,0,.2h-.8s-.1-.1,0-.1h.1l.7.3h-.1l-.8-.5-.2-.2c-.1,0-.1,0-.1-.1h.1l.4.5a.1.1,0,0,0,.1.1h0c-.1.1-.2,0-.3-.1a2.3,2.3,0,0,1-.7-.7h0a.4.4,0,0,1,.1.3h0c-.1,0-.1,0-.1-.1a2.5,2.5,0,0,1-.4-.7c-.1-.2-.2-.3-.2-.5s-.1,0,0-.1h.1a.6.6,0,0,0,.1.4h0c0,.1-.1.1-.1.2h0c0-.1-.1-.2-.1-.4a1.9,1.9,0,0,1-.1-.8h.1v.7h-.1a.3.3,0,0,1-.1-.2,1.1,1.1,0,0,1-.1-.5.9.9,0,0,1-.1-.5h.1V38a.4.4,0,0,0-.1.3c0,.1,0,0-.1.1h0v-.2c0-.3.1-.6.1-.9a.4.4,0,0,1,.1-.3H21s-.1.2,0,.1-.1.5-.2.8,0,.1-.1.2h0v-.2c.1-.1,0-.1.2-.2h0a.3.3,0,0,0-.1.2V38c0,.1,0,.1-.1.2h0c0-.1.1-.2.1-.3s.1-.4.1-.6v-.2c.2-.1.1,0,.1.1a1.3,1.3,0,0,0-.1.6V38c-.1.1-.1,0-.1-.1V36.8Z"/><path id="path4112" class="cls-63" d="M17.5,40h-.4l-.5.2-.4.4c0,.2.1.3.2.5s.1.2.1.4h0a.5.5,0,0,1-.3.3l-.3.2h.6l1.1.2s.3.1.4,0h-.1l.3-.3a.1.1,0,0,0,.1-.1l.7-.2h.1c0-.1-.1,0-.1-.1h0v-.2a1.6,1.6,0,0,0-.4-.7h-.8c0-.1-.1-.1-.1-.2s-.2-.2-.2-.3h-.3s-.2.1-.1,0H17l.3-.2h.2l.3.3h.1l.2.2h.4l.2.2a2.1,2.1,0,0,1,.4.6v.4c0,.1-.1.1-.2.2h-.5a.1.1,0,0,0-.1.1c-.1,0-.2.2-.3.3h-.5l-1.1-.2h-.6l.5-.3h.1c0-.1-.1-.2-.1-.4s-.2-.3-.1-.4.2-.3.4-.4l.7-.4h.2Z"/><path id="path4114" class="cls-64" d="M16.2,41.7c.2.2.5.2.7.3h.6l-.3-.2-.4-.2h0l.9.4h.2a.1.1,0,0,1-.1.1h-.2l-.9-.4h.2a.1.1,0,0,0,.1.1h.5l.6.2h.3s0,.1-.1,0h-.2c-.1-.2-.3-.3-.4-.4s-.3-.1-.3-.2,0,0,.1-.1h.2l1.2.3c-.1.1.2,0,.2,0h-.2a.1.1,0,0,0-.1-.1c-.1,0-.2,0-.2-.1L17.3,41h1l-.7-.5h0c.1-.1.1-.1.2,0h.6l-.9-.6s-.2-.1-.2-.2h.1a.1.1,0,0,1,.1-.1c.1.1.2.2.2.3v.2a1.8,1.8,0,0,1-.5.7c0,.1-.1.3-.2.2s0-.3,0-.4.1-.4.1-.6.1-.3.1-.4h0a.3.3,0,0,0-.1.2l-.2.5-.3.7a.4.4,0,0,1-.1.3h-.1v-.5c0-.1.1-.3.1-.4v-.2h0a.8.8,0,0,0-.2.5c-.1.1-.1.4-.1.5h.3V42a.2.2,0,0,0,0,.3h.1c0,.1,0,.1.1.1l.8-.2h-.1a.1.1,0,0,1-.1.1h0a.1.1,0,0,0,.1-.1h.1l.8-.2h.3l-.4.2h-.9a.1.1,0,0,0,.1-.1h.5l-.4.3c-.3,0-.6.2-.9.1h-.2a.3.3,0,0,1,0-.4h0a.2.2,0,0,1-.3,0h0c0-.2.1-.4.1-.6s.1-.2.1-.4a.3.3,0,0,0,.1-.2h.1a.1.1,0,0,1,.1.1.9.9,0,0,0-.1.5v.3h-.1c.1-.1.1-.2.2-.4a2.5,2.5,0,0,1,.2-.7l.2-.4c0-.1,0-.2.1-.2s0-.2.2-.3h0c0,.2-.1.3-.1.5a1.3,1.3,0,0,0-.1.6v.2h0a2.2,2.2,0,0,0,.5-.8h0c0-.1-.1-.3-.2-.3h0c.1.1.2.1.2.2l.9.5h.1s0,.1-.1,0h-.3c-.1,0-.3,0-.3-.1h-.3s.1-.1.1,0l.7.5H18l-.6-.2h-.1c-.1-.1,0-.1.1-.1l1.2.4h.5c0,.2-.3.1-.3.1l-1.2-.4c-.2,0-.1.1-.1-.1s-.1.1,0,.1h0l.3.2a1,1,0,0,1,.5.4h.1a.1.1,0,0,1-.1.1h-.2l-.7-.2-.6-.2h-.1c0-.1,0-.1.1-.1l.9.5h.2c0,.2-.1.1-.2.1a.1.1,0,0,0-.1-.1l-.8-.3h.1l.4.3.3.2h-.8l-.7-.3Z"/><path id="path4116" class="cls-64" d="M19.7,35.2l.4.3h.3l.3.2h.2c0-.1-.1-.2-.1-.3l-.2-.2c0-.1-.1-.2-.1-.3h.8l-.2-.4a2,2,0,0,1-.3-.8v-.2h.1a.4.4,0,0,0,.1.3.5.5,0,0,0,.2.4c0,.2.1.3.1.4s.1.2.1.3,0,.2-.1.2h-.6c.1-.1.1-.1.1,0h.6c-.1.1,0,.1-.1.1l-.7-.2h.8c-.1.1-.1.1-.1,0s-.2-.1-.3,0h0a.1.1,0,0,1,.1.1h.3c-.1,0-.1.1-.1,0s-.1-.2-.1-.3l-.2-.3c0-.1-.1-.3-.1-.4s-.1-.1-.1-.2h.1a1.4,1.4,0,0,0,.2.6.4.4,0,0,0,.1.3h-.1v-.6A.4.4,0,0,1,21,34h0c.1-.1.1-.1.1,0v.6l.2.4h.1c-.1,0-.2,0-.2-.1s-.1-.2-.1-.4a.7.7,0,0,1-.1-.5c0-.1,0-.1.1-.1h0v.3a1.3,1.3,0,0,1,.1.6h-.1c0-.1-.1-.2-.1-.4s-.1-.3-.2-.4h0c0-.1,0-.1.1-.1a.3.3,0,0,0,.1.2c0,.1.1.2.1.3l.2.3c0,.1.1.2.1.3s0,.1-.1.2h0c.1,0,.1,0,0,.1h-.6l.6.2c.1,0,.1,0,0,.1h-.1l-.5-.2h.6c.1,0,.2,0,0,.1h0c.1,0,0,0,0-.1v-.2c0-.1-.1-.3-.1-.4s-.2-.3-.2-.4a.6.6,0,0,1-.1-.4h.1c0,.2,0,.3.1.4a.5.5,0,0,0,.2.4.5.5,0,0,0,.2.4V35H21l-.3-.2h-.2c0,.1.1.1.1.2s0,.1.1.2.1.1.1.2l.2.3c0,.2.1.3-.1.3h-.6l-.3-.2-.4-.2Z"/><path id="path4118" class="cls-64" d="M20.9,35.3c0,.1,0,.2.1.2v.3h-.2c-.1.1.1,0,0,0h-.3l-.5-.2h.1l.5.2h.2a.1.1,0,0,1-.1.1h-.6l-.3-.2a.1.1,0,0,0,.1-.1H21a.1.1,0,0,1-.1.1H21c-.1-.1-.1-.1-.1-.2s-.1-.1-.1-.2Z"/><path id="path4120" class="cls-64" d="M8.3,27.1c0,.1,0,.2.1.2v.3l.2.3h.2c0,.1.1.1.1.2l.2.2c.1,0,0,.1,0,.2H8.7c-.1.1-.1.1-.2,0l-.2-.2v-.2c0-.1.1-.1.1-.2s.1,0,.1-.1H8.4v.3c.1,0,.1.1.2.2H9c0-.1.1-.1,0-.2H8.9l-.2-.2c-.1-.1-.2-.1-.2-.2l-.2-.2v-.6Z"/><path id="path4122" class="cls-64" d="M7.7,28.6H7.6v.2c0,.1-.1.2,0,.3a.4.4,0,0,0,.1.3h.5c.1-.1.1-.1.1-.2v-.3c-.1,0-.1-.1-.2-.2H7.4l.3-.2h.4v.3a.4.4,0,0,1,.1.3.1.1,0,0,1-.1.1l-.2.3H7.7c-.1,0-.2,0-.2-.1a.4.4,0,0,1-.1-.3v-.3c0-.1.1-.1.1-.2l.3-.2Z"/><path id="path4124" class="cls-64" d="M7.4,29.9H6.6v.6H6.2c0-.1,0,0-.1,0h0c0,.1.1.2.1.3s.1.3.1.4v.2h0a.1.1,0,0,1-.1-.1c0-.2-.1-.3-.1-.4a.6.6,0,0,0-.1-.4.2.2,0,0,1,.2-.2h.3v-.6c0-.1,0-.1.1-.1h.2a.1.1,0,0,0,.1.1l.3.2h.2Z"/><path id="path4126" class="cls-64" d="M5.6,31.2c.1,0,.1-.1.2-.2v-.3H5.6c.1,0,0,.1,0,.1h0a.4.4,0,0,0-.1.3v.4H5.4V31c0-.1,0-.1.1-.2a.2.2,0,0,1,.2-.2h.2v.2l-.2.3Z"/><path id="path4128" class="cls-64" d="M5.8,30.9H5.6v.3H5.5c0,.1.1.1.2.1h.2V31l-.2-.2H5.3c-.1,0,0,0,0-.1s0,.1,0,.1h0c-.1.1-.1.1-.1.2h0v-.2h.6c0,.1.1.1.1.2a.4.4,0,0,1-.1.3H5.7a.1.1,0,0,0,.1-.1c.1-.1.1-.1.1-.2a.3.3,0,0,0-.1-.2l-.2-.2H5.3c-.1.1-.1.2-.2.2h0a.1.1,0,0,1,.1-.1.2.2,0,0,1,.2-.2h.4c0,.1.1.1.1.2s.1.1.1.2.1.1.1.2,0,.1-.1.2-.1.1-.2.1H5.6c-.1,0-.2,0-.2-.1s.1-.1.1-.2v-.2l.2-.2Z"/><path id="path4130" class="cls-64" d="M3.9,24c-.1-.1-.1,0-.2,0H3.6a.4.4,0,0,0,.1.3h.2c0,.1.1.1.2.2a.1.1,0,0,1,.1.1c0,.1,0,.2-.1.2a.1.1,0,0,1-.1.1H4c.1-.1.1-.1.1-.2v-.2H3.8c-.1,0-.2,0-.2-.1s-.1-.1,0-.2a.4.4,0,0,1,.1-.3h.1c0-.1.1-.1.2-.1Z"/><path id="path4132" class="cls-64" d="M4.3,24.3v.4c0,.1.1.1-.1.1h0v-.4c0-.1.1-.1.2-.2h.2a.4.4,0,0,0,.1.3H4.7a.4.4,0,0,1-.1-.3H4.4v.3h0c-.1.2-.1.1-.1,0a.4.4,0,0,0-.1-.3Z"/><path id="path4134" class="cls-64" d="M5.2,24H5.1c.2-.1.1,0,0,0s-.1.2-.1.3-.1.1-.1.2.1.1.2,0-.1.1-.1,0h.1c0-.1.1-.2.1-.3s.1-.2,0-.3h0c-.1-.1,0-.2.1-.1v.3c0,.1-.1.2-.2.3H4.8a.3.3,0,0,1,.1-.2.3.3,0,0,1,.1-.2l.3-.2Z"/><path id="path4136" class="cls-64" d="M21.6,15.9h-.2a.3.3,0,0,1-.1.2h0c.1.1.1.2.2.2l.3.2h-.3a.1.1,0,0,1-.1-.1v-.2h0c0-.1.1-.1,0-.1h0v.2h.1a.1.1,0,0,0,.1.1h.3a.1.1,0,0,1-.1.1h-.4v-.2h0V16h.1v.3H22c0,.1-.1.1,0,0h0c.1,0,.1,0,.1.1H22c.1,0,0,.1,0,.1h-.5a7961314590657,7961314590657,0,0,1-.2-.2v-.3h.1v.2h.1c0,.1,0,.1.1.2h0a.1.1,0,0,1-.1-.1h-.1V16h.1v.2h0v.2a.1.1,0,0,0,.1.1h-.1c-.1-.1-.2-.1-.2-.2V16h.2Z"/><path id="path4138" class="cls-64" d="M21.9,16h.2v.2H22a.1.1,0,0,1,.1-.1h0l.2-.2c0-.1-.1,0,0,0h0c0-.1.1-.1.1,0h0l-.2.2h-.1c.1,0,0,.1,0,.1v.2c-.1.2-.1,0-.1,0h.1c0,.1,0,.1.1.2a.1.1,0,0,1,.1.1h-.4Z"/><path id="path4140" class="cls-64" d="M22.4,15.8h0Z"/><path id="path4142" class="cls-64" d="M22.8,15.8h0Z"/><path id="path4144" class="cls-70" d="M25.1,41.2c0-.2-.2-.7,0-.6s0,.5.1.7.1,0,.1,0,.1.2.2.2.2-.1.2,0,0,.1,0,.1.3,0,.3,0a.1.1,0,0,1,0,.2h.4c.3,0,.7.1.9,0v-.2s.1.1.1,0,0-.1,0-.1h.2a.3.3,0,0,0,.1-.2c.2-.1.1.2.3-.1h0c0-.1.1,0,.1,0s0-.4,0-.5h.2s-.1-.1,0-.1.1,0,.1,0v-.2h0c0-.1-.1,0-.1,0s-.2-.3-.3-.3a16.1,16.1,0,0,0-2.2,0c-.1,0-.4-.1-.4,0S25.2,40.4,25.1,41.2Z"/><path id="path4146" class="cls-64" d="M18,11.3h0l-.2.2-.2.3-.3.2h-.2a.4.4,0,0,1-.1-.3l.2-.2h.3l-.2.3v.2h-.1l.2-.2.2-.3.5-.3-.2.2Z"/><path id="path4148" class="cls-64" d="M17.4,10.7h.1c0,.1-.1.1-.1.2l-.2.2h-.3l.2-.2a.3.3,0,0,0,.1-.2l.5-.3Z"/><path id="path4150" class="cls-64" d="M16.5,11.4v-.2h.3l-.3.2h0l.3-.2v.2l-.3.2Z"/><path id="path4152" class="cls-64" d="M17.3,10.1h.1c-.1.1-.8.5-.2.2H17c-.2.2-.9.6-.2.2l-.4.2h-.1v-.5l.4-.4h.5c.1,0,.1.1.1.2h-.8c-.1,0-.3.1.2-.2h-.1v.5h-.1c.9-.5.1,0,.1,0h.2l.2-.2.3-.2h-.1l.5-.3-.3.3Z"/><path id="path4154" class="cls-64" d="M16.9,9h-.2l.2-.2h-.2l-.4.2h.3l-.4.2.3-.2h0l-.4.2h-.3V9.4c0-.2,0-.3.1-.4s.3-.2.5-.3h.2l.2.3v.2h-.3c0-.1,0-.2-.1-.2H16c.5-.3.2-.1.1,0a.4.4,0,0,0-.1.3c0,.1,0,.1.1.1s.2,0,.2-.1.3-.1-.1.2h0l.3-.2h-.2l.3-.2-.3.2c1.1-.7-.1.1.2-.1l.5-.4h.2l-.3.3Z"/><path id="path4156" class="cls-64" d="M16.3,8.1V7.8h0V8c0,.1,0,.2.1.2h.6c-.4.3-.2.2-.1,0a.4.4,0,0,0,.1-.3V7.6l.2-.2a.4.4,0,0,1,.1.3.4.4,0,0,1-.1.3,1,1,0,0,1-.5.4H16a.3.3,0,0,1-.1-.2c0-.1.1-.3.1-.4s.2-.3.4-.3h.2V8Z"/><path id="path4158" class="cls-64" d="M16.7,6.5h.4c-.3.3-.2.2-.4.2l.3-.2c.2,0,.2,0-.2.2h-.4l.3-.2Z"/><path id="path4160" class="cls-64" d="M16,6.8c-.2,0-.5.2,0-.1h-.3l.5-.3-.2.3Z"/><path id="path4162" class="cls-64" d="M16.5,6.7v.4c.1,0,.1.1.2,0s.4-.2-.1.1h.1l.3-.2h-.1l-.4.3h-.3c0-.1-.1-.1-.1-.2V6.9l.3-.2Z"/><path id="path4164" class="cls-64" d="M16.2,6.7h-.6l.3-.2h.5Z"/><path id="path4166" class="cls-64" d="M16.3,13v-.2c0-.1,0-.1-.1-.1h.1a.4.4,0,0,0-.1.3v.3a.4.4,0,0,1,.1.3v.3a.5.5,0,0,1-.5.3h-.2l.3-.2h.1v-.6a.5.5,0,0,1,0-.6h0l.5-.2h.1a.3.3,0,0,1,.1.2l-.3.2Z"/><path id="path4168" class="cls-64" d="M16.2,12.3l-.2.3v.3l-.5.3h-.2a.5.5,0,0,1,0-.6c0-.1,0-.2.1-.2l.4-.3h.1l-.3.2h0a.1.1,0,0,1-.1.1c.5-.3.3-.2.2-.2s-.1.1-.1.2a.5.5,0,0,0,0,.6h.1c0-.1.1-.2.1-.3s.1-.1.2-.2l.3-.2Z"/><path id="path4170" class="cls-64" d="M15,12l.2-.2v-.4h-.1c.4-.3.3-.2.2-.1a.4.4,0,0,0-.1.3h0l-.3.2v-.2a.4.4,0,0,1,.1-.3h.1l.4-.2v.2c0,.1,0,.2-.1.2s-.1.2-.2.2L15,12Z"/><path id="path4172" class="cls-64" d="M14.5,11.2l.2-.2a.4.4,0,0,0,.1-.3v-.3h-.2c-.1.1-.4.4-.4.1v-.2c0-.1.1-.2,0-.3h-.1l-.2.2h0l-.3.2h0l.2-.3H14a.5.5,0,0,1,.4-.2c.1,0,.2,0,.2.1s0,.2,0,.3v.3h-.1l.4-.2H15a.5.5,0,0,1,0,.6l-.2.3Z"/><path id="path4174" class="cls-64" d="M13.2,9.3V9c0-.1.1-.2.1-.3h0l.3-.2v.3a.8.8,0,0,1-.1.4h-.3a.4.4,0,0,0,.1-.3V8.6c0-.2,0,0,.3-.2h0c0,.1-.1.2-.1.3v.3Z"/><path id="path4176" class="cls-64" d="M13.1,8.2h0l.3-.2h0Z"/><path id="path4178" class="cls-64" d="M12.1,8.6H12A.2.2,0,0,0,12,9h.8c.1.1,0,.2-.1.2a1,1,0,0,1-.5.4c.5-.3.1-.1-.1,0s.4-.2.3-.1l-.4.2h-.1l.3-.2h-.1c1-.6-.7.4.4-.2-.5.3-.2.1-.1,0s.2-.2.1-.2-.1-.1-.2-.1h-.6c-.1-.1-.1-.2,0-.4s.2-.2.4-.3h.3l-.3.2Z"/><path id="path4180" class="cls-64" d="M14.6,6.3c0,.1-.1.2-.1.3v.7h-.3a.6.6,0,0,1,.1-.4.9.9,0,0,1,.1-.5.4.4,0,0,1,.1-.3l.5-.2a.2.2,0,0,1,.2.2.4.4,0,0,1-.1.3l-.2.2c-.1.2-.3.2-.5.2h-.2l.3-.2h.2c.1,0,.4-.2-.1.1a.2.2,0,0,0,.2-.2c.1-.1.2-.1.1-.3h-.1a.4.4,0,0,0-.1.3.7.7,0,0,0-.1.5c-.1.1-.1.2-.1.4h-.3a.3.3,0,0,1,.1-.2V6.8a.4.4,0,0,0,.1-.3l.3-.2Z"/><path id="path4182" class="cls-64" d="M15.6,6h-.3c.5-.3.3-.1.2,0h0a.2.2,0,0,0,0,.3h.1c-.3.3-.3.2-.2.1a.2.2,0,0,0,.2-.2c0-.1,0-.2-.1-.2l.3-.2v.2c0,.1-.1.2-.2.3s-.3.3-.4.2h-.1c-.1-.1-.1-.2,0-.4s.1-.2.4-.4h.2l-.2.3Z"/><path id="path4184" class="cls-64" d="M8.6,13.5h.3l-.2.2h.1c.8-.5.2-.1.1-.1H9l.4-.2h.8c.1-.1.2-.1.1,0s-.1.3-.2.4-.1.2-.1.3-.2.2-.2.3h.1c-.4.3,0,0,.1-.1l.2-.3.4-.2h0v.2c0,.2-.1.3-.1.5a.4.4,0,0,0-.1.3h-.1l-.3.2h.1a.8.8,0,0,1,.1-.4c0-.1.1-.3.1-.4v-.2h0l.3-.2h-.1l-.2.3-.6.4H9.5l.2-.3v-.3L10,13H9.4l-.3.2.2-.2H9.2l-.6.4H8.4l.2-.2Z"/><path id="path4186" class="cls-64" d="M10,14.7h.1c-.9.6.7-.4-.2.1l.2-.2.2-.2c0-.1.1-.2.1-.3l.2-.2c.1-.1.1-.2.2-.2h.3l-.2.3-.2.2v.2l-.2.3-.2.2-.3.2H9.7Z"/><path id="path4188" class="cls-64" d="M20.2,22c0,.3-.1.5,0,.7a.9.9,0,0,0,.3.5,2.2,2.2,0,0,0,.8,0h.4l-.8.6H19.7l-.4-.5a1.7,1.7,0,0,1,.1-.7l.8-.5Z"/><path id="path4190" class="cls-64" d="M19.8,22.5c.1-.2.3-.3.4-.4l.9-.4a.8.8,0,0,0-.4.4l-.9.4Z"/><path id="path4192" class="cls-64" d="M10.8,27.6c.1-.3.1-.6.2-.8v-.9a.9.9,0,0,0-.3-.7c-.1-.1-.2-.2-.3-.1h-.1l.7-.4a6.4,6.4,0,0,0-.2.7,1.4,1.4,0,0,0,.2.6l-.8.5a1.4,1.4,0,0,1-.2-.7,1,1,0,0,1,.2-.7c.4-.3.8-.9,1.3-.4a.9.9,0,0,1,.3.7v.9a1.9,1.9,0,0,1-.1.8l-.9.5Z"/><path id="path4194" class="cls-64" d="M9.7,25.6a2,2,0,0,1-1.2.6l.7-.6c.4,0,1-.4-.4.4l.9-.4Z"/><path id="path4196" class="cls-64" d="M8,25.6c0,.1-.1.3-.1.4l-.8.5v-.4l.9-.5Z"/><path id="path4198" class="cls-64" d="M3.3,31.3v-.2c.1-.1,0-.1,0-.2H3.2a.1.1,0,0,1,.1-.1.1.1,0,0,1-.1.1H3c.1,0,.1-.1.1-.2h.4v.4Z"/><path id="path4200" class="cls-64" d="M3.5,31.3a.3.3,0,0,0-.1.2.1.1,0,0,0,0,.2h.4v.2H3.2v-.2a.3.3,0,0,1,.1-.2Z"/><path id="path4202" class="cls-64" d="M4.1,30.6h0c.1,0,0,0,0,.1H4l-.2.3v.3h.1c-.1,0-.2,0-.2-.1a.4.4,0,0,1-.1-.3l.2-.3c.2-.1.3-.3.5-.3Z"/><path id="path4204" class="cls-64" d="M4.6,30.6H4.5v.2a.1.1,0,0,0,0,.2h.2c.1-.1-.1,0-.2,0h.4c-.1,0-.1,0-.1.1h0c0,.2-.2.2-.3.3H4.2v-.2l.4-.3h0Z"/><path id="path4206" class="cls-64" d="M5.1,31a.4.4,0,0,0-.1.3v.2H5c0,.1-.1.1-.2.1a.4.4,0,0,0,.1-.3c0-.2.1-.2.3-.3h0a.8.8,0,0,1,.2.4c0,.1.1.1.1.2H5.3L5,31.2H5l.2-.2H5.1c0,.1-.1.2-.1.3s-.1.1-.2.1h0c.1,0,0-.1.1-.2v-.3Z"/><path id="path4208" class="cls-64" d="M2.4,28v.3a.8.8,0,0,1,.1.4h0c.1.1.1,0-.1.2v-.2c.1-.2.2-.2.4-.3s.1,0,.1.1v.3a.3.3,0,0,0-.1.2H2.6c0,.1,0,.1.1.1H2.6c0-.1.1-.1.1-.2s.1-.2,0-.3H2.6c.3-.2.2-.1.1,0H2.6v.2c-.3.1-.2.1-.3-.1v-.4a.4.4,0,0,1-.1-.3Z"/><path id="path4210" class="cls-64" d="M3.2,28.8H3c.2-.2.1-.1,0-.1V29H3c.1,0,.1-.1.1-.2h.4c0,.1,0,.1.1.2H3.4c-.1-.1-.1-.1-.1-.2a.1.1,0,0,1-.1-.1h.1c0,.1,0,.2-.1.2H3c0,.1-.1.1-.2.1v-.2c0-.2.1-.3.3-.4h.1Z"/><path id="path4212" class="cls-64" d="M3.6,29.3v-.2l.3-.2h0l-.2.2h0c.3-.2.2-.1.1,0v.2Z"/><path id="path4214" class="cls-64" d="M3.9,29.4v-.2c.1-.1.2-.2.3-.1H4.1v.2Z"/><path id="path4216" class="cls-64" d="M4.4,29.4h.1c-.5.3.5-.3-.1,0l.3-.2h0c0,.2,0,.3.1.4V30a.1.1,0,0,0-.1.1H4.4a.1.1,0,0,1,.1-.1h.1v-.3a.4.4,0,0,1-.1-.3h.1c-.7.5.1-.1-.1.1H4.4Z"/><path id="path4218" class="cls-71" d="M34.7,21.8c-.3,0-.1-.1-.3.3h-.1c0,.1-.1.1-.1.2s0,.1,0,.1l-.2.2c0,.1.1.2,0,.3h-.1c-.1.1,0,.4,0,.5h-.2v1.5h.2v.2h.8v-.2c.1-.1.2.1.3,0s.1-.2.3-.3.1.1.1,0,0-.2,0-.3h.1c.1-.2-.1-.2.2-.3h.1v-.2H36s-.1-.1,0-.1.2.1.2,0-.2-.2.2-.2h.2c.1,0,0-.1,0-.1s.3.1.3,0,0-.2,0-.3,0,.5.3-.2h.1c.1,0,.1-.6,0-.6h-.4c-.3,0,.1,0-.3-.2H36c-.1,0,0-.1,0-.1A1.9,1.9,0,0,0,34.7,21.8Z"/><path id="path4220" class="cls-71" d="M37.3,22.2c.1-.1.5.1.6,0h0c0-.1.1,0,.1,0s.5-.1.6,0v.7h-.2c-.5.3.2,0-.1.3h-.1c-.1,0,0,.1,0,.1s-.1,0-.2,0a.3.3,0,0,1-.1.2h-.4c-.1,0,0,.1,0,.1s-.4,0-.4,0,.4,0-.2.3h-.3c0,.1,0,.2-.1.2s-.2-.1-.3,0,.1.1,0,.1H36a.1.1,0,0,0,0,.2c-.1,0,0-.2,0-.3s-.1-.7.1-.9"/><path id="path4222" class="cls-72" d="M13.2,40.8c-.2.1-.7.5-.6.3s.5-.4.7-.6a.1.1,0,0,0,0-.2h.2s-.1-.1,0-.1.1,0,.1,0-.1-.1.1-.3,0-.2,0-.3.4-.3.5-.5-.1-.1,0-.1.1,0,.1,0v-.3c0-.1.1-.1.1-.2s0-.2,0-.3h.2c0-.1-.1-.1,0-.2s.1.1.1,0h0c.1-.2.4.1.4.1s.2,0,.3,0-.1.2.1.3h.3v.2c.1.1,1-.2.7.1s-.2,0-.3,0l-.3.2c-.1,0-.9-.1-.9,0s0,.7,0,.7.1.1.1.2h.2c0,.1-.1.2,0,.3s.1.1.1.2,0,.6-.1.7H15l-.3.2c-.1,0-.3-.1-.3,0l1.1.8c.1.2-.4-.1-.5.2s0,.4,0,.4-.2,0-.3,0-.3.1-.4,0-.2-.2-.3-.3h-.1c-.1,0,0-.1,0-.1l-.2-.2h-.5"/><path id="path4224" class="cls-73" d="M25.2,3.6h-.8c.2-.1.1,0,.1,0a.1.1,0,0,0-.1.1h-.1V4h-.4a.3.3,0,0,0-.1-.2.3.3,0,0,1-.1-.2h-.1c0-.1.1-.1.2-.1h0c0,.1.1.2.1.3s.2.2.2.3l.2.2c0,.1.1.1.1.2s.1.1.1.2h-.2V4.5l-.2-.2c0-.1-.1-.1-.1-.2s-.2-.2-.2-.3l-.2-.3h0a.1.1,0,0,1,.2,0,.3.3,0,0,1,.1.2l.2.2h.1a.1.1,0,0,1-.1.1h0a.1.1,0,0,1,.1-.1h0l.3-.3h.3a.1.1,0,0,0,.1.1h.3Z"/><path id="path4226" class="cls-73" d="M24.6,2.8H24a.1.1,0,0,0-.1.1h-.1c.1,0,.2-.1.1-.1a.1.1,0,0,1-.1.1h-.2a.1.1,0,0,1-.1.1c-.2.1-.1.2-.2.1h0a.1.1,0,0,0,.1-.1h.2l.3-.3h.8v.2Z"/><path id="path4228" class="cls-64" d="M24.1,2.1H24a.1.1,0,0,1-.1.1v.2a.1.1,0,0,1,.1.1h.2a.1.1,0,0,0,.1.1h.3v.2H24a.1.1,0,0,0-.1-.1.1.1,0,0,1-.1-.1c0-.1-.1-.1,0-.2h0l.3-.2h0Z"/><path id="path4230" class="cls-64" d="M23.9,2.8c-.1,0-.3.1-.1-.1s-.1.1-.1.2h-.1a.1.1,0,0,1-.1.1h0l.2-.2.3-.2v.2Z"/><path id="path4232" class="cls-64" d="M25.1,3.7h-.8c-.1,0,.1-.1.1-.1h0a.1.1,0,0,1-.1.1h0a.3.3,0,0,0-.1.2c0,.1.1.1.1.2h0v.2c.1.1.1.1-.1.2h0c0-.1-.1-.2-.1-.4l-.2-.3c0-.1,0-.2-.1-.2s0-.1-.1-.2h.2c0,.1,0,.1.1.2v.2c0,.1.1.2.1.4l.2.3h0c-.2.1-.2.1-.2,0V4.4h0V3.9h.2l.2-.2h.6Z"/><path id="path4234" class="cls-64" d="M23.7,1.7c-.5.2,0,0-.1,0H23c-.1,0-.1-.1.1-.1h0l.2.2h.4l-.3.2h-.2c-.1-.1-.1-.2-.2-.2s0,0,.1-.1h.5c-.2.1-.2.1.1-.1h0Z"/><path id="path4236" class="cls-64" d="M26.1,8.1V6.9h.1V8Z"/><path id="path4238" class="cls-64" d="M26.1,7.7a.1.1,0,0,0,.1-.1l.2-.2h.3c.1,0,.1.1.2.2v.2h-.2c.1-.1,0-.1,0-.2a.2.2,0,0,0-.2-.2h-.4Z"/><path id="path4240" class="cls-74" d="M16.9,27.1c0,.7-.1,0,.2.4v1.4h-.2v.2h-.1c-.1,0,0,.2,0,.3s0-.2-.3.1v.2s-.1-.1-.1,0-.2.2-.3.3-.1-.1-.2,0,.1.1,0,.1-.1,0-.1.3.3.3.7.5h1.2c.4,0,0,0,.3-.1s.2,0,.3,0l.3-.2h.7c0-.1,0-.2.1-.2s.2.1.3,0,.3-.3.4-.4v-.2s.1.1.1,0,0-.2,0-.3h.2c0-.1-.1-.2,0-.3h.1V27.5s-.1.1-.1,0,0-.2,0-.3h-.2c-.1-.2.1-.5,0-.7s-.1-.1-.1-.2h0c-.1-.1-.2,0-.3,0a.4.4,0,0,0-.1-.3,5.7,5.7,0,0,0-1.3,0s-.3-.1-.4,0h-.1c-.1,0-.1.1-.2.2s-.1-.1-.1,0h0C17.4,26.4,16.7,26.5,16.9,27.1Z"/><path id="path4242" class="cls-74" d="M26.3,5.4l.5.6c.1.1,0,.1,0,.2s.2-.1.2,0h0c0,.1.1,0,.1,0s0,.1,0,.2h.2c.1.2-.1.6,0,.8h.1c.1.2-.1,1,0,1h.1c.1.1,0,.3,0,.3h.2c0,.1-.1.2,0,.2h.1l.2.2s-.1.1,0,.1h.1v.2h.1c.6.3-.1,0,.2.3h.2c.1,0,0,.1,0,.1h.3c.1,0,0-.3,0-.4l.2-.2h0V8.8c-.1-.1-.4-.2-.5-.4a.4.4,0,0,0-.1-.3V7.9c-.1,0,0-.1,0-.1s-.4-.3-.4-.6,0-.1,0-.1,0,.4-.3-.2,0-.2,0-.3h-.3c-.6-.3.1,0-.1-.3s-.1,0-.2,0,.1-.1,0-.2H27c-.1-.1.1-.2,0-.3h-.3c-.1,0,.1-.2,0-.3h-.1c-.1,0,0-.1,0-.1h-.2V5.1C26.2,5,26,4.9,26.3,5.4Z"/><path id="path4244" class="cls-74" d="M28.9,12.7c.1.3-.1.8,0,1s.1,0,.2,0-.1.2,0,.3.2.3.1.5h-.1c-.1,0,0,.1,0,.1h-.2v.2c-.1.1-.4-.1-.5,0s0,.1,0,.1H28l-.2.2h-.1c-.1,0,0,.2,0,.3h-.3v1c0,.1-.1.7,0,.8h.1c.1,0,0,.1,0,.1h.7c.2-.1.4-.4.6-.4h.1l.2-.2h.1c0-.1.1-.1.1-.2s0-.2,0-.3h.2s-.1-.1,0-.1v-.2h.1c.1-.1,0-.1,0-.2h.2V14.3h-.2c0-.7.1,0-.1-.5s.4.2-.1-.4h-.2c0-.1.1-.2,0-.3s-.1.4-.1-.2h-.1C29,12.6,29,12.4,28.9,12.7Z"/><path id="path4246" class="cls-75" d="M22.3,31.1a7.3,7.3,0,0,0-.7,1.9v.3a4.9,4.9,0,0,1-.4,1.1v.4c0,.1-.1,0-.1,0s0,.1,0,.2h-.2v.2h-.1a.8.8,0,0,0-.4.4c-.1.1,0,.1,0,.2s-.2-.1-.3,0h0c0,.1-.1.1-.2.2s.1.1,0,.1-.1.1-.1.2h0a.1.1,0,0,1-.1.1v.2h-.2c0,.1.1.2,0,.3H19V36c0-.4-.1.1.1-.1a.1.1,0,0,0,0-.2h.2c0-.1-.1-.2,0-.3h.1c.1-.1-.1-.4,0-.4s.1,0,.1,0,0-.1,0-.2.1.1.2,0-.1-.1,0-.1.1,0,.1,0-.1-.3,0-.3.1,0,.1,0,0-.4,0-.5.3.1.3,0,0-.2,0-.3.1.1.2,0-.1-.2,0-.3.1.1.1,0,0-.2,0-.3,0,.2.3-.1-.1-.2,0-.3.1-.1.1-.2h.2v-.2s.1.1.1,0,0-.1,0-.1l.2-.2s-.1-.1,0-.1h.1c0-.1.1,0,.1,0a.1.1,0,0,0,0-.2h.2c0-.1-.1-.4,0-.4s.1-.1.1-.5,0-.1.2-.4-.1-.2,0-.2v.2"/><path id="path4248" class="cls-76" d="M33.5,24.1c0,.3-.1.7,0,.9s.1.1.1.2a5.6,5.6,0,0,1,0,1.3v.6h.1c.1,0,0,.1,0,.1l.2.2h0c0,.1.1.1.1.2h0l.2.2c0,.1-.1.2,0,.3h.1s.2.3.3.1h0c0-.1.1-.1.1-.2s0-.2,0-.3l.3-.3c0-.1-.1-.3,0-.4a.1.1,0,0,1,.1-.1v-.3l.2-.2c0-.1-.1-.3,0-.4s.1-.1.1-.2v-.3l.3-.3c.1-.2-.2-.1.1-.3s.1.1.2,0-.1-.1,0-.1h.4c0-.1-.1-.1,0-.2h.1c1-.3-.2.1.4-.3s.1.1.2,0-.1-.1,0-.1-.1.4.2-.2v-.6H35.4c-.1,0-.2.1-.3,0s.1-.1,0-.1H35v-.2h-.6c0,.1.1.3,0,.3s-.1-.2-.1.2.1.2,0,.3-.1-.1-.1,0,0,.1,0,.1H34c0,.1.1.1,0,.2s-.1-.3-.1-.3"/><path id="path4252" class="cls-64" d="M25.9,30.8h-.5v.4h.8a.1.1,0,0,0,.1.1h0c.1.1.1.1,0,.2H26c0,.1-.1.1-.2.1h.4c.1,0,0,0-.1.1h-.3a.1.1,0,0,0-.1-.1h-.4a.3.3,0,0,1-.1-.2v-.2h.1l.3-.2h.3Z"/><path id="path4254" class="cls-64" d="M27.4,30.1h-.1a.1.1,0,0,1-.1.1v.6h.1c0,.1,0,.1.1.1h.3c.1,0,.2-.1-.1.1h.1v-.4a.1.1,0,0,0,.1-.1v-.4h-.5c0,.1-.2.2.1,0h-.2l.3-.2h.3a.1.1,0,0,0,.1.1c0,.1.1.1.1.2v.2c-.1,0-.1.1-.1.2v.2h0l-.3.2h-.4a.1.1,0,0,1-.1-.1H27v-.6h.1c0-.1.1-.1.2-.2h.2l-.2.2Z"/><path id="path4256" class="cls-64" d="M27.9,29.1v.2l.2.3H28a.1.1,0,0,1-.1-.1c0-.1-.1-.2-.1-.3s-.1-.1-.1-.2Z"/><path id="path4258" class="cls-64" d="M28.6,30.2a.1.1,0,0,0,.1.1h-.1Z"/><path id="path4260" class="cls-64" d="M28.4,29.5c0-.1.1-.1.1-.2h-.1Z"/><path id="path4262" class="cls-64" d="M29.1,29.8l-.2.2h-.2V30h.3Z"/><path id="path4264" class="cls-64" d="M25.4,34.3h-.2c-.1,0-.2,0-.2.1s.1-.1,0-.1h0v.2l.2.2h1.1c0,.1.1.1,0,.2a.2.2,0,0,1-.2.2l-.3.3-.3.2h-.3v-.2h.1c0,.1,0,.1.1.2h.3c-.2.1-.1,0,0,0l.3-.2c0-.1.1-.1.2-.2s0-.1-.1-.2-.1-.1-.2-.1H25c0-.1-.1-.1-.1-.2s-.1-.1,0-.2.1-.2.2-.3h.3Z"/><path id="path4266" class="cls-64" d="M26.5,33.3a.6.6,0,0,0,.1.4c0,.2.1.3.1.5a24725056409685.9,24725056409685.9,0,0,1,.2.6c.1.1,0,0-.1.1h-.1c0-.1-.1-.3-.1-.4s-.1-.3-.2-.4v-.3a.3.3,0,0,1-.1-.2.1.1,0,0,1,.1-.1c0-.2.1-.2.2-.3h.2l.2.2v.5c0,.1,0,.1-.1.2s-.1.1-.2.2l.2-.2c-.3.2-.2.1-.1.1v-.4a.4.4,0,0,0-.1-.3c0-.1-.1-.1-.2-.2h-.1v.2h0c0,.1.1.2.1.3s.1.3.1.4.1.3.2.4h0c-.2.2-.1.2-.1.1a16483370939785.4,16483370939785.4,0,0,1-.2-.6c-.1-.2-.1-.4-.2-.5s0-.3-.1-.4Z"/><path id="path4268" class="cls-64" d="M27.7,33c.1,0,.1,0,.1-.1s0,.1,0,.1h0l-.2.2c-.1.1-.1.2-.1.4s-.1.1-.1.2,0,.2.1.2h.2c.1.1.1,0,.1,0h-.1c.1-.1.1-.1.1-.2s.1-.1.1-.2a24725056409685.9,24725056409685.9,0,0,0-.2-.6h0a.1.1,0,0,1,.1-.1h0a.3.3,0,0,1,.1.2l.3.4h-.1l-.3-.4a.3.3,0,0,1-.1-.2h.2c0,.1.1.2.1.3V34h-.7v-.5c0-.1.1-.2.2-.3s.1-.2.1-.3Z"/><path id="path4270" class="cls-64" d="M28.6,32.2a.3.3,0,0,0-.1.2c0,.1-.1.2-.1.3v.4l.2.3h.8c0,.1,0,.1-.1.1a.5.5,0,0,1-.4.2h-.2c-.1,0-.2,0-.2-.1l-.2-.3c0-.1-.1-.3,0-.4v-.4l.2-.2Z"/><g id="g4274"><path id="path4272" class="cls-64" d="M29.1,32.7l.2-.2a.3.3,0,0,0,.1-.2v-.2c0-.1,0-.1-.1-.1s-.1-.1-.2-.1h0a.1.1,0,0,1,.1-.1c-.1.1-.2.2-.2.3v.5c0,.1,0,.2.1.2a.1.1,0,0,0,.1.1h.6c.1-.1.2-.2.1-.3h.2a.4.4,0,0,1-.1.3.9.9,0,0,1-.6.3h-.5a.3.3,0,0,0-.1-.2v-.5L29,32a.6.6,0,0,1,.5-.2c.1.1.1.1.1.2s0,.2-.1.2a.4.4,0,0,1-.1.3h-.3Z"/></g></g><path id="path4521" class="cls-77" d="M22.4,42.5h-.2c.2-.2.2,0,.3-.1h.2c0-.1.1-.1.2-.2h.2a.1.1,0,0,0,.1-.1h.1c.1,0,.1,0,.1-.1s.1.1.1,0h.2a.1.1,0,0,1,.1-.1h.1c0-.1.1,0,.2,0h2.1c0-.1.1-.2,0-.3h-.1c0-.1-.1,0-.1,0h-.1c0-.1,0,0-.1,0h0c.2-.1.1-.1.2.1s0,0,0-.1h-.1c-.1-.2.1,0-.1-.1h-.6a.1.1,0,0,1-.1.1c-.4.1.1,0-.2,0h-.8s-.1-.1-.1,0h-.4c-.1.1-.1,0-.1,0h-.1s.1,0,0,.1h-.1c0,.1-.1,0-.1,0s0,.1,0,.1h-.1s-.1-.1-.1,0h-.6c-.1,0-.1,0,0,.1Z"/><path id="path4523" class="cls-78" d="M16.8,40h-.4a.1.1,0,0,1-.1.1h-.1c-.3,0-.1.1-.1.2s0-.2-.2.1h-.1c0,.1,0,.1-.1.1s.1.1,0,.1h0v.2h0c.1.1,0,.1,0,.1h.1a.1.1,0,0,0,.1.1h.3l.2.2h0v.6h1.2a.1.1,0,0,0,.1-.1c.1-.1-.1,0,.1-.1a.1.1,0,0,0,.1-.1c.2-.1,0,0,.1-.1h.3c0-.1.1,0,.1,0h.7v-.9c0-.1,0-.1.1-.1h0v-.3H19c0-.1-.1,0-.1,0h-.7c-.1,0-.1,0-.1-.1H18a.1.1,0,0,0-.1-.1h-.1c-.1-.1,0-.1-.1-.1h-.8"/></g><g id="path4772"><path class="cls-79" d="M11.7,27.6l.2-.3H12a.3.3,0,0,0,.1-.2.1.1,0,0,1,.1-.1.4.4,0,0,0,.1-.3h.1v-.6h0a.1.1,0,0,1-.1-.1h-.5s-.1.1-.1,0h-.3c-.1,0,0-.1,0-.1h-.1v-.2h-.4c-.1.1,0-.2-.1.1h0v.5h0v.5h0a.1.1,0,0,1,.1.1v.2h0c0,.1.1.1.2.2s.1.1.2.1h.2c.1,0-.1.2-.1.2v.3h0c0,.1.1,0,.1,0h0l.3-.2Z"/></g></g></g></g></svg>