<?xml version="1.0" encoding="utf-8"?>
<!-- Svg Vector Icons : http://www.onlinewebfonts.com/icon -->
<!DOCTYPE svg PUBLIC "-//W3C//DTD SVG 1.1//EN" "http://www.w3.org/Graphics/SVG/1.1/DTD/svg11.dtd">
<svg version="1.1" xmlns="http://www.w3.org/2000/svg" xmlns:xlink="http://www.w3.org/1999/xlink" x="0px" y="0px" viewBox="0 0 1000 1000" enable-background="new 0 0 1000 1000" xml:space="preserve">
<metadata> Svg Vector Icons : http://www.onlinewebfonts.com/icon </metadata>
<g><g><polygon points="146.6,890.1 173.4,916.4 625.4,465.5 533.4,373.5 80.4,825.3 107.4,851.7 "/><path d="M21.6,986.7l23.3-8.9l-25-25.6l-8.8,23.8C7.7,985.4,12.3,990.2,21.6,986.7z"/><polygon points="139.7,939.5 153.8,925.7 71.8,845.4 57.2,859.7 30,929.9 66.8,966 "/><path d="M637.4,453.6l9.3,9.3c15.9-16.1,32.7-33.5,49.7-51.7l6,6l6,6l6.5,6.5l-181,180.9c-6.6,6.6-6.6,17.3,0,23.9l2.6,2.6c6.6,6.6,17.3,6.6,23.9,0l264.7-264.7c6.6-6.6,6.6-17.3,0-23.9l-2.6-2.6c-6.6-6.6-17.3-6.6-23.9,0l-37,37l-8.5-8.5l-6-5.9l-6-6c26.9-29.9,54-61,80-92.1c24.9-29.7,48.9-59.2,70.8-87.4c43.6-56.1,79.2-106.8,98-142.5l-28.3-28.3c-35.8,18.9-86.9,54.7-143.3,98.7c-39.8,31-82.3,66.1-124,102.1c-55.9,48.3-110.3,98.2-155.1,142.6l6.1,6.1L637.4,453.6z"/></g><g></g><g></g><g></g><g></g><g></g><g></g><g></g><g></g><g></g><g></g><g></g><g></g><g></g><g></g><g></g></g>
</svg>