<svg xmlns="http://www.w3.org/2000/svg" xmlns:xlink="http://www.w3.org/1999/xlink" viewBox="0 0 165 115.4"><defs><style>.cls-1,.cls-4{stroke:#090909;}.cls-1,.cls-2,.cls-3,.cls-4{stroke-miterlimit:10;}.cls-1,.cls-3,.cls-4{stroke-width:1.03px;}.cls-1{fill:url(#radial-gradient);}.cls-2{stroke:#ad6faa;stroke-width:1.34px;fill:url(#radial-gradient-2);}.cls-3{fill:#090909;stroke:#73436c;}.cls-4{fill:#050505;opacity:0.5;}.cls-5{font-size:40.06px;fill:#b100b9;font-family:Quicksand-Bold, Quicksand;font-weight:700;}</style><radialGradient id="radial-gradient" cx="77.07" cy="13.57" r="8.59" gradientUnits="userSpaceOnUse"><stop offset="0" stop-color="#fff"/><stop offset="0.17" stop-color="#bcdef3"/><stop offset="0.36" stop-color="#78bde8"/><stop offset="0.51" stop-color="#46a5df"/><stop offset="0.63" stop-color="#2797da"/><stop offset="0.7" stop-color="#1c91d8"/></radialGradient><radialGradient id="radial-gradient-2" cx="82.51" cy="57.71" r="70.54" gradientUnits="userSpaceOnUse"><stop offset="0" stop-color="#fff"/><stop offset="0.14" stop-color="#f8e0f5"/><stop offset="0.4" stop-color="#eeafe5"/><stop offset="0.59" stop-color="#e790dc"/><stop offset="0.7" stop-color="#e585d8"/></radialGradient></defs><title>pig</title><g id="Layer_2" data-name="Layer 2"><g id="pig"><rect class="cls-1" x="65.2" y="11" width="23.7" height="5.16"/><path class="cls-2" d="M164.3,47.1c-1-13.4-16.5-12.4-18.6-4.1s0,8.3,0,8.3h4.2s-2.1-11.4,5.1-10.4,6.2,8.3,3.1,10.4H141.4v.4c-2.3-27.9-30.6-50-65.1-50A76.2,76.2,0,0,0,46.5,7.6,8.3,8.3,0,0,0,30.1,8.9v8.5A52.2,52.2,0,0,0,13.2,41.5h-.1A12.3,12.3,0,0,0,.7,53.8v3.1A12.3,12.3,0,0,0,13.1,69.3h.1c3.6,10.9,11.2,20.4,21.4,27.4a11.8,11.8,0,0,0-.9,4.6v1.1a12.3,12.3,0,0,0,23.9,4.4,76,76,0,0,0,18.7,2.3,74,74,0,0,0,19.1-2.4,12.4,12.4,0,0,0,24-4.3v-1.1a13.4,13.4,0,0,0-1-4.9c14-9.7,23-24.2,23.2-40.5v.5a54.8,54.8,0,0,0,6.8.6C155.3,57.1,165,55.8,164.3,47.1Z"/><circle class="cls-3" cx="35.8" cy="34.2" r="6.7"/><rect class="cls-4" x="65.2" y="8.9" width="23.7" height="5.16"/><text class="cls-5" transform="translate(67.6 68.3)">$</text></g></g></svg>