<svg id="Layer_1" data-name="Layer 1" xmlns="http://www.w3.org/2000/svg" viewBox="0 0 500 500"><defs><style>.cls-1{fill:#fff;}.cls-2{fill:#f48121;}.cls-3{fill:#ffd653;}.cls-4{fill:#f2b921;}.cls-5{fill:none;stroke:#000;stroke-linecap:round;stroke-linejoin:round;stroke-width:20px;}.cls-6{fill:#d7d7d7;}.cls-7{fill:#d56e27;}</style></defs><title>toothpaste</title><rect class="cls-1" x="272.63" y="88.72" width="237.22" height="39.89" transform="translate(191.42 -244.82) rotate(45)"/><polygon class="cls-2" points="58.53 401.76 31.56 428.73 10.79 449.5 50.6 489.31 71.38 468.54 98.35 441.57 58.53 401.76"/><polygon class="cls-3" points="186.94 414.97 84.92 312.96 293.27 38.89 461.01 206.63 186.94 414.97"/><polygon class="cls-4" points="436.14 181.76 162.07 390.11 186.94 414.97 461.01 206.63 436.14 181.76"/><polygon class="cls-5" points="186.94 414.97 84.92 312.96 293.27 38.89 461.01 206.63 186.94 414.97"/><polygon class="cls-1" points="98.69 441.91 58.53 401.76 84.92 312.96 186.94 414.97 98.69 441.91"/><rect class="cls-6" x="442.73" y="162.51" width="39.89" height="35.17" transform="translate(8.17 379.91) rotate(-45)"/><polygon class="cls-7" points="73.48 416.7 46.51 443.67 25.73 464.45 50.6 489.31 71.38 468.54 98.35 441.57 73.48 416.7"/><polygon class="cls-6" points="162.07 390.11 73.83 417.05 98.69 441.91 186.94 414.97 162.07 390.11"/><polygon class="cls-5" points="98.69 441.91 58.53 401.76 84.92 312.96 186.94 414.97 98.69 441.91"/><rect class="cls-5" x="26.42" y="411.77" width="56.3" height="67.52" transform="translate(331.02 91.91) rotate(45)"/><rect class="cls-5" x="36.8" y="416.08" width="56.3" height="38.14" transform="translate(326.72 81.52) rotate(45)"/><rect class="cls-5" x="272.63" y="88.72" width="237.22" height="39.89" transform="translate(191.42 -244.82) rotate(45)"/></svg>